G04*
G04 #@! TF.GenerationSoftware,Altium Limited,Altium Designer,21.1.0 (24)*
G04*
G04 Layer_Color=65535*
%FSLAX25Y25*%
%MOIN*%
G70*
G04*
G04 #@! TF.SameCoordinates,40E11F36-D20F-4FD9-B815-0A3DC11206FA*
G04*
G04*
G04 #@! TF.FilePolarity,Positive*
G04*
G01*
G75*
%ADD10C,0.00800*%
%ADD11C,0.01000*%
%ADD12C,0.01500*%
D10*
X-115000Y-81500D02*
Y-21000D01*
X-90400Y-81600D02*
X-90000Y-82000D01*
X-90400Y-81600D02*
Y-21000D01*
X-65000Y-71000D02*
X7500D01*
X-65000Y-57000D02*
X7500D01*
X-65000Y-43000D02*
X7500D01*
X-65000Y-32000D02*
X7500D01*
X-65000Y-81900D02*
X7500Y-82000D01*
Y-21000D01*
X-65000D02*
X7500D01*
X-149000Y-71000D02*
X-65000D01*
X-149000Y-57000D02*
X-65000D01*
X-149000Y-43000D02*
X-65000D01*
X-149000Y-32000D02*
X-65000D01*
X-149000Y-23500D02*
Y-21000D01*
X-65000D01*
Y-23000D02*
Y-21000D01*
Y-81900D02*
Y-23000D01*
X-149000Y-82000D02*
X-65000Y-81900D01*
X-149000Y-82000D02*
Y-23500D01*
X-57000Y-30000D02*
Y-24002D01*
X-53001Y-30000D01*
Y-24002D01*
X-50002Y-30000D02*
X-48003D01*
X-47003Y-29000D01*
Y-27001D01*
X-48003Y-26001D01*
X-50002D01*
X-51002Y-27001D01*
Y-29000D01*
X-50002Y-30000D01*
X-44004Y-25002D02*
Y-26001D01*
X-45004D01*
X-43005D01*
X-44004D01*
Y-29000D01*
X-43005Y-30000D01*
X-37007D02*
X-39006D01*
X-40005Y-29000D01*
Y-27001D01*
X-39006Y-26001D01*
X-37007D01*
X-36007Y-27001D01*
Y-28001D01*
X-40005D01*
X-53501Y-68000D02*
Y-63002D01*
X-56000Y-65501D01*
X-52668D01*
X-51002Y-68000D02*
Y-63002D01*
Y-66334D02*
X-48502Y-64668D01*
X-51002Y-66334D02*
X-48502Y-68000D01*
X-41005D02*
Y-63002D01*
X-38506D01*
X-37673Y-63835D01*
Y-65501D01*
X-38506Y-66334D01*
X-41005D01*
X-39339D02*
X-37673Y-68000D01*
X-33507D02*
X-35173D01*
X-36007Y-67167D01*
Y-65501D01*
X-35173Y-64668D01*
X-33507D01*
X-32674Y-65501D01*
Y-66334D01*
X-36007D01*
X-30175Y-68000D02*
Y-63835D01*
Y-65501D01*
X-31008D01*
X-29342D01*
X-30175D01*
Y-63835D01*
X-29342Y-63002D01*
X-26843Y-64668D02*
Y-68000D01*
Y-66334D01*
X-26010Y-65501D01*
X-25177Y-64668D01*
X-24344D01*
X-19345Y-68000D02*
X-21011D01*
X-21844Y-67167D01*
Y-65501D01*
X-21011Y-64668D01*
X-19345D01*
X-18512Y-65501D01*
Y-66334D01*
X-21844D01*
X-16846Y-68000D02*
X-14347D01*
X-13514Y-67167D01*
X-14347Y-66334D01*
X-16013D01*
X-16846Y-65501D01*
X-16013Y-64668D01*
X-13514D01*
X-11848Y-63002D02*
Y-68000D01*
Y-65501D01*
X-11015Y-64668D01*
X-9348D01*
X-8515Y-65501D01*
Y-68000D01*
X-144100Y-74602D02*
X-143100Y-73602D01*
X-141101D01*
X-140101Y-74602D01*
Y-75601D01*
X-141101Y-76601D01*
X-142101D01*
X-141101D01*
X-140101Y-77601D01*
Y-78600D01*
X-141101Y-79600D01*
X-143100D01*
X-144100Y-78600D01*
X-134103Y-79600D02*
X-138102D01*
X-134103Y-75601D01*
Y-74602D01*
X-135103Y-73602D01*
X-137102D01*
X-138102Y-74602D01*
X-132104Y-79600D02*
Y-73602D01*
X-130104Y-75601D01*
X-128105Y-73602D01*
Y-79600D01*
X-126106Y-73602D02*
Y-79600D01*
X-123107D01*
X-122107Y-78600D01*
Y-77601D01*
X-123107Y-76601D01*
X-126106D01*
X-123107D01*
X-122107Y-75601D01*
Y-74602D01*
X-123107Y-73602D01*
X-126106D01*
X-108001Y-79500D02*
X-112000D01*
X-108001Y-75501D01*
Y-74502D01*
X-109001Y-73502D01*
X-111000D01*
X-112000Y-74502D01*
X-106002Y-76501D02*
X-102003D01*
X-100004Y-74502D02*
X-99004Y-73502D01*
X-97005D01*
X-96005Y-74502D01*
Y-75501D01*
X-97005Y-76501D01*
X-98005D01*
X-97005D01*
X-96005Y-77501D01*
Y-78500D01*
X-97005Y-79500D01*
X-99004D01*
X-100004Y-78500D01*
X-83001Y-79500D02*
X-87000D01*
X-83001Y-75501D01*
Y-74502D01*
X-84001Y-73502D01*
X-86000D01*
X-87000Y-74502D01*
X-81002Y-76501D02*
X-77003D01*
X-75004Y-74502D02*
X-74004Y-73502D01*
X-72005D01*
X-71005Y-74502D01*
Y-75501D01*
X-72005Y-76501D01*
X-73005D01*
X-72005D01*
X-71005Y-77501D01*
Y-78500D01*
X-72005Y-79500D01*
X-74004D01*
X-75004Y-78500D01*
X-84001Y-51700D02*
X-88000D01*
X-84001Y-47701D01*
Y-46702D01*
X-85001Y-45702D01*
X-87000D01*
X-88000Y-46702D01*
X-82002Y-48701D02*
X-78003D01*
X-76004Y-46702D02*
X-75004Y-45702D01*
X-73005D01*
X-72005Y-46702D01*
Y-47701D01*
X-73005Y-48701D01*
X-74005D01*
X-73005D01*
X-72005Y-49701D01*
Y-50700D01*
X-73005Y-51700D01*
X-75004D01*
X-76004Y-50700D01*
X-137766Y-36202D02*
X-136766Y-35202D01*
X-134767D01*
X-133767Y-36202D01*
Y-37201D01*
X-134767Y-38201D01*
X-133767Y-39201D01*
Y-40200D01*
X-134767Y-41200D01*
X-136766D01*
X-137766Y-40200D01*
Y-39201D01*
X-136766Y-38201D01*
X-137766Y-37201D01*
Y-36202D01*
X-136766Y-38201D02*
X-134767D01*
X-131768Y-41200D02*
Y-35202D01*
X-129769Y-37201D01*
X-127769Y-35202D01*
Y-41200D01*
X-125770Y-35202D02*
Y-41200D01*
X-122771D01*
X-121771Y-40200D01*
Y-39201D01*
X-122771Y-38201D01*
X-125770D01*
X-122771D01*
X-121771Y-37201D01*
Y-36202D01*
X-122771Y-35202D01*
X-125770D01*
X-108401Y-41300D02*
X-112400D01*
X-108401Y-37301D01*
Y-36302D01*
X-109401Y-35302D01*
X-111400D01*
X-112400Y-36302D01*
X-106402Y-38301D02*
X-102403D01*
X-100404Y-36302D02*
X-99404Y-35302D01*
X-97405D01*
X-96405Y-36302D01*
Y-37301D01*
X-97405Y-38301D01*
X-98405D01*
X-97405D01*
X-96405Y-39301D01*
Y-40300D01*
X-97405Y-41300D01*
X-99404D01*
X-100404Y-40300D01*
X-86996Y-41300D02*
X-84997D01*
X-85996D01*
Y-35302D01*
X-86996Y-36302D01*
X-81998Y-38301D02*
X-77999D01*
X-72001Y-41300D02*
X-76000D01*
X-72001Y-37301D01*
Y-36302D01*
X-73001Y-35302D01*
X-75000D01*
X-76000Y-36302D01*
X-82200Y-93001D02*
Y-98000D01*
Y-93001D02*
X-80296Y-98000D01*
X-78391Y-93001D02*
X-80296Y-98000D01*
X-78391Y-93001D02*
Y-98000D01*
X-74107Y-94667D02*
Y-98000D01*
Y-95381D02*
X-74583Y-94905D01*
X-75059Y-94667D01*
X-75773D01*
X-76249Y-94905D01*
X-76725Y-95381D01*
X-76963Y-96096D01*
Y-96572D01*
X-76725Y-97286D01*
X-76249Y-97762D01*
X-75773Y-98000D01*
X-75059D01*
X-74583Y-97762D01*
X-74107Y-97286D01*
X-69917Y-93001D02*
Y-98000D01*
Y-95381D02*
X-70393Y-94905D01*
X-70869Y-94667D01*
X-71583D01*
X-72059Y-94905D01*
X-72535Y-95381D01*
X-72773Y-96096D01*
Y-96572D01*
X-72535Y-97286D01*
X-72059Y-97762D01*
X-71583Y-98000D01*
X-70869D01*
X-70393Y-97762D01*
X-69917Y-97286D01*
X-68584Y-96096D02*
X-65727D01*
Y-95620D01*
X-65965Y-95144D01*
X-66203Y-94905D01*
X-66680Y-94667D01*
X-67394D01*
X-67870Y-94905D01*
X-68346Y-95381D01*
X-68584Y-96096D01*
Y-96572D01*
X-68346Y-97286D01*
X-67870Y-97762D01*
X-67394Y-98000D01*
X-66680D01*
X-66203Y-97762D01*
X-65727Y-97286D01*
X-60252Y-93001D02*
X-60014Y-93239D01*
X-59776Y-93001D01*
X-60014Y-92763D01*
X-60252Y-93001D01*
X-60014Y-94667D02*
Y-98000D01*
X-58895Y-94667D02*
Y-98000D01*
Y-95620D02*
X-58181Y-94905D01*
X-57705Y-94667D01*
X-56991D01*
X-56515Y-94905D01*
X-56277Y-95620D01*
Y-98000D01*
X-47469Y-94191D02*
X-47707Y-93715D01*
X-48184Y-93239D01*
X-48660Y-93001D01*
X-49612D01*
X-50088Y-93239D01*
X-50564Y-93715D01*
X-50802Y-94191D01*
X-51040Y-94905D01*
Y-96096D01*
X-50802Y-96810D01*
X-50564Y-97286D01*
X-50088Y-97762D01*
X-49612Y-98000D01*
X-48660D01*
X-48184Y-97762D01*
X-47707Y-97286D01*
X-47469Y-96810D01*
X-46065Y-93001D02*
Y-98000D01*
Y-95620D02*
X-45351Y-94905D01*
X-44875Y-94667D01*
X-44161D01*
X-43684Y-94905D01*
X-43446Y-95620D01*
Y-98000D01*
X-41661Y-93001D02*
X-41423Y-93239D01*
X-41185Y-93001D01*
X-41423Y-92763D01*
X-41661Y-93001D01*
X-41423Y-94667D02*
Y-98000D01*
X-40304Y-94667D02*
Y-98000D01*
Y-95620D02*
X-39590Y-94905D01*
X-39114Y-94667D01*
X-38400D01*
X-37924Y-94905D01*
X-37686Y-95620D01*
Y-98000D01*
X-33520Y-94667D02*
Y-98000D01*
Y-95381D02*
X-33996Y-94905D01*
X-34472Y-94667D01*
X-35186D01*
X-35662Y-94905D01*
X-36138Y-95381D01*
X-36377Y-96096D01*
Y-96572D01*
X-36138Y-97286D01*
X-35662Y-97762D01*
X-35186Y-98000D01*
X-34472D01*
X-33996Y-97762D01*
X-33520Y-97286D01*
X-111511Y-67100D02*
X-109511D01*
X-110511D01*
Y-61102D01*
X-111511Y-62102D01*
X-106512Y-64101D02*
X-102513D01*
X-96515Y-67100D02*
X-100514D01*
X-96515Y-63101D01*
Y-62102D01*
X-97515Y-61102D01*
X-99514D01*
X-100514Y-62102D01*
X-86766Y-67114D02*
X-84767D01*
X-85767D01*
Y-61116D01*
X-86766Y-62116D01*
X-81768Y-64115D02*
X-77769D01*
X-71771Y-67114D02*
X-75770D01*
X-71771Y-63116D01*
Y-62116D01*
X-72771Y-61116D01*
X-74770D01*
X-75770Y-62116D01*
X-111400Y-51800D02*
X-109401D01*
X-110400D01*
Y-45802D01*
X-111400Y-46802D01*
X-106402Y-48801D02*
X-102403D01*
X-96405Y-51800D02*
X-100404D01*
X-96405Y-47801D01*
Y-46802D01*
X-97404Y-45802D01*
X-99404D01*
X-100404Y-46802D01*
X-143500Y-67300D02*
X-141501D01*
X-142500D01*
Y-61302D01*
X-143500Y-62302D01*
X-134503Y-61302D02*
X-136502Y-62302D01*
X-138502Y-64301D01*
Y-66300D01*
X-137502Y-67300D01*
X-135503D01*
X-134503Y-66300D01*
Y-65301D01*
X-135503Y-64301D01*
X-138502D01*
X-132504Y-67300D02*
Y-61302D01*
X-130504Y-63301D01*
X-128505Y-61302D01*
Y-67300D01*
X-126505Y-61302D02*
Y-67300D01*
X-123506D01*
X-122507Y-66300D01*
Y-65301D01*
X-123506Y-64301D01*
X-126505D01*
X-123506D01*
X-122507Y-63301D01*
Y-62302D01*
X-123506Y-61302D01*
X-126505D01*
X-83401Y-24202D02*
X-85401D01*
X-84401D01*
Y-29200D01*
X-85401Y-30200D01*
X-86400D01*
X-87400Y-29200D01*
X-81402Y-30200D02*
Y-24202D01*
X-78403D01*
X-77403Y-25202D01*
Y-27201D01*
X-78403Y-28201D01*
X-81402D01*
X-71405Y-30200D02*
X-75404D01*
X-71405Y-26201D01*
Y-25202D01*
X-72405Y-24202D01*
X-74404D01*
X-75404Y-25202D01*
X-107801Y-24102D02*
X-109801D01*
X-108801D01*
Y-29100D01*
X-109801Y-30100D01*
X-110800D01*
X-111800Y-29100D01*
X-105802Y-30100D02*
Y-24102D01*
X-102803D01*
X-101803Y-25102D01*
Y-27101D01*
X-102803Y-28101D01*
X-105802D01*
X-99804Y-30100D02*
X-97804D01*
X-98804D01*
Y-24102D01*
X-99804Y-25102D01*
X-137501Y-24302D02*
X-138501Y-23302D01*
X-140500D01*
X-141500Y-24302D01*
Y-25301D01*
X-140500Y-26301D01*
X-138501D01*
X-137501Y-27301D01*
Y-28300D01*
X-138501Y-29300D01*
X-140500D01*
X-141500Y-28300D01*
X-135502Y-23302D02*
X-133503D01*
X-134502D01*
Y-29300D01*
X-135502D01*
X-133503D01*
X-130504D02*
Y-23302D01*
X-128504Y-25301D01*
X-126505Y-23302D01*
Y-29300D01*
X-124505D02*
Y-23302D01*
X-122506Y-25301D01*
X-120507Y-23302D01*
Y-29300D01*
X-143544Y-51559D02*
X-141545D01*
X-142545D01*
Y-45560D01*
X-143544Y-46560D01*
X-134547Y-45560D02*
X-136547Y-46560D01*
X-138546Y-48559D01*
Y-50559D01*
X-137546Y-51559D01*
X-135547D01*
X-134547Y-50559D01*
Y-49559D01*
X-135547Y-48559D01*
X-138546D01*
X-132548Y-51559D02*
Y-45560D01*
X-130549Y-47560D01*
X-128549Y-45560D01*
Y-51559D01*
X-126550Y-45560D02*
Y-51559D01*
X-123551D01*
X-122551Y-50559D01*
Y-49559D01*
X-123551Y-48559D01*
X-126550D01*
X-123551D01*
X-122551Y-47560D01*
Y-46560D01*
X-123551Y-45560D01*
X-126550D01*
X-81055Y-117359D02*
X-81626Y-117930D01*
X-82197Y-118787D01*
X-82769Y-119930D01*
X-83054Y-121358D01*
Y-122500D01*
X-82769Y-123929D01*
X-82197Y-125071D01*
X-81626Y-125928D01*
X-81055Y-126500D01*
X-81626Y-117930D02*
X-82197Y-119073D01*
X-82483Y-119930D01*
X-82769Y-121358D01*
Y-122500D01*
X-82483Y-123929D01*
X-82197Y-124786D01*
X-81626Y-125928D01*
X-76542Y-121358D02*
X-76827Y-121643D01*
X-76542Y-121929D01*
X-76256Y-121643D01*
Y-121358D01*
X-76827Y-120786D01*
X-77399Y-120501D01*
X-78255D01*
X-79112Y-120786D01*
X-79684Y-121358D01*
X-79969Y-122215D01*
Y-122786D01*
X-79684Y-123643D01*
X-79112Y-124214D01*
X-78255Y-124500D01*
X-77684D01*
X-76827Y-124214D01*
X-76256Y-123643D01*
X-78255Y-120501D02*
X-78827Y-120786D01*
X-79398Y-121358D01*
X-79684Y-122215D01*
Y-122786D01*
X-79398Y-123643D01*
X-78827Y-124214D01*
X-78255Y-124500D01*
X-75342Y-117359D02*
X-74770Y-117930D01*
X-74199Y-118787D01*
X-73628Y-119930D01*
X-73342Y-121358D01*
Y-122500D01*
X-73628Y-123929D01*
X-74199Y-125071D01*
X-74770Y-125928D01*
X-75342Y-126500D01*
X-74770Y-117930D02*
X-74199Y-119073D01*
X-73914Y-119930D01*
X-73628Y-121358D01*
Y-122500D01*
X-73914Y-123929D01*
X-74199Y-124786D01*
X-74770Y-125928D01*
X-72257Y-119644D02*
X-71685Y-119358D01*
X-70828Y-118501D01*
Y-124500D01*
X-71114Y-118787D02*
Y-124500D01*
X-72257D02*
X-69686D01*
X-64944Y-120501D02*
X-65230Y-121358D01*
X-65801Y-121929D01*
X-66658Y-122215D01*
X-66944D01*
X-67800Y-121929D01*
X-68372Y-121358D01*
X-68657Y-120501D01*
Y-120215D01*
X-68372Y-119358D01*
X-67800Y-118787D01*
X-66944Y-118501D01*
X-66372D01*
X-65515Y-118787D01*
X-64944Y-119358D01*
X-64658Y-120215D01*
Y-121929D01*
X-64944Y-123072D01*
X-65230Y-123643D01*
X-65801Y-124214D01*
X-66658Y-124500D01*
X-67515D01*
X-68086Y-124214D01*
X-68372Y-123643D01*
Y-123357D01*
X-68086Y-123072D01*
X-67800Y-123357D01*
X-68086Y-123643D01*
X-66944Y-122215D02*
X-67515Y-121929D01*
X-68086Y-121358D01*
X-68372Y-120501D01*
Y-120215D01*
X-68086Y-119358D01*
X-67515Y-118787D01*
X-66944Y-118501D01*
X-66372D02*
X-65801Y-118787D01*
X-65230Y-119358D01*
X-64944Y-120215D01*
Y-121929D01*
X-65230Y-123072D01*
X-65515Y-123643D01*
X-66087Y-124214D01*
X-66658Y-124500D01*
X-60059Y-120501D02*
X-60345Y-121358D01*
X-60916Y-121929D01*
X-61773Y-122215D01*
X-62059D01*
X-62916Y-121929D01*
X-63487Y-121358D01*
X-63773Y-120501D01*
Y-120215D01*
X-63487Y-119358D01*
X-62916Y-118787D01*
X-62059Y-118501D01*
X-61488D01*
X-60631Y-118787D01*
X-60059Y-119358D01*
X-59774Y-120215D01*
Y-121929D01*
X-60059Y-123072D01*
X-60345Y-123643D01*
X-60916Y-124214D01*
X-61773Y-124500D01*
X-62630D01*
X-63201Y-124214D01*
X-63487Y-123643D01*
Y-123357D01*
X-63201Y-123072D01*
X-62916Y-123357D01*
X-63201Y-123643D01*
X-62059Y-122215D02*
X-62630Y-121929D01*
X-63201Y-121358D01*
X-63487Y-120501D01*
Y-120215D01*
X-63201Y-119358D01*
X-62630Y-118787D01*
X-62059Y-118501D01*
X-61488D02*
X-60916Y-118787D01*
X-60345Y-119358D01*
X-60059Y-120215D01*
Y-121929D01*
X-60345Y-123072D01*
X-60631Y-123643D01*
X-61202Y-124214D01*
X-61773Y-124500D01*
X-57460Y-118501D02*
X-58317Y-118787D01*
X-58602Y-119358D01*
Y-120215D01*
X-58317Y-120786D01*
X-57460Y-121072D01*
X-56317D01*
X-55460Y-120786D01*
X-55175Y-120215D01*
Y-119358D01*
X-55460Y-118787D01*
X-56317Y-118501D01*
X-57460D01*
X-58031Y-118787D01*
X-58317Y-119358D01*
Y-120215D01*
X-58031Y-120786D01*
X-57460Y-121072D01*
X-56317D02*
X-55746Y-120786D01*
X-55460Y-120215D01*
Y-119358D01*
X-55746Y-118787D01*
X-56317Y-118501D01*
X-57460Y-121072D02*
X-58317Y-121358D01*
X-58602Y-121643D01*
X-58888Y-122215D01*
Y-123357D01*
X-58602Y-123929D01*
X-58317Y-124214D01*
X-57460Y-124500D01*
X-56317D01*
X-55460Y-124214D01*
X-55175Y-123929D01*
X-54889Y-123357D01*
Y-122215D01*
X-55175Y-121643D01*
X-55460Y-121358D01*
X-56317Y-121072D01*
X-57460D02*
X-58031Y-121358D01*
X-58317Y-121643D01*
X-58602Y-122215D01*
Y-123357D01*
X-58317Y-123929D01*
X-58031Y-124214D01*
X-57460Y-124500D01*
X-56317D02*
X-55746Y-124214D01*
X-55460Y-123929D01*
X-55175Y-123357D01*
Y-122215D01*
X-55460Y-121643D01*
X-55746Y-121358D01*
X-56317Y-121072D01*
X-47748Y-118501D02*
Y-124500D01*
X-47462Y-118501D02*
Y-124500D01*
X-48605Y-118501D02*
X-46605D01*
X-48605Y-124500D02*
X-44320D01*
Y-122786D01*
X-44605Y-124500D01*
X-42606Y-120501D02*
Y-123643D01*
X-42320Y-124214D01*
X-41463Y-124500D01*
X-40892D01*
X-40035Y-124214D01*
X-39464Y-123643D01*
X-42320Y-120501D02*
Y-123643D01*
X-42035Y-124214D01*
X-41463Y-124500D01*
X-39464Y-120501D02*
Y-124500D01*
X-39178Y-120501D02*
Y-124500D01*
X-43463Y-120501D02*
X-42320D01*
X-40321D02*
X-39178D01*
X-39464Y-124500D02*
X-38321D01*
X-34122Y-121358D02*
X-34408Y-121643D01*
X-34122Y-121929D01*
X-33836Y-121643D01*
Y-121358D01*
X-34408Y-120786D01*
X-34979Y-120501D01*
X-35836D01*
X-36693Y-120786D01*
X-37264Y-121358D01*
X-37550Y-122215D01*
Y-122786D01*
X-37264Y-123643D01*
X-36693Y-124214D01*
X-35836Y-124500D01*
X-35265D01*
X-34408Y-124214D01*
X-33836Y-123643D01*
X-35836Y-120501D02*
X-36407Y-120786D01*
X-36979Y-121358D01*
X-37264Y-122215D01*
Y-122786D01*
X-36979Y-123643D01*
X-36407Y-124214D01*
X-35836Y-124500D01*
X-32065Y-118501D02*
Y-124500D01*
X-31780Y-118501D02*
Y-124500D01*
X-28923Y-120501D02*
X-31780Y-123357D01*
X-30351Y-122215D02*
X-28637Y-124500D01*
X-30637Y-122215D02*
X-28923Y-124500D01*
X-32922Y-118501D02*
X-31780D01*
X-29780Y-120501D02*
X-28066D01*
X-32922Y-124500D02*
X-30923D01*
X-29780D02*
X-28066D01*
X-18154Y-119358D02*
X-17868Y-118501D01*
Y-120215D01*
X-18154Y-119358D01*
X-18725Y-118787D01*
X-19582Y-118501D01*
X-20439D01*
X-21296Y-118787D01*
X-21868Y-119358D01*
Y-119930D01*
X-21582Y-120501D01*
X-21296Y-120786D01*
X-20725Y-121072D01*
X-19011Y-121643D01*
X-18440Y-121929D01*
X-17868Y-122500D01*
X-21868Y-119930D02*
X-21296Y-120501D01*
X-20725Y-120786D01*
X-19011Y-121358D01*
X-18440Y-121643D01*
X-18154Y-121929D01*
X-17868Y-122500D01*
Y-123643D01*
X-18440Y-124214D01*
X-19297Y-124500D01*
X-20154D01*
X-21011Y-124214D01*
X-21582Y-123643D01*
X-21868Y-122786D01*
Y-124500D01*
X-21582Y-123643D01*
X-15269Y-124500D02*
X-15555Y-124214D01*
X-15840Y-123357D01*
Y-118501D01*
X-16126D01*
Y-123357D01*
X-15840Y-124214D01*
X-15269Y-124500D01*
X-14698D01*
X-14126Y-124214D01*
X-13841Y-123643D01*
X-16983Y-120501D02*
X-14698D01*
X-12298Y-121072D02*
Y-121358D01*
X-12584D01*
Y-121072D01*
X-12298Y-120786D01*
X-11727Y-120501D01*
X-10584D01*
X-10013Y-120786D01*
X-9727Y-121072D01*
X-9442Y-121643D01*
Y-123643D01*
X-9156Y-124214D01*
X-8870Y-124500D01*
X-9727Y-121072D02*
Y-123643D01*
X-9442Y-124214D01*
X-8870Y-124500D01*
X-8585D01*
X-9727Y-121643D02*
X-10013Y-121929D01*
X-11727Y-122215D01*
X-12584Y-122500D01*
X-12869Y-123072D01*
Y-123643D01*
X-12584Y-124214D01*
X-11727Y-124500D01*
X-10870D01*
X-10299Y-124214D01*
X-9727Y-123643D01*
X-11727Y-122215D02*
X-12298Y-122500D01*
X-12584Y-123072D01*
Y-123643D01*
X-12298Y-124214D01*
X-11727Y-124500D01*
X-6871Y-120501D02*
Y-124500D01*
X-6585Y-120501D02*
Y-124500D01*
Y-122215D02*
X-6299Y-121358D01*
X-5728Y-120786D01*
X-5157Y-120501D01*
X-4300D01*
X-4014Y-120786D01*
Y-121072D01*
X-4300Y-121358D01*
X-4586Y-121072D01*
X-4300Y-120786D01*
X-7728Y-120501D02*
X-6585D01*
X-7728Y-124500D02*
X-5728D01*
X6298Y-119358D02*
X6583Y-120215D01*
Y-118501D01*
X6298Y-119358D01*
X5727Y-118787D01*
X4870Y-118501D01*
X4298D01*
X3441Y-118787D01*
X2870Y-119358D01*
X2584Y-119930D01*
X2299Y-120786D01*
Y-122215D01*
X2584Y-123072D01*
X2870Y-123643D01*
X3441Y-124214D01*
X4298Y-124500D01*
X4870D01*
X5727Y-124214D01*
X6298Y-123643D01*
X6583Y-123072D01*
X4298Y-118501D02*
X3727Y-118787D01*
X3156Y-119358D01*
X2870Y-119930D01*
X2584Y-120786D01*
Y-122215D01*
X2870Y-123072D01*
X3156Y-123643D01*
X3727Y-124214D01*
X4298Y-124500D01*
X9154Y-120501D02*
X8298Y-120786D01*
X7726Y-121358D01*
X7440Y-122215D01*
Y-122786D01*
X7726Y-123643D01*
X8298Y-124214D01*
X9154Y-124500D01*
X9726D01*
X10583Y-124214D01*
X11154Y-123643D01*
X11440Y-122786D01*
Y-122215D01*
X11154Y-121358D01*
X10583Y-120786D01*
X9726Y-120501D01*
X9154D01*
X8583Y-120786D01*
X8012Y-121358D01*
X7726Y-122215D01*
Y-122786D01*
X8012Y-123643D01*
X8583Y-124214D01*
X9154Y-124500D01*
X9726D02*
X10297Y-124214D01*
X10868Y-123643D01*
X11154Y-122786D01*
Y-122215D01*
X10868Y-121358D01*
X10297Y-120786D01*
X9726Y-120501D01*
X12611Y-124500D02*
X12325Y-124214D01*
X12611Y-123929D01*
X12897Y-124214D01*
Y-124786D01*
X12611Y-125357D01*
X12325Y-125643D01*
X20381Y-118501D02*
Y-124500D01*
X20666Y-118501D02*
Y-124500D01*
X19524Y-118501D02*
X21523D01*
X19524Y-124500D02*
X23808D01*
Y-122786D01*
X23523Y-124500D01*
X26665Y-118501D02*
Y-124500D01*
X26951Y-118501D02*
Y-124500D01*
X24951Y-118501D02*
X24665Y-120215D01*
Y-118501D01*
X28950D01*
Y-120215D01*
X28664Y-118501D01*
X25808Y-124500D02*
X27808D01*
X30664Y-118501D02*
Y-124500D01*
X30950Y-118501D02*
Y-124500D01*
X29807Y-118501D02*
X32664D01*
X33521Y-118787D01*
X34092Y-119358D01*
X34378Y-119930D01*
X34663Y-120786D01*
Y-122215D01*
X34378Y-123072D01*
X34092Y-123643D01*
X33521Y-124214D01*
X32664Y-124500D01*
X29807D01*
X32664Y-118501D02*
X33235Y-118787D01*
X33806Y-119358D01*
X34092Y-119930D01*
X34378Y-120786D01*
Y-122215D01*
X34092Y-123072D01*
X33806Y-123643D01*
X33235Y-124214D01*
X32664Y-124500D01*
X35749Y-123929D02*
X35463Y-124214D01*
X35749Y-124500D01*
X36034Y-124214D01*
X35749Y-123929D01*
X-56200Y-34102D02*
Y-39100D01*
X-53701D01*
X-52868Y-38267D01*
Y-34935D01*
X-53701Y-34102D01*
X-56200D01*
X-50369Y-39100D02*
X-48702D01*
X-47869Y-38267D01*
Y-36601D01*
X-48702Y-35768D01*
X-50369D01*
X-51202Y-36601D01*
Y-38267D01*
X-50369Y-39100D01*
X-46203Y-35768D02*
Y-38267D01*
X-45370Y-39100D01*
X-42871D01*
Y-35768D01*
X-41205Y-34102D02*
Y-39100D01*
X-38706D01*
X-37873Y-38267D01*
Y-37434D01*
Y-36601D01*
X-38706Y-35768D01*
X-41205D01*
X-36206Y-39100D02*
X-34540D01*
X-35373D01*
Y-34102D01*
X-36206D01*
X-29542Y-39100D02*
X-31208D01*
X-32041Y-38267D01*
Y-36601D01*
X-31208Y-35768D01*
X-29542D01*
X-28709Y-36601D01*
Y-37434D01*
X-32041D01*
X-18712Y-34935D02*
X-19545Y-34102D01*
X-21211D01*
X-22044Y-34935D01*
Y-35768D01*
X-21211Y-36601D01*
X-19545D01*
X-18712Y-37434D01*
Y-38267D01*
X-19545Y-39100D01*
X-21211D01*
X-22044Y-38267D01*
X-17046Y-39100D02*
X-15380D01*
X-16213D01*
Y-35768D01*
X-17046D01*
X-9548Y-34102D02*
Y-39100D01*
X-12048D01*
X-12881Y-38267D01*
Y-36601D01*
X-12048Y-35768D01*
X-9548D01*
X-5383Y-39100D02*
X-7049D01*
X-7882Y-38267D01*
Y-36601D01*
X-7049Y-35768D01*
X-5383D01*
X-4550Y-36601D01*
Y-37434D01*
X-7882D01*
X448Y-34102D02*
Y-39100D01*
X-2051D01*
X-2884Y-38267D01*
Y-36601D01*
X-2051Y-35768D01*
X448D01*
X-52668Y-50300D02*
X-56000D01*
X-52668Y-46968D01*
Y-46135D01*
X-53501Y-45302D01*
X-55167D01*
X-56000Y-46135D01*
X-51002Y-50300D02*
Y-45302D01*
Y-48634D02*
X-48502Y-46968D01*
X-51002Y-48634D02*
X-48502Y-50300D01*
X-41005D02*
Y-45302D01*
X-38506D01*
X-37673Y-46135D01*
Y-47801D01*
X-38506Y-48634D01*
X-41005D01*
X-39339D02*
X-37673Y-50300D01*
X-33507D02*
X-35173D01*
X-36007Y-49467D01*
Y-47801D01*
X-35173Y-46968D01*
X-33507D01*
X-32674Y-47801D01*
Y-48634D01*
X-36007D01*
X-30175Y-50300D02*
Y-46135D01*
Y-47801D01*
X-31008D01*
X-29342D01*
X-30175D01*
Y-46135D01*
X-29342Y-45302D01*
X-26843Y-46968D02*
Y-50300D01*
Y-48634D01*
X-26010Y-47801D01*
X-25177Y-46968D01*
X-24344D01*
X-19345Y-50300D02*
X-21011D01*
X-21844Y-49467D01*
Y-47801D01*
X-21011Y-46968D01*
X-19345D01*
X-18512Y-47801D01*
Y-48634D01*
X-21844D01*
X-16846Y-50300D02*
X-14347D01*
X-13514Y-49467D01*
X-14347Y-48634D01*
X-16013D01*
X-16846Y-47801D01*
X-16013Y-46968D01*
X-13514D01*
X-11848Y-45302D02*
Y-50300D01*
Y-47801D01*
X-11015Y-46968D01*
X-9348D01*
X-8515Y-47801D01*
Y-50300D01*
D11*
X-198800Y20396D02*
Y30396D01*
X-208800Y20396D02*
Y30396D01*
X-178800D01*
Y20396D02*
Y30396D01*
X-208800Y20396D02*
X-178800D01*
X-198800Y30396D02*
Y40396D01*
X-208800Y30396D02*
Y40396D01*
X-178800D01*
Y30396D02*
Y40396D01*
X-208800Y30396D02*
X-178800D01*
X-227638Y-18500D02*
X-190900D01*
X-227638D02*
Y11000D01*
X227425Y-18400D02*
Y11000D01*
X195500D02*
X227425D01*
X192000D02*
X195500D01*
X-190800Y-18500D02*
X227425Y-18400D01*
X-227638Y11000D02*
X192000D01*
X-226301Y28594D02*
X-228301D01*
X-227301D01*
Y23596D01*
X-228301Y22596D01*
X-229300D01*
X-230300Y23596D01*
X-224302Y22596D02*
Y28594D01*
X-221303D01*
X-220303Y27594D01*
Y25595D01*
X-221303Y24595D01*
X-224302D01*
X-214305Y22596D02*
X-218304D01*
X-214305Y26595D01*
Y27594D01*
X-215305Y28594D01*
X-217304D01*
X-218304Y27594D01*
X-225901Y39194D02*
X-227901D01*
X-226901D01*
Y34196D01*
X-227901Y33196D01*
X-228900D01*
X-229900Y34196D01*
X-223902Y33196D02*
Y39194D01*
X-220903D01*
X-219903Y38195D01*
Y36195D01*
X-220903Y35195D01*
X-223902D01*
X-217904Y33196D02*
X-215904D01*
X-216904D01*
Y39194D01*
X-217904Y38195D01*
X-205300Y48652D02*
X-204729Y48938D01*
X-203872Y49795D01*
Y43796D01*
X-195902Y48367D02*
Y48652D01*
X-195616Y49224D01*
X-195331Y49509D01*
X-194759Y49795D01*
X-193617D01*
X-193045Y49509D01*
X-192760Y49224D01*
X-192474Y48652D01*
Y48081D01*
X-192760Y47510D01*
X-193331Y46653D01*
X-196188Y43796D01*
X-192189D01*
X-185561Y49795D02*
X-182419D01*
X-184133Y47510D01*
X-183276D01*
X-182705Y47224D01*
X-182419Y46938D01*
X-182133Y46081D01*
Y45510D01*
X-182419Y44653D01*
X-182991Y44082D01*
X-183847Y43796D01*
X-184704D01*
X-185561Y44082D01*
X-185847Y44367D01*
X-186133Y44939D01*
X-223501Y-22503D02*
X-224501Y-21504D01*
X-226500D01*
X-227500Y-22503D01*
Y-23503D01*
X-226500Y-24503D01*
X-224501D01*
X-223501Y-25502D01*
Y-26502D01*
X-224501Y-27502D01*
X-226500D01*
X-227500Y-26502D01*
X-221502Y-21504D02*
X-219503D01*
X-220502D01*
Y-27502D01*
X-221502D01*
X-219503D01*
X-216504D02*
Y-21504D01*
X-214504Y-23503D01*
X-212505Y-21504D01*
Y-27502D01*
X-210506D02*
Y-21504D01*
X-208506Y-23503D01*
X-206507Y-21504D01*
Y-27502D01*
X-204507D02*
X-202508D01*
X-203508D01*
Y-21504D01*
X-204507Y-22503D01*
D12*
X-215759Y-124123D02*
X-219568Y-114126D01*
X-223377Y-124123D01*
X-221948Y-120791D02*
X-217187D01*
X-213426Y-114126D02*
X-211046Y-124123D01*
X-208665Y-114126D02*
X-211046Y-124123D01*
X-208665Y-114126D02*
X-206285Y-124123D01*
X-203905Y-114126D02*
X-206285Y-124123D01*
X-195716Y-114126D02*
X-201905D01*
Y-124123D01*
X-195716D01*
X-201905Y-118886D02*
X-198096D01*
X-188337Y-115554D02*
X-188813Y-114602D01*
X-190241Y-114126D01*
X-191193D01*
X-192621Y-114602D01*
X-193573Y-116030D01*
X-194050Y-118410D01*
Y-120791D01*
X-193573Y-122695D01*
X-192621Y-123647D01*
X-191193Y-124123D01*
X-190717D01*
X-189289Y-123647D01*
X-188337Y-122695D01*
X-187860Y-121267D01*
Y-120791D01*
X-188337Y-119362D01*
X-189289Y-118410D01*
X-190717Y-117934D01*
X-191193D01*
X-192621Y-118410D01*
X-193573Y-119362D01*
X-194050Y-120791D01*
X-180910Y-114126D02*
X-185670Y-120791D01*
X-178529D01*
X-180910Y-114126D02*
Y-124123D01*
X-161771Y-116506D02*
X-162247Y-115554D01*
X-163199Y-114602D01*
X-164151Y-114126D01*
X-166056D01*
X-167008Y-114602D01*
X-167960Y-115554D01*
X-168436Y-116506D01*
X-168912Y-117934D01*
Y-120315D01*
X-168436Y-121743D01*
X-167960Y-122695D01*
X-167008Y-123647D01*
X-166056Y-124123D01*
X-164151D01*
X-163199Y-123647D01*
X-162247Y-122695D01*
X-161771Y-121743D01*
Y-120315D01*
X-164151D02*
X-161771D01*
X-157105Y-117458D02*
X-158057Y-117934D01*
X-159009Y-118886D01*
X-159485Y-120315D01*
Y-121267D01*
X-159009Y-122695D01*
X-158057Y-123647D01*
X-157105Y-124123D01*
X-155677D01*
X-154725Y-123647D01*
X-153772Y-122695D01*
X-153296Y-121267D01*
Y-120315D01*
X-153772Y-118886D01*
X-154725Y-117934D01*
X-155677Y-117458D01*
X-157105D01*
X-151106Y-114126D02*
Y-124123D01*
X-143298Y-114126D02*
Y-124123D01*
Y-118886D02*
X-144251Y-117934D01*
X-145203Y-117458D01*
X-146631D01*
X-147583Y-117934D01*
X-148536Y-118886D01*
X-149012Y-120315D01*
Y-121267D01*
X-148536Y-122695D01*
X-147583Y-123647D01*
X-146631Y-124123D01*
X-145203D01*
X-144251Y-123647D01*
X-143298Y-122695D01*
X-220035Y-97630D02*
X-220987Y-96678D01*
X-222415Y-96202D01*
X-224320D01*
X-225748Y-96678D01*
X-226700Y-97630D01*
Y-98583D01*
X-226224Y-99535D01*
X-225748Y-100011D01*
X-224796Y-100487D01*
X-221939Y-101439D01*
X-220987Y-101915D01*
X-220511Y-102391D01*
X-220035Y-103343D01*
Y-104772D01*
X-220987Y-105724D01*
X-222415Y-106200D01*
X-224320D01*
X-225748Y-105724D01*
X-226700Y-104772D01*
X-217797Y-96202D02*
Y-106200D01*
X-215702Y-96202D02*
Y-106200D01*
Y-96202D02*
X-211894Y-106200D01*
X-208085Y-96202D02*
X-211894Y-106200D01*
X-208085Y-96202D02*
Y-106200D01*
X-205228Y-96202D02*
Y-106200D01*
Y-96202D02*
X-201420Y-106200D01*
X-197611Y-96202D02*
X-201420Y-106200D01*
X-197611Y-96202D02*
Y-106200D01*
X-187613Y-98583D02*
X-188089Y-97630D01*
X-189041Y-96678D01*
X-189994Y-96202D01*
X-191898D01*
X-192850Y-96678D01*
X-193802Y-97630D01*
X-194278Y-98583D01*
X-194755Y-100011D01*
Y-102391D01*
X-194278Y-103820D01*
X-193802Y-104772D01*
X-192850Y-105724D01*
X-191898Y-106200D01*
X-189994D01*
X-189041Y-105724D01*
X-188089Y-104772D01*
X-187613Y-103820D01*
X-182424Y-99535D02*
X-183376Y-100011D01*
X-184328Y-100963D01*
X-184804Y-102391D01*
Y-103343D01*
X-184328Y-104772D01*
X-183376Y-105724D01*
X-182424Y-106200D01*
X-180996D01*
X-180043Y-105724D01*
X-179091Y-104772D01*
X-178615Y-103343D01*
Y-102391D01*
X-179091Y-100963D01*
X-180043Y-100011D01*
X-180996Y-99535D01*
X-182424D01*
X-176425D02*
Y-106200D01*
Y-101439D02*
X-174997Y-100011D01*
X-174045Y-99535D01*
X-172616D01*
X-171664Y-100011D01*
X-171188Y-101439D01*
Y-106200D01*
X-168570Y-99535D02*
Y-106200D01*
Y-101439D02*
X-167141Y-100011D01*
X-166189Y-99535D01*
X-164761D01*
X-163809Y-100011D01*
X-163333Y-101439D01*
Y-106200D01*
X-149050Y-96202D02*
X-150002D01*
X-150954Y-96678D01*
X-151430Y-98106D01*
Y-106200D01*
X-152859Y-99535D02*
X-149526D01*
X-145241D02*
X-146193Y-100011D01*
X-147146Y-100963D01*
X-147622Y-102391D01*
Y-103343D01*
X-147146Y-104772D01*
X-146193Y-105724D01*
X-145241Y-106200D01*
X-143813D01*
X-142861Y-105724D01*
X-141909Y-104772D01*
X-141432Y-103343D01*
Y-102391D01*
X-141909Y-100963D01*
X-142861Y-100011D01*
X-143813Y-99535D01*
X-145241D01*
X-139242D02*
Y-106200D01*
Y-102391D02*
X-138767Y-100963D01*
X-137814Y-100011D01*
X-136862Y-99535D01*
X-135434D01*
M02*
