G04*
G04 #@! TF.GenerationSoftware,Altium Limited,Altium Designer,21.1.0 (24)*
G04*
G04 Layer_Physical_Order=2*
G04 Layer_Color=16711680*
%FSLAX25Y25*%
%MOIN*%
G70*
G04*
G04 #@! TF.SameCoordinates,40E11F36-D20F-4FD9-B815-0A3DC11206FA*
G04*
G04*
G04 #@! TF.FilePolarity,Positive*
G04*
G01*
G75*
%ADD11C,0.01000*%
%ADD19C,0.02000*%
%ADD20C,0.03000*%
%ADD21C,0.04000*%
%ADD23C,0.06500*%
%ADD24R,0.06500X0.06500*%
%ADD25C,0.05000*%
%ADD26C,0.06000*%
%ADD27R,0.06000X0.06000*%
%ADD28R,0.06000X0.05000*%
%ADD29O,0.08661X0.02756*%
%ADD30R,0.08661X0.02756*%
%ADD31O,0.02756X0.08661*%
%ADD32R,0.02756X0.08661*%
%ADD33R,0.05000X0.06000*%
%ADD34O,0.02400X0.08000*%
%ADD35O,0.08000X0.02400*%
G04:AMPARAMS|DCode=36|XSize=24mil|YSize=80mil|CornerRadius=0mil|HoleSize=0mil|Usage=FLASHONLY|Rotation=270.000|XOffset=0mil|YOffset=0mil|HoleType=Round|Shape=Octagon|*
%AMOCTAGOND36*
4,1,8,0.04000,0.00600,0.04000,-0.00600,0.03400,-0.01200,-0.03400,-0.01200,-0.04000,-0.00600,-0.04000,0.00600,-0.03400,0.01200,0.03400,0.01200,0.04000,0.00600,0.0*
%
%ADD36OCTAGOND36*%

%ADD37C,0.02500*%
%ADD38C,0.02200*%
D11*
X-156000Y-37300D02*
X-154727Y-36773D01*
X-156000Y-37300D02*
X-154725Y-36770D01*
X174003Y-35800D02*
X173759Y-34820D01*
X173170Y-34000D01*
X172320Y-33457D01*
X171329Y-33266D01*
X165423D02*
X164432Y-33457D01*
X163581Y-34000D01*
X162992Y-34820D01*
X162749Y-35800D01*
X-95800Y-120500D02*
X-95270Y-121775D01*
X-95800Y-120500D02*
X-95273Y-121773D01*
X-92141Y-119814D02*
X-91338Y-119212D01*
X-90721Y-118420D01*
X-90333Y-117495D01*
X-90200Y-116500D01*
X-90331Y-115510D01*
X-90716Y-114588D01*
X-91328Y-113798D01*
X-92125Y-113195D01*
X-93051Y-112820D01*
X-94043Y-112700D01*
X-95032Y-112843D01*
X-95949Y-113238D01*
X-96732Y-113859D01*
X-97326Y-114662D01*
X-97690Y-115593D01*
X-97799Y-116586D01*
X-97645Y-117573D01*
X-97240Y-118486D01*
X-96610Y-119262D01*
X-95800Y-119847D01*
X-72400Y-108100D02*
X-71873Y-109373D01*
X-72400Y-108100D02*
X-71870Y-109375D01*
X-67873Y-113373D02*
X-66600Y-113900D01*
X-67875Y-113370D02*
X-66600Y-113900D01*
X-104900Y-58189D02*
X-103967Y-57910D01*
X-103196Y-57315D01*
X-102689Y-56484D01*
X-102512Y-55527D01*
Y-49621D02*
X-102860Y-48300D01*
X-89230Y-50970D02*
X-89405Y-50090D01*
X-89904Y-49344D01*
X-89230Y-50970D02*
X-89405Y-50090D01*
X-89904Y-49344D01*
X-73325Y-70830D02*
X-74600Y-70300D01*
X-73327Y-70827D02*
X-74600Y-70300D01*
X-68800Y-76100D02*
X-69327Y-74827D01*
X-68800Y-76100D02*
X-69330Y-74825D01*
X-65706Y-65479D02*
X-65116Y-66289D01*
X-64335Y-66916D01*
X-63417Y-67318D01*
X-62426Y-67466D01*
X-61431Y-67349D01*
X-60501Y-66977D01*
X-59701Y-66374D01*
X-59085Y-65583D01*
X-58698Y-64659D01*
X-58566Y-63666D01*
X-58699Y-62670D01*
X-59088Y-61744D01*
X-59707Y-60952D01*
X-60511Y-60350D01*
X-61445Y-59979D01*
X-62444Y-59867D01*
X-63437Y-60020D01*
X-64355Y-60428D01*
X-65134Y-61063D01*
X-65720Y-61879D01*
X83000Y-117573D02*
X82543Y-116709D01*
X81881Y-115989D01*
X81057Y-115463D01*
X80126Y-115164D01*
X79150Y-115113D01*
X78192Y-115312D01*
X77318Y-115749D01*
X76584Y-116395D01*
X76039Y-117207D01*
X75719Y-118131D01*
X75645Y-119106D01*
X75823Y-120067D01*
X76240Y-120951D01*
X76869Y-121700D01*
X62675Y-110830D02*
X61400Y-110300D01*
X62673Y-110827D02*
X61400Y-110300D01*
X83000Y-109673D02*
X82527Y-108786D01*
X81839Y-108055D01*
X80983Y-107529D01*
X80019Y-107246D01*
X79014Y-107226D01*
X78039Y-107469D01*
X77162Y-107960D01*
X76445Y-108663D01*
X75936Y-109530D01*
X75673Y-110499D01*
X75673Y-111504D01*
X75936Y-112474D01*
X76445Y-113340D01*
X77162Y-114044D01*
X78039Y-114534D01*
X79014Y-114778D01*
X80019Y-114757D01*
X80983Y-114474D01*
X81839Y-113949D01*
X82527Y-113217D01*
X83000Y-112330D01*
X122064Y-109160D02*
X121442Y-108329D01*
X120618Y-107698D01*
X119654Y-107313D01*
X118622Y-107203D01*
X117599Y-107377D01*
X116660Y-107821D01*
X129964Y-109160D02*
X129362Y-108351D01*
X128569Y-107728D01*
X127639Y-107335D01*
X126640Y-107202D01*
X125640Y-107335D01*
X124711Y-107728D01*
X123917Y-108351D01*
X123316Y-109160D01*
X135500Y-107325D02*
X134507Y-107202D01*
X133516Y-107342D01*
X132597Y-107736D01*
X131811Y-108356D01*
X131216Y-109160D01*
X100347Y-51200D02*
X99759Y-50387D01*
X98979Y-49756D01*
X98061Y-49351D01*
X97069Y-49201D01*
X96072Y-49315D01*
X95140Y-49687D01*
X94337Y-50289D01*
X93721Y-51080D01*
X93332Y-52005D01*
X93200Y-53000D01*
X93332Y-53995D01*
X93721Y-54920D01*
X94337Y-55711D01*
X95140Y-56314D01*
X96072Y-56685D01*
X97069Y-56799D01*
X98061Y-56649D01*
X98979Y-56244D01*
X99759Y-55613D01*
X100347Y-54800D01*
X215088Y-14321D02*
X215713Y-15073D01*
X216456Y-15709D01*
X217295Y-16211D01*
X218207Y-16565D01*
X219165Y-16760D01*
X220142Y-16792D01*
X221111Y-16660D01*
X222044Y-16366D01*
X222914Y-15920D01*
X223697Y-15334D01*
X224370Y-14625D01*
X224915Y-13813D01*
X225315Y-12921D01*
X225560Y-11974D01*
X225642Y-11000D01*
Y-11000D02*
X225552Y-9978D01*
X225283Y-8988D01*
X224843Y-8061D01*
X224247Y-7226D01*
X223514Y-6510D01*
X222665Y-5933D01*
X221728Y-5515D01*
X220732Y-5269D01*
X220732Y-5269D02*
X221764Y-4986D01*
X222718Y-4503D01*
X223558Y-3840D01*
X224248Y-3024D01*
X224762Y-2086D01*
X225079Y-1064D01*
X225186Y0D01*
X225088Y1017D01*
X224799Y1996D01*
X224329Y2902D01*
X223695Y3703D01*
X222920Y4368D01*
X222032Y4874D01*
X221065Y5201D01*
X220053Y5339D01*
X219034Y5282D01*
X218044Y5031D01*
X217119Y4597D01*
X216294Y3995D01*
X215599Y3247D01*
X215059Y2381D01*
X-224166Y-5146D02*
X-224856Y-5863D01*
X-225429Y-6677D01*
X-225871Y-7569D01*
X-226171Y-8518D01*
X-226323Y-9501D01*
X-226324Y-10496D01*
X-226172Y-11480D01*
X-225872Y-12429D01*
X-225430Y-13321D01*
X-224858Y-14135D01*
X-224168Y-14852D01*
X-223376Y-15455D01*
X-222502Y-15931D01*
X-221566Y-16267D01*
X-220589Y-16457D01*
X-219594Y-16495D01*
X-218605Y-16381D01*
X-217646Y-16118D01*
X-216738Y-15710D01*
X-215902Y-15170D01*
X-215159Y-14507D01*
X-214526Y-13740D01*
X-214018Y-12884D01*
X-213646Y-11961D01*
X-213419Y-10992D01*
X-213342Y-10000D01*
X-213121Y0D02*
X-213195Y996D01*
X-213416Y1969D01*
X-213779Y2899D01*
X-214275Y3765D01*
X-214894Y4548D01*
X-215622Y5231D01*
X-216443Y5799D01*
X-217340Y6238D01*
X-218291Y6540D01*
X-219277Y6697D01*
X-220275Y6707D01*
X-221264Y6569D01*
X-222221Y6286D01*
X-223126Y5865D01*
X-223958Y5314D01*
X-224700Y4646D01*
X-225334Y3875D01*
X-225848Y3019D01*
X-226229Y2096D01*
X-226469Y1127D01*
X-226562Y133D01*
X-226508Y-863D01*
X-226307Y-1841D01*
X-225963Y-2778D01*
X-225484Y-3654D01*
X-224880Y-4449D01*
X-224166Y-5146D01*
X-213342Y-10000D02*
X-213435Y-8909D01*
X-213709Y-7849D01*
X-214157Y-6850D01*
X-214766Y-5941D01*
X-215519Y-5146D01*
X-215519Y-5146D02*
X-214819Y-4466D01*
X-214226Y-3691D01*
X-213750Y-2839D01*
X-213403Y-1926D01*
X-213192Y-974D01*
X-213121Y-0D01*
X-212700Y-39410D02*
X-213208Y-40204D01*
X-213386Y-41130D01*
X-212170Y-17125D02*
X-212700Y-18400D01*
X-212173Y-17127D02*
X-212700Y-18400D01*
X-207870Y12175D02*
X-208400Y10900D01*
X-207873Y12173D02*
X-208400Y10900D01*
X-192527Y17427D02*
X-192000Y18700D01*
X-192530Y17425D02*
X-192000Y18700D01*
X-181829Y17711D02*
X-181216Y18623D01*
X-181000Y19700D01*
X-181833Y17707D02*
X-181217Y18620D01*
X-181000Y19700D01*
X-189250Y25396D02*
X-189369Y26429D01*
X-189719Y27408D01*
X-190283Y28283D01*
X-191030Y29006D01*
X-191922Y29541D01*
X-192912Y29859D01*
X-193949Y29944D01*
X-194978Y29791D01*
X-195945Y29409D01*
X-196800Y28817D01*
X-192000Y21217D02*
X-191084Y21745D01*
X-190315Y22470D01*
X-189734Y23353D01*
X-189373Y24346D01*
X-189250Y25396D01*
X-195695Y31260D02*
X-194737Y30944D01*
X-193732Y30847D01*
X-192731Y30974D01*
X-191782Y31318D01*
X-190933Y31863D01*
X-190225Y32582D01*
X-189692Y33439D01*
X-189362Y34393D01*
X-189250Y35396D01*
X-189357Y36375D01*
X-189671Y37307D01*
X-190179Y38151D01*
X-190856Y38865D01*
X-191671Y39417D01*
X-192585Y39781D01*
X-193557Y39940D01*
X-194540Y39886D01*
X-195488Y39621D01*
X-196357Y39160D01*
X-197107Y38521D01*
X-197702Y37737D01*
X-198114Y36843D01*
X-198324Y35882D01*
X-198323Y34897D01*
X-198109Y33936D01*
X-179250Y25396D02*
X-179365Y26411D01*
X-179703Y27375D01*
X-180248Y28239D01*
X-180971Y28960D01*
X-181838Y29501D01*
X-182803Y29836D01*
X-183818Y29946D01*
X-184833Y29827D01*
X-185795Y29485D01*
X-186657Y28937D01*
X-187375Y28210D01*
X-187913Y27342D01*
X-188243Y26375D01*
X-188350Y25360D01*
X-188227Y24345D01*
X-187881Y23384D01*
X-187329Y22525D01*
X-186600Y21810D01*
X-181000D02*
X-180265Y22532D01*
X-179711Y23401D01*
X-179367Y24372D01*
X-179250Y25396D01*
Y35396D02*
X-179356Y36374D01*
X-179671Y37307D01*
X-180178Y38150D01*
X-180854Y38864D01*
X-181669Y39416D01*
X-182583Y39780D01*
X-183554Y39939D01*
X-184536Y39886D01*
X-185484Y39623D01*
X-186353Y39162D01*
X-187103Y38525D01*
X-187699Y37742D01*
X-188112Y36849D01*
X-188323Y35888D01*
Y34904D01*
X-188112Y33943D01*
X-187699Y33050D01*
X-187103Y32267D01*
X-186353Y31630D01*
X-185484Y31169D01*
X-184536Y30906D01*
X-183554Y30853D01*
X-182583Y31012D01*
X-181669Y31376D01*
X-180854Y31928D01*
X-180178Y32642D01*
X-179671Y33486D01*
X-179356Y34418D01*
X-179250Y35396D01*
X-138770Y39975D02*
X-139300Y38700D01*
X-138773Y39973D02*
X-139300Y38700D01*
X-120189Y-104890D02*
Y-81708D01*
X166068Y24828D02*
X166098Y24798D01*
X162000Y28700D02*
X166068Y24828D01*
X-112500Y-5000D02*
Y-400D01*
Y-5400D02*
Y-5000D01*
X-117500Y5000D02*
Y38800D01*
Y4600D02*
Y5000D01*
X-97500Y5100D02*
X-92500Y100D01*
X47500Y-34000D02*
Y-5000D01*
X97500Y-28200D02*
Y-5000D01*
X132500Y5000D02*
Y5100D01*
Y-29100D02*
Y5000D01*
X148882Y-89000D02*
X174000D01*
X-150189Y-52574D02*
Y-45790D01*
X-120400Y-16000D01*
X-145189Y-45790D02*
X-119600Y-20200D01*
X-145189Y-52574D02*
Y-45790D01*
X-200786Y-43930D02*
X-195786D01*
X-200786D02*
X-200772Y-34272D01*
X-197620Y-31120D01*
X-154725Y-36770D02*
X-153651Y-35697D01*
X-153800Y-62533D02*
Y-35846D01*
X-156000Y-37300D02*
X-153660D01*
X-153811Y-64430D02*
X-153651Y-35697D01*
X-154600Y-64430D02*
Y-36646D01*
X-155400Y-64430D02*
Y-37197D01*
X-156200Y-64430D02*
Y-37300D01*
X-173000D02*
X-156000D01*
X-157000Y-64430D02*
Y-37300D01*
X-157800Y-64430D02*
Y-37300D01*
X-158600Y-64430D02*
Y-37300D01*
X-159400Y-64430D02*
Y-37300D01*
X-160200Y-64430D02*
Y-37300D01*
X-161000Y-64430D02*
Y-37300D01*
X-161800Y-64430D02*
Y-37300D01*
X-162600Y-64430D02*
Y-37300D01*
X-163400Y-64430D02*
Y-37300D01*
X-164200Y-64430D02*
Y-37300D01*
X-165000Y-64430D02*
Y-37300D01*
X-165800Y-64430D02*
Y-37300D01*
X-166600Y-64430D02*
Y-37300D01*
X-167400Y-64430D02*
Y-37300D01*
X-168200Y-64430D02*
Y-37300D01*
X-169000Y-64430D02*
Y-37300D01*
X-169800Y-64430D02*
Y-37300D01*
X-173000Y-39100D02*
Y-37300D01*
X-170600Y-64430D02*
Y-37300D01*
X-171400Y-64430D02*
Y-37300D01*
X-172200Y-64430D02*
Y-37300D01*
X-173000Y-64430D02*
X-153811D01*
X-153900Y-80600D02*
X-153874Y-75900D01*
X-153900Y-89300D02*
Y-80600D01*
X-154600Y-89300D02*
Y-75900D01*
X-155400Y-89300D02*
Y-75900D01*
X-156200Y-89300D02*
Y-75900D01*
X-157000Y-89300D02*
Y-75900D01*
X-157800Y-89300D02*
Y-75900D01*
X-158600Y-89300D02*
Y-75900D01*
X-171354D02*
X-153874D01*
X-171955Y-76500D02*
X-153877D01*
X-159400Y-89300D02*
Y-75900D01*
X-172755Y-77300D02*
X-153882D01*
X-160200Y-89300D02*
Y-75900D01*
X-161000Y-89300D02*
Y-75900D01*
X-161800Y-89300D02*
Y-75900D01*
X-162600Y-89300D02*
Y-75900D01*
X-173000Y-64430D02*
Y-38500D01*
X-163400Y-89300D02*
Y-75900D01*
X-164200Y-89300D02*
Y-75900D01*
X-165000Y-89300D02*
Y-75900D01*
X-165800Y-89300D02*
Y-75900D01*
X-166600Y-89300D02*
Y-75900D01*
X-167400Y-89300D02*
Y-75900D01*
X-168200Y-89300D02*
Y-75900D01*
X-169000Y-89300D02*
Y-75900D01*
X-169800Y-89300D02*
Y-75900D01*
X-173000Y-77546D02*
X-171354Y-75900D01*
X-173000Y-84000D02*
Y-77546D01*
X-170600Y-89300D02*
Y-75900D01*
X-171400Y-89300D02*
Y-75946D01*
X-172200Y-89300D02*
Y-76746D01*
X-173000Y-38100D02*
X-153665D01*
X-173000Y-38900D02*
X-153669D01*
X-173000Y-39700D02*
X-153674D01*
X-173000Y-40500D02*
X-153678D01*
X-173000Y-41300D02*
X-153682D01*
X-173000Y-42100D02*
X-153687D01*
X-173000Y-42900D02*
X-153691D01*
X-173000Y-43700D02*
X-153696D01*
X-173000Y-44500D02*
X-153700D01*
X-173000Y-45300D02*
X-153705D01*
X-173000Y-46100D02*
X-153709D01*
X-173000Y-46900D02*
X-153714D01*
X-173000Y-47700D02*
X-153718D01*
X-173000Y-48500D02*
X-153722D01*
X-173000Y-49300D02*
X-153727D01*
X-173000Y-50100D02*
X-153731D01*
X-173000Y-50900D02*
X-153736D01*
X-173000Y-51700D02*
X-153740D01*
X-173000Y-52500D02*
X-153744D01*
X-173000Y-53300D02*
X-153749D01*
X-173000Y-54100D02*
X-153753D01*
X-173000Y-54900D02*
X-153758D01*
X-173000Y-55700D02*
X-153762D01*
X-173000Y-56500D02*
X-153767D01*
X-173000Y-57300D02*
X-153771D01*
X-173000Y-58100D02*
X-153776D01*
X-173000Y-58900D02*
X-153780D01*
X-173000Y-59700D02*
X-153784D01*
X-173000Y-60500D02*
X-153789D01*
X-173000Y-61300D02*
X-153793D01*
X-173000Y-62100D02*
X-153798D01*
X-173000Y-37300D02*
X-156000D01*
X-173000Y-62900D02*
X-153802D01*
X-173000Y-63700D02*
X-153806D01*
X-173000Y-64430D02*
Y-37300D01*
Y-78100D02*
X-153886D01*
X-173000Y-78900D02*
X-153891D01*
X-173000Y-79700D02*
X-153895D01*
X-173000Y-84000D02*
Y-77546D01*
Y-80500D02*
X-153900D01*
X-173000Y-81300D02*
X-153900D01*
X-173000Y-82100D02*
X-153900D01*
X-173000Y-82900D02*
X-153900D01*
X-173000Y-83700D02*
X-153900D01*
X-215000Y-84500D02*
X-153900D01*
X-215000Y-84000D02*
X-173000D01*
Y-89300D02*
Y-84000D01*
X-173800Y-89300D02*
Y-84000D01*
X-174600Y-89300D02*
Y-84000D01*
X-175400Y-89300D02*
Y-84000D01*
X-176200Y-89300D02*
Y-84000D01*
X-177000Y-89300D02*
Y-84000D01*
X-177800Y-89300D02*
Y-84000D01*
X-178600Y-89300D02*
Y-84000D01*
X-179400Y-89300D02*
Y-84000D01*
X-180200Y-89300D02*
Y-84000D01*
X-181000Y-89300D02*
Y-84000D01*
X-181800Y-89300D02*
Y-84000D01*
X-182600Y-89300D02*
Y-84000D01*
X-183400Y-89300D02*
Y-84000D01*
X-184200Y-89300D02*
Y-84000D01*
X-185000Y-89300D02*
Y-84000D01*
X-185800Y-89300D02*
Y-84000D01*
X-186600Y-89300D02*
Y-84000D01*
X-187400Y-89300D02*
Y-84000D01*
X-188200Y-89300D02*
Y-84000D01*
X-189000Y-89300D02*
Y-84000D01*
X-189800Y-89300D02*
Y-84000D01*
X-190600Y-89300D02*
Y-84000D01*
X-215000Y-85300D02*
X-153900D01*
X-215000Y-86100D02*
X-153900D01*
X-215000Y-86900D02*
X-153900D01*
X-215000Y-87700D02*
X-153900D01*
X-215000Y-88500D02*
X-153900D01*
X-214455Y-89300D02*
X-153900D01*
X-191400D02*
Y-84000D01*
X-192200Y-89300D02*
Y-84000D01*
X-193000Y-89300D02*
Y-84000D01*
X-193800Y-89300D02*
Y-84000D01*
X-194600Y-89300D02*
Y-84000D01*
X-195400Y-89300D02*
Y-84000D01*
X-196200Y-89300D02*
Y-84000D01*
X-197000Y-89300D02*
Y-84000D01*
X-197800Y-89300D02*
Y-84000D01*
X-198600Y-89300D02*
Y-84000D01*
X-199400Y-89300D02*
Y-84000D01*
X-200200Y-89300D02*
Y-84000D01*
X-201000Y-89300D02*
Y-84000D01*
X-201800Y-89300D02*
Y-84000D01*
X-202600Y-89300D02*
Y-84000D01*
X-203400Y-89300D02*
Y-84000D01*
X-204200Y-89300D02*
Y-84000D01*
X-205000Y-89300D02*
Y-84000D01*
X-205800Y-89300D02*
Y-84000D01*
X-206600Y-89300D02*
Y-84000D01*
X-207400Y-89300D02*
Y-84000D01*
X-208200Y-89300D02*
Y-84000D01*
X-209000Y-89300D02*
Y-84000D01*
X-209800Y-89300D02*
Y-84000D01*
X-210600Y-89300D02*
Y-84000D01*
X-211400Y-89300D02*
Y-84000D01*
X-215000Y-88754D02*
Y-84000D01*
X-212200Y-89300D02*
Y-84000D01*
X-213000Y-89300D02*
Y-84000D01*
X-213800Y-89300D02*
Y-84000D01*
X-152600Y-32100D02*
Y-13600D01*
X-156000Y-35500D02*
X-152600Y-32100D01*
X-188500Y-35500D02*
X-156000D01*
X-190786Y-37786D02*
X-188500Y-35500D01*
X-190786Y-43930D02*
Y-37786D01*
X-233700Y-115000D02*
Y-57700D01*
X-227130Y-51130D02*
X-218086D01*
X-233700Y-57700D02*
X-227130Y-51130D01*
X-228900Y-112400D02*
Y-65300D01*
X-224830Y-61230D02*
X-218086D01*
X-228900Y-65300D02*
X-224830Y-61230D01*
X200900Y-33266D02*
Y-28500D01*
X200600Y-33266D02*
Y-28500D01*
X179000Y-13000D02*
X179034Y-18225D01*
X199800Y-33266D02*
Y-28500D01*
X199000Y-33266D02*
Y-28500D01*
X179000Y-18225D02*
Y-13000D01*
X173950Y-18225D02*
X179034D01*
X173950Y-25825D02*
X179083D01*
X179100Y-28500D02*
X200900D01*
X179083Y-25825D02*
X179100Y-28500D01*
X198200Y-33266D02*
Y-28500D01*
X197400Y-33266D02*
Y-28500D01*
X196600Y-33266D02*
Y-28500D01*
X195800Y-33266D02*
Y-28500D01*
X195000Y-33266D02*
Y-28500D01*
X194200Y-33266D02*
Y-28500D01*
X193400Y-33266D02*
Y-28500D01*
X192600Y-33266D02*
Y-28500D01*
X191879Y-33266D02*
X200900D01*
X171753Y-33300D02*
X191879D01*
X178200Y-18225D02*
Y-13000D01*
X177400Y-18225D02*
Y-13000D01*
X176600Y-18225D02*
Y-13000D01*
X175800Y-18225D02*
Y-13000D01*
X175000Y-18225D02*
Y-13000D01*
X174200Y-18225D02*
Y-13000D01*
X171800Y-33308D02*
Y-13000D01*
X171000Y-33266D02*
Y-13000D01*
X170200Y-33266D02*
Y-13000D01*
X169400Y-33266D02*
Y-13000D01*
X178250Y-22025D02*
Y-18725D01*
X174450Y-22025D02*
X178250D01*
Y-25325D02*
Y-22025D01*
X173950Y-25825D02*
Y-18225D01*
X168600Y-33266D02*
Y-13000D01*
X167800Y-33266D02*
Y-13000D01*
X167000Y-33266D02*
Y-13000D01*
X165423Y-33266D02*
X171329D01*
X166200D02*
Y-13000D01*
X191800Y-35800D02*
Y-28500D01*
X191000Y-35800D02*
Y-28500D01*
X190200Y-35800D02*
Y-28500D01*
X189400Y-35800D02*
Y-28500D01*
X188600Y-35800D02*
Y-28500D01*
X187800Y-35800D02*
Y-28500D01*
X187000Y-35800D02*
Y-28500D01*
X186200Y-35800D02*
Y-28500D01*
X185400Y-35800D02*
Y-28500D01*
X184600Y-35800D02*
Y-28500D01*
X197510Y-35944D02*
Y-33766D01*
X192379Y-35944D02*
X197510D01*
X191879Y-35800D02*
Y-33266D01*
X183800Y-35800D02*
Y-28500D01*
X183000Y-35800D02*
Y-28500D01*
X173270Y-34100D02*
X191879D01*
X173795Y-34900D02*
X191879D01*
X173995Y-35700D02*
X191879D01*
X174003Y-35800D02*
X191879D01*
X179000D02*
Y-25825D01*
X178200Y-35800D02*
Y-25825D01*
X177400Y-35800D02*
Y-25825D01*
X176600Y-35800D02*
Y-25825D01*
X175800Y-35800D02*
Y-25825D01*
X172600Y-33587D02*
Y-13000D01*
X165400Y-33266D02*
Y-13000D01*
X164600Y-33396D02*
Y-13000D01*
X173400Y-34247D02*
Y-13000D01*
X163800Y-33814D02*
Y-13000D01*
X182200Y-35800D02*
Y-28500D01*
X181400Y-35800D02*
Y-28500D01*
X180600Y-35800D02*
Y-28500D01*
X179800Y-35800D02*
Y-28500D01*
X175000Y-35800D02*
Y-25825D01*
X174200Y-35800D02*
Y-25825D01*
X168376Y-35944D02*
X173507D01*
X168376D02*
Y-33766D01*
X136000Y-13000D02*
X179000D01*
X136000Y-13300D02*
X179002D01*
X136000Y-14100D02*
X179007D01*
X136000Y-14900D02*
X179012D01*
X136000Y-15700D02*
X179017D01*
X136000Y-16500D02*
X179023D01*
X136000Y-17300D02*
X179028D01*
X136000Y-18100D02*
X179033D01*
X136000Y-18900D02*
X173950D01*
X136000Y-19700D02*
X173950D01*
X138100Y-29300D02*
X200900D01*
X138900Y-30100D02*
X200900D01*
X139700Y-30900D02*
X200900D01*
X140500Y-31700D02*
X200900D01*
X141300Y-32500D02*
X200900D01*
X136000Y-26100D02*
X179085D01*
X136000Y-26900D02*
X179090D01*
X136000Y-20500D02*
X173950D01*
X136500Y-27700D02*
X179095D01*
X137300Y-28500D02*
X179100D01*
X142200Y-33400D02*
Y-13000D01*
X141400Y-32600D02*
Y-13000D01*
X140600Y-31800D02*
Y-13000D01*
X163000Y-34804D02*
Y-13000D01*
X143000Y-34200D02*
Y-13000D01*
X138200Y-29400D02*
Y-13000D01*
X137400Y-28600D02*
Y-13000D01*
X136600Y-27800D02*
Y-13000D01*
X139800Y-31000D02*
Y-13000D01*
X139000Y-30200D02*
Y-13000D01*
X136000Y-21300D02*
X173950D01*
X136000Y-22100D02*
X173950D01*
X136000Y-27200D02*
Y-13000D01*
X142100Y-33300D02*
X164999D01*
X142900Y-34100D02*
X163481D01*
X136000Y-22900D02*
X173950D01*
X136000Y-23700D02*
X173950D01*
X136000Y-24500D02*
X173950D01*
X136000Y-25300D02*
X173950D01*
X163245Y-35944D02*
X168376D01*
X162200Y-35800D02*
Y-13000D01*
X161400Y-35800D02*
Y-13000D01*
X160600Y-35800D02*
Y-13000D01*
X143700Y-34900D02*
X162957D01*
X144500Y-35700D02*
X162756D01*
X159800Y-40800D02*
Y-13000D01*
X159000Y-40800D02*
Y-13000D01*
X158200Y-40800D02*
Y-13000D01*
X160300Y-35800D02*
X162749D01*
X148500Y-39700D02*
X160300D01*
X149300Y-40500D02*
X160300D01*
Y-40800D02*
Y-35800D01*
X149600Y-40800D02*
X160300D01*
X145300Y-36500D02*
X160300D01*
X146100Y-37300D02*
X160300D01*
X146900Y-38100D02*
X160300D01*
X147700Y-38900D02*
X160300D01*
X157400Y-40800D02*
Y-13000D01*
X156600Y-40800D02*
Y-13000D01*
X155800Y-40800D02*
Y-13000D01*
X155000Y-40800D02*
Y-13000D01*
X154200Y-40800D02*
Y-13000D01*
X153400Y-40800D02*
Y-13000D01*
X152600Y-40800D02*
Y-13000D01*
X151800Y-40800D02*
Y-13000D01*
X151000Y-40800D02*
Y-13000D01*
X150200Y-40800D02*
Y-13000D01*
X147800Y-39000D02*
Y-13000D01*
X147000Y-38200D02*
Y-13000D01*
X146200Y-37400D02*
Y-13000D01*
X149400Y-40600D02*
Y-13000D01*
X148600Y-39800D02*
Y-13000D01*
X144600Y-35800D02*
Y-13000D01*
X143800Y-35000D02*
Y-13000D01*
X136000Y-27200D02*
X149600Y-40800D01*
X145400Y-36600D02*
Y-13000D01*
X-145189Y-87489D02*
Y-81708D01*
X-218100Y-88200D02*
Y-74300D01*
X-148900Y-91100D02*
X-145189Y-87489D01*
X-215200Y-91100D02*
X-148900D01*
X-218100Y-88200D02*
X-215200Y-91100D01*
X-145189Y-52574D02*
X-145189Y-49621D01*
X-119600Y-20200D02*
X-50600Y-20100D01*
X-47500Y-17000D01*
Y5000D01*
X-40600Y11900D01*
X15600D01*
X22500Y5000D01*
X-218600Y-130100D02*
X-110600D01*
X-233700Y-115000D02*
X-218600Y-130100D01*
X-152600Y-13600D02*
X-149100Y-10100D01*
X-68600D01*
X-67500Y-9000D01*
Y-3500D02*
X-62600Y1400D01*
X-67500Y-9000D02*
Y-3500D01*
X-62600Y1400D02*
Y21900D01*
X77400Y19900D02*
X121800D01*
X71400Y25900D02*
X77400Y19900D01*
X121800D02*
X123400Y21500D01*
X-62600Y21900D02*
X-58600Y25900D01*
X71400D01*
X123400Y21500D02*
Y21559D01*
X126640Y24798D01*
X-70600Y-108100D02*
Y-76100D01*
Y-108100D02*
X-66600Y-112100D01*
X-74600Y-72100D02*
X-70600Y-76100D01*
X-78966Y-72714D02*
X-78352Y-72100D01*
X-74600D01*
X61400Y-112100D02*
X72800Y-123500D01*
X122100D01*
X123400Y-122200D01*
Y-122141D01*
X-66600Y-112100D02*
X61400D01*
X123400Y-122141D02*
X126640Y-118902D01*
X-231000Y-30900D02*
X-211800Y-50100D01*
X-188600Y-50130D01*
X-187400Y-51330D01*
X-231000Y-30900D02*
Y19500D01*
X-200600Y49900D01*
X115400D01*
X-187400Y-51330D02*
X-186386Y-51130D01*
X-183586D01*
X124400Y34938D02*
Y40900D01*
X115400Y49900D02*
X124400Y40900D01*
Y34938D02*
X126640Y32698D01*
X-210900Y-43916D02*
X-210886Y-43930D01*
X-210900Y-43916D02*
Y-18400D01*
X-206600Y-14100D01*
Y10900D01*
X-198600Y18900D01*
Y30900D01*
X-194104Y35396D01*
X-193800D01*
X-205800Y-30800D02*
X-205786Y-39214D01*
X-205800Y-30800D02*
Y-18900D01*
X-202600Y-15700D01*
X-205786Y-43930D02*
Y-39214D01*
X-202600Y-15700D02*
Y9900D01*
X-193800Y18700D01*
Y25396D01*
X-135189Y-81708D02*
Y-74311D01*
X-138270Y-71230D02*
X-135189Y-74311D01*
X-183586Y-71230D02*
X-138270D01*
X-140190Y-81708D02*
Y-76811D01*
X-142900Y-74100D02*
X-140190Y-76811D01*
X-172100Y-74100D02*
X-142900D01*
X-176430Y-78430D02*
X-172100Y-74100D01*
X-190786Y-78430D02*
X-176430D01*
X-78966Y-63714D02*
X-74666D01*
X-71200Y-63700D01*
X-62366Y-63666D01*
X-218086Y-74286D02*
Y-71230D01*
X-218100Y-74300D02*
X-218086Y-74286D01*
X-140190Y-52574D02*
Y-45790D01*
X-118600Y-24200D01*
X-46600Y-24100D01*
X-42500Y-20000D01*
Y-5000D01*
Y-1500D01*
X-41000Y0D01*
X-28500D01*
X-27500Y1000D01*
Y5000D01*
X132500Y-29100D02*
X149344Y-45944D01*
X168376D01*
X127500Y-29100D02*
X149344Y-50944D01*
X127500Y-29100D02*
Y-5000D01*
X149344Y-50944D02*
X168376D01*
X122500Y-29100D02*
Y5000D01*
Y-29100D02*
X149344Y-56044D01*
X168376Y-55944D01*
X117500Y-29100D02*
Y-5000D01*
Y-29100D02*
X149544Y-60944D01*
X168376D01*
X112500Y-29100D02*
Y5000D01*
Y-29100D02*
X149244Y-65944D01*
X168376D01*
X107500Y-29200D02*
X149300Y-70900D01*
X167620D01*
X107500Y-29200D02*
Y-5000D01*
X167620Y-70900D02*
X168376Y-70944D01*
X102500Y-29300D02*
Y5000D01*
Y-29300D02*
X149144Y-75944D01*
X168376D01*
X52500Y-20500D02*
X57500Y-25500D01*
X92500D01*
X52500Y-20500D02*
Y5000D01*
X120500Y-53000D02*
X148444Y-80944D01*
X168376D01*
X97000Y-53000D02*
X120500D01*
X-125189Y-52574D02*
Y-45790D01*
X-115400Y-36000D01*
X32500D01*
X37500Y-31000D01*
Y-5000D01*
X-130190Y-52574D02*
Y-45790D01*
X-116500Y-32100D01*
X29900D01*
X32500Y-29500D01*
Y5000D01*
X-115190Y-52574D02*
Y-45790D01*
X-112000Y-42600D01*
X46500Y-42500D01*
X57500Y-31500D01*
X94300Y-31400D01*
X97500Y-28200D01*
Y-5000D02*
Y-4900D01*
X-120189Y-52574D02*
Y-45790D01*
X-114400Y-40000D01*
X41500D01*
X47500Y-34000D01*
Y-5000D02*
Y-4900D01*
X174000Y-89000D02*
X175000Y-88000D01*
Y-42000D01*
X173944Y-40944D02*
X175000Y-42000D01*
X168376Y-40944D02*
X173944D01*
X-120400Y-16000D02*
X-55400D01*
X-52500Y-13100D01*
Y-5000D01*
X-23500Y-19700D02*
X24000D01*
X27500Y-16200D01*
Y-5000D01*
X-135189Y-52574D02*
Y-50100D01*
X-135100Y-51800D01*
Y-45800D01*
X-117500Y-28200D01*
X-42600Y-28100D01*
X-32500Y-18000D01*
Y-5000D01*
X-130190Y-81708D02*
Y-72811D01*
X-136770Y-66230D02*
X-130190Y-72811D01*
X-183586Y-66230D02*
X-136770D01*
X-223690Y-121311D02*
X-114590D01*
X-231300Y-113700D02*
X-223690Y-121311D01*
X-114590D02*
X-112390Y-119111D01*
X-104000Y-127500D01*
X-231300Y-113700D02*
Y-61800D01*
X-225730Y-56230D01*
X-218086D01*
X-104000Y-127500D02*
X160000D01*
X-112390Y-119111D02*
X-110189Y-116911D01*
X160000Y-127500D02*
X162000Y-125500D01*
Y-114862D01*
X-110189Y-116911D02*
Y-81708D01*
X158140Y-111002D02*
X162000Y-114862D01*
X-224990Y-116311D02*
X-115190D01*
X-228900Y-112400D02*
X-224990Y-116311D01*
X-89000Y-125500D02*
X140700D01*
X-94000Y-120500D02*
X-89000Y-125500D01*
X140700D02*
X142440Y-123760D01*
Y-118902D01*
X-94000Y-120500D02*
Y-116500D01*
X-115190Y-116311D02*
Y-81708D01*
X-77500Y0D02*
Y5000D01*
Y0D02*
X-72500Y-5000D01*
X-77500Y5000D02*
Y36500D01*
X-74000Y40000D01*
X83400Y28500D02*
X87102Y24798D01*
X87340D01*
X-74000Y40000D02*
Y40100D01*
X80900Y40000D01*
X83400Y28500D02*
Y37500D01*
X80900Y40000D02*
X83400Y37500D01*
X-97500Y5100D02*
Y39500D01*
Y5000D02*
Y5100D01*
Y39500D02*
X-94000Y43000D01*
X-92500Y-5000D02*
Y100D01*
X91300Y28600D02*
X95101Y24798D01*
X91300Y28600D02*
Y38600D01*
X-94000Y43000D02*
X86900D01*
X95101Y24798D02*
X95140D01*
X86900Y43000D02*
X91300Y38600D01*
X-117500Y4600D02*
X-112500Y-400D01*
X-117500Y38800D02*
X-110300Y46000D01*
X99000Y28838D02*
X103040Y24798D01*
X-110300Y46000D02*
X93300D01*
X99000Y28838D02*
Y40300D01*
X93300Y46000D02*
X99000Y40300D01*
X-142500Y-5000D02*
Y0D01*
X-137500Y5000D01*
Y38700D01*
X-128300Y47900D01*
X107000Y28600D02*
X110801Y24798D01*
X110940D01*
X-128300Y47900D02*
X101400D01*
X107000Y28600D02*
Y42300D01*
X101400Y47900D02*
X107000Y42300D01*
X142440Y-111002D02*
Y-105360D01*
X155600Y-92200D01*
X174700D01*
X178400Y-88500D01*
Y-53900D01*
X191356Y-40944D01*
X197510D01*
X146300Y-114962D02*
X150240Y-118902D01*
X146300Y-114962D02*
Y-105600D01*
X155700Y-96200D01*
X175100D01*
X182600Y-88700D01*
Y-54700D01*
X191356Y-45944D01*
X197510D01*
X150200Y-110962D02*
X150240Y-111002D01*
X150200Y-110962D02*
Y-105200D01*
X155800Y-99600D01*
X175200D01*
X186400Y-88400D01*
Y-56000D01*
X191456Y-50944D01*
X197510D01*
X154200Y-115000D02*
X158101Y-118902D01*
X154200Y-115000D02*
Y-105300D01*
X156400Y-103100D01*
X175400D01*
X158101Y-118902D02*
X158140D01*
X175400Y-103100D02*
X190000Y-88500D01*
Y-57500D01*
X191556Y-55944D01*
X197510D01*
X166040Y24798D02*
X166098D01*
X162000Y28700D02*
Y36700D01*
X164600Y39300D01*
X192800D01*
X205100Y27000D01*
X197510Y-60944D02*
X197566Y-61000D01*
X203200D01*
X205100Y-59100D01*
Y-20600D01*
X202000Y-17500D02*
X205100Y-20600D01*
X202000Y-17500D02*
Y10800D01*
X205100Y13900D01*
Y27000D01*
X194500Y41300D02*
X207300Y28500D01*
X158140Y32698D02*
Y36840D01*
X162600Y41300D01*
X194500D01*
X197510Y-65944D02*
X204056D01*
X207300Y-62700D01*
Y-19500D01*
X204500Y-16700D02*
X207300Y-19500D01*
X204500Y-16700D02*
Y10600D01*
X207300Y13400D01*
Y28500D01*
X154100Y28800D02*
X158140Y24840D01*
Y24798D02*
Y24840D01*
X154100Y28800D02*
Y36800D01*
X160600Y43300D01*
X196100D01*
X197510Y-70944D02*
X205456D01*
X209600Y-66800D01*
Y-18600D01*
X207000Y-16000D02*
X209600Y-18600D01*
X207000Y-16000D02*
Y10100D01*
X209600Y12700D01*
Y29800D01*
X196100Y43300D02*
X209600Y29800D01*
X197510Y-75944D02*
X206256D01*
X150240Y32698D02*
Y36940D01*
X158600Y45300D01*
X197600D01*
X206256Y-75944D02*
X212100Y-70100D01*
Y-17700D01*
X209400Y-15000D02*
X212100Y-17700D01*
X209400Y-15000D02*
Y9300D01*
X212100Y12000D01*
Y30800D01*
X197600Y45300D02*
X212100Y30800D01*
X-125200Y-112100D02*
Y-81718D01*
X-125189Y-81708D01*
X-104900Y-124055D02*
X-104254Y-124700D01*
X-104900Y-118900D02*
X-96946D01*
X-104900Y-118100D02*
X-97447D01*
X-104900Y-117300D02*
X-97715D01*
X-104900Y-116500D02*
X-97800D01*
X-104900Y-115700D02*
X-97715D01*
X-104900Y-123700D02*
X-93346D01*
X-104900Y-122900D02*
X-94146D01*
X-104900Y-122100D02*
X-94946D01*
X-104900Y-121300D02*
X-95613D01*
X-104900Y-120500D02*
X-95800D01*
X-104900Y-119700D02*
X-96049D01*
X-104900Y-114900D02*
X-97447D01*
X-104900Y-114100D02*
X-96946D01*
X-104900Y-113300D02*
X-96049D01*
X-104900Y-108500D02*
X-72355D01*
X-104900Y-107700D02*
X-72400D01*
X-104900Y-106900D02*
X-72400D01*
X-104900Y-106100D02*
X-72400D01*
X-104900Y-105300D02*
X-72400D01*
X-104900Y-104500D02*
X-72400D01*
X-104900Y-103700D02*
X-72400D01*
X-104900Y-102900D02*
X-72400D01*
X-104900Y-102100D02*
X-72400D01*
X-104900Y-101300D02*
X-72400D01*
X-95400Y-124700D02*
Y-121631D01*
X-97800Y-124700D02*
Y-116500D01*
X-97000Y-124700D02*
Y-118832D01*
X-96200Y-124700D02*
Y-119598D01*
X-104455Y-124500D02*
X-92546D01*
X-104254Y-124700D02*
X-92346D01*
X-93800D02*
Y-123246D01*
X-95271Y-121775D02*
X-92346Y-124700D01*
X-94600D02*
Y-122446D01*
X-92141Y-119814D02*
X-88254Y-123700D01*
X-90600Y-121354D02*
Y-118197D01*
X-91400Y-120554D02*
Y-119271D01*
X-104900Y-100500D02*
X-72400D01*
X-104900Y-99700D02*
X-72400D01*
X-104900Y-98900D02*
X-72400D01*
X-104900Y-98100D02*
X-72400D01*
X-104900Y-97300D02*
X-72400D01*
X-104900Y-96500D02*
X-72400D01*
X-104900Y-95700D02*
X-72400D01*
X-104900Y-94900D02*
X-72400D01*
X-104900Y-94100D02*
X-72400D01*
X-104900Y-124055D02*
Y-87339D01*
X-104200Y-124700D02*
Y-87339D01*
X-103400Y-124700D02*
Y-87339D01*
X-102600Y-124700D02*
Y-87339D01*
X-101800Y-124700D02*
Y-48300D01*
X-101000Y-124700D02*
Y-48300D01*
X-100200Y-124700D02*
Y-48300D01*
X-97000Y-114168D02*
Y-48753D01*
X-96200Y-113402D02*
Y-49553D01*
X-99400Y-124700D02*
Y-48300D01*
X-98600Y-124700D02*
Y-48300D01*
X-97800Y-116500D02*
Y-48300D01*
X-104900Y-87339D02*
X-102512D01*
X-105190Y-86839D02*
Y-81708D01*
X-103012D01*
X-105190D02*
Y-76577D01*
X-95400Y-112967D02*
Y-50353D01*
X-102512Y-87339D02*
Y-76077D01*
X-104900Y-93300D02*
X-72400D01*
X-104900Y-92500D02*
X-72400D01*
X-104900Y-91700D02*
X-72400D01*
X-94600Y-112748D02*
Y-76960D01*
X-104900Y-90900D02*
X-72400D01*
X-93800Y-112705D02*
Y-76960D01*
X-93000Y-112834D02*
Y-76960D01*
X-88200Y-123700D02*
Y-76960D01*
X-87400Y-123700D02*
Y-45200D01*
X-86600Y-123700D02*
Y-45200D01*
X-85800Y-123700D02*
Y-45200D01*
X-85000Y-123700D02*
Y-45200D01*
X-84200Y-123700D02*
Y-45200D01*
X-83400Y-123700D02*
Y-77014D01*
X-82600Y-123700D02*
Y-77014D01*
X-81800Y-123700D02*
Y-77014D01*
X-81000Y-123700D02*
Y-77014D01*
X-80200Y-123700D02*
Y-77014D01*
X-79400Y-123700D02*
Y-77014D01*
X-78600Y-123700D02*
Y-77014D01*
X-92200Y-113153D02*
Y-76960D01*
X-77800Y-123700D02*
Y-77014D01*
X-91400Y-113729D02*
Y-76960D01*
X-90600Y-114803D02*
Y-76960D01*
X-89000Y-122954D02*
Y-76960D01*
X-89800Y-122154D02*
Y-76960D01*
X-77000Y-123700D02*
Y-77014D01*
X-76200Y-123700D02*
Y-77014D01*
X-72400Y-108100D02*
Y-76846D01*
X-75400Y-123700D02*
Y-73900D01*
X-74600Y-123700D02*
Y-74646D01*
X-73800Y-123700D02*
Y-75446D01*
X-73000Y-123700D02*
Y-76246D01*
X-91951Y-119700D02*
X66454D01*
X-91054Y-118900D02*
X65654D01*
X-90553Y-118100D02*
X64854D01*
X-90285Y-117300D02*
X64054D01*
X-72200Y-123700D02*
Y-108925D01*
X-71400Y-123700D02*
Y-109846D01*
X-89055Y-122900D02*
X69654D01*
X-88254Y-123700D02*
X70454D01*
X-88254D02*
X70454D01*
X-91454Y-120500D02*
X67254D01*
X-89855Y-122100D02*
X68854D01*
X-90654Y-121300D02*
X68054D01*
X-104900Y-111700D02*
X-69546D01*
X-104900Y-110900D02*
X-70346D01*
X-104900Y-110100D02*
X-71146D01*
X-104900Y-109300D02*
X-71942D01*
X-90285Y-115700D02*
X62454D01*
X-90200Y-116500D02*
X63254D01*
X-90553Y-114900D02*
X61654D01*
X-91951Y-113300D02*
X-67946D01*
X-104900Y-112500D02*
X-68746D01*
X-91054Y-114100D02*
X60854D01*
X-71870Y-109375D02*
X-67875Y-113371D01*
X-68200Y-123700D02*
Y-113046D01*
X-67400Y-123700D02*
Y-113713D01*
X-66600Y-123700D02*
Y-113900D01*
X-70600Y-123700D02*
Y-110646D01*
X-69800Y-123700D02*
Y-111446D01*
X-69000Y-123700D02*
Y-112246D01*
X-65800Y-123700D02*
Y-113900D01*
X-65000Y-123700D02*
Y-113900D01*
X-64200Y-123700D02*
Y-113900D01*
X-66600D02*
X60654D01*
X-66855Y-109300D02*
X76042D01*
X-65855Y-110300D02*
X61400D01*
X-66054Y-110100D02*
X75748D01*
X-68800Y-107354D02*
X-65855Y-110300D01*
X-67655Y-108500D02*
X76579D01*
X-68454Y-107700D02*
X77558D01*
X-68800Y-106900D02*
X83000D01*
X-68800Y-106100D02*
X83000D01*
X-68800Y-105300D02*
X83000D01*
X-68800Y-104500D02*
X83000D01*
X-68800Y-103700D02*
X83000D01*
X-68800Y-102900D02*
X83000D01*
X-68800Y-102100D02*
X83000D01*
X-68800Y-101300D02*
X83000D01*
X-68800Y-100500D02*
X83000D01*
X-68800Y-99700D02*
X83000D01*
X-104900Y-90100D02*
X-72400D01*
X-68800Y-98900D02*
X83000D01*
X-104900Y-89300D02*
X-72400D01*
X-68800Y-98100D02*
X83000D01*
X-68800Y-97300D02*
X83000D01*
X-68800Y-96500D02*
X83000D01*
X-68800Y-95700D02*
X83000D01*
X-68800Y-94900D02*
X83000D01*
X-68800Y-94100D02*
X83000D01*
X-104900Y-88500D02*
X-72400D01*
X-104900Y-87700D02*
X-72400D01*
X-102512Y-86900D02*
X-72400D01*
X-102512Y-86100D02*
X-72400D01*
X-102512Y-85300D02*
X-72400D01*
X-102512Y-84500D02*
X-72400D01*
X-102512Y-83700D02*
X-72400D01*
X-102512Y-82900D02*
X-72400D01*
X-102512Y-82100D02*
X-72400D01*
X-102512Y-81300D02*
X-72400D01*
X-102512Y-80500D02*
X-72400D01*
X-102512Y-79700D02*
X-72400D01*
X-102512Y-78900D02*
X-72400D01*
X-68800Y-107354D02*
Y-76100D01*
X-65000Y-110300D02*
Y-66405D01*
X-68200Y-107955D02*
Y-65489D01*
X-67400Y-108755D02*
Y-65486D01*
X-65800Y-110300D02*
Y-65479D01*
X-66600Y-109555D02*
Y-65482D01*
X-68800Y-93300D02*
X83000D01*
X-68800Y-92500D02*
X83000D01*
X-68800Y-91700D02*
X83000D01*
X-68800Y-90900D02*
X83000D01*
X-68800Y-90100D02*
X83000D01*
X-64200Y-110300D02*
Y-66994D01*
X-63400Y-110300D02*
Y-67323D01*
X-68800Y-89300D02*
X83000D01*
X-68800Y-88500D02*
X83000D01*
X-68800Y-87700D02*
X83000D01*
X-68800Y-86900D02*
X83000D01*
X-68800Y-80500D02*
X82400D01*
X-68800Y-79700D02*
X81600D01*
X-68800Y-86100D02*
X83000D01*
X-68800Y-85300D02*
X83000D01*
X-68800Y-84500D02*
X83000D01*
X-68800Y-83700D02*
X83000D01*
X-68800Y-82900D02*
X83000D01*
X-68800Y-82100D02*
X83000D01*
X-68800Y-81300D02*
X83000D01*
X-104900Y-76077D02*
X-102512D01*
Y-76500D02*
X-95330D01*
X-104900Y-75700D02*
X-95330D01*
X-104900Y-74900D02*
X-95330D01*
Y-76960D02*
Y-68360D01*
X-104900Y-74100D02*
X-95330D01*
X-104900Y-73300D02*
X-95330D01*
Y-76960D02*
X-87730D01*
X-104900Y-72500D02*
X-95330D01*
X-104900Y-71700D02*
X-95330D01*
X-104900Y-70900D02*
X-95330D01*
X-104900Y-70100D02*
X-95330D01*
X-104900Y-69300D02*
X-95330D01*
X-104900Y-68500D02*
X-95330D01*
X-104900Y-67700D02*
X-95330D01*
X-104900Y-66900D02*
X-95330D01*
X-104900Y-66100D02*
X-95330D01*
X-104900Y-65300D02*
X-95330D01*
X-104900Y-64500D02*
X-95330D01*
Y-68360D02*
X-87730D01*
X-95330Y-67960D02*
X-87730D01*
X-104900Y-63700D02*
X-95330D01*
X-104900Y-62900D02*
X-95330D01*
X-104900Y-62100D02*
X-95330D01*
X-104900Y-61300D02*
X-95330D01*
X-94830Y-72660D02*
X-91530D01*
Y-76460D02*
Y-72660D01*
X-88230D01*
X-91530D02*
Y-68860D01*
X-87730Y-76960D02*
Y-68360D01*
X-83766Y-77014D02*
Y-68414D01*
X-87730Y-76500D02*
X-83766D01*
X-87730Y-75700D02*
X-83766D01*
X-87730Y-74900D02*
X-83766D01*
X-87730Y-74100D02*
X-83766D01*
X-87730Y-73300D02*
X-83766D01*
X-87730Y-72500D02*
X-83766D01*
X-87730Y-71700D02*
X-83766D01*
X-87730Y-70900D02*
X-83766D01*
X-87730Y-70100D02*
X-83766D01*
X-87730Y-69300D02*
X-83766D01*
X-87730Y-68500D02*
X-83766D01*
X-87730Y-67700D02*
X-83766D01*
X-87730Y-66900D02*
X-83766D01*
X-87730Y-66100D02*
X-83766D01*
X-87730Y-65300D02*
X-83766D01*
X-87730Y-64500D02*
X-83766D01*
X-87730Y-63700D02*
X-83766D01*
X-87730Y-62900D02*
X-83766D01*
X-87730Y-62100D02*
X-83766D01*
X-104900Y-76077D02*
Y-58189D01*
X-104200Y-76077D02*
Y-58015D01*
X-103400Y-76077D02*
Y-57519D01*
X-102600Y-76077D02*
Y-56209D01*
X-105190Y-57705D02*
Y-52574D01*
X-104900Y-60500D02*
X-95330D01*
X-104900Y-59700D02*
X-95330D01*
X-104900Y-58900D02*
X-93830D01*
X-104448Y-58100D02*
X-93830D01*
X-103183Y-57300D02*
X-93830D01*
X-102695Y-56500D02*
X-93830D01*
X-105190Y-52574D02*
X-103012D01*
X-102512Y-55527D02*
Y-49621D01*
Y-50100D02*
X-95653D01*
X-102531Y-49300D02*
X-96453D01*
X-102860Y-48300D02*
X-97453D01*
X-102517Y-55700D02*
X-93830D01*
X-102512Y-54900D02*
X-93830D01*
X-102512Y-54100D02*
X-93830D01*
X-102512Y-53300D02*
X-93830D01*
X-102512Y-52500D02*
X-93830D01*
X-102512Y-51700D02*
X-94053D01*
X-102512Y-50900D02*
X-94853D01*
X-95330Y-67960D02*
Y-59360D01*
X-93830D01*
Y-51923D01*
X-94600Y-59360D02*
Y-51153D01*
X-89230Y-59360D02*
Y-50970D01*
X-89000Y-59360D02*
Y-45200D01*
X-87730Y-61300D02*
X-83766D01*
X-87730Y-60500D02*
X-83766D01*
X-87730Y-59700D02*
X-83766D01*
X-89230Y-59360D02*
X-87730D01*
X-88200D02*
Y-45200D01*
X-87730Y-67960D02*
Y-59360D01*
X-83766Y-68014D02*
Y-59414D01*
X-102758Y-48500D02*
X-97253D01*
X-97453Y-48300D02*
X-93830Y-51923D01*
X-93000Y-46247D02*
Y-45200D01*
X-92200Y-47047D02*
Y-45200D01*
X-90600Y-48647D02*
Y-45200D01*
X-91400Y-47847D02*
Y-45200D01*
X-89800Y-49454D02*
Y-45200D01*
X-83400Y-59414D02*
Y-45200D01*
X-94047D02*
X-89904Y-49344D01*
X-82600Y-59414D02*
Y-45200D01*
X-81800Y-59414D02*
Y-45200D01*
X-83766Y-77014D02*
X-76166D01*
Y-75700D02*
X-73546D01*
X-76166Y-74900D02*
X-74346D01*
X-76166Y-74100D02*
X-75146D01*
X-76166Y-77014D02*
Y-73900D01*
X-75346D01*
X-102512Y-78100D02*
X-72400D01*
X-102512Y-77300D02*
X-72400D01*
X-76166Y-76500D02*
X-72746D01*
X-75346Y-73900D02*
X-72400Y-76846D01*
X-83766Y-68414D02*
X-76166D01*
Y-70300D02*
X-74600D01*
X-76166D02*
Y-68414D01*
X-83766Y-68014D02*
X-76166D01*
X-75400Y-70300D02*
Y-65514D01*
X-76166Y-68014D02*
Y-65514D01*
Y-70100D02*
X72000D01*
X-76166Y-69300D02*
X71200D01*
X-76166Y-68500D02*
X70400D01*
X-76166Y-67700D02*
X69600D01*
X-76166Y-66900D02*
X-64362D01*
X-76166Y-66100D02*
X-65285D01*
X-76166Y-65514D02*
X-74666D01*
X-70055Y-74100D02*
X76000D01*
X-73325Y-70830D02*
X-69330Y-74825D01*
X-69000Y-75275D02*
Y-65492D01*
X-69800Y-74354D02*
Y-65495D01*
X-68800Y-78900D02*
X80800D01*
X-68800Y-78100D02*
X80000D01*
X-68800Y-77300D02*
X79200D01*
X-69258Y-74900D02*
X76800D01*
X-68800Y-76500D02*
X78400D01*
X-68845Y-75700D02*
X77600D01*
X-74600Y-70300D02*
Y-65514D01*
X-73000Y-71154D02*
Y-65507D01*
X-73800Y-70488D02*
Y-65511D01*
X-74655Y-65514D02*
X-71197Y-65500D01*
X-71400Y-72755D02*
Y-65501D01*
X-72200Y-71955D02*
Y-65504D01*
X-72455Y-71700D02*
X73600D01*
X-70855Y-73300D02*
X75200D01*
X-71654Y-72500D02*
X74400D01*
X-73255Y-70900D02*
X72800D01*
X-71193Y-65500D02*
X-65706Y-65479D01*
X-70600Y-73554D02*
Y-65498D01*
X-83766Y-59414D02*
X-76166D01*
X-81000D02*
Y-45200D01*
X-80200Y-59414D02*
Y-45200D01*
X-79400Y-59414D02*
Y-45200D01*
X-78600Y-59414D02*
Y-45200D01*
X-77800Y-59414D02*
Y-45200D01*
X-89230Y-58900D02*
X60800D01*
X-89230Y-58100D02*
X60000D01*
X-89230Y-57300D02*
X59200D01*
X-89230Y-56500D02*
X58400D01*
X-89230Y-55700D02*
X57600D01*
X-89230Y-54900D02*
X56800D01*
X-92347Y-46900D02*
X48800D01*
X-90747Y-48500D02*
X50400D01*
X-91547Y-47700D02*
X49600D01*
X-93947Y-45300D02*
X47200D01*
X-93147Y-46100D02*
X48000D01*
X-94047Y-45200D02*
X47100D01*
X-89230Y-54100D02*
X56000D01*
X-89230Y-53300D02*
X55200D01*
X-89230Y-52500D02*
X54400D01*
X-89401Y-50100D02*
X52000D01*
X-89947Y-49300D02*
X51200D01*
X-89230Y-51700D02*
X53600D01*
X-89231Y-50900D02*
X52800D01*
X-76166Y-61914D02*
X-74669D01*
X-76166D02*
Y-59414D01*
X-75400Y-61914D02*
Y-45200D01*
X-74600Y-61914D02*
Y-45200D01*
X-73800Y-61911D02*
Y-45200D01*
X-73000Y-61907D02*
Y-45200D01*
X-74669Y-61914D02*
X-71212Y-61900D01*
X-71207D02*
X-65720Y-61879D01*
X-72200Y-61904D02*
Y-45200D01*
X-71400Y-61901D02*
Y-45200D01*
X-70600Y-61898D02*
Y-45200D01*
X-69800Y-61895D02*
Y-45200D01*
X-77000Y-59414D02*
Y-45200D01*
X-69000Y-61892D02*
Y-45200D01*
X-76200Y-59414D02*
Y-45200D01*
X-68200Y-61888D02*
Y-45200D01*
X-67400Y-61885D02*
Y-45200D01*
X-66600Y-61882D02*
Y-45200D01*
X-76166Y-61300D02*
X-65340D01*
X-76166Y-60500D02*
X-64468D01*
X-76166Y-59700D02*
X61600D01*
X-65800Y-61879D02*
Y-45200D01*
X-65000Y-60927D02*
Y-45200D01*
X-64200Y-60338D02*
Y-45200D01*
X-63400Y-60009D02*
Y-45200D01*
Y-123700D02*
Y-113900D01*
X-62600Y-123700D02*
Y-113900D01*
X-61800Y-123700D02*
Y-113900D01*
X-61000Y-123700D02*
Y-113900D01*
X-60200Y-123700D02*
Y-113900D01*
X-59400Y-123700D02*
Y-113900D01*
X-58600Y-123700D02*
Y-113900D01*
X-57800Y-123700D02*
Y-113900D01*
X-57000Y-123700D02*
Y-113900D01*
X-56200Y-123700D02*
Y-113900D01*
X-55400Y-123700D02*
Y-113900D01*
X-54600Y-123700D02*
Y-113900D01*
X-53800Y-123700D02*
Y-113900D01*
X-53000Y-123700D02*
Y-113900D01*
X-52200Y-123700D02*
Y-113900D01*
X-51400Y-123700D02*
Y-113900D01*
X-50600Y-123700D02*
Y-113900D01*
X-49800Y-123700D02*
Y-113900D01*
X-49000Y-123700D02*
Y-113900D01*
X-48200Y-123700D02*
Y-113900D01*
X-47400Y-123700D02*
Y-113900D01*
X-46600Y-123700D02*
Y-113900D01*
X-45800Y-123700D02*
Y-113900D01*
X-45000Y-123700D02*
Y-113900D01*
X-44200Y-123700D02*
Y-113900D01*
X-43400Y-123700D02*
Y-113900D01*
X-42600Y-123700D02*
Y-113900D01*
X-41800Y-123700D02*
Y-113900D01*
X-41000Y-123700D02*
Y-113900D01*
X-40200Y-123700D02*
Y-113900D01*
X-39400Y-123700D02*
Y-113900D01*
X-38600Y-123700D02*
Y-113900D01*
X-37800Y-123700D02*
Y-113900D01*
X-37000Y-123700D02*
Y-113900D01*
X-36200Y-123700D02*
Y-113900D01*
X-35400Y-123700D02*
Y-113900D01*
X-34600Y-123700D02*
Y-113900D01*
X-33800Y-123700D02*
Y-113900D01*
X-33000Y-123700D02*
Y-113900D01*
X-32200Y-123700D02*
Y-113900D01*
X-31400Y-123700D02*
Y-113900D01*
X-30600Y-123700D02*
Y-113900D01*
X-29800Y-123700D02*
Y-113900D01*
X-29000Y-123700D02*
Y-113900D01*
X-28200Y-123700D02*
Y-113900D01*
X-27400Y-123700D02*
Y-113900D01*
X-26600Y-123700D02*
Y-113900D01*
X-25800Y-123700D02*
Y-113900D01*
X-25000Y-123700D02*
Y-113900D01*
X-24200Y-123700D02*
Y-113900D01*
X-23400Y-123700D02*
Y-113900D01*
X-22600Y-123700D02*
Y-113900D01*
X-21800Y-123700D02*
Y-113900D01*
X-21000Y-123700D02*
Y-113900D01*
X-20200Y-123700D02*
Y-113900D01*
X-19400Y-123700D02*
Y-113900D01*
X-18600Y-123700D02*
Y-113900D01*
X-17800Y-123700D02*
Y-113900D01*
X-17000Y-123700D02*
Y-113900D01*
X-16200Y-123700D02*
Y-113900D01*
X-15400Y-123700D02*
Y-113900D01*
X-14600Y-123700D02*
Y-113900D01*
X-13800Y-123700D02*
Y-113900D01*
X-13000Y-123700D02*
Y-113900D01*
X-12200Y-123700D02*
Y-113900D01*
X-11400Y-123700D02*
Y-113900D01*
X-10600Y-123700D02*
Y-113900D01*
X-9800Y-123700D02*
Y-113900D01*
X-9000Y-123700D02*
Y-113900D01*
X-8200Y-123700D02*
Y-113900D01*
X-7400Y-123700D02*
Y-113900D01*
X-6600Y-123700D02*
Y-113900D01*
X-5800Y-123700D02*
Y-113900D01*
X-5000Y-123700D02*
Y-113900D01*
X-4200Y-123700D02*
Y-113900D01*
X-3400Y-123700D02*
Y-113900D01*
X-2600Y-123700D02*
Y-113900D01*
X-1800Y-123700D02*
Y-113900D01*
X-1000Y-123700D02*
Y-113900D01*
X-200Y-123700D02*
Y-113900D01*
X600Y-123700D02*
Y-113900D01*
X1400Y-123700D02*
Y-113900D01*
X2200Y-123700D02*
Y-113900D01*
X3000Y-123700D02*
Y-113900D01*
X3800Y-123700D02*
Y-113900D01*
X4600Y-123700D02*
Y-113900D01*
X5400Y-123700D02*
Y-113900D01*
X6200Y-123700D02*
Y-113900D01*
X7000Y-123700D02*
Y-113900D01*
X7800Y-123700D02*
Y-113900D01*
X8600Y-123700D02*
Y-113900D01*
X9400Y-123700D02*
Y-113900D01*
X10200Y-123700D02*
Y-113900D01*
X11000Y-123700D02*
Y-113900D01*
X11800Y-123700D02*
Y-113900D01*
X12600Y-123700D02*
Y-113900D01*
X13400Y-123700D02*
Y-113900D01*
X14200Y-123700D02*
Y-113900D01*
X15000Y-123700D02*
Y-113900D01*
X15800Y-123700D02*
Y-113900D01*
X16600Y-123700D02*
Y-113900D01*
X17400Y-123700D02*
Y-113900D01*
X18200Y-123700D02*
Y-113900D01*
X19000Y-123700D02*
Y-113900D01*
X19800Y-123700D02*
Y-113900D01*
X20600Y-123700D02*
Y-113900D01*
X21400Y-123700D02*
Y-113900D01*
X22200Y-123700D02*
Y-113900D01*
X23000Y-123700D02*
Y-113900D01*
X23800Y-123700D02*
Y-113900D01*
X24600Y-123700D02*
Y-113900D01*
X25400Y-123700D02*
Y-113900D01*
X26200Y-123700D02*
Y-113900D01*
X27000Y-123700D02*
Y-113900D01*
X27800Y-123700D02*
Y-113900D01*
X28600Y-123700D02*
Y-113900D01*
X29400Y-123700D02*
Y-113900D01*
X30200Y-123700D02*
Y-113900D01*
X31000Y-123700D02*
Y-113900D01*
X63000Y-123700D02*
Y-116246D01*
X63800Y-123700D02*
Y-117046D01*
X64600Y-123700D02*
Y-117846D01*
X31800Y-123700D02*
Y-113900D01*
X32600Y-123700D02*
Y-113900D01*
X61400Y-123700D02*
Y-114646D01*
X62200Y-123700D02*
Y-115446D01*
X67800Y-123700D02*
Y-121046D01*
X68600Y-123700D02*
Y-121846D01*
X69400Y-123700D02*
Y-122646D01*
X65400Y-123700D02*
Y-118646D01*
X66200Y-123700D02*
Y-119446D01*
X67000Y-123700D02*
Y-120246D01*
X73545Y-121700D02*
X76869D01*
X75800D02*
Y-119993D01*
X71545Y-119700D02*
X75725D01*
X73146Y-121300D02*
X76492D01*
X72346Y-120500D02*
X75992D01*
X69146Y-117300D02*
X75994D01*
X70745Y-118900D02*
X75640D01*
X69946Y-118100D02*
X75725D01*
X67545Y-115700D02*
X77393D01*
X76140Y-118902D02*
X79440D01*
X68345Y-116500D02*
X76495D01*
X79440Y-118902D02*
Y-115602D01*
X77400Y-115696D02*
Y-114208D01*
X81487Y-115700D02*
X83000D01*
X81400Y-115646D02*
Y-114257D01*
X33400Y-123700D02*
Y-113900D01*
X34200Y-123700D02*
Y-113900D01*
X35000Y-123700D02*
Y-113900D01*
X35800Y-123700D02*
Y-113900D01*
X36600Y-123700D02*
Y-113900D01*
X37400Y-123700D02*
Y-113900D01*
X38200Y-123700D02*
Y-113900D01*
X39000Y-123700D02*
Y-113900D01*
X39800Y-123700D02*
Y-113900D01*
X40600Y-123700D02*
Y-113900D01*
X41400Y-123700D02*
Y-113900D01*
X42200Y-123700D02*
Y-113900D01*
X43000Y-123700D02*
Y-113900D01*
X43800Y-123700D02*
Y-113900D01*
X44600Y-123700D02*
Y-113900D01*
X45400Y-123700D02*
Y-113900D01*
X46200Y-123700D02*
Y-113900D01*
X47000Y-123700D02*
Y-113900D01*
X47800Y-123700D02*
Y-113900D01*
X48600Y-123700D02*
Y-113900D01*
X49400Y-123700D02*
Y-113900D01*
X50200Y-123700D02*
Y-113900D01*
X51000Y-123700D02*
Y-113900D01*
X51800Y-123700D02*
Y-113900D01*
X52600Y-123700D02*
Y-113900D01*
X53400Y-123700D02*
Y-113900D01*
X54200Y-123700D02*
Y-113900D01*
X55000Y-123700D02*
Y-113900D01*
X55800Y-123700D02*
Y-113900D01*
X56600Y-123700D02*
Y-113900D01*
X57400Y-123700D02*
Y-113900D01*
X58200Y-123700D02*
Y-113900D01*
X59000Y-123700D02*
Y-113900D01*
X59800Y-123700D02*
Y-113900D01*
X60600Y-123700D02*
Y-113900D01*
X60654D02*
X70454Y-123700D01*
X62675Y-110830D02*
X73545Y-121700D01*
X73400Y-121555D02*
Y-71500D01*
X70200Y-118354D02*
Y-68300D01*
X71800Y-119955D02*
Y-69900D01*
X71000Y-119155D02*
Y-69100D01*
X67800Y-115954D02*
Y-65900D01*
X69400Y-117554D02*
Y-67500D01*
X68600Y-116754D02*
Y-66700D01*
X75800Y-117810D02*
Y-112093D01*
X76600Y-116377D02*
Y-113527D01*
X82200Y-116290D02*
Y-113613D01*
X74200Y-121700D02*
Y-72300D01*
X72600Y-120755D02*
Y-70700D01*
X75000Y-121700D02*
Y-73100D01*
X83000Y-117573D02*
Y-112330D01*
X-62600Y-110300D02*
Y-67459D01*
X-61800Y-110300D02*
Y-67424D01*
X-61000Y-110300D02*
Y-67212D01*
X-60200Y-110300D02*
Y-66788D01*
X-59400Y-110300D02*
Y-66041D01*
X-58600Y-110300D02*
Y-64172D01*
X-57800Y-110300D02*
Y-45200D01*
X-57000Y-110300D02*
Y-45200D01*
X-56200Y-110300D02*
Y-45200D01*
X-55400Y-110300D02*
Y-45200D01*
X-54600Y-110300D02*
Y-45200D01*
X-53800Y-110300D02*
Y-45200D01*
X-62600Y-59873D02*
Y-45200D01*
X-61000Y-60120D02*
Y-45200D01*
X-61800Y-59909D02*
Y-45200D01*
X-60200Y-60544D02*
Y-45200D01*
X-58600Y-63160D02*
Y-45200D01*
X-59400Y-61291D02*
Y-45200D01*
X-53000Y-110300D02*
Y-45200D01*
X-52200Y-110300D02*
Y-45200D01*
X-51400Y-110300D02*
Y-45200D01*
X-50600Y-110300D02*
Y-45200D01*
X-49800Y-110300D02*
Y-45200D01*
X-49000Y-110300D02*
Y-45200D01*
X-48200Y-110300D02*
Y-45200D01*
X-47400Y-110300D02*
Y-45200D01*
X-46600Y-110300D02*
Y-45200D01*
X-45800Y-110300D02*
Y-45200D01*
X-45000Y-110300D02*
Y-45200D01*
X-44200Y-110300D02*
Y-45200D01*
X-43400Y-110300D02*
Y-45200D01*
X-42600Y-110300D02*
Y-45200D01*
X-41800Y-110300D02*
Y-45200D01*
X-41000Y-110300D02*
Y-45200D01*
X-40200Y-110300D02*
Y-45200D01*
X-39400Y-110300D02*
Y-45200D01*
X-38600Y-110300D02*
Y-45200D01*
X-37800Y-110300D02*
Y-45200D01*
X-37000Y-110300D02*
Y-45200D01*
X-36200Y-110300D02*
Y-45200D01*
X-35400Y-110300D02*
Y-45200D01*
X-34600Y-110300D02*
Y-45200D01*
X-33800Y-110300D02*
Y-45200D01*
X-33000Y-110300D02*
Y-45200D01*
X-32200Y-110300D02*
Y-45200D01*
X-31400Y-110300D02*
Y-45200D01*
X-30600Y-110300D02*
Y-45200D01*
X-29800Y-110300D02*
Y-45200D01*
X-29000Y-110300D02*
Y-45200D01*
X-28200Y-110300D02*
Y-45200D01*
X-27400Y-110300D02*
Y-45200D01*
X-26600Y-110300D02*
Y-45200D01*
X-25800Y-110300D02*
Y-45200D01*
X-25000Y-110300D02*
Y-45200D01*
X-24200Y-110300D02*
Y-45200D01*
X-23400Y-110300D02*
Y-45200D01*
X-22600Y-110300D02*
Y-45200D01*
X-21800Y-110300D02*
Y-45200D01*
X-21000Y-110300D02*
Y-45200D01*
X-20200Y-110300D02*
Y-45200D01*
X-19400Y-110300D02*
Y-45200D01*
X-18600Y-110300D02*
Y-45200D01*
X-17800Y-110300D02*
Y-45200D01*
X-17000Y-110300D02*
Y-45200D01*
X-16200Y-110300D02*
Y-45200D01*
X-15400Y-110300D02*
Y-45200D01*
X-14600Y-110300D02*
Y-45200D01*
X-13800Y-110300D02*
Y-45200D01*
X-13000Y-110300D02*
Y-45200D01*
X-12200Y-110300D02*
Y-45200D01*
X-11400Y-110300D02*
Y-45200D01*
X-10600Y-110300D02*
Y-45200D01*
X-9800Y-110300D02*
Y-45200D01*
X-9000Y-110300D02*
Y-45200D01*
X-8200Y-110300D02*
Y-45200D01*
X-7400Y-110300D02*
Y-45200D01*
X-6600Y-110300D02*
Y-45200D01*
X-5800Y-110300D02*
Y-45200D01*
X-5000Y-110300D02*
Y-45200D01*
X-4200Y-110300D02*
Y-45200D01*
X-3400Y-110300D02*
Y-45200D01*
X-2600Y-110300D02*
Y-45200D01*
X-1800Y-110300D02*
Y-45200D01*
X-1000Y-110300D02*
Y-45200D01*
X-200Y-110300D02*
Y-45200D01*
X600Y-110300D02*
Y-45200D01*
X1400Y-110300D02*
Y-45200D01*
X2200Y-110300D02*
Y-45200D01*
X3000Y-110300D02*
Y-45200D01*
X3800Y-110300D02*
Y-45200D01*
X4600Y-110300D02*
Y-45200D01*
X5400Y-110300D02*
Y-45200D01*
X6200Y-110300D02*
Y-45200D01*
X7000Y-110300D02*
Y-45200D01*
X7800Y-110300D02*
Y-45200D01*
X8600Y-110300D02*
Y-45200D01*
X9400Y-110300D02*
Y-45200D01*
X10200Y-110300D02*
Y-45200D01*
X11000Y-110300D02*
Y-45200D01*
X11800Y-110300D02*
Y-45200D01*
X12600Y-110300D02*
Y-45200D01*
X55800Y-110300D02*
Y-53900D01*
X56600Y-110300D02*
Y-54700D01*
X57400Y-110300D02*
Y-55500D01*
X53400Y-110300D02*
Y-51500D01*
X54200Y-110300D02*
Y-52300D01*
X55000Y-110300D02*
Y-53100D01*
X62745Y-110900D02*
X75641D01*
X58200Y-110300D02*
Y-56300D01*
X63000Y-111154D02*
Y-61100D01*
X62200Y-110488D02*
Y-60300D01*
X-60265Y-60500D02*
X62400D01*
X61400Y-110300D02*
Y-59500D01*
X-59393Y-61300D02*
X63200D01*
X59000Y-110300D02*
Y-57100D01*
X59800Y-110300D02*
Y-57900D01*
X60600Y-110300D02*
Y-58700D01*
X-60371Y-66900D02*
X68800D01*
X-59448Y-66100D02*
X68000D01*
X-58935Y-65300D02*
X67200D01*
X-58659Y-64500D02*
X66400D01*
X-58904Y-62100D02*
X64000D01*
X-58566Y-63700D02*
X65600D01*
X-58644Y-62900D02*
X64800D01*
X64346Y-112500D02*
X75948D01*
X67000Y-115155D02*
Y-65100D01*
X66200Y-114355D02*
Y-64300D01*
X63800Y-111954D02*
Y-61900D01*
X65400Y-113555D02*
Y-63500D01*
X64600Y-112754D02*
Y-62700D01*
X65946Y-114100D02*
X77240D01*
X66746Y-114900D02*
X83000D01*
X81640Y-114100D02*
X83000D01*
X65145Y-113300D02*
X76414D01*
X63546Y-111700D02*
X75704D01*
X79440Y-114302D02*
Y-111002D01*
X76140D02*
X79440D01*
X78200Y-107410D02*
Y-76300D01*
X79000Y-107227D02*
Y-77100D01*
X75800Y-109910D02*
Y-73900D01*
X76600Y-108477D02*
Y-74700D01*
X77400Y-107796D02*
Y-75500D01*
X79440Y-111002D02*
Y-107702D01*
X83000Y-109673D02*
Y-81100D01*
X81321Y-107700D02*
X83000D01*
X79800Y-107219D02*
Y-77900D01*
X80600Y-107383D02*
Y-78700D01*
X82200Y-108390D02*
Y-80300D01*
X81400Y-107746D02*
Y-79500D01*
X13400Y-110300D02*
Y-45200D01*
X14200Y-110300D02*
Y-45200D01*
X15000Y-110300D02*
Y-45200D01*
X15800Y-110300D02*
Y-45200D01*
X16600Y-110300D02*
Y-45200D01*
X17400Y-110300D02*
Y-45200D01*
X18200Y-110300D02*
Y-45200D01*
X19000Y-110300D02*
Y-45200D01*
X19800Y-110300D02*
Y-45200D01*
X20600Y-110300D02*
Y-45200D01*
X21400Y-110300D02*
Y-45200D01*
X22200Y-110300D02*
Y-45200D01*
X23000Y-110300D02*
Y-45200D01*
X23800Y-110300D02*
Y-45200D01*
X24600Y-110300D02*
Y-45200D01*
X25400Y-110300D02*
Y-45200D01*
X26200Y-110300D02*
Y-45200D01*
X27000Y-110300D02*
Y-45200D01*
X27800Y-110300D02*
Y-45200D01*
X28600Y-110300D02*
Y-45200D01*
X29400Y-110300D02*
Y-45200D01*
X30200Y-110300D02*
Y-45200D01*
X31000Y-110300D02*
Y-45200D01*
X31800Y-110300D02*
Y-45200D01*
X32600Y-110300D02*
Y-45200D01*
X33400Y-110300D02*
Y-45200D01*
X34200Y-110300D02*
Y-45200D01*
X35000Y-110300D02*
Y-45200D01*
X35800Y-110300D02*
Y-45200D01*
X36600Y-110300D02*
Y-45200D01*
X37400Y-110300D02*
Y-45200D01*
X38200Y-110300D02*
Y-45200D01*
X39000Y-110300D02*
Y-45200D01*
X39800Y-110300D02*
Y-45200D01*
X40600Y-110300D02*
Y-45200D01*
X41400Y-110300D02*
Y-45200D01*
X42200Y-110300D02*
Y-45200D01*
X43000Y-110300D02*
Y-45200D01*
X43800Y-110300D02*
Y-45200D01*
X44600Y-110300D02*
Y-45200D01*
X47800Y-110300D02*
Y-45900D01*
X45400Y-110300D02*
Y-45200D01*
X46200Y-110300D02*
Y-45200D01*
X47000Y-110300D02*
Y-45200D01*
X51000Y-110300D02*
Y-49100D01*
X51800Y-110300D02*
Y-49900D01*
X52600Y-110300D02*
Y-50700D01*
X48600Y-110300D02*
Y-46700D01*
X47100Y-45200D02*
X83000Y-81100D01*
X49400Y-110300D02*
Y-47500D01*
X50200Y-110300D02*
Y-48300D01*
X69400Y-60560D02*
Y-33268D01*
X70200Y-61360D02*
Y-33266D01*
X52140Y-43300D02*
X89340Y-80500D01*
X71000Y-62160D02*
Y-33263D01*
X65400Y-56560D02*
Y-33279D01*
X66200Y-57360D02*
Y-33276D01*
X67000Y-58160D02*
Y-33274D01*
X67800Y-58960D02*
Y-33272D01*
X68600Y-59760D02*
Y-33270D01*
X75800Y-66960D02*
Y-33250D01*
X76600Y-67760D02*
Y-33248D01*
X77400Y-68560D02*
Y-33246D01*
X78200Y-69360D02*
Y-33244D01*
X71800Y-62960D02*
Y-33261D01*
X72600Y-63760D02*
Y-33259D01*
X73400Y-64560D02*
Y-33257D01*
X74200Y-65360D02*
Y-33255D01*
X75000Y-66160D02*
Y-33253D01*
X83000Y-74160D02*
Y-33231D01*
X83800Y-74960D02*
Y-33229D01*
X84600Y-75760D02*
Y-33226D01*
X85400Y-76560D02*
Y-33224D01*
X79000Y-70160D02*
Y-33242D01*
X79800Y-70960D02*
Y-33239D01*
X80600Y-71760D02*
Y-33237D01*
X81400Y-72560D02*
Y-33235D01*
X82200Y-73360D02*
Y-33233D01*
X90200Y-81360D02*
Y-33211D01*
X91000Y-82160D02*
Y-33209D01*
X91800Y-82960D02*
Y-33207D01*
X92600Y-83760D02*
Y-33205D01*
X86200Y-77360D02*
Y-33222D01*
X87000Y-78160D02*
Y-33220D01*
X87800Y-78960D02*
Y-33218D01*
X88600Y-79760D02*
Y-33215D01*
X89400Y-80560D02*
Y-33213D01*
X84540Y-75700D02*
X136800D01*
X83740Y-74900D02*
X136000D01*
X86140Y-77300D02*
X138400D01*
X85340Y-76500D02*
X137600D01*
X80540Y-71700D02*
X132800D01*
X79740Y-70900D02*
X132000D01*
X82940Y-74100D02*
X135200D01*
X81340Y-72500D02*
X133600D01*
X82140Y-73300D02*
X134400D01*
X90940Y-82100D02*
X143200D01*
X89340Y-80500D02*
X116661Y-107821D01*
X92540Y-83700D02*
X144800D01*
X91740Y-82900D02*
X144000D01*
X87740Y-78900D02*
X140000D01*
X86940Y-78100D02*
X139200D01*
X90140Y-81300D02*
X142400D01*
X88540Y-79700D02*
X140800D01*
X89340Y-80500D02*
X141600D01*
X70140Y-61300D02*
X122400D01*
X69340Y-60500D02*
X121600D01*
X71740Y-62900D02*
X124000D01*
X70940Y-62100D02*
X123200D01*
X66140Y-57300D02*
X118400D01*
X65340Y-56500D02*
X95520D01*
X68540Y-59700D02*
X120800D01*
X66940Y-58100D02*
X119200D01*
X67740Y-58900D02*
X120000D01*
X77340Y-68500D02*
X129600D01*
X76540Y-67700D02*
X128800D01*
X78940Y-70100D02*
X131200D01*
X78140Y-69300D02*
X130400D01*
X73340Y-64500D02*
X125600D01*
X72540Y-63700D02*
X124800D01*
X75740Y-66900D02*
X128000D01*
X74140Y-65300D02*
X126400D01*
X74940Y-66100D02*
X127200D01*
X51000Y-43300D02*
Y-40546D01*
X51800Y-43300D02*
Y-39746D01*
X49700Y-43300D02*
X52140D01*
X52600Y-43760D02*
Y-38946D01*
X50500Y-42500D02*
X50511Y-41034D01*
X58248Y-33298D01*
X57400Y-48560D02*
Y-34146D01*
X58200Y-49360D02*
Y-33346D01*
X59000Y-50160D02*
Y-33296D01*
X59800Y-50960D02*
Y-33294D01*
X53400Y-44560D02*
Y-38146D01*
X54200Y-45360D02*
Y-37346D01*
X55000Y-46160D02*
Y-36546D01*
X55800Y-46960D02*
Y-35746D01*
X56600Y-47760D02*
Y-34946D01*
X60600Y-51760D02*
Y-33292D01*
X61400Y-52560D02*
Y-33289D01*
X62200Y-53360D02*
Y-33287D01*
X55740Y-46900D02*
X108000D01*
X54940Y-46100D02*
X107200D01*
X57340Y-48500D02*
X109600D01*
X56540Y-47700D02*
X108800D01*
X49400Y-42900D02*
X104000D01*
X50503Y-42100D02*
X103200D01*
X54140Y-45300D02*
X106400D01*
X52540Y-43700D02*
X104800D01*
X53340Y-44500D02*
X105600D01*
X62940Y-54100D02*
X93363D01*
X62140Y-53300D02*
X93212D01*
X64540Y-55700D02*
X94326D01*
X63740Y-54900D02*
X93709D01*
X61340Y-52500D02*
X93233D01*
X60540Y-51700D02*
X93429D01*
X59740Y-50900D02*
X93833D01*
X58140Y-49300D02*
X96134D01*
X58940Y-50100D02*
X94544D01*
X51846Y-39700D02*
X100800D01*
X52645Y-38900D02*
X100000D01*
X50509Y-41300D02*
X102400D01*
X51046Y-40500D02*
X101600D01*
X55845Y-35700D02*
X96800D01*
X53446Y-38100D02*
X99200D01*
X54246Y-37300D02*
X98400D01*
X55045Y-36500D02*
X97600D01*
X63000Y-54160D02*
Y-33285D01*
X63800Y-54960D02*
Y-33283D01*
X64600Y-55760D02*
Y-33281D01*
X93400Y-51784D02*
Y-33202D01*
X58245Y-33300D02*
X94400D01*
X56646Y-34900D02*
X96000D01*
X57446Y-34100D02*
X95200D01*
X58248Y-33298D02*
X94300Y-33200D01*
X118740Y-111002D02*
Y-107702D01*
X122064Y-109160D02*
X123316D01*
X122200D02*
Y-61100D01*
X120600Y-107688D02*
Y-59500D01*
X119800Y-107352D02*
Y-58700D01*
X121600Y-108500D02*
X123779D01*
X120621Y-107700D02*
X124758D01*
X121400Y-108288D02*
Y-60300D01*
X123800Y-108477D02*
Y-62700D01*
X123000Y-109160D02*
Y-61900D01*
X129400Y-108390D02*
Y-68300D01*
X124600Y-107796D02*
Y-63500D01*
X126200Y-107227D02*
Y-65100D01*
X125400Y-107410D02*
Y-64300D01*
X128600Y-107746D02*
Y-67500D01*
X127000Y-107219D02*
Y-65900D01*
X127800Y-107383D02*
Y-66700D01*
X109400Y-100560D02*
Y-54800D01*
X110200Y-101360D02*
Y-54800D01*
X111000Y-102160D02*
Y-54800D01*
X111800Y-102960D02*
Y-54800D01*
X105400Y-96560D02*
Y-54800D01*
X106200Y-97360D02*
Y-54800D01*
X107000Y-98160D02*
Y-54800D01*
X107800Y-98960D02*
Y-54800D01*
X108600Y-99760D02*
Y-54800D01*
X117400Y-107446D02*
Y-56300D01*
X116600Y-107760D02*
Y-55500D01*
X119000Y-107211D02*
Y-57900D01*
X118200Y-107240D02*
Y-57100D01*
X112600Y-103760D02*
Y-54800D01*
X113400Y-104560D02*
Y-54800D01*
X114200Y-105360D02*
Y-54800D01*
X115000Y-106160D02*
Y-54800D01*
X115800Y-106960D02*
Y-54800D01*
X114140Y-105300D02*
X135500D01*
X113340Y-104500D02*
X135500D01*
X112540Y-103700D02*
X135500D01*
X111740Y-102900D02*
X135500D01*
X110940Y-102100D02*
X135500D01*
X110140Y-101300D02*
X136000D01*
X109340Y-100500D02*
X136800D01*
X107740Y-98900D02*
X138400D01*
X108540Y-99700D02*
X137600D01*
X129964Y-109160D02*
X131216D01*
X134540Y-111002D02*
Y-107702D01*
X129500Y-108500D02*
X131679D01*
X128521Y-107700D02*
X132658D01*
X115740Y-106900D02*
X135500D01*
X114940Y-106100D02*
X135500D01*
Y-107325D02*
Y-101800D01*
X131000Y-109160D02*
Y-69900D01*
X130200Y-109160D02*
Y-69100D01*
X132600Y-107734D02*
Y-71500D01*
X131800Y-108368D02*
Y-70700D01*
X134200Y-107217D02*
Y-73100D01*
X133400Y-107377D02*
Y-72300D01*
X106940Y-98100D02*
X139200D01*
X105340Y-96500D02*
X140800D01*
X106140Y-97300D02*
X140000D01*
X135800Y-101500D02*
Y-74700D01*
X135000Y-107230D02*
Y-73900D01*
X135500Y-101800D02*
X149200Y-88100D01*
X136600Y-100700D02*
Y-75500D01*
X138200Y-99100D02*
Y-77100D01*
X137400Y-99900D02*
Y-76300D01*
X140600Y-96700D02*
Y-79500D01*
X139000Y-98300D02*
Y-77900D01*
X139800Y-97500D02*
Y-78700D01*
X96600Y-87760D02*
Y-56779D01*
X97400Y-88560D02*
Y-56779D01*
X98200Y-89360D02*
Y-56606D01*
X99000Y-90160D02*
Y-56231D01*
X94200Y-85360D02*
Y-55569D01*
X93400Y-84560D02*
Y-54217D01*
X95800Y-86960D02*
Y-56606D01*
X95000Y-86160D02*
Y-56231D01*
X102200Y-93360D02*
Y-54800D01*
X103000Y-94160D02*
Y-54800D01*
X103800Y-94960D02*
Y-54800D01*
X104600Y-95760D02*
Y-54800D01*
X99800Y-90960D02*
Y-55569D01*
X100600Y-91760D02*
Y-54800D01*
X101400Y-92560D02*
Y-54800D01*
X108600Y-51200D02*
Y-47500D01*
X109400Y-51200D02*
Y-48300D01*
X95000Y-49769D02*
Y-33900D01*
X94200Y-50431D02*
Y-33200D01*
X100600Y-51200D02*
Y-39500D01*
X99800Y-50431D02*
Y-38700D01*
X96600Y-49221D02*
Y-35500D01*
X95800Y-49395D02*
Y-34700D01*
X99000Y-49769D02*
Y-37900D01*
X97400Y-49221D02*
Y-36300D01*
X98200Y-49395D02*
Y-37100D01*
X102200Y-51200D02*
Y-41100D01*
X101400Y-51200D02*
Y-40300D01*
X103800Y-51200D02*
Y-42700D01*
X103000Y-51200D02*
Y-41900D01*
X105400Y-51200D02*
Y-44300D01*
X104600Y-51200D02*
Y-43500D01*
X107800Y-51200D02*
Y-46700D01*
X106200Y-51200D02*
Y-45100D01*
X107000Y-51200D02*
Y-45900D01*
X100540Y-91700D02*
X145600D01*
X99740Y-90900D02*
X146400D01*
X98940Y-90100D02*
X147200D01*
X98140Y-89300D02*
X148000D01*
X94940Y-86100D02*
X147200D01*
X94140Y-85300D02*
X146400D01*
X97340Y-88500D02*
X148800D01*
X95740Y-86900D02*
X148000D01*
X96540Y-87700D02*
X148800D01*
X104540Y-95700D02*
X141600D01*
X103740Y-94900D02*
X142400D01*
X102940Y-94100D02*
X143200D01*
X102140Y-93300D02*
X144000D01*
X101340Y-92500D02*
X144800D01*
X146200Y-91100D02*
Y-85100D01*
X148600Y-88700D02*
Y-87500D01*
X147000Y-90300D02*
Y-85900D01*
X147800Y-89500D02*
Y-86700D01*
X99674Y-55700D02*
X116800D01*
X100347Y-54800D02*
X115900D01*
X93340Y-84500D02*
X145600D01*
X98480Y-56500D02*
X117600D01*
X99456Y-50100D02*
X111200D01*
X97866Y-49300D02*
X110400D01*
X100291Y-54900D02*
X116000D01*
X94300Y-33200D02*
X112300Y-51200D01*
X100167Y-50900D02*
X112000D01*
X142200Y-95100D02*
Y-81100D01*
X141400Y-95900D02*
Y-80300D01*
X144600Y-92700D02*
Y-83500D01*
X143000Y-94300D02*
Y-81900D01*
X143800Y-93500D02*
Y-82700D01*
X111000Y-51200D02*
Y-49900D01*
X110200Y-51200D02*
Y-49100D01*
X145400Y-91900D02*
Y-84300D01*
X100347Y-51200D02*
X112300D01*
X115900Y-54800D02*
X149200Y-88100D01*
X177200Y-137100D02*
Y-109700D01*
X177400Y-137100D02*
Y-109500D01*
X178200Y-137100D02*
Y-108700D01*
X179000Y-137100D02*
Y-107900D01*
X179800Y-137100D02*
Y-107100D01*
X180600Y-137100D02*
Y-106300D01*
X181400Y-137100D02*
Y-105500D01*
X182200Y-137100D02*
Y-104700D01*
X183000Y-137100D02*
Y-103900D01*
X183800Y-137100D02*
Y-103100D01*
X184600Y-137100D02*
Y-102300D01*
X185400Y-137100D02*
Y-101500D01*
X186200Y-137100D02*
Y-100700D01*
X187000Y-137100D02*
Y-99900D01*
X187800Y-137100D02*
Y-99100D01*
X188600Y-137100D02*
Y-98300D01*
X189400Y-137100D02*
Y-97500D01*
X190200Y-137100D02*
Y-96700D01*
X191000Y-137100D02*
Y-95900D01*
X191800Y-137100D02*
Y-95100D01*
X192600Y-137100D02*
Y-94300D01*
X193400Y-137100D02*
Y-93500D01*
X194200Y-137100D02*
Y-92700D01*
X195000Y-137100D02*
Y-91900D01*
X195800Y-137100D02*
Y-91100D01*
X196600Y-137100D02*
Y-90300D01*
X197400Y-137100D02*
Y-89500D01*
X198200Y-137100D02*
Y-88700D01*
X199000Y-137100D02*
Y-87900D01*
X199800Y-137100D02*
Y-87100D01*
X200600Y-137100D02*
Y-86300D01*
X201400Y-137100D02*
Y-85500D01*
X202200Y-137100D02*
Y-84700D01*
X177200Y-109700D02*
X207600Y-79300D01*
X203000Y-137100D02*
Y-83900D01*
X203800Y-137100D02*
Y-83100D01*
X204600Y-137100D02*
Y-82300D01*
X205400Y-137100D02*
Y-81500D01*
X206200Y-137100D02*
Y-80700D01*
X207000Y-137100D02*
Y-79900D01*
X207800Y-137100D02*
Y-79300D01*
X208600Y-137100D02*
Y-79300D01*
X209400Y-137100D02*
Y-79300D01*
X210200Y-137100D02*
Y-79300D01*
X211000Y-137100D02*
Y-79300D01*
X211800Y-137100D02*
Y-79300D01*
X212600Y-137100D02*
Y-79300D01*
X177200Y-137100D02*
X223400D01*
X177200Y-136500D02*
X226800D01*
X177200Y-135700D02*
X226800D01*
X177200Y-134900D02*
X226800D01*
X177200Y-134100D02*
X226800D01*
X177200Y-133300D02*
X226800D01*
X177200Y-132500D02*
X226800D01*
X177200Y-131700D02*
X226800D01*
X177200Y-130900D02*
X226800D01*
X177200Y-130100D02*
X226800D01*
X177200Y-129300D02*
X226800D01*
X177200Y-128500D02*
X226800D01*
X177200Y-127700D02*
X226800D01*
X177200Y-126900D02*
X226800D01*
X177200Y-126100D02*
X226800D01*
X177200Y-125300D02*
X226800D01*
X177200Y-124500D02*
X226800D01*
X177200Y-123700D02*
X226800D01*
X177200Y-122900D02*
X226800D01*
X177200Y-122100D02*
X226800D01*
X177200Y-121300D02*
X226800D01*
X177200Y-120500D02*
X226800D01*
X177200Y-119700D02*
X226800D01*
X177200Y-118900D02*
X226800D01*
X177200Y-118100D02*
X226800D01*
X177200Y-117300D02*
X226800D01*
X177200Y-116500D02*
X226800D01*
X177200Y-115700D02*
X226800D01*
X177200Y-114900D02*
X226800D01*
X177200Y-114100D02*
X226800D01*
X177200Y-113300D02*
X226800D01*
X177200Y-112500D02*
X226800D01*
X177200Y-111700D02*
X226800D01*
X177200Y-110900D02*
X226800D01*
X177200Y-110100D02*
X226800D01*
X177600Y-109300D02*
X226800D01*
X213400Y-137100D02*
Y-79300D01*
X214200Y-137100D02*
Y-79300D01*
X215000Y-137100D02*
Y-79300D01*
X178400Y-108500D02*
X226800D01*
X179200Y-107700D02*
X226800D01*
X180000Y-106900D02*
X226800D01*
X180800Y-106100D02*
X226800D01*
X181600Y-105300D02*
X226800D01*
X182400Y-104500D02*
X226800D01*
X183200Y-103700D02*
X226800D01*
X184000Y-102900D02*
X226800D01*
X184800Y-102100D02*
X226800D01*
X185600Y-101300D02*
X226800D01*
X186400Y-100500D02*
X226800D01*
X187200Y-99700D02*
X226800D01*
X188000Y-98900D02*
X226800D01*
X188800Y-98100D02*
X226800D01*
X189600Y-97300D02*
X226800D01*
X190400Y-96500D02*
X226800D01*
X191200Y-95700D02*
X226800D01*
X192000Y-94900D02*
X226800D01*
X192800Y-94100D02*
X226800D01*
X193600Y-93300D02*
X226800D01*
X194400Y-92500D02*
X226800D01*
X195200Y-91700D02*
X226800D01*
X196000Y-90900D02*
X226800D01*
X196800Y-90100D02*
X226800D01*
X197600Y-89300D02*
X226800D01*
X198400Y-88500D02*
X226800D01*
X199200Y-87700D02*
X226800D01*
X200000Y-86900D02*
X226800D01*
X200800Y-86100D02*
X226800D01*
X201600Y-85300D02*
X226800D01*
X202400Y-84500D02*
X226800D01*
X203200Y-83700D02*
X226800D01*
X205400Y46398D02*
Y51396D01*
X200600Y51396D02*
X215000Y36400D01*
X206200Y45564D02*
Y51396D01*
X204000Y-82900D02*
X226800D01*
X204800Y-82100D02*
X226800D01*
X205600Y-81300D02*
X226800D01*
X201400Y50563D02*
Y51396D01*
X202200Y49730D02*
Y51396D01*
X203000Y48897D02*
Y51396D01*
X203800Y48064D02*
Y51396D01*
X200600D02*
X215000Y51396D01*
X204600Y47231D02*
Y51396D01*
X211800Y39733D02*
Y51396D01*
X212600Y38899D02*
Y51396D01*
X213400Y38066D02*
Y51396D01*
X207600Y-79300D02*
X215200D01*
X214200Y37233D02*
Y51396D01*
X215000Y36400D02*
Y51396D01*
X207000Y44731D02*
Y51396D01*
X207800Y43898D02*
Y51396D01*
X208600Y43065D02*
Y51396D01*
X209400Y42232D02*
Y51396D01*
X210200Y41399D02*
Y51396D01*
X211000Y40566D02*
Y51396D01*
X206400Y-80500D02*
X226800D01*
X207200Y-79700D02*
X226800D01*
X215199Y-78900D02*
X226800D01*
X215198Y-78100D02*
X226800D01*
X215196Y-77300D02*
X226800D01*
X215195Y-76500D02*
X226800D01*
X215194Y-75700D02*
X226800D01*
X215192Y-74900D02*
X226800D01*
X215191Y-74100D02*
X226800D01*
X215190Y-73300D02*
X226800D01*
X215188Y-72500D02*
X226800D01*
X215187Y-71700D02*
X226800D01*
X215185Y-70900D02*
X226800D01*
X215184Y-70100D02*
X226800D01*
X215183Y-69300D02*
X226800D01*
X215181Y-68500D02*
X226800D01*
X215180Y-67700D02*
X226800D01*
X215178Y-66900D02*
X226800D01*
X215177Y-66100D02*
X226800D01*
X215176Y-65300D02*
X226800D01*
X215174Y-64500D02*
X226800D01*
X215173Y-63700D02*
X226800D01*
X215172Y-62900D02*
X226800D01*
X215170Y-62100D02*
X226800D01*
X208950Y42700D02*
X226800D01*
X207414Y44300D02*
X226800D01*
X208182Y43500D02*
X226800D01*
X206646Y45100D02*
X226800D01*
X205110Y46700D02*
X226800D01*
X205878Y45900D02*
X226800D01*
X204341Y47500D02*
X226800D01*
X202805Y49100D02*
X226800D01*
X203573Y48300D02*
X226800D01*
X202037Y49900D02*
X226800D01*
X200600Y51396D02*
X226800Y51396D01*
X201269Y50700D02*
X226800D01*
X215169Y-61300D02*
X226800D01*
X215167Y-60500D02*
X226800D01*
X215166Y-59700D02*
X226800D01*
X215165Y-58900D02*
X226800D01*
X214328Y37100D02*
X226800D01*
X215163Y-58100D02*
X226800D01*
X213560Y37900D02*
X226800D01*
X212023Y39500D02*
X226800D01*
X212791Y38700D02*
X226800D01*
X211255Y40300D02*
X226800D01*
X209719Y41900D02*
X226800D01*
X210487Y41100D02*
X226800D01*
X215162Y-57300D02*
X226800D01*
X215160Y-56500D02*
X226800D01*
X215159Y-55700D02*
X226800D01*
X215158Y-54900D02*
X226800D01*
X215156Y-54100D02*
X226800D01*
X215155Y-53300D02*
X226800D01*
X215154Y-52500D02*
X226800D01*
X215152Y-51700D02*
X226800D01*
X215151Y-50900D02*
X226800D01*
X215149Y-50100D02*
X226800D01*
X215148Y-49300D02*
X226800D01*
X218200Y-137100D02*
Y-16563D01*
X217400Y-137100D02*
Y-16261D01*
X219000Y-137100D02*
Y-16738D01*
X219800Y-137100D02*
Y-16800D01*
X220600Y-137100D02*
Y-16750D01*
X221400Y-137100D02*
Y-16587D01*
X224008Y-137200D02*
X226800D01*
X215091Y-16500D02*
X218001D01*
X222200Y-137100D02*
Y-16299D01*
X215147Y-48500D02*
X226800D01*
X215145Y-47700D02*
X226800D01*
X215144Y-46900D02*
X226800D01*
X216600Y-137100D02*
Y-15809D01*
X215088Y-14321D02*
X215200Y-79300D01*
X215800Y-137100D02*
Y-15159D01*
X215090Y-15700D02*
X216444D01*
X223000Y-137100D02*
Y-15865D01*
X224600Y-137200D02*
Y-14318D01*
X225400Y-137200D02*
Y-12660D01*
X226200Y-137200D02*
Y51396D01*
X226800Y-137200D02*
Y51396D01*
X225400Y-9341D02*
Y51396D01*
X215143Y-46100D02*
X226800D01*
X215141Y-45300D02*
X226800D01*
X215140Y-44500D02*
X226800D01*
X215138Y-43700D02*
X226800D01*
X215137Y-42900D02*
X226800D01*
X215136Y-42100D02*
X226800D01*
X215134Y-41300D02*
X226800D01*
X215133Y-40500D02*
X226800D01*
X215131Y-39700D02*
X226800D01*
X215130Y-38900D02*
X226800D01*
X215129Y-38100D02*
X226800D01*
X215127Y-37300D02*
X226800D01*
X215126Y-36500D02*
X226800D01*
X215125Y-35700D02*
X226800D01*
X215123Y-34900D02*
X226800D01*
X215122Y-34100D02*
X226800D01*
X215120Y-33300D02*
X226800D01*
X215119Y-32500D02*
X226800D01*
X215118Y-31700D02*
X226800D01*
X215116Y-30900D02*
X226800D01*
X215115Y-30100D02*
X226800D01*
X215113Y-29300D02*
X226800D01*
X215112Y-28500D02*
X226800D01*
X215111Y-27700D02*
X226800D01*
X215109Y-26900D02*
X226800D01*
X215108Y-26100D02*
X226800D01*
X215107Y-25300D02*
X226800D01*
X215105Y-24500D02*
X226800D01*
X215104Y-23700D02*
X226800D01*
X215103Y-22900D02*
X226800D01*
X215101Y-22100D02*
X226800D01*
X215100Y-21300D02*
X226800D01*
X215098Y-20500D02*
X226800D01*
X215097Y-19700D02*
X226800D01*
X215095Y-18900D02*
X226800D01*
X215094Y-18100D02*
X226800D01*
X215093Y-17300D02*
X226800D01*
X221684Y-16500D02*
X226800D01*
X223241Y-15700D02*
X226800D01*
X224135Y-14900D02*
X226800D01*
X224745Y-14100D02*
X226800D01*
X225167Y-13300D02*
X226800D01*
X225445Y-12500D02*
X226800D01*
X225600Y-11700D02*
X226800D01*
X225642Y-10900D02*
X226800D01*
X225572Y-10100D02*
X226800D01*
X225076Y-8500D02*
X226800D01*
X225388Y-9300D02*
X226800D01*
X220915Y-5300D02*
X226800D01*
X223000Y-6135D02*
Y-4311D01*
X223800Y-6760D02*
Y-3590D01*
X224600Y-7683D02*
Y-2433D01*
X224612Y-7700D02*
X226800D01*
X222946Y-6100D02*
X226800D01*
X223945Y-6900D02*
X226800D01*
X222200Y-5701D02*
Y-4795D01*
X222724Y-4500D02*
X226800D01*
X223697Y-3700D02*
X226800D01*
X224330Y-2900D02*
X226800D01*
X224756Y-2100D02*
X226800D01*
X215000Y36400D02*
X215059Y2381D01*
X215055Y4300D02*
X216671D01*
X215800Y3494D02*
Y51396D01*
X216600Y4247D02*
Y51396D01*
X215054Y5100D02*
X218248D01*
X217400Y4752D02*
Y51396D01*
X218200Y5085D02*
Y51396D01*
X223800Y3590D02*
Y51396D01*
X224600Y2433D02*
Y51396D01*
X219000Y5276D02*
Y51396D01*
X219800Y5343D02*
Y51396D01*
X220600Y5289D02*
Y51396D01*
X221400Y5111D02*
Y51396D01*
X222200Y4795D02*
Y51396D01*
X223000Y4310D02*
Y51396D01*
X215053Y5900D02*
X226800D01*
X215051Y6700D02*
X226800D01*
X215050Y7500D02*
X226800D01*
X215049Y8300D02*
X226800D01*
X215047Y9100D02*
X226800D01*
X215046Y9900D02*
X226800D01*
X215044Y10700D02*
X226800D01*
X215043Y11500D02*
X226800D01*
X215042Y12300D02*
X226800D01*
X215040Y13100D02*
X226800D01*
X215039Y13900D02*
X226800D01*
X215037Y14700D02*
X226800D01*
X225025Y-1300D02*
X226800D01*
X225162Y-500D02*
X226800D01*
X225177Y300D02*
X226800D01*
X225071Y1100D02*
X226800D01*
X224453Y2700D02*
X226800D01*
X224836Y1900D02*
X226800D01*
X223880Y3500D02*
X226800D01*
X221437Y5100D02*
X226800D01*
X223014Y4300D02*
X226800D01*
X215036Y15500D02*
X226800D01*
X215035Y16300D02*
X226800D01*
X215033Y17100D02*
X226800D01*
X215032Y17900D02*
X226800D01*
X215031Y18700D02*
X226800D01*
X215029Y19500D02*
X226800D01*
X215028Y20300D02*
X226800D01*
X215026Y21100D02*
X226800D01*
X215025Y21900D02*
X226800D01*
X215024Y22700D02*
X226800D01*
X215022Y23500D02*
X226800D01*
X215021Y24300D02*
X226800D01*
X215019Y25100D02*
X226800D01*
X215018Y25900D02*
X226800D01*
X215017Y26700D02*
X226800D01*
X215015Y27500D02*
X226800D01*
X215014Y28300D02*
X226800D01*
X215013Y29100D02*
X226800D01*
X215011Y29900D02*
X226800D01*
X215010Y30700D02*
X226800D01*
X215008Y31500D02*
X226800D01*
X215007Y32300D02*
X226800D01*
X215006Y33100D02*
X226800D01*
X215004Y33900D02*
X226800D01*
X215003Y34700D02*
X226800D01*
X215002Y35500D02*
X226800D01*
X215000Y36300D02*
X226800D01*
X-223400Y-35954D02*
Y-15440D01*
X-229200Y-30154D02*
Y18754D01*
X-228200Y-31155D02*
Y19754D01*
X-229000Y-30354D02*
Y18954D01*
X-226600Y-32754D02*
Y21354D01*
X-227400Y-31955D02*
Y20554D01*
X-229200Y-14900D02*
X-224113D01*
X-224200Y-35155D02*
Y-14823D01*
X-225000Y-34354D02*
Y-13956D01*
X-229200Y-14100D02*
X-224886D01*
X-225800Y-33555D02*
Y-12600D01*
X-229200Y-13300D02*
X-225443D01*
X-229200Y-12500D02*
X-225842D01*
X-229200Y-11700D02*
X-226116D01*
X-229200Y-10900D02*
X-226280D01*
X-229200Y-10100D02*
X-226342D01*
X-229200Y-9300D02*
X-226305D01*
X-229200Y-8500D02*
X-226167D01*
X-229200Y-7700D02*
X-225922D01*
X-229200Y-6900D02*
X-225556D01*
X-229200Y-6100D02*
X-225043D01*
X-229200Y-5300D02*
X-224332D01*
X-225800Y-7400D02*
Y-3112D01*
X-225000Y-6044D02*
Y-4310D01*
X-229200Y-30154D02*
X-215507Y-43848D01*
X-229200Y-30100D02*
X-212700D01*
X-229200Y-29300D02*
X-212700D01*
X-229200Y-28500D02*
X-212700D01*
X-229200Y-27700D02*
X-212700D01*
X-229200Y-26900D02*
X-212700D01*
X-229200Y-26100D02*
X-212700D01*
X-229200Y-25300D02*
X-212700D01*
X-229200Y-24500D02*
X-212700D01*
X-229200Y-23700D02*
X-212700D01*
X-229200Y-22900D02*
X-212700D01*
X-229200Y-22100D02*
X-212700D01*
X-229200Y-21300D02*
X-212700D01*
X-229200Y-20500D02*
X-212700D01*
X-229200Y-19700D02*
X-212700D01*
X-229200Y-18900D02*
X-212700D01*
X-229200Y-18100D02*
X-212675D01*
X-229200Y-17300D02*
X-212325D01*
X-215507Y-43848D02*
X-213386Y-43892D01*
X-215654Y-43700D02*
X-213386D01*
X-220200Y-39154D02*
Y-16490D01*
X-218055Y-41300D02*
X-213386D01*
X-216455Y-42900D02*
X-213386D01*
X-217254Y-42100D02*
X-213386D01*
X-220455Y-38900D02*
X-212700D01*
X-218854Y-40500D02*
X-213305D01*
X-219654Y-39700D02*
X-212937D01*
X-222854Y-36500D02*
X-212700D01*
X-221254Y-38100D02*
X-212700D01*
X-222055Y-37300D02*
X-212700D01*
X-229200Y-16500D02*
X-219843D01*
X-221000Y-38355D02*
Y-16396D01*
X-223655Y-35700D02*
X-212700D01*
X-226055Y-33300D02*
X-212700D01*
X-224454Y-34900D02*
X-212700D01*
X-225255Y-34100D02*
X-212700D01*
X-228454Y-30900D02*
X-212700D01*
X-226854Y-32500D02*
X-212700D01*
X-227655Y-31700D02*
X-212700D01*
X-229200Y-15700D02*
X-222967D01*
X-219400Y-39955D02*
Y-16485D01*
X-221800Y-37554D02*
Y-16198D01*
X-222600Y-36755D02*
Y-15886D01*
X-219843Y-16500D02*
X-211546D01*
X-217800Y-41554D02*
Y-16171D01*
X-218600Y-40755D02*
Y-16380D01*
X-217000Y-42355D02*
Y-15846D01*
X-216200Y-43154D02*
Y-15384D01*
X-216718Y-15700D02*
X-210746D01*
X-215400Y-43850D02*
Y-14745D01*
X-214600Y-43867D02*
Y-13843D01*
X-213800Y-43883D02*
Y-12395D01*
X-215572Y-14900D02*
X-209946D01*
X-214799Y-14100D02*
X-209146D01*
X-214243Y-13300D02*
X-208400D01*
X-213843Y-12500D02*
X-208400D01*
X-213569Y-11700D02*
X-208400D01*
X-213405Y-10900D02*
X-208400D01*
X-213343Y-10100D02*
X-208400D01*
X-213800Y-7605D02*
Y-2943D01*
X-214600Y-6157D02*
Y-4206D01*
X-213763Y-7700D02*
X-208400D01*
X-213380Y-9300D02*
X-208400D01*
X-213518Y-8500D02*
X-208400D01*
X-215353Y-5300D02*
X-208400D01*
X-214129Y-6900D02*
X-208400D01*
X-214643Y-6100D02*
X-208400D01*
X-229200Y-3700D02*
X-225454D01*
X-229200Y-2900D02*
X-225906D01*
X-229200Y-2100D02*
X-226227D01*
X-229200Y-1300D02*
X-226437D01*
X-229200Y-500D02*
X-226545D01*
X-229200Y300D02*
X-226557D01*
X-229200Y-4500D02*
X-224835D01*
X-229200Y1100D02*
X-226473D01*
X-229200Y1900D02*
X-226290D01*
X-229200Y2700D02*
X-225998D01*
X-229200Y3500D02*
X-225581D01*
X-229200Y4300D02*
X-225008D01*
X-229200Y5100D02*
X-224220D01*
X-229200Y5900D02*
X-223062D01*
X-229200Y6700D02*
X-220377D01*
X-225800Y3112D02*
Y22154D01*
X-225000Y4310D02*
Y22954D01*
X-224200Y5117D02*
Y23754D01*
X-223400Y5703D02*
Y24554D01*
X-222600Y6130D02*
Y25354D01*
X-221800Y6430D02*
Y26154D01*
X-221000Y6621D02*
Y26954D01*
X-220200Y6712D02*
Y27754D01*
X-219400Y6707D02*
Y28554D01*
X-229200Y7500D02*
X-208400D01*
X-229200Y8300D02*
X-208400D01*
X-229200Y9100D02*
X-208400D01*
X-229200Y9900D02*
X-208400D01*
X-229200Y10700D02*
X-208400D01*
X-229200Y11500D02*
X-208297D01*
X-229200Y12300D02*
X-207746D01*
X-229200Y13100D02*
X-206946D01*
X-229200Y13900D02*
X-206146D01*
X-229200Y14700D02*
X-205346D01*
X-229200Y15500D02*
X-204546D01*
X-226854Y21100D02*
X-208350D01*
X-226055Y21900D02*
X-208350D01*
X-225255Y22700D02*
X-208350D01*
X-224454Y23500D02*
X-208350D01*
X-223655Y24300D02*
X-208350D01*
X-229200Y16300D02*
X-203746D01*
X-229200Y17100D02*
X-202946D01*
X-229200Y17900D02*
X-202146D01*
X-229200Y18700D02*
X-201346D01*
X-228454Y19500D02*
X-200546D01*
X-227655Y20300D02*
X-200400D01*
X-214850Y-4500D02*
X-208400D01*
X-214231Y-3700D02*
X-208400D01*
X-213779Y-2900D02*
X-208400D01*
X-213687Y2700D02*
X-208400D01*
X-215465Y5100D02*
X-208400D01*
X-214104Y3500D02*
X-208400D01*
X-214677Y4300D02*
X-208400D01*
X-222854Y25100D02*
X-208350D01*
X-216623Y5900D02*
X-208400D01*
X-219308Y6700D02*
X-208400D01*
X-222055Y25900D02*
X-208350D01*
X-221254Y26700D02*
X-208350D01*
X-220455Y27500D02*
X-208350D01*
X-218600Y6605D02*
Y29354D01*
X-217000Y6091D02*
Y30954D01*
X-217800Y6403D02*
Y30154D01*
X-216200Y5649D02*
Y31754D01*
X-214600Y4206D02*
Y33354D01*
X-215400Y5044D02*
Y32554D01*
X-219654Y28300D02*
X-208350D01*
X-218854Y29100D02*
X-208350D01*
X-218055Y29900D02*
X-208350D01*
X-229200Y18754D02*
X-208350Y39604D01*
X-213800Y2943D02*
Y34154D01*
X-217254Y30700D02*
X-200400D01*
X-216455Y31500D02*
X-208350D01*
X-215654Y32300D02*
X-208350D01*
X-214855Y33100D02*
X-208350D01*
X-214054Y33900D02*
X-208350D01*
X-213386Y-43892D02*
Y-41130D01*
X-212700Y-39410D02*
Y-18400D01*
X-213458Y-2100D02*
X-208400D01*
X-212171Y-17125D02*
X-208400Y-13354D01*
X-213248Y-1300D02*
X-208400D01*
X-213000Y-39796D02*
Y34954D01*
X-212200Y-17155D02*
Y35754D01*
X-211400Y-16354D02*
Y36554D01*
X-210600Y-15554D02*
Y37354D01*
X-209800Y-14754D02*
Y38154D01*
X-213140Y-500D02*
X-208400D01*
X-213128Y300D02*
X-208400D01*
X-213212Y1100D02*
X-208400D01*
X-213395Y1900D02*
X-208400D01*
X-209000Y-13954D02*
Y38954D01*
X-208400Y-13354D02*
Y10900D01*
X-208200Y11725D02*
Y20846D01*
X-207400Y12645D02*
Y20846D01*
X-206600Y13445D02*
Y20846D01*
X-205800Y14245D02*
Y20846D01*
X-207871Y12175D02*
X-200400Y19646D01*
X-205000Y15045D02*
Y20846D01*
X-204200Y15845D02*
Y20846D01*
X-203400Y16646D02*
Y20846D01*
X-202600Y17446D02*
Y20846D01*
X-201800Y18246D02*
Y20846D01*
X-198900Y11055D02*
X-196485Y11070D01*
X-197800Y11062D02*
Y12154D01*
X-198454Y11500D02*
X-196052D01*
X-197000Y11067D02*
Y12954D01*
X-196200Y11353D02*
Y13754D01*
X-195400Y12146D02*
Y14554D01*
X-197654Y12300D02*
X-195244D01*
X-196854Y13100D02*
X-194437D01*
X-196054Y13900D02*
X-193630D01*
X-198900Y11055D02*
X-192530Y17425D01*
X-194600Y12939D02*
Y15354D01*
X-193800Y13731D02*
Y16154D01*
X-201000Y19046D02*
Y20846D01*
X-200400Y19646D02*
Y20846D01*
X-193000Y14524D02*
Y16954D01*
X-195255Y14700D02*
X-192823D01*
X-194455Y15500D02*
X-192016D01*
X-187400Y11100D02*
Y12190D01*
X-193655Y16300D02*
X-191208D01*
X-192200Y15317D02*
Y17875D01*
X-191400Y16110D02*
Y21531D01*
X-188500Y11100D02*
X-139300D01*
X-188096Y11500D02*
X-139300D01*
X-187289Y12300D02*
X-139300D01*
X-196485Y11070D02*
X-186600Y20867D01*
X-188500Y11100D02*
X-181833Y17707D01*
X-186600Y11100D02*
Y12983D01*
X-192854Y17100D02*
X-190401D01*
X-192000Y18700D02*
Y21217D01*
X-190600Y16903D02*
Y22162D01*
X-189800Y17696D02*
Y23227D01*
X-192188Y17900D02*
X-189594D01*
X-192000Y18700D02*
X-188787D01*
X-192000Y19500D02*
X-187979D01*
X-189000Y18489D02*
Y48100D01*
X-188200Y19281D02*
Y24237D01*
X-187400Y20074D02*
Y22614D01*
X-185800Y11100D02*
Y13776D01*
X-185000Y11100D02*
Y14569D01*
X-184200Y11100D02*
Y15361D01*
X-183400Y11100D02*
Y16154D01*
X-182600Y11100D02*
Y16947D01*
X-181800Y11100D02*
Y17740D01*
X-181000Y11100D02*
Y21810D01*
X-180200Y11100D02*
Y22614D01*
X-179400Y11100D02*
Y24237D01*
X-178600Y11100D02*
Y48100D01*
X-177800Y11100D02*
Y48100D01*
X-139300Y11100D02*
Y38700D01*
X-186482Y13100D02*
X-139300D01*
X-185675Y13900D02*
X-139300D01*
X-184867Y14700D02*
X-139300D01*
X-181000Y19700D02*
Y21810D01*
X-184060Y15500D02*
X-139300D01*
X-183253Y16300D02*
X-139300D01*
X-182446Y17100D02*
X-139300D01*
X-181655Y17900D02*
X-139300D01*
X-181185Y18700D02*
X-139300D01*
X-181007Y19500D02*
X-139300D01*
X-177000Y11100D02*
Y48100D01*
X-176200Y11100D02*
Y48100D01*
X-175400Y11100D02*
Y48100D01*
X-174600Y11100D02*
Y48100D01*
X-173800Y11100D02*
Y48100D01*
X-173000Y11100D02*
Y48100D01*
X-172200Y11100D02*
Y48100D01*
X-171400Y11100D02*
Y48100D01*
X-170600Y11100D02*
Y48100D01*
X-169800Y11100D02*
Y48100D01*
X-169000Y11100D02*
Y48100D01*
X-168200Y11100D02*
Y48100D01*
X-167400Y11100D02*
Y48100D01*
X-166600Y11100D02*
Y48100D01*
X-165800Y11100D02*
Y48100D01*
X-165000Y11100D02*
Y48100D01*
X-164200Y11100D02*
Y48100D01*
X-163400Y11100D02*
Y48100D01*
X-162600Y11100D02*
Y48100D01*
X-161800Y11100D02*
Y48100D01*
X-161000Y11100D02*
Y48100D01*
X-160200Y11100D02*
Y48100D01*
X-159400Y11100D02*
Y48100D01*
X-158600Y11100D02*
Y48100D01*
X-157800Y11100D02*
Y48100D01*
X-157000Y11100D02*
Y48100D01*
X-156200Y11100D02*
Y48100D01*
X-155400Y11100D02*
Y48100D01*
X-154600Y11100D02*
Y48100D01*
X-153800Y11100D02*
Y48100D01*
X-153000Y11100D02*
Y48100D01*
X-152200Y11100D02*
Y48100D01*
X-151400Y11100D02*
Y48100D01*
X-150600Y11100D02*
Y48100D01*
X-149800Y11100D02*
Y48100D01*
X-149000Y11100D02*
Y48100D01*
X-148200Y11100D02*
Y48100D01*
X-147400Y11100D02*
Y48100D01*
X-146600Y11100D02*
Y48100D01*
X-145800Y11100D02*
Y48100D01*
X-145000Y11100D02*
Y48100D01*
X-144200Y11100D02*
Y48100D01*
X-143400Y11100D02*
Y48100D01*
X-142600Y11100D02*
Y48100D01*
X-141800Y11100D02*
Y48100D01*
X-141000Y11100D02*
Y48100D01*
X-140200Y11100D02*
Y48100D01*
X-139400Y11100D02*
Y48100D01*
X-208350Y20846D02*
Y29946D01*
X-208200D02*
Y30846D01*
X-207400Y29946D02*
Y30846D01*
X-206600Y29946D02*
Y30846D01*
X-205800Y29946D02*
Y30846D01*
X-208350Y20846D02*
X-200400D01*
X-203800Y21346D02*
Y25396D01*
X-207850D02*
X-203800D01*
X-208350Y29946D02*
X-200400D01*
X-203800Y25396D02*
Y29446D01*
X-205000Y29946D02*
Y30846D01*
X-213254Y34700D02*
X-208350D01*
X-204200Y29946D02*
Y30846D01*
X-212455Y35500D02*
X-208350D01*
X-211654Y36300D02*
X-208350D01*
X-203800Y31346D02*
Y35396D01*
X-210855Y37100D02*
X-208350D01*
X-203400Y29946D02*
Y30846D01*
X-202600Y29946D02*
Y30846D01*
X-201800Y29946D02*
Y30846D01*
X-208350D02*
X-200400D01*
X-207850Y35396D02*
X-203800D01*
X-199750D01*
X-196800Y29900D02*
X-194446D01*
X-196800Y28817D02*
Y30154D01*
X-196200Y29262D02*
Y30754D01*
X-195400Y29656D02*
Y31137D01*
X-194600Y29875D02*
Y30917D01*
X-191400Y29262D02*
Y31530D01*
X-189800Y27565D02*
Y33228D01*
X-190600Y28631D02*
Y32162D01*
X-201000Y29946D02*
Y30846D01*
X-200400Y29946D02*
Y30846D01*
X-199250Y32796D02*
X-198109Y33936D01*
X-199250Y33900D02*
X-198146D01*
X-199250Y34700D02*
X-198296D01*
X-199250Y35500D02*
X-198349D01*
X-196800Y30154D02*
X-195695Y31259D01*
X-193000Y29875D02*
Y30917D01*
X-193800Y29946D02*
Y30846D01*
X-199250Y36300D02*
X-198259D01*
X-192200Y29656D02*
Y31137D01*
X-210054Y37900D02*
X-208350D01*
Y30846D02*
Y39604D01*
X-209255Y38700D02*
X-208350D01*
X-206600Y39946D02*
Y41354D01*
X-205800Y39946D02*
Y42154D01*
X-208008Y39946D02*
X-199250D01*
X-203800Y35396D02*
Y39446D01*
X-205000Y39946D02*
Y42954D01*
X-208008Y39946D02*
X-199855Y48100D01*
X-204200Y39946D02*
Y43754D01*
X-203400Y39946D02*
Y44554D01*
X-199250Y37100D02*
X-198019D01*
X-199250Y37900D02*
X-197599D01*
X-199250Y38700D02*
X-196928D01*
X-199250Y32796D02*
Y39946D01*
X-198600Y33446D02*
Y48100D01*
X-197800Y37565D02*
Y48100D01*
X-197000Y38631D02*
Y48100D01*
X-196200Y39262D02*
Y48100D01*
X-191400Y39262D02*
Y48100D01*
X-189800Y37565D02*
Y48100D01*
X-190600Y38631D02*
Y48100D01*
X-202600Y39946D02*
Y45354D01*
X-201800Y39946D02*
Y46154D01*
X-201000Y39946D02*
Y46954D01*
X-200200Y39946D02*
Y47754D01*
X-199400Y39946D02*
Y48100D01*
X-199250Y39500D02*
X-195765D01*
X-195400Y39656D02*
Y48100D01*
X-194600Y39875D02*
Y48100D01*
X-193800Y39946D02*
Y48100D01*
X-192200Y39656D02*
Y48100D01*
X-193000Y39875D02*
Y48100D01*
X-190135Y22700D02*
X-187465D01*
X-189664Y23500D02*
X-187936D01*
X-189384Y24300D02*
X-188216D01*
X-189260Y25100D02*
X-188340D01*
X-189278Y25900D02*
X-188322D01*
X-192000Y20300D02*
X-187172D01*
X-186600Y20867D02*
Y21810D01*
X-192000Y21100D02*
X-186600D01*
X-190888Y21900D02*
X-186712D01*
X-186600Y20867D02*
Y21810D01*
X-190297Y28300D02*
X-187303D01*
X-189441Y26700D02*
X-188159D01*
X-189766Y27500D02*
X-187834D01*
X-190466Y32300D02*
X-187134D01*
X-187400Y28179D02*
Y32614D01*
X-189872Y33100D02*
X-187728D01*
X-196255Y30700D02*
X-139300D01*
X-191157Y29100D02*
X-186443D01*
X-193154Y29900D02*
X-184446D01*
X-191450Y31500D02*
X-186150D01*
X-186600Y28982D02*
Y31810D01*
X-185800Y29483D02*
Y31309D01*
X-181000Y20300D02*
X-139300D01*
X-181000Y21100D02*
X-139300D01*
X-180888Y21900D02*
X-139300D01*
X-180135Y22700D02*
X-139300D01*
X-179664Y23500D02*
X-139300D01*
X-179384Y24300D02*
X-139300D01*
X-179260Y25100D02*
X-139300D01*
X-179278Y25900D02*
X-139300D01*
X-180297Y28300D02*
X-139300D01*
X-179441Y26700D02*
X-139300D01*
X-179766Y27500D02*
X-139300D01*
X-185000Y29785D02*
Y31007D01*
X-184200Y29928D02*
Y30864D01*
X-183400Y29928D02*
Y30864D01*
X-182600Y29785D02*
Y31007D01*
X-181000Y28982D02*
Y31810D01*
X-181800Y29483D02*
Y31309D01*
X-183154Y29900D02*
X-139300D01*
X-181157Y29100D02*
X-139300D01*
X-181450Y31500D02*
X-139300D01*
X-180466Y32300D02*
X-139300D01*
X-180200Y28179D02*
Y32614D01*
X-179872Y33100D02*
X-139300D01*
X-189503Y33900D02*
X-188097D01*
X-188200Y26555D02*
Y34237D01*
X-189304Y34700D02*
X-188296D01*
X-189251Y35500D02*
X-188349D01*
X-189341Y36300D02*
X-188259D01*
X-188200Y36555D02*
Y48100D01*
X-190672Y38700D02*
X-186928D01*
X-189581Y37100D02*
X-188019D01*
X-190001Y37900D02*
X-187599D01*
X-187400Y38179D02*
Y48100D01*
X-186600Y38982D02*
Y48100D01*
X-207655Y40300D02*
X-138446D01*
X-191835Y39500D02*
X-185765D01*
X-206855Y41100D02*
X-137646D01*
X-206054Y41900D02*
X-137500D01*
X-205255Y42700D02*
X-137500D01*
X-204454Y43500D02*
X-137500D01*
X-203655Y44300D02*
X-137500D01*
X-202854Y45100D02*
X-137500D01*
X-202055Y45900D02*
X-137500D01*
X-201255Y46700D02*
X-137500D01*
X-200454Y47500D02*
X-137500D01*
X-199855Y48100D02*
X-137500D01*
X-179503Y33900D02*
X-139300D01*
X-179400Y26555D02*
Y34237D01*
X-179304Y34700D02*
X-139300D01*
X-180200Y38179D02*
Y48100D01*
X-179251Y35500D02*
X-139300D01*
X-179400Y36555D02*
Y48100D01*
X-180001Y37900D02*
X-139300D01*
X-179341Y36300D02*
X-139300D01*
X-179581Y37100D02*
X-139300D01*
X-180672Y38700D02*
X-139300D01*
X-185800Y39483D02*
Y48100D01*
X-185000Y39785D02*
Y48100D01*
X-184200Y39928D02*
Y48100D01*
X-183400Y39928D02*
Y48100D01*
X-181800Y39483D02*
Y48100D01*
X-182600Y39785D02*
Y48100D01*
X-181835Y39500D02*
X-139112D01*
X-181000Y38982D02*
Y48100D01*
X-138770Y39975D02*
X-137500Y41245D01*
X-138600Y40145D02*
Y48100D01*
X-137800Y40946D02*
Y48100D01*
X-137500Y41245D02*
Y48100D01*
D19*
X187500Y-22025D02*
Y-5000D01*
X197900Y-22025D02*
X198375D01*
X187500D02*
X197900D01*
X187250D02*
X187500D01*
X118740Y24798D02*
X118740D01*
X117400D02*
X118740D01*
X118700Y-111002D02*
X118740D01*
X117400D02*
X118700D01*
X173400Y23900D02*
X173940D01*
X148025Y-22025D02*
X177400D01*
Y-26100D02*
Y-22025D01*
X-215286Y-66300D02*
Y-66230D01*
X-218400Y-66100D02*
X-207000D01*
X-183586Y-56230D02*
X-167000D01*
X-158730D02*
X-158600Y-56100D01*
X198375Y-22025D02*
X198700Y-21700D01*
X-183586Y-61230D02*
X-172270D01*
X-218086Y-66230D02*
X-215286D01*
X-105190Y-81708D02*
X-105189Y-78755D01*
Y-77100D01*
X-91530Y-72660D02*
Y-72100D01*
X-92600D02*
X-91530D01*
X-86600Y-70100D02*
Y-60100D01*
X-82600Y-56100D01*
X79440Y-111002D02*
X79440D01*
X79400Y-90100D02*
X79440D01*
X168376Y-35944D02*
X175400D01*
Y-28100D01*
X177400Y-26100D01*
X79400Y24798D02*
X79440D01*
Y32698D02*
X79440D01*
X142500Y-16500D02*
X148025Y-22025D01*
X177400D02*
X178250D01*
X173940Y23900D02*
Y24798D01*
Y32698D02*
X173940D01*
X-150189Y-84100D02*
Y-81708D01*
X117400Y-118902D02*
X118740D01*
X-110189Y-52574D02*
Y-47690D01*
X-91530Y-63660D02*
Y-50970D01*
X-110189Y-47690D02*
X-108500Y-46000D01*
X-96500D01*
X-91530Y-50970D01*
X-203800Y25396D02*
Y35396D01*
X118740Y-111002D02*
X118740D01*
X197400Y-80944D02*
X197510D01*
D20*
X-158600Y-84100D02*
X-150189D01*
X-197620Y-22616D02*
Y-10120D01*
Y-22616D02*
Y-22616D01*
Y-31120D02*
Y-22616D01*
X-188620Y-31120D02*
Y-22616D01*
X-197620Y-10120D02*
X-195500Y-8000D01*
X-195520Y8084D02*
X-195500Y-8000D01*
X-195520Y8084D02*
X-183800Y19700D01*
Y25396D01*
D21*
X135000Y32698D02*
X142440D01*
X134540D02*
X135000D01*
Y24798D02*
X142440D01*
X134540D02*
X135000D01*
Y32698D01*
X118700Y-111002D02*
Y-110802D01*
Y-118702D02*
Y-111002D01*
X79440D02*
Y-90100D01*
Y-111002D02*
Y-111002D01*
X42400Y20700D02*
X42500Y5000D01*
X142500D02*
Y14800D01*
X-82600Y-56100D02*
X45400D01*
X79400Y-90100D01*
X79440Y24798D02*
Y32698D01*
X139400Y17900D02*
X142500Y14800D01*
X139400Y17900D02*
X167400D01*
X173400Y23900D01*
X134540Y-118902D02*
Y-111002D01*
Y-108460D01*
X142440Y24798D02*
Y32698D01*
D23*
X-193800Y25396D02*
D03*
X-183800D02*
D03*
X-193800Y35396D02*
D03*
X-183800D02*
D03*
D24*
X-203800Y25396D02*
D03*
Y35396D02*
D03*
D25*
X79440Y32698D02*
D03*
Y24798D02*
D03*
X87340Y32698D02*
D03*
Y24798D02*
D03*
X95140Y32698D02*
D03*
X103040D02*
D03*
X110940D02*
D03*
X118740D02*
D03*
X126640D02*
D03*
X134540D02*
D03*
X142440D02*
D03*
X150240D02*
D03*
X158140D02*
D03*
X166040D02*
D03*
X95140Y24798D02*
D03*
X103040D02*
D03*
X110940D02*
D03*
X118740D02*
D03*
X126640D02*
D03*
X134540D02*
D03*
X142440D02*
D03*
X150240D02*
D03*
X158140D02*
D03*
X166040D02*
D03*
X173940D02*
D03*
Y32698D02*
D03*
X79440Y-118902D02*
D03*
Y-111002D02*
D03*
X87340Y-118902D02*
D03*
Y-111002D02*
D03*
X95140Y-118902D02*
D03*
Y-111002D02*
D03*
X103040D02*
D03*
Y-118902D02*
D03*
X110940D02*
D03*
Y-111002D02*
D03*
X118740Y-118902D02*
D03*
Y-111002D02*
D03*
X126640Y-118902D02*
D03*
Y-111002D02*
D03*
X134540Y-118902D02*
D03*
Y-111002D02*
D03*
X142440Y-118902D02*
D03*
Y-111002D02*
D03*
X150240Y-118902D02*
D03*
Y-111002D02*
D03*
X158140Y-118902D02*
D03*
Y-111002D02*
D03*
X166040Y-118902D02*
D03*
Y-111002D02*
D03*
X-188620Y-31120D02*
D03*
X-197620D02*
D03*
X42400Y20700D02*
D03*
X-207000Y-66100D02*
D03*
X-158600Y-84100D02*
D03*
Y-56100D02*
D03*
X205900Y-80900D02*
D03*
X197900Y-22025D02*
D03*
X-110600Y-130100D02*
D03*
X-62366Y-63666D02*
D03*
X92500Y-25500D02*
D03*
X97000Y-53000D02*
D03*
X139400Y17900D02*
D03*
X-23500Y-19700D02*
D03*
X-115190Y-116311D02*
D03*
X-94000Y-116500D02*
D03*
X-119400Y-104000D02*
D03*
X-125200Y-112100D02*
D03*
D26*
X-177500Y5000D02*
D03*
X182500D02*
D03*
X172500D02*
D03*
X162500D02*
D03*
X152500D02*
D03*
X142500D02*
D03*
X132500D02*
D03*
X122500D02*
D03*
X112500D02*
D03*
X102500D02*
D03*
X92500D02*
D03*
X82500D02*
D03*
X72500D02*
D03*
X62500D02*
D03*
X52500D02*
D03*
X42500D02*
D03*
X32500D02*
D03*
X22500D02*
D03*
X12500D02*
D03*
X-17500D02*
D03*
X-27500D02*
D03*
X-37500D02*
D03*
X-47500D02*
D03*
X-57500D02*
D03*
X-67500D02*
D03*
X-77500D02*
D03*
X-87500D02*
D03*
X-97500D02*
D03*
X-107500D02*
D03*
X-117500D02*
D03*
X-127500D02*
D03*
X-137500D02*
D03*
X-147500D02*
D03*
X-157500D02*
D03*
X-167500D02*
D03*
X-187500D02*
D03*
X177500Y-5000D02*
D03*
X167500D02*
D03*
X157500D02*
D03*
X147500D02*
D03*
X137500D02*
D03*
X127500D02*
D03*
X117500D02*
D03*
X107500D02*
D03*
X97500D02*
D03*
X87500D02*
D03*
X77500D02*
D03*
X67500D02*
D03*
X57500D02*
D03*
X47500D02*
D03*
X37500D02*
D03*
X27500D02*
D03*
X17500D02*
D03*
X-12500D02*
D03*
X-22500D02*
D03*
X-32500D02*
D03*
X-42500D02*
D03*
X-52500D02*
D03*
X-62500D02*
D03*
X-72500D02*
D03*
X-82500D02*
D03*
X-92500D02*
D03*
X-102500D02*
D03*
X-112500D02*
D03*
X-122500D02*
D03*
X-132500D02*
D03*
X-142500D02*
D03*
X-152500D02*
D03*
X-162500D02*
D03*
X-172500D02*
D03*
X-182500D02*
D03*
D27*
X187500D02*
D03*
D28*
X187250Y-22025D02*
D03*
X178250D02*
D03*
X-188620Y-22616D02*
D03*
X-197620D02*
D03*
D29*
X197510Y-75944D02*
D03*
Y-70944D02*
D03*
Y-65944D02*
D03*
Y-60944D02*
D03*
Y-55944D02*
D03*
Y-50944D02*
D03*
Y-45944D02*
D03*
Y-40944D02*
D03*
X168376Y-80944D02*
D03*
Y-75944D02*
D03*
Y-70944D02*
D03*
Y-65944D02*
D03*
Y-60944D02*
D03*
Y-55944D02*
D03*
Y-50944D02*
D03*
Y-45944D02*
D03*
X197510Y-80944D02*
D03*
X168376Y-40944D02*
D03*
Y-35944D02*
D03*
D30*
X197510D02*
D03*
D31*
X-145189Y-81708D02*
D03*
X-110189D02*
D03*
X-115190D02*
D03*
X-120189D02*
D03*
X-125189D02*
D03*
X-130190D02*
D03*
X-135189D02*
D03*
X-140190D02*
D03*
X-115190Y-52574D02*
D03*
X-120189D02*
D03*
X-125189D02*
D03*
X-130190D02*
D03*
X-135189D02*
D03*
X-140190D02*
D03*
X-145189D02*
D03*
X-150189D02*
D03*
X-110189D02*
D03*
X-150189Y-81708D02*
D03*
X-105190Y-52574D02*
D03*
D32*
Y-81708D02*
D03*
D33*
X-91530Y-72660D02*
D03*
Y-63660D02*
D03*
X-79966Y-63714D02*
D03*
Y-72714D02*
D03*
D34*
X-195786Y-43930D02*
D03*
X-200786D02*
D03*
X-210886Y-78430D02*
D03*
X-205786D02*
D03*
X-200786D02*
D03*
X-195786D02*
D03*
X-190786D02*
D03*
Y-43930D02*
D03*
X-210886D02*
D03*
X-205786D02*
D03*
D35*
X-183586Y-61230D02*
D03*
X-218086Y-51130D02*
D03*
Y-56230D02*
D03*
X-183586Y-66230D02*
D03*
X-218086Y-71230D02*
D03*
X-183586D02*
D03*
X-218086Y-66230D02*
D03*
X-183586Y-56230D02*
D03*
Y-51130D02*
D03*
D36*
X-218086Y-61230D02*
D03*
D37*
X197510Y-80944D02*
X205856D01*
X175400Y-35944D02*
X197510D01*
X-167000Y-56230D02*
X-158730D01*
X-158600Y-56100D02*
X-155511Y-59189D01*
X-110189D01*
Y-52574D01*
X205856Y-80944D02*
X205900Y-80900D01*
X-105189Y-77100D02*
Y-52574D01*
X-105190D02*
X-105189D01*
D38*
X142500Y-16500D02*
Y5000D01*
M02*
