G04*
G04 #@! TF.GenerationSoftware,Altium Limited,Altium Designer,21.1.0 (24)*
G04*
G04 Layer_Physical_Order=1*
G04 Layer_Color=255*
%FSLAX25Y25*%
%MOIN*%
G70*
G04*
G04 #@! TF.SameCoordinates,40E11F36-D20F-4FD9-B815-0A3DC11206FA*
G04*
G04*
G04 #@! TF.FilePolarity,Positive*
G04*
G01*
G75*
%ADD11C,0.01000*%
%ADD18C,0.02008*%
%ADD19C,0.02000*%
%ADD20C,0.03000*%
%ADD21C,0.04000*%
%ADD22C,0.05000*%
%ADD23C,0.06500*%
%ADD24R,0.06500X0.06500*%
%ADD25C,0.05000*%
%ADD26C,0.06000*%
%ADD27R,0.06000X0.06000*%
D11*
X141000Y970D02*
X141930Y738D01*
X142888Y718D01*
X143827Y910D01*
X144700Y1305D01*
X144700Y-1737D02*
X143989Y-2517D01*
X143490Y-3448D01*
X143233Y-4472D01*
Y-5528D01*
X143490Y-6552D01*
X143989Y-7483D01*
X144700Y-8264D01*
X141800Y-5000D02*
X141709Y-4118D01*
X141438Y-3273D01*
X141000Y-2502D01*
Y-7498D02*
X141438Y-6727D01*
X141709Y-5882D01*
X141800Y-5000D01*
X96197Y-26378D02*
X96300Y-25500D01*
X98800Y-29500D02*
X98642Y-28763D01*
X98196Y-28155D01*
X98800Y-29500D02*
X98642Y-28762D01*
X98195Y-28153D01*
X96300Y-25500D02*
X96170Y-24515D01*
X95789Y-23597D01*
X95183Y-22809D01*
X94394Y-22205D01*
X93475Y-21827D01*
X92489Y-21700D01*
X91504Y-21833D01*
X90587Y-22217D01*
X89801Y-22825D01*
X89200Y-23616D01*
Y-27384D02*
X89851Y-28224D01*
X90709Y-28851D01*
X91706Y-29216D01*
X92766Y-29291D01*
X93805Y-29069D01*
X100800Y-53000D02*
X100663Y-51989D01*
X100262Y-51051D01*
X99626Y-50253D01*
X98800Y-49653D01*
X112900Y-82800D02*
X111625Y-83330D01*
X95200Y-49653D02*
X94390Y-50238D01*
X93760Y-51014D01*
X93355Y-51927D01*
X93201Y-52914D01*
X93310Y-53907D01*
X93674Y-54838D01*
X94268Y-55641D01*
X95051Y-56262D01*
X95968Y-56657D01*
X96957Y-56800D01*
X97949Y-56680D01*
X98875Y-56305D01*
X99672Y-55702D01*
X100284Y-54912D01*
X100669Y-53990D01*
X100800Y-53000D01*
X96900Y-59900D02*
X96381Y-58635D01*
X96900Y-59900D02*
X96380Y-58634D01*
X112900Y-82800D02*
X111627Y-83327D01*
X23670Y-103975D02*
X24200Y-102700D01*
X23673Y-103973D02*
X24200Y-102700D01*
X-5766Y-13000D02*
X-5231Y-13859D01*
X-4568Y-14624D01*
X-3795Y-15277D01*
X-2930Y-15802D01*
X-1994Y-16187D01*
X-1009Y-16421D01*
X0Y-16500D01*
X1009Y-16421D01*
X1994Y-16187D01*
X2930Y-15802D01*
X3795Y-15277D01*
X4568Y-14624D01*
X5231Y-13859D01*
X5766Y-13000D01*
X-19700Y-19700D02*
X-19832Y-18705D01*
X-20221Y-17780D01*
X-20837Y-16989D01*
X-21640Y-16386D01*
X-22572Y-16015D01*
X-23569Y-15901D01*
X-24561Y-16051D01*
X-25479Y-16456D01*
X-26259Y-17087D01*
X-26847Y-17900D01*
X13270Y-97275D02*
X13800Y-96000D01*
X13273Y-97273D02*
X13800Y-96000D01*
X4000Y-105800D02*
X5275Y-105270D01*
X4000Y-105800D02*
X5273Y-105273D01*
X-26847Y-21500D02*
X-26259Y-22313D01*
X-25479Y-22944D01*
X-24561Y-23349D01*
X-23569Y-23499D01*
X-22572Y-23385D01*
X-21640Y-23014D01*
X-20837Y-22411D01*
X-20221Y-21620D01*
X-19832Y-20695D01*
X-19700Y-19700D01*
X-45075Y-20970D02*
X-43800Y-21500D01*
X-45073Y-20973D02*
X-43800Y-21500D01*
X13000Y-113900D02*
X14273Y-113373D01*
X13000Y-113900D02*
X14275Y-113370D01*
X-58566Y-63666D02*
X-58703Y-62655D01*
X-59104Y-61717D01*
X-59741Y-60919D01*
X-60566Y-60319D01*
X-64166Y-60320D02*
X-64976Y-60904D01*
X-65606Y-61680D01*
X-66012Y-62593D01*
X-66165Y-63580D01*
X-66056Y-64573D01*
X-65692Y-65504D01*
X-65098Y-66307D01*
X-64315Y-66928D01*
X-63398Y-67323D01*
X-62409Y-67466D01*
X-61417Y-67346D01*
X-60491Y-66971D01*
X-59694Y-66368D01*
X-59082Y-65579D01*
X-58697Y-64657D01*
X-58566Y-63666D01*
X-225609Y-13000D02*
X-225073Y-13859D01*
X-224411Y-14624D01*
X-223638Y-15277D01*
X-222772Y-15802D01*
X-221836Y-16187D01*
X-220851Y-16421D01*
X-219843Y-16500D01*
X-218833Y-16421D01*
X-217849Y-16187D01*
X-216913Y-15802D01*
X-216047Y-15277D01*
X-215274Y-14624D01*
X-214612Y-13859D01*
X-214076Y-13000D01*
X-193821Y-31120D02*
X-193947Y-30150D01*
X-194316Y-29244D01*
X-194905Y-28462D01*
X-195674Y-27857D01*
X-196571Y-27468D01*
X-197539Y-27321D01*
X-198512Y-27426D01*
X-199425Y-27777D01*
X-200219Y-28348D01*
X-200841Y-29104D01*
X-201249Y-29993D01*
X-201417Y-30957D01*
X-197457Y-34917D02*
X-196506Y-34753D01*
X-195627Y-34356D01*
X-194876Y-33749D01*
X-194303Y-32973D01*
X-193943Y-32078D01*
X-193821Y-31120D01*
X-199020Y-62080D02*
X-198413Y-61172D01*
X-198200Y-60100D01*
X-199020Y-62080D02*
X-198413Y-61172D01*
X-198200Y-60100D01*
X-202994Y-32534D02*
X-203601Y-33443D01*
X-203814Y-34516D01*
X-202994Y-32534D02*
X-203601Y-33443D01*
X-203814Y-34516D01*
X-207163Y-62304D02*
X-208123Y-62470D01*
X-209009Y-62875D01*
X-209763Y-63491D01*
X-210335Y-64279D01*
X-210689Y-65187D01*
X-210800Y-66154D01*
X-210661Y-67119D01*
X-210282Y-68016D01*
X-209687Y-68787D01*
X-208916Y-69382D01*
X-208018Y-69761D01*
X-207054Y-69900D01*
X-206087Y-69789D01*
X-205179Y-69435D01*
X-204391Y-68863D01*
X-203774Y-68109D01*
X-203370Y-67223D01*
X-203204Y-66263D01*
X-116053Y-102200D02*
X-116641Y-101387D01*
X-117421Y-100756D01*
X-118339Y-100351D01*
X-119331Y-100201D01*
X-120328Y-100315D01*
X-121260Y-100687D01*
X-122063Y-101289D01*
X-122679Y-102080D01*
X-123067Y-103005D01*
X-123200Y-104000D01*
X-123067Y-104995D01*
X-122679Y-105920D01*
X-122063Y-106711D01*
X-121260Y-107314D01*
X-120328Y-107685D01*
X-119331Y-107799D01*
X-118339Y-107649D01*
X-117421Y-107244D01*
X-116641Y-106613D01*
X-116053Y-105800D01*
X-90200Y-116500D02*
X-90319Y-115556D01*
X-90670Y-114670D01*
X-91229Y-113900D01*
X-97347Y-118300D02*
X-96759Y-119113D01*
X-95979Y-119744D01*
X-95061Y-120149D01*
X-94069Y-120299D01*
X-93072Y-120185D01*
X-92140Y-119814D01*
X-91337Y-119211D01*
X-90721Y-118420D01*
X-90333Y-117495D01*
X-90200Y-116500D01*
X-107253Y-128300D02*
X-107841Y-127487D01*
X-108621Y-126856D01*
X-109539Y-126451D01*
X-110531Y-126301D01*
X-111528Y-126415D01*
X-112460Y-126786D01*
X-113263Y-127389D01*
X-113879Y-128180D01*
X-114268Y-129105D01*
X-114400Y-130100D01*
X-114268Y-131095D01*
X-113879Y-132020D01*
X-113263Y-132811D01*
X-112460Y-133414D01*
X-111528Y-133785D01*
X-110531Y-133899D01*
X-109539Y-133749D01*
X-108621Y-133344D01*
X-107841Y-132713D01*
X-107253Y-131900D01*
X-118127Y-113900D02*
X-118668Y-114782D01*
X-118952Y-115777D01*
X-118956Y-116812D01*
X-118682Y-117809D01*
X-118148Y-118696D01*
X-117395Y-119405D01*
X-116478Y-119886D01*
X-115466Y-120100D01*
X-114433Y-120035D01*
X-113457Y-119693D01*
X-112609Y-119100D01*
X-111952Y-118300D01*
X-121853Y-110300D02*
X-122441Y-109487D01*
X-123221Y-108856D01*
X-124139Y-108451D01*
X-125131Y-108301D01*
X-126128Y-108415D01*
X-127060Y-108786D01*
X-127863Y-109389D01*
X-128479Y-110180D01*
X-128867Y-111105D01*
X-129000Y-112100D01*
X-128867Y-113095D01*
X-128479Y-114020D01*
X-127863Y-114811D01*
X-127060Y-115414D01*
X-126128Y-115785D01*
X-125131Y-115899D01*
X-124139Y-115749D01*
X-123221Y-115344D01*
X-122441Y-114713D01*
X-121853Y-113900D01*
X-180500Y32264D02*
X-179821Y33190D01*
X-179395Y34257D01*
X-179250Y35396D01*
X-179356Y36375D01*
X-179671Y37307D01*
X-180178Y38150D01*
X-180855Y38865D01*
X-181670Y39417D01*
X-182584Y39781D01*
X-183555Y39939D01*
X-184538Y39886D01*
X-185486Y39622D01*
X-186356Y39161D01*
X-187105Y38523D01*
X-187700Y37739D01*
X-188113Y36846D01*
X-188324Y35884D01*
X-188323Y34900D01*
X-188110Y33939D01*
X-187696Y33046D01*
X-187100Y32264D01*
X-189250Y35396D02*
X-189356Y36374D01*
X-189671Y37307D01*
X-190178Y38150D01*
X-190854Y38864D01*
X-191669Y39416D01*
X-192583Y39780D01*
X-193554Y39939D01*
X-194536Y39886D01*
X-195484Y39623D01*
X-196353Y39162D01*
X-197103Y38525D01*
X-197699Y37742D01*
X-198112Y36849D01*
X-198323Y35888D01*
Y34904D01*
X-198112Y33943D01*
X-197699Y33050D01*
X-197103Y32267D01*
X-196353Y31630D01*
X-195484Y31169D01*
X-194536Y30906D01*
X-193554Y30853D01*
X-192583Y31012D01*
X-191669Y31376D01*
X-190854Y31928D01*
X-190178Y32642D01*
X-189671Y33486D01*
X-189356Y34418D01*
X-189250Y35396D01*
X-179250Y25396D02*
X-179395Y26535D01*
X-179821Y27602D01*
X-180500Y28529D01*
X-164974Y19526D02*
X-165720Y20025D01*
X-166600Y20200D01*
X-164974Y19526D02*
X-165720Y20025D01*
X-166600Y20200D01*
X-180707Y22059D02*
X-180090Y22762D01*
X-179630Y23576D01*
X-179346Y24466D01*
X-179250Y25396D01*
X-181426Y16274D02*
X-180681Y15776D01*
X-179802Y15600D01*
X-181426Y16274D02*
X-180681Y15776D01*
X-179802Y15600D01*
X-187100Y28529D02*
X-187719Y27708D01*
X-188138Y26768D01*
X-188336Y25759D01*
X-188301Y24732D01*
X-188037Y23738D01*
X-187557Y22829D01*
X-186884Y22051D01*
X-186054Y21444D01*
X-186054Y21444D02*
X-185426Y20274D01*
X-186054Y21444D02*
X-185426Y20274D01*
X-189250Y25396D02*
X-189356Y26374D01*
X-189671Y27307D01*
X-190178Y28150D01*
X-190854Y28864D01*
X-191669Y29416D01*
X-192583Y29780D01*
X-193554Y29939D01*
X-194536Y29886D01*
X-195484Y29623D01*
X-196353Y29162D01*
X-197103Y28525D01*
X-197699Y27742D01*
X-198112Y26849D01*
X-198323Y25888D01*
Y24904D01*
X-198112Y23943D01*
X-197699Y23050D01*
X-197103Y22267D01*
X-196353Y21630D01*
X-195484Y21169D01*
X-194536Y20906D01*
X-193554Y20853D01*
X-192583Y21012D01*
X-191669Y21376D01*
X-190854Y21928D01*
X-190178Y22643D01*
X-189671Y23486D01*
X-189356Y24418D01*
X-189250Y25396D01*
X-184138Y7681D02*
X-184843Y8381D01*
X-185689Y8900D01*
X-186632Y9211D01*
X-187622Y9298D01*
X-188604Y9156D01*
X-189528Y8792D01*
X-190344Y8225D01*
X-191008Y7487D01*
X-191485Y6616D01*
X-191749Y5659D01*
X-191787Y4666D01*
X-191596Y3692D01*
X-191187Y2787D01*
X-190581Y2000D01*
X-189811Y1374D01*
X-188917Y940D01*
X-187948Y723D01*
X-215519Y-5146D02*
X-214819Y-4466D01*
X-214226Y-3691D01*
X-213750Y-2839D01*
X-213403Y-1926D01*
X-213192Y-974D01*
X-213121Y-0D01*
X-213342Y-10000D02*
X-213435Y-8909D01*
X-213709Y-7849D01*
X-214157Y-6850D01*
X-214766Y-5941D01*
X-215519Y-5146D01*
X-213121Y0D02*
X-213195Y996D01*
X-213416Y1969D01*
X-213779Y2899D01*
X-214275Y3765D01*
X-214894Y4548D01*
X-215622Y5231D01*
X-216443Y5799D01*
X-217340Y6238D01*
X-218291Y6540D01*
X-219277Y6697D01*
X-220275Y6707D01*
X-221264Y6569D01*
X-222221Y6286D01*
X-223126Y5865D01*
X-223958Y5314D01*
X-224700Y4646D01*
X-225334Y3875D01*
X-225848Y3019D01*
X-226229Y2096D01*
X-226469Y1127D01*
X-226562Y133D01*
X-226508Y-863D01*
X-226307Y-1841D01*
X-225963Y-2778D01*
X-225484Y-3654D01*
X-224880Y-4449D01*
X-224166Y-5146D01*
X-224166D02*
X-224856Y-5863D01*
X-225429Y-6677D01*
X-225871Y-7569D01*
X-226171Y-8518D01*
X-226323Y-9501D01*
X-226324Y-10496D01*
X-226172Y-11480D01*
X-225872Y-12429D01*
X-225430Y-13321D01*
X-224858Y-14135D01*
X-224168Y-14852D01*
X-223376Y-15455D01*
X-222502Y-15931D01*
X-221566Y-16267D01*
X-220589Y-16457D01*
X-219594Y-16495D01*
X-218605Y-16381D01*
X-217646Y-16118D01*
X-216738Y-15710D01*
X-215902Y-15170D01*
X-215159Y-14507D01*
X-214526Y-13740D01*
X-214018Y-12884D01*
X-213646Y-11961D01*
X-213419Y-10992D01*
X-213342Y-10000D01*
X214398Y-13000D02*
X214827Y-13913D01*
X215407Y-14738D01*
X216122Y-15449D01*
X216949Y-16027D01*
X217863Y-16452D01*
X218838Y-16712D01*
X219843Y-16800D01*
X220847Y-16712D01*
X221822Y-16452D01*
X222736Y-16027D01*
X223563Y-15449D01*
X224278Y-14738D01*
X224858Y-13913D01*
X225287Y-13000D01*
X178770Y-92875D02*
X179300Y-91600D01*
X178773Y-92873D02*
X179300Y-91600D01*
X169500Y-101400D02*
X170775Y-100870D01*
X169500Y-101400D02*
X170773Y-100873D01*
X170173Y-104827D02*
X168900Y-104300D01*
X170175Y-104830D02*
X168900Y-104300D01*
X140600D02*
X139325Y-104830D01*
X140600Y-104300D02*
X139327Y-104827D01*
X81000Y36163D02*
X80035Y36452D01*
X79028Y36476D01*
X78050Y36235D01*
X77169Y35746D01*
X76449Y35042D01*
X75938Y34174D01*
X75673Y33202D01*
Y32195D01*
X75938Y31223D01*
X76449Y30355D01*
X77169Y29651D01*
X78050Y29162D01*
X79028Y28921D01*
X80035Y28945D01*
X81000Y29234D01*
Y28263D02*
X80035Y28552D01*
X79028Y28576D01*
X78050Y28335D01*
X77169Y27846D01*
X76449Y27142D01*
X75938Y26274D01*
X75673Y25302D01*
Y24295D01*
X75938Y23323D01*
X76449Y22455D01*
X77169Y21751D01*
X78050Y21262D01*
X79028Y21021D01*
X80035Y21045D01*
X81000Y21334D01*
X23200Y15700D02*
X21925Y15170D01*
X23200Y15700D02*
X21927Y15173D01*
X79100Y-107217D02*
X77964Y-107500D01*
X218953Y-5269D02*
X217978Y-5508D01*
X217059Y-5911D01*
X216224Y-6467D01*
X215497Y-7159D01*
X214900Y-7965D01*
X214451Y-8862D01*
X214163Y-9824D01*
X214045Y-10820D01*
X214101Y-11822D01*
X214329Y-12799D01*
X214721Y-13723D01*
X215267Y-14565D01*
X215950Y-15300D01*
X223735D02*
X224395Y-14593D01*
X224929Y-13786D01*
X225322Y-12902D01*
X225562Y-11964D01*
X225642Y-11000D01*
X225552Y-9978D01*
X225283Y-8988D01*
X224843Y-8061D01*
X224247Y-7226D01*
X223514Y-6510D01*
X222665Y-5933D01*
X221728Y-5515D01*
X220732Y-5269D01*
X220732Y-5269D02*
X221764Y-4986D01*
X222718Y-4503D01*
X223558Y-3840D01*
X224248Y-3024D01*
X224762Y-2086D01*
X225079Y-1064D01*
X225186Y0D01*
X225090Y1006D01*
X224807Y1976D01*
X224346Y2875D01*
X223725Y3672D01*
X222964Y4337D01*
X222092Y4847D01*
X221139Y5184D01*
X220140Y5335D01*
X219131Y5296D01*
X218147Y5067D01*
X217223Y4657D01*
X216393Y4081D01*
X215687Y3359D01*
X215129Y2516D01*
X214739Y1584D01*
X214532Y595D01*
X214515Y-415D01*
X214689Y-1411D01*
X215047Y-2356D01*
X215576Y-3216D01*
X216258Y-3962D01*
X217068Y-4566D01*
X217977Y-5007D01*
X218953Y-5269D01*
X-87900Y-104000D02*
X-87700D01*
X-119400D02*
X-87900D01*
X-87700D02*
X4000D01*
X-147500Y5000D02*
Y39000D01*
Y4600D02*
Y5000D01*
X-152500Y-5000D02*
Y-400D01*
Y-5400D02*
Y-5000D01*
X-127500Y5000D02*
Y39000D01*
Y4600D02*
Y5000D01*
X-132500Y-5000D02*
Y-400D01*
Y-5400D02*
Y-5000D01*
X-102500D02*
Y0D01*
Y-5400D02*
Y-5000D01*
X87400Y-52100D02*
Y-200D01*
X110940Y-118860D02*
X111040D01*
X126700Y-110100D02*
X131600Y-115000D01*
X144700Y-1737D02*
Y1305D01*
X141000Y300D02*
X144700D01*
X141000Y-500D02*
X144700D01*
X141000Y-1300D02*
X144700D01*
X144600Y-1825D02*
Y1248D01*
X143800Y-2809D02*
Y901D01*
X142500Y1200D02*
Y5000D01*
X141252Y-2900D02*
X143748D01*
X141000Y-2100D02*
X144325D01*
X141599Y-3700D02*
X143401D01*
X141357Y-6900D02*
X143642D01*
X141000Y-7700D02*
X144153D01*
X141000Y-8500D02*
X144700D01*
X141771Y-4500D02*
X143229D01*
X141789Y-5300D02*
X143210D01*
X141657Y-6100D02*
X143343D01*
X141000Y-9300D02*
X144700D01*
X141000Y-10100D02*
X144700D01*
X141000Y-10900D02*
X144700D01*
X141000Y-11700D02*
X144700D01*
X141000Y-12500D02*
X144700D01*
X89200Y-13300D02*
X144700D01*
X89200Y-14100D02*
X144700D01*
X89200Y-14900D02*
X144700D01*
X89200Y-15700D02*
X144700D01*
X89200Y-16500D02*
X144700D01*
X89200Y-17300D02*
X144700D01*
X89200Y-18100D02*
X144700D01*
X89200Y-18900D02*
X144700D01*
X89200Y-19700D02*
X144700D01*
X89200Y-20500D02*
X144700D01*
X94197Y-22100D02*
X144700D01*
X89200Y-21300D02*
X144700D01*
X95847Y-23700D02*
X144700D01*
X95271Y-22900D02*
X144700D01*
X98789Y-29300D02*
X144700D01*
X98800Y-30100D02*
X144700D01*
X98800Y-30900D02*
X144700D01*
X98800Y-31700D02*
X144700D01*
X98800Y-32500D02*
X144700D01*
X98800Y-33300D02*
X144700D01*
X98800Y-34100D02*
X144700D01*
X98800Y-34900D02*
X144700D01*
X98800Y-35700D02*
X144700D01*
X98800Y-36500D02*
X144700D01*
X98800Y-37300D02*
X144700D01*
X98800Y-38100D02*
X144700D01*
X98800Y-38900D02*
X144700D01*
X100167Y-50900D02*
X144700D01*
X99456Y-50100D02*
X144700D01*
X100571Y-51700D02*
X144700D01*
X100767Y-52500D02*
X144700D01*
X100788Y-53300D02*
X144700D01*
X100637Y-54100D02*
X144700D01*
X100291Y-54900D02*
X144700D01*
X96295Y-25300D02*
X144700D01*
X96252Y-26100D02*
X144700D01*
X96166Y-24500D02*
X144700D01*
X97684Y-27700D02*
X144700D01*
X96784Y-26900D02*
X144700D01*
X98800Y-39700D02*
X144700D01*
X98800Y-40500D02*
X144700D01*
X98497Y-28500D02*
X144700D01*
X98800Y-41300D02*
X144700D01*
X98800Y-42100D02*
X144700D01*
X98800Y-42900D02*
X144700D01*
X98800Y-43700D02*
X144700D01*
X98800Y-44500D02*
X144700D01*
X98800Y-45300D02*
X144700D01*
X98800Y-46100D02*
X144700D01*
X98800Y-46900D02*
X144700D01*
X98800Y-47700D02*
X144700D01*
X98800Y-48500D02*
X144700D01*
X98800Y-49300D02*
X144700D01*
X141000Y-2502D02*
Y970D01*
X141400Y-3189D02*
Y843D01*
X141000Y-13000D02*
Y-7498D01*
X96600Y-26736D02*
Y-13000D01*
X95000Y-22638D02*
Y-13000D01*
X95800Y-23616D02*
Y-13000D01*
X94200Y-22102D02*
Y-13000D01*
X93400Y-21808D02*
Y-13000D01*
X92600Y-21701D02*
Y-13000D01*
X99800Y-50431D02*
Y-13000D01*
X100600Y-51784D02*
Y-13000D01*
X99000Y-49769D02*
Y-13000D01*
X97400Y-27447D02*
Y-13000D01*
X98200Y-28158D02*
Y-13000D01*
X96197Y-26378D02*
X98194Y-28153D01*
X93805Y-29069D02*
X95200Y-30308D01*
X93400Y-51784D02*
Y-29192D01*
X91800Y-21765D02*
Y-13000D01*
X91000Y-22009D02*
Y-13000D01*
X89200D02*
X141000D01*
X92500Y-29300D02*
X94066D01*
X90200Y-22475D02*
Y-13000D01*
X89400Y-23302D02*
Y-13000D01*
X89200Y-23616D02*
Y-13000D01*
Y-22100D02*
X90803D01*
X89200Y-28500D02*
X90168D01*
X91000Y-53185D02*
Y-28991D01*
X89200Y-29300D02*
X92500D01*
X92600Y-54805D02*
Y-29299D01*
X91800Y-53995D02*
Y-29235D01*
X89200Y-51361D02*
Y-27384D01*
X90200Y-52374D02*
Y-28525D01*
X89400Y-51564D02*
Y-27698D01*
X89200Y-30100D02*
X94966D01*
X89200Y-30900D02*
X95200D01*
X89200Y-31700D02*
X95200D01*
X89200Y-32500D02*
X95200D01*
X89200Y-33300D02*
X95200D01*
X89200Y-34100D02*
X95200D01*
X89200Y-34900D02*
X95200D01*
X89200Y-35700D02*
X95200D01*
X89200Y-36500D02*
X95200D01*
X89200Y-37300D02*
X95200D01*
X98800Y-49653D02*
Y-29500D01*
X95000Y-49769D02*
Y-30131D01*
X94200Y-50431D02*
Y-29419D01*
X95200Y-49653D02*
Y-30308D01*
X90324Y-52500D02*
X93233D01*
X91114Y-53300D02*
X93212D01*
X89534Y-51700D02*
X93429D01*
X92693Y-54900D02*
X93709D01*
X91904Y-54100D02*
X93363D01*
X89200Y-38100D02*
X95200D01*
X89200Y-38900D02*
X95200D01*
X89200Y-39700D02*
X95200D01*
X89200Y-40500D02*
X95200D01*
X89200Y-41300D02*
X95200D01*
X89200Y-42100D02*
X95200D01*
X89200Y-42900D02*
X95200D01*
X89200Y-43700D02*
X95200D01*
X89200Y-44500D02*
X95200D01*
X89200Y-45300D02*
X95200D01*
X89200Y-46100D02*
X95200D01*
X89200Y-46900D02*
X95200D01*
X89200Y-47700D02*
X95200D01*
X89200Y-48500D02*
X95200D01*
X89200Y-49300D02*
X95200D01*
X89200Y-50100D02*
X94544D01*
X89200Y-50900D02*
X93833D01*
X143800Y-80954D02*
Y-7191D01*
X143000Y-81754D02*
Y729D01*
X142200Y-82555D02*
Y710D01*
X144700Y-80054D02*
Y-8264D01*
X144600Y-80155D02*
Y-8175D01*
X141400Y-82800D02*
Y-6811D01*
X140600Y-82800D02*
Y-13000D01*
X139800Y-82800D02*
Y-13000D01*
X139000Y-82800D02*
Y-13000D01*
X138200Y-82800D02*
Y-13000D01*
X137400Y-82800D02*
Y-13000D01*
X136600Y-82800D02*
Y-13000D01*
X135800Y-82800D02*
Y-13000D01*
X135000Y-82800D02*
Y-13000D01*
X134200Y-82800D02*
Y-13000D01*
X133400Y-82800D02*
Y-13000D01*
X132600Y-82800D02*
Y-13000D01*
X131800Y-82800D02*
Y-13000D01*
X131000Y-82800D02*
Y-13000D01*
X130200Y-82800D02*
Y-13000D01*
X129400Y-82800D02*
Y-13000D01*
X128600Y-82800D02*
Y-13000D01*
X127800Y-82800D02*
Y-13000D01*
X127000Y-82800D02*
Y-13000D01*
X126200Y-82800D02*
Y-13000D01*
X125400Y-82800D02*
Y-13000D01*
X124600Y-82800D02*
Y-13000D01*
X123800Y-82800D02*
Y-13000D01*
X123000Y-82800D02*
Y-13000D01*
X122200Y-82800D02*
Y-13000D01*
X121400Y-82800D02*
Y-13000D01*
X120600Y-82800D02*
Y-13000D01*
X119800Y-82800D02*
Y-13000D01*
X119000Y-82800D02*
Y-13000D01*
X118200Y-82800D02*
Y-13000D01*
X117400Y-82800D02*
Y-13000D01*
X116600Y-82800D02*
Y-13000D01*
X115800Y-82800D02*
Y-13000D01*
X115000Y-82800D02*
Y-13000D01*
X99674Y-55700D02*
X144700D01*
X98480Y-56500D02*
X144700D01*
X96889Y-59700D02*
X144700D01*
X96900Y-60500D02*
X144700D01*
X96900Y-61300D02*
X144700D01*
X96900Y-62100D02*
X144700D01*
X96900Y-62900D02*
X144700D01*
X96900Y-63700D02*
X144700D01*
X96900Y-64500D02*
X144700D01*
X96900Y-65300D02*
X144700D01*
X96900Y-66100D02*
X144700D01*
X96900Y-66900D02*
X144700D01*
X96900Y-67700D02*
X144700D01*
X96900Y-68500D02*
X144700D01*
X96900Y-69300D02*
X144700D01*
X141954Y-82800D02*
X144700Y-80054D01*
X114200Y-82800D02*
Y-13000D01*
X113400Y-82800D02*
Y-13000D01*
X112900Y-82800D02*
X141954D01*
X95852Y-58100D02*
X144700D01*
X96597Y-58900D02*
X144700D01*
X95063Y-57300D02*
X144700D01*
X96900Y-70100D02*
X144700D01*
X96900Y-70900D02*
X144700D01*
X96900Y-71700D02*
X144700D01*
X96900Y-72500D02*
X144700D01*
X96900Y-73300D02*
X144700D01*
X96900Y-74100D02*
X144700D01*
X96900Y-74900D02*
X144700D01*
X96900Y-75700D02*
X144700D01*
X96900Y-76500D02*
X144700D01*
X96900Y-77300D02*
X144700D01*
X96900Y-78100D02*
X144700D01*
X96900Y-78900D02*
X144700D01*
X96900Y-79700D02*
X144700D01*
X96900Y-80500D02*
X144254D01*
X96900Y-81300D02*
X143454D01*
X96900Y-82100D02*
X142654D01*
X112600Y-82825D02*
Y-13000D01*
X111800Y-83175D02*
Y-13000D01*
X111000Y-83955D02*
Y-13000D01*
X110200Y-84000D02*
Y-13000D01*
X109400Y-84000D02*
Y-13000D01*
X108600Y-84000D02*
Y-13000D01*
X107800Y-84000D02*
Y-13000D01*
X107000Y-84000D02*
Y-13000D01*
X106200Y-84000D02*
Y-13000D01*
X105400Y-84000D02*
Y-13000D01*
X104600Y-84000D02*
Y-13000D01*
X103800Y-84000D02*
Y-13000D01*
X103000Y-84000D02*
Y-13000D01*
X102200Y-84000D02*
Y-13000D01*
X101400Y-84000D02*
Y-13000D01*
X100600Y-84000D02*
Y-54217D01*
X99800Y-84000D02*
Y-55569D01*
X99000Y-84000D02*
Y-56231D01*
X98200Y-84000D02*
Y-56606D01*
X97400Y-84000D02*
Y-56779D01*
X94273Y-56500D02*
X95520D01*
X89200Y-51361D02*
X96380Y-58634D01*
X96600Y-58905D02*
Y-56779D01*
X95800Y-58047D02*
Y-56606D01*
X93400Y-55616D02*
Y-54217D01*
X94200Y-56426D02*
Y-55569D01*
X95000Y-57237D02*
Y-56231D01*
X93483Y-55700D02*
X94326D01*
X110954Y-84000D02*
X111625Y-83330D01*
X96900Y-82900D02*
X112308D01*
X96900Y-83700D02*
X111254D01*
X96900Y-84000D02*
X110954D01*
X96900D02*
Y-59900D01*
X24200Y-13000D02*
X37500D01*
X24200Y-13300D02*
X37500D01*
X24200Y-14100D02*
X37500D01*
X24200Y-14900D02*
X37500D01*
X24200Y-15700D02*
X37500D01*
X24200Y-16500D02*
X37500D01*
X24200Y-17300D02*
X37500D01*
X24200Y-18100D02*
X37500D01*
X24200Y-18900D02*
X37500D01*
X24200Y-19700D02*
X37500D01*
X24200Y-20500D02*
X37500D01*
X24200Y-21300D02*
X37500D01*
X24200Y-22100D02*
X37500D01*
X24200Y-22900D02*
X37500D01*
X24200Y-23700D02*
X37500D01*
X24200Y-24500D02*
X37500D01*
X24200Y-25300D02*
X37500D01*
X24200Y-26100D02*
X37500D01*
X24200Y-26900D02*
X37500D01*
X24200Y-27700D02*
X37500D01*
X24200Y-28500D02*
X37500D01*
X24200Y-29300D02*
X37500D01*
X24200Y-30100D02*
X37500D01*
X24200Y-30900D02*
X37500D01*
X24200Y-31700D02*
X37500D01*
X24200Y-32500D02*
X37500D01*
X24200Y-33300D02*
X37500D01*
X24200Y-34100D02*
X37500D01*
X24200Y-34900D02*
X37500D01*
X24200Y-35700D02*
X37500D01*
X24200Y-36500D02*
X37500D01*
X24200Y-37300D02*
X37500D01*
X24200Y-38100D02*
X37500D01*
X24200Y-38900D02*
X37500D01*
X24200Y-39700D02*
X37500D01*
X24200Y-40500D02*
X37500D01*
X24200Y-41300D02*
X37500D01*
X24200Y-42100D02*
X37500D01*
X24200Y-42900D02*
X37500D01*
X24200Y-43700D02*
X37500D01*
X24200Y-44500D02*
X37500D01*
X24200Y-45300D02*
X37500D01*
Y-64000D02*
Y-13000D01*
X24200Y-102700D02*
Y-13000D01*
Y-46100D02*
X37500D01*
X24200Y-46900D02*
X37500D01*
X24200Y-47700D02*
X37500D01*
X24200Y-48500D02*
X37500D01*
X24200Y-49300D02*
X37500D01*
X24200Y-50100D02*
X37500D01*
X24200Y-50900D02*
X37500D01*
X24200Y-51700D02*
X37500D01*
X24200Y-52500D02*
X37500D01*
X13800Y-13000D02*
X20600D01*
X13800Y-13300D02*
X20600D01*
X13800Y-14100D02*
X20600D01*
X13800Y-14900D02*
X20600D01*
X13800Y-15700D02*
X20600D01*
X13800Y-16500D02*
X20600D01*
X13800Y-17300D02*
X20600D01*
X13800Y-18100D02*
X20600D01*
X13800Y-18900D02*
X20600D01*
X13800Y-19700D02*
X20600D01*
X13800Y-20500D02*
X20600D01*
X13800Y-21300D02*
X20600D01*
X13800Y-22100D02*
X20600D01*
X13800Y-22900D02*
X20600D01*
X13800Y-23700D02*
X20600D01*
X13800Y-24500D02*
X20600D01*
X13800Y-25300D02*
X20600D01*
X13800Y-26100D02*
X20600D01*
X13800Y-26900D02*
X20600D01*
X13800Y-27700D02*
X20600D01*
X13800Y-28500D02*
X20600D01*
X13800Y-29300D02*
X20600D01*
X13800Y-30100D02*
X20600D01*
X13800Y-30900D02*
X20600D01*
X13800Y-31700D02*
X20600D01*
X13800Y-32500D02*
X20600D01*
X13800Y-33300D02*
X20600D01*
X13800Y-34100D02*
X20600D01*
X13800Y-34900D02*
X20600D01*
X13800Y-35700D02*
X20600D01*
X13800Y-36500D02*
X20600D01*
X13800Y-37300D02*
X20600D01*
X13800Y-38100D02*
X20600D01*
X13800Y-38900D02*
X20600D01*
X13800Y-39700D02*
X20600D01*
X13800Y-40500D02*
X20600D01*
X24200Y-53300D02*
X37500D01*
X13800Y-41300D02*
X20600D01*
X13800Y-42100D02*
X20600D01*
X13800Y-42900D02*
X20600D01*
X13800Y-43700D02*
X20600D01*
X13800Y-44500D02*
X20600D01*
X13800Y-45300D02*
X20600D01*
X13800Y-46100D02*
X20600D01*
X13800Y-46900D02*
X20600D01*
X13800Y-47700D02*
X20600D01*
X13800Y-48500D02*
X20600D01*
X13800Y-49300D02*
X20600D01*
X13800Y-50100D02*
X20600D01*
X13800Y-50900D02*
X20600D01*
X13800Y-51700D02*
X20600D01*
X13800Y-52500D02*
X20600D01*
X13800Y-53300D02*
X20600D01*
X24200Y-65300D02*
X38788D01*
X24200Y-64500D02*
X37995D01*
X24200Y-66900D02*
X40374D01*
X24200Y-66100D02*
X39581D01*
X24200Y-68500D02*
X41959D01*
X24200Y-67700D02*
X41166D01*
X24200Y-69300D02*
X42752D01*
X24200Y-70900D02*
X44337D01*
X24200Y-70100D02*
X43545D01*
X24200Y-72500D02*
X45923D01*
X24200Y-71700D02*
X45130D01*
X24200Y-74100D02*
X47508D01*
X24200Y-73300D02*
X46715D01*
X24200Y-74900D02*
X48301D01*
X24200Y-54100D02*
X37500D01*
X24200Y-54900D02*
X37500D01*
X24200Y-55700D02*
X37500D01*
X24200Y-56500D02*
X37500D01*
X24200Y-57300D02*
X37500D01*
X24200Y-58100D02*
X37500D01*
X24200Y-58900D02*
X37500D01*
X24200Y-59700D02*
X37500D01*
X24200Y-60500D02*
X37500D01*
X24200Y-61300D02*
X37500D01*
X24200Y-62100D02*
X37500D01*
X24200Y-62900D02*
X37500D01*
X24200Y-63700D02*
X37500D01*
X24200Y-86900D02*
X60192D01*
X24200Y-86100D02*
X59399D01*
X37500Y-64000D02*
X70200Y-97000D01*
X24200Y-87700D02*
X60984D01*
X24200Y-89300D02*
X62570D01*
X24200Y-88500D02*
X61777D01*
X24200Y-90100D02*
X63363D01*
X24200Y-91700D02*
X64948D01*
X24200Y-90900D02*
X64155D01*
X24200Y-92500D02*
X65741D01*
X24200Y-94100D02*
X67326D01*
X24200Y-93300D02*
X66534D01*
X24200Y-94900D02*
X68119D01*
X24200Y-76500D02*
X49886D01*
X24200Y-75700D02*
X49094D01*
X24200Y-78100D02*
X51472D01*
X24200Y-77300D02*
X50679D01*
X24200Y-79700D02*
X53057D01*
X24200Y-78900D02*
X52264D01*
X24200Y-80500D02*
X53850D01*
X24200Y-82100D02*
X55435D01*
X24200Y-81300D02*
X54643D01*
X24200Y-82900D02*
X56228D01*
X24200Y-84500D02*
X57814D01*
X24200Y-83700D02*
X57021D01*
X24200Y-85300D02*
X58606D01*
X13800Y-54100D02*
X20600D01*
X13800Y-54900D02*
X20600D01*
X13800Y-55700D02*
X20600D01*
X13800Y-56500D02*
X20600D01*
X13800Y-57300D02*
X20600D01*
X13800Y-58100D02*
X20600D01*
X13800Y-58900D02*
X20600D01*
X13800Y-59700D02*
X20600D01*
X13800Y-60500D02*
X20600D01*
X13800Y-61300D02*
X20600D01*
X13800Y-62100D02*
X20600D01*
X13800Y-62900D02*
X20600D01*
X13800Y-63700D02*
X20600D01*
X13800Y-64500D02*
X20600D01*
X13800Y-65300D02*
X20600D01*
X13800Y-66100D02*
X20600D01*
X13800Y-66900D02*
X20600D01*
X13800Y-67700D02*
X20600D01*
X13800Y-68500D02*
X20600D01*
X13800Y-69300D02*
X20600D01*
X13800Y-70100D02*
X20600D01*
X13800Y-70900D02*
X20600D01*
X13800Y-71700D02*
X20600D01*
X13800Y-72500D02*
X20600D01*
X13800Y-73300D02*
X20600D01*
X13800Y-74100D02*
X20600D01*
X24200Y-97300D02*
X70200D01*
X24200Y-98100D02*
X70200D01*
X24200Y-98900D02*
X70200D01*
X24200Y-99700D02*
X70200D01*
X24200Y-100500D02*
X70200D01*
X24200Y-101300D02*
X70200D01*
X24200Y-102100D02*
X70200D01*
X24189Y-102900D02*
X70200D01*
X23897Y-103700D02*
X70200D01*
X23145Y-104500D02*
X70200D01*
X22345Y-105300D02*
X70200D01*
X21545Y-106100D02*
X70200D01*
X20745Y-106900D02*
X70200D01*
X13800Y-74900D02*
X20600D01*
X13800Y-75700D02*
X20600D01*
X24200Y-96500D02*
X69705D01*
X24200Y-95700D02*
X68912D01*
X13800Y-76500D02*
X20600D01*
X13800Y-77300D02*
X20600D01*
X13800Y-78100D02*
X20600D01*
X19945Y-107700D02*
X70200D01*
X19146Y-108500D02*
X70200D01*
X18346Y-109300D02*
X70200D01*
X17546Y-110100D02*
X70200D01*
X13800Y-96000D02*
Y-13000D01*
X10200Y-95254D02*
Y-13000D01*
X20600Y-101954D02*
Y-13000D01*
Y-101954D02*
Y-13000D01*
X5766D02*
X10200D01*
Y-95254D02*
Y-13000D01*
X9400Y-96055D02*
Y-13000D01*
X5600Y-13300D02*
X10200D01*
X5044Y-14100D02*
X10200D01*
X8600Y-96855D02*
Y-13000D01*
X7800Y-97654D02*
Y-13000D01*
X4271Y-14900D02*
X10200D01*
X3124Y-15700D02*
X10200D01*
X0Y-16500D02*
X10200D01*
X7000Y-98454D02*
Y-13000D01*
X6200Y-99255D02*
Y-13000D01*
X5400Y-100055D02*
Y-13618D01*
X4600Y-100855D02*
Y-14592D01*
X-4200Y-102200D02*
Y-14961D01*
X-5000Y-102200D02*
Y-14153D01*
X3800Y-101655D02*
Y-15274D01*
X3000Y-102200D02*
Y-15766D01*
X2200Y-102200D02*
Y-16116D01*
X-1800Y-102200D02*
Y-16246D01*
X-2600Y-102200D02*
Y-15957D01*
X-3400Y-102200D02*
Y-15540D01*
X19800Y-102754D02*
Y-13000D01*
X19000Y-103554D02*
Y-13000D01*
X18200Y-104355D02*
Y-13000D01*
X17400Y-105155D02*
Y-13000D01*
X16600Y-105955D02*
Y-13000D01*
X15800Y-106755D02*
Y-13000D01*
X15000Y-107554D02*
Y-13000D01*
X-5800Y-102200D02*
Y-13000D01*
X-6600Y-102200D02*
Y-13000D01*
X14200Y-108354D02*
Y-13000D01*
X-7400Y-102200D02*
Y-13000D01*
X-8200Y-102200D02*
Y-13000D01*
X-9000Y-102200D02*
Y-13000D01*
X-9800Y-102200D02*
Y-13000D01*
X-10600Y-102200D02*
Y-13000D01*
X-11400Y-102200D02*
Y-13000D01*
X-12200Y-102200D02*
Y-13000D01*
X-13000Y-102200D02*
Y-13000D01*
X-13800Y-102200D02*
Y-13000D01*
X-14600Y-102200D02*
Y-13000D01*
X-15400Y-102200D02*
Y-13000D01*
X-16200Y-102200D02*
Y-13000D01*
X-17000Y-102200D02*
Y-13000D01*
X-17800Y-102200D02*
Y-13000D01*
X-18600Y-102200D02*
Y-13000D01*
X-19400Y-102200D02*
Y-13000D01*
X-21800Y-16301D02*
Y-13000D01*
X-22600Y-16008D02*
Y-13000D01*
X-20200Y-17816D02*
Y-13000D01*
X-21000Y-16838D02*
Y-13000D01*
X-47954D02*
X-5766D01*
X-23400Y-15901D02*
Y-13000D01*
X-24200Y-15965D02*
Y-13000D01*
X-45254Y-15700D02*
X-3124D01*
X-25000Y-16209D02*
Y-13000D01*
X-25800Y-16675D02*
Y-13000D01*
X-26600Y-17502D02*
Y-13000D01*
X-46854Y-14100D02*
X-5044D01*
X-47655Y-13300D02*
X-5600D01*
X-46055Y-14900D02*
X-4271D01*
X-27400Y-17900D02*
Y-13000D01*
X-28200Y-17900D02*
Y-13000D01*
X-29000Y-17900D02*
Y-13000D01*
X-29800Y-17900D02*
Y-13000D01*
X-30600Y-17900D02*
Y-13000D01*
X-31400Y-17900D02*
Y-13000D01*
X-32200Y-17900D02*
Y-13000D01*
X-43400Y-17555D02*
Y-13000D01*
X-44200Y-16755D02*
Y-13000D01*
X-33000Y-17900D02*
Y-13000D01*
X-45800Y-15155D02*
Y-13000D01*
X-46600Y-14355D02*
Y-13000D01*
X-45000Y-15955D02*
Y-13000D01*
X-33800Y-17900D02*
Y-13000D01*
X-34600Y-17900D02*
Y-13000D01*
X-35400Y-17900D02*
Y-13000D01*
X-36200Y-17900D02*
Y-13000D01*
X-37000Y-17900D02*
Y-13000D01*
X-37800Y-17900D02*
Y-13000D01*
X-38600Y-17900D02*
Y-13000D01*
X-39400Y-17900D02*
Y-13000D01*
X-40200Y-17900D02*
Y-13000D01*
X-41000Y-17900D02*
Y-13000D01*
X-41800Y-17900D02*
Y-13000D01*
X-42600Y-17900D02*
Y-13000D01*
X-47954D02*
X-43055Y-17900D01*
X-53046Y-13000D02*
X-45075Y-20970D01*
X-53000Y-102200D02*
Y-13046D01*
X-53800Y-102200D02*
Y-13000D01*
X-54600Y-102200D02*
Y-13000D01*
X-55400Y-102200D02*
Y-13000D01*
X-56200Y-102200D02*
Y-13000D01*
X-49800Y-102200D02*
Y-16246D01*
X-50600Y-102200D02*
Y-15446D01*
X-51400Y-102200D02*
Y-14646D01*
X-52200Y-102200D02*
Y-13846D01*
X-57000Y-102200D02*
Y-13000D01*
X-57800Y-102200D02*
Y-13000D01*
X13800Y-78900D02*
X20600D01*
X13800Y-79700D02*
X20600D01*
X13800Y-80500D02*
X20600D01*
X13800Y-81300D02*
X20600D01*
X13800Y-82100D02*
X20600D01*
X13800Y-82900D02*
X20600D01*
X13800Y-83700D02*
X20600D01*
X13800Y-84500D02*
X20600D01*
X13800Y-85300D02*
X20600D01*
X13800Y-86100D02*
X20600D01*
X13800Y-86900D02*
X20600D01*
X13800Y-87700D02*
X20600D01*
X13800Y-88500D02*
X20600D01*
X13800Y-89300D02*
X20600D01*
X13800Y-90100D02*
X20600D01*
X-19700Y-19700D02*
X10200D01*
X13800Y-90900D02*
X20600D01*
X13800Y-91700D02*
X20600D01*
X-20053Y-18100D02*
X10200D01*
X-19785Y-18900D02*
X10200D01*
X-19785Y-20500D02*
X10200D01*
X13800Y-92500D02*
X20600D01*
X13800Y-93300D02*
X20600D01*
X13800Y-94100D02*
X20600D01*
X13800Y-94900D02*
X20600D01*
X13800Y-95700D02*
X20600D01*
X13729Y-96500D02*
X20600D01*
X13246Y-97300D02*
X20600D01*
X12445Y-98100D02*
X20600D01*
X11646Y-98900D02*
X20600D01*
X10846Y-99700D02*
X20600D01*
X10046Y-100500D02*
X20600D01*
X9245Y-101300D02*
X20600D01*
X8445Y-102100D02*
X20454D01*
X7645Y-102900D02*
X19654D01*
X12254Y-110300D02*
X20600Y-101954D01*
X6846Y-103700D02*
X18854D01*
X6045Y-104500D02*
X18054D01*
X5245Y-105300D02*
X17254D01*
X3254Y-102200D02*
X10200Y-95254D01*
X5275Y-105271D02*
X13270Y-97275D01*
X1400Y-102200D02*
Y-16348D01*
X600Y-102200D02*
Y-16472D01*
X-200Y-102200D02*
Y-16497D01*
X-1000Y-102200D02*
Y-16423D01*
X13400Y-109154D02*
Y-97131D01*
X12600Y-109955D02*
Y-97946D01*
X11800Y-110300D02*
Y-98746D01*
X11000Y-110300D02*
Y-99546D01*
X-20554Y-17300D02*
X10200D01*
X-20053Y-21300D02*
X10200D01*
X-20554Y-22100D02*
X10200D01*
X-20200Y-102200D02*
Y-21584D01*
X-21451Y-16500D02*
X0D01*
X-21000Y-102200D02*
Y-22562D01*
X-21451Y-22900D02*
X10200D01*
X-21800Y-102200D02*
Y-23099D01*
X-22600Y-102200D02*
Y-23392D01*
X-58644Y-62900D02*
X10200D01*
X-58566Y-63700D02*
X10200D01*
X-58659Y-64500D02*
X10200D01*
X-43655Y-17300D02*
X-26446D01*
X-43055Y-17900D02*
X-26847D01*
X-43800Y-21500D02*
X-26847D01*
X-27400Y-102200D02*
Y-21500D01*
X-44455Y-16500D02*
X-25549D01*
X-23400Y-102200D02*
Y-23499D01*
X-24200Y-102200D02*
Y-23435D01*
X-25000Y-102200D02*
Y-23191D01*
X-25800Y-102200D02*
Y-22725D01*
X-26600Y-102200D02*
Y-21898D01*
X-28200Y-102200D02*
Y-21500D01*
X-29000Y-102200D02*
Y-21500D01*
X-29800Y-102200D02*
Y-21500D01*
X-30600Y-102200D02*
Y-21500D01*
X-31400Y-102200D02*
Y-21500D01*
X-32200Y-102200D02*
Y-21500D01*
X-33000Y-102200D02*
Y-21500D01*
X-33800Y-102200D02*
Y-21500D01*
X-34600Y-102200D02*
Y-21500D01*
X-35400Y-102200D02*
Y-21500D01*
X-36200Y-102200D02*
Y-21500D01*
X-37000Y-102200D02*
Y-21500D01*
X-37800Y-102200D02*
Y-21500D01*
X-38600Y-102200D02*
Y-21500D01*
X-39400Y-102200D02*
Y-21500D01*
X-45000Y-102200D02*
Y-21042D01*
X-45800Y-102200D02*
Y-20246D01*
X-46600Y-102200D02*
Y-19446D01*
X-47400Y-102200D02*
Y-18646D01*
X-48200Y-102200D02*
Y-17846D01*
X-49000Y-102200D02*
Y-17046D01*
X-40200Y-102200D02*
Y-21500D01*
X-41000Y-102200D02*
Y-21500D01*
X-41800Y-102200D02*
Y-21500D01*
X-42600Y-102200D02*
Y-21500D01*
X-43400Y-102200D02*
Y-21500D01*
X-44200Y-102200D02*
Y-21455D01*
X64600Y-128300D02*
Y-91349D01*
X63800Y-128300D02*
Y-90541D01*
X63000Y-128300D02*
Y-89734D01*
X62200Y-128300D02*
Y-88927D01*
X61400Y-128300D02*
Y-88119D01*
X60600Y-128300D02*
Y-87312D01*
X59800Y-128300D02*
Y-86505D01*
X70200Y-128300D02*
Y-97000D01*
X69400Y-128300D02*
Y-96193D01*
X68600Y-128300D02*
Y-95385D01*
X67800Y-128300D02*
Y-94578D01*
X67000Y-128300D02*
Y-93771D01*
X66200Y-128300D02*
Y-92963D01*
X65400Y-128300D02*
Y-92156D01*
X54200Y-128300D02*
Y-80853D01*
X53400Y-128300D02*
Y-80046D01*
X52600Y-128300D02*
Y-79239D01*
X51800Y-128300D02*
Y-78431D01*
X51000Y-128300D02*
Y-77624D01*
X50200Y-128300D02*
Y-76817D01*
X49400Y-128300D02*
Y-76009D01*
X59000Y-128300D02*
Y-85697D01*
X58200Y-128300D02*
Y-84890D01*
X57400Y-128300D02*
Y-84083D01*
X56600Y-128300D02*
Y-83275D01*
X55800Y-128300D02*
Y-82468D01*
X55000Y-128300D02*
Y-81661D01*
X43800Y-128300D02*
Y-70358D01*
X43000Y-128300D02*
Y-69551D01*
X42200Y-128300D02*
Y-68743D01*
X41400Y-128300D02*
Y-67936D01*
X40600Y-128300D02*
Y-67128D01*
X39800Y-128300D02*
Y-66321D01*
X39000Y-128300D02*
Y-65514D01*
X48600Y-128300D02*
Y-75202D01*
X47800Y-128300D02*
Y-74395D01*
X47000Y-128300D02*
Y-73587D01*
X46200Y-128300D02*
Y-72780D01*
X45400Y-128300D02*
Y-71973D01*
X44600Y-128300D02*
Y-71165D01*
X37400Y-128300D02*
Y-13000D01*
X36600Y-128300D02*
Y-13000D01*
X35800Y-128300D02*
Y-13000D01*
X35000Y-128300D02*
Y-13000D01*
X34200Y-128300D02*
Y-13000D01*
X33400Y-128300D02*
Y-13000D01*
X32600Y-128300D02*
Y-13000D01*
X38200Y-128300D02*
Y-64706D01*
X31800Y-128300D02*
Y-13000D01*
X31000Y-128300D02*
Y-13000D01*
X30200Y-128300D02*
Y-13000D01*
X29400Y-128300D02*
Y-13000D01*
X28600Y-128300D02*
Y-13000D01*
X27800Y-128300D02*
Y-13000D01*
X27000Y-128300D02*
Y-13000D01*
X26200Y-128300D02*
Y-13000D01*
X25400Y-128300D02*
Y-13000D01*
X10200Y-110300D02*
Y-100346D01*
X9400Y-110300D02*
Y-101146D01*
X8600Y-110300D02*
Y-101946D01*
X16746Y-110900D02*
X70200D01*
X15946Y-111700D02*
X70200D01*
X15146Y-112500D02*
X70200D01*
X14275Y-113371D02*
X23670Y-103975D01*
X14345Y-113300D02*
X70200D01*
X7800Y-110300D02*
Y-102746D01*
X7000Y-110300D02*
Y-103546D01*
X6200Y-110300D02*
Y-104346D01*
X5400Y-110300D02*
Y-105146D01*
X4600Y-110300D02*
Y-105697D01*
X3800Y-110300D02*
Y-105800D01*
X3000Y-110300D02*
Y-105800D01*
X2200Y-110300D02*
Y-105800D01*
X1400Y-110300D02*
Y-105800D01*
X600Y-110300D02*
Y-105800D01*
X-200Y-110300D02*
Y-105800D01*
X-1000Y-110300D02*
Y-105800D01*
X-1800Y-110300D02*
Y-105800D01*
X24600Y-128300D02*
Y-13000D01*
X23800Y-128300D02*
Y-103831D01*
X23000Y-128300D02*
Y-104646D01*
X22200Y-128300D02*
Y-105446D01*
X21400Y-128300D02*
Y-106246D01*
X20600Y-128300D02*
Y-107046D01*
X19800Y-128300D02*
Y-107846D01*
X19000Y-128300D02*
Y-108646D01*
X18200Y-128300D02*
Y-109446D01*
X17400Y-128300D02*
Y-110246D01*
X16600Y-128300D02*
Y-111046D01*
X15800Y-128300D02*
Y-111846D01*
X15000Y-128300D02*
Y-112646D01*
X14200Y-128300D02*
Y-113442D01*
X13400Y-128300D02*
Y-113855D01*
X12600Y-128300D02*
Y-113900D01*
X11800Y-128300D02*
Y-113900D01*
X11000Y-128300D02*
Y-113900D01*
X10200Y-128300D02*
Y-113900D01*
X9400Y-128300D02*
Y-113900D01*
X8600Y-128300D02*
Y-113900D01*
X7800Y-128300D02*
Y-113900D01*
X7000Y-128300D02*
Y-113900D01*
X6200Y-128300D02*
Y-113900D01*
X5400Y-128300D02*
Y-113900D01*
X4600Y-128300D02*
Y-113900D01*
X70200Y-131900D02*
X73500Y-132000D01*
X70200Y-137100D02*
Y-131900D01*
X69400Y-137100D02*
Y-131900D01*
X68600Y-137100D02*
Y-131900D01*
X67800Y-137100D02*
Y-131900D01*
X67000Y-137100D02*
Y-131900D01*
X66200Y-137100D02*
Y-131900D01*
X73500Y-137100D02*
Y-132000D01*
X73400Y-137100D02*
Y-131997D01*
X72600Y-137100D02*
Y-131973D01*
X71800Y-137100D02*
Y-131948D01*
X71000Y-137100D02*
Y-131924D01*
X65400Y-137100D02*
Y-131900D01*
X64600Y-137100D02*
Y-131900D01*
X63800Y-137100D02*
Y-131900D01*
X63000Y-137100D02*
Y-131900D01*
X62200Y-137100D02*
Y-131900D01*
X61400Y-137100D02*
Y-131900D01*
X60600Y-137100D02*
Y-131900D01*
X59800Y-137100D02*
Y-131900D01*
X59000Y-137100D02*
Y-131900D01*
X58200Y-137100D02*
Y-131900D01*
X57400Y-137100D02*
Y-131900D01*
X56600Y-137100D02*
Y-131900D01*
X55800Y-137100D02*
Y-131900D01*
X55000Y-137100D02*
Y-131900D01*
X54200Y-137100D02*
Y-131900D01*
X53400Y-137100D02*
Y-131900D01*
X52600Y-137100D02*
Y-131900D01*
X51800Y-137100D02*
Y-131900D01*
X51000Y-137100D02*
Y-131900D01*
X50200Y-137100D02*
Y-131900D01*
X49400Y-137100D02*
Y-131900D01*
X48600Y-137100D02*
Y-131900D01*
X47800Y-137100D02*
Y-131900D01*
X47000Y-137100D02*
Y-131900D01*
X46200Y-137100D02*
Y-131900D01*
X45400Y-137100D02*
Y-131900D01*
X44600Y-137100D02*
Y-131900D01*
X43800Y-137100D02*
Y-131900D01*
X43000Y-137100D02*
Y-131900D01*
X42200Y-137100D02*
Y-131900D01*
X41400Y-137100D02*
Y-131900D01*
X40600Y-137100D02*
Y-131900D01*
X39800Y-137100D02*
Y-131900D01*
X39000Y-137100D02*
Y-131900D01*
X38200Y-137100D02*
Y-131900D01*
X37400Y-137100D02*
Y-131900D01*
X36600Y-137100D02*
Y-131900D01*
X35800Y-137100D02*
Y-131900D01*
X35000Y-137100D02*
Y-131900D01*
X34200Y-137100D02*
Y-131900D01*
X33400Y-137100D02*
Y-131900D01*
X32600Y-137100D02*
Y-131900D01*
X31800Y-137100D02*
Y-131900D01*
X31000Y-137100D02*
Y-131900D01*
X30200Y-137100D02*
Y-131900D01*
X29400Y-137100D02*
Y-131900D01*
X28600Y-137100D02*
Y-131900D01*
X27800Y-137100D02*
Y-131900D01*
X27000Y-137100D02*
Y-131900D01*
X26200Y-137100D02*
Y-131900D01*
X25400Y-137100D02*
Y-131900D01*
X24600Y-137100D02*
Y-131900D01*
X23800Y-137100D02*
Y-131900D01*
X23000Y-137100D02*
Y-131900D01*
X3800Y-128300D02*
Y-113900D01*
X3000Y-128300D02*
Y-113900D01*
X2200Y-128300D02*
Y-113900D01*
X1400Y-128300D02*
Y-113900D01*
X600Y-128300D02*
Y-113900D01*
X-200Y-128300D02*
Y-113900D01*
X-1000Y-128300D02*
Y-113900D01*
X22200Y-137100D02*
Y-131900D01*
X21400Y-137100D02*
Y-131900D01*
X20600Y-137100D02*
Y-131900D01*
X19800Y-137100D02*
Y-131900D01*
X-1800Y-128300D02*
Y-113900D01*
X19000Y-137100D02*
Y-131900D01*
X18200Y-137100D02*
Y-131900D01*
X17400Y-137100D02*
Y-131900D01*
X16600Y-137100D02*
Y-131900D01*
X15800Y-137100D02*
Y-131900D01*
X15000Y-137100D02*
Y-131900D01*
X14200Y-137100D02*
Y-131900D01*
X13400Y-137100D02*
Y-131900D01*
X12600Y-137100D02*
Y-131900D01*
X11800Y-137100D02*
Y-131900D01*
X11000Y-137100D02*
Y-131900D01*
X10200Y-137100D02*
Y-131900D01*
X9400Y-137100D02*
Y-131900D01*
X8600Y-137100D02*
Y-131900D01*
X7800Y-137100D02*
Y-131900D01*
X7000Y-137100D02*
Y-131900D01*
X6200Y-137100D02*
Y-131900D01*
X5400Y-137100D02*
Y-131900D01*
X4600Y-137100D02*
Y-131900D01*
X3800Y-137100D02*
Y-131900D01*
X3000Y-137100D02*
Y-131900D01*
X2200Y-137100D02*
Y-131900D01*
X1400Y-137100D02*
Y-131900D01*
X600Y-137100D02*
Y-131900D01*
X-200Y-137100D02*
Y-131900D01*
X-1000Y-137100D02*
Y-131900D01*
X-1800Y-137100D02*
Y-131900D01*
X-2600Y-110300D02*
Y-105800D01*
X-3400Y-110300D02*
Y-105800D01*
X-4200Y-110300D02*
Y-105800D01*
X-5000Y-110300D02*
Y-105800D01*
X-5800Y-110300D02*
Y-105800D01*
X-6600Y-110300D02*
Y-105800D01*
X-7400Y-110300D02*
Y-105800D01*
X-8200Y-110300D02*
Y-105800D01*
X-9000Y-110300D02*
Y-105800D01*
X-9800Y-110300D02*
Y-105800D01*
X-10600Y-110300D02*
Y-105800D01*
X-11400Y-110300D02*
Y-105800D01*
X-12200Y-110300D02*
Y-105800D01*
X-13000Y-110300D02*
Y-105800D01*
X-13800Y-110300D02*
Y-105800D01*
X-14600Y-110300D02*
Y-105800D01*
X-15400Y-110300D02*
Y-105800D01*
X-16200Y-110300D02*
Y-105800D01*
X-17000Y-110300D02*
Y-105800D01*
X-17800Y-110300D02*
Y-105800D01*
X-18600Y-110300D02*
Y-105800D01*
X-19400Y-110300D02*
Y-105800D01*
X-20200Y-110300D02*
Y-105800D01*
X-21000Y-110300D02*
Y-105800D01*
X-21800Y-110300D02*
Y-105800D01*
X-22600Y-110300D02*
Y-105800D01*
X-23400Y-110300D02*
Y-105800D01*
X-2600Y-128300D02*
Y-113900D01*
X-3400Y-128300D02*
Y-113900D01*
X-4200Y-128300D02*
Y-113900D01*
X-5000Y-128300D02*
Y-113900D01*
X-5800Y-128300D02*
Y-113900D01*
X-6600Y-128300D02*
Y-113900D01*
X-7400Y-128300D02*
Y-113900D01*
X-8200Y-128300D02*
Y-113900D01*
X-9000Y-128300D02*
Y-113900D01*
X-9800Y-128300D02*
Y-113900D01*
X-10600Y-128300D02*
Y-113900D01*
X-11400Y-128300D02*
Y-113900D01*
X-12200Y-128300D02*
Y-113900D01*
X-13000Y-128300D02*
Y-113900D01*
X-13800Y-128300D02*
Y-113900D01*
X-14600Y-128300D02*
Y-113900D01*
X-15400Y-128300D02*
Y-113900D01*
X-16200Y-128300D02*
Y-113900D01*
X-17000Y-128300D02*
Y-113900D01*
X-17800Y-128300D02*
Y-113900D01*
X-18600Y-128300D02*
Y-113900D01*
X-19400Y-128300D02*
Y-113900D01*
X-20200Y-128300D02*
Y-113900D01*
X-21000Y-128300D02*
Y-113900D01*
X-21800Y-128300D02*
Y-113900D01*
X-22600Y-128300D02*
Y-113900D01*
X-24200Y-110300D02*
Y-105800D01*
X-25000Y-110300D02*
Y-105800D01*
X-25800Y-110300D02*
Y-105800D01*
X-26600Y-110300D02*
Y-105800D01*
X-27400Y-110300D02*
Y-105800D01*
X-28200Y-110300D02*
Y-105800D01*
X-29000Y-110300D02*
Y-105800D01*
X-29800Y-110300D02*
Y-105800D01*
X-30600Y-110300D02*
Y-105800D01*
X-31400Y-110300D02*
Y-105800D01*
X-32200Y-110300D02*
Y-105800D01*
X-33000Y-110300D02*
Y-105800D01*
X-33800Y-110300D02*
Y-105800D01*
X-34600Y-110300D02*
Y-105800D01*
X-35400Y-110300D02*
Y-105800D01*
X-36200Y-110300D02*
Y-105800D01*
X-37000Y-110300D02*
Y-105800D01*
X-37800Y-110300D02*
Y-105800D01*
X-38600Y-110300D02*
Y-105800D01*
X-39400Y-110300D02*
Y-105800D01*
X-40200Y-110300D02*
Y-105800D01*
X-41000Y-110300D02*
Y-105800D01*
X-41800Y-110300D02*
Y-105800D01*
X-42600Y-110300D02*
Y-105800D01*
X-43400Y-110300D02*
Y-105800D01*
X-44200Y-110300D02*
Y-105800D01*
X-23400Y-128300D02*
Y-113900D01*
X-45000Y-110300D02*
Y-105800D01*
X-24200Y-128300D02*
Y-113900D01*
X-25000Y-128300D02*
Y-113900D01*
X-45800Y-110300D02*
Y-105800D01*
X-46600Y-110300D02*
Y-105800D01*
X-47400Y-110300D02*
Y-105800D01*
X-25800Y-128300D02*
Y-113900D01*
X-26600Y-128300D02*
Y-113900D01*
X-27400Y-128300D02*
Y-113900D01*
X-28200Y-128300D02*
Y-113900D01*
X-29000Y-128300D02*
Y-113900D01*
X-29800Y-128300D02*
Y-113900D01*
X-48200Y-110300D02*
Y-105800D01*
X-49000Y-110300D02*
Y-105800D01*
X-49800Y-110300D02*
Y-105800D01*
X-50600Y-110300D02*
Y-105800D01*
X-51400Y-110300D02*
Y-105800D01*
X-52200Y-110300D02*
Y-105800D01*
X-53000Y-110300D02*
Y-105800D01*
X-53800Y-110300D02*
Y-105800D01*
X-54600Y-110300D02*
Y-105800D01*
X-55400Y-110300D02*
Y-105800D01*
X-56200Y-110300D02*
Y-105800D01*
X-57000Y-110300D02*
Y-105800D01*
X-57800Y-110300D02*
Y-105800D01*
X-2600Y-137100D02*
Y-131900D01*
X-3400Y-137100D02*
Y-131900D01*
X-4200Y-137100D02*
Y-131900D01*
X-5000Y-137100D02*
Y-131900D01*
X-5800Y-137100D02*
Y-131900D01*
X-6600Y-137100D02*
Y-131900D01*
X-7400Y-137100D02*
Y-131900D01*
X-8200Y-137100D02*
Y-131900D01*
X-9000Y-137100D02*
Y-131900D01*
X-9800Y-137100D02*
Y-131900D01*
X-10600Y-137100D02*
Y-131900D01*
X-11400Y-137100D02*
Y-131900D01*
X-12200Y-137100D02*
Y-131900D01*
X-13000Y-137100D02*
Y-131900D01*
X-30600Y-128300D02*
Y-113900D01*
X-31400Y-128300D02*
Y-113900D01*
X-32200Y-128300D02*
Y-113900D01*
X-33000Y-128300D02*
Y-113900D01*
X-33800Y-128300D02*
Y-113900D01*
X-34600Y-128300D02*
Y-113900D01*
X-35400Y-128300D02*
Y-113900D01*
X-13800Y-137100D02*
Y-131900D01*
X-14600Y-137100D02*
Y-131900D01*
X-15400Y-137100D02*
Y-131900D01*
X-36200Y-128300D02*
Y-113900D01*
X-37000Y-128300D02*
Y-113900D01*
X-16200Y-137100D02*
Y-131900D01*
X-17000Y-137100D02*
Y-131900D01*
X-17800Y-137100D02*
Y-131900D01*
X-18600Y-137100D02*
Y-131900D01*
X-19400Y-137100D02*
Y-131900D01*
X-20200Y-137100D02*
Y-131900D01*
X-21000Y-137100D02*
Y-131900D01*
X-21800Y-137100D02*
Y-131900D01*
X-22600Y-137100D02*
Y-131900D01*
X-23400Y-137100D02*
Y-131900D01*
X-24200Y-137100D02*
Y-131900D01*
X-25000Y-137100D02*
Y-131900D01*
X-25800Y-137100D02*
Y-131900D01*
X-26600Y-137100D02*
Y-131900D01*
X-27400Y-137100D02*
Y-131900D01*
X-28200Y-137100D02*
Y-131900D01*
X-29000Y-137100D02*
Y-131900D01*
X-29800Y-137100D02*
Y-131900D01*
X-30600Y-137100D02*
Y-131900D01*
X-31400Y-137100D02*
Y-131900D01*
X-32200Y-137100D02*
Y-131900D01*
X-33000Y-137100D02*
Y-131900D01*
X-33800Y-137100D02*
Y-131900D01*
X-34600Y-137100D02*
Y-131900D01*
X-35400Y-137100D02*
Y-131900D01*
X-36200Y-137100D02*
Y-131900D01*
X-37000Y-137100D02*
Y-131900D01*
X-37800Y-128300D02*
Y-113900D01*
X-38600Y-128300D02*
Y-113900D01*
X-39400Y-128300D02*
Y-113900D01*
X-40200Y-128300D02*
Y-113900D01*
X-41000Y-128300D02*
Y-113900D01*
X-41800Y-128300D02*
Y-113900D01*
X-42600Y-128300D02*
Y-113900D01*
X-43400Y-128300D02*
Y-113900D01*
X-44200Y-128300D02*
Y-113900D01*
X-45000Y-128300D02*
Y-113900D01*
X-45800Y-128300D02*
Y-113900D01*
X-46600Y-128300D02*
Y-113900D01*
X-47400Y-128300D02*
Y-113900D01*
X-48200Y-128300D02*
Y-113900D01*
X-49000Y-128300D02*
Y-113900D01*
X-49800Y-128300D02*
Y-113900D01*
X-50600Y-128300D02*
Y-113900D01*
X-51400Y-128300D02*
Y-113900D01*
X-52200Y-128300D02*
Y-113900D01*
X-53000Y-128300D02*
Y-113900D01*
X-53800Y-128300D02*
Y-113900D01*
X-54600Y-128300D02*
Y-113900D01*
X-55400Y-128300D02*
Y-113900D01*
X-56200Y-128300D02*
Y-113900D01*
X-57000Y-128300D02*
Y-113900D01*
X-57800Y-128300D02*
Y-113900D01*
X-37800Y-137100D02*
Y-131900D01*
X-38600Y-137100D02*
Y-131900D01*
X-39400Y-137100D02*
Y-131900D01*
X-40200Y-137100D02*
Y-131900D01*
X-41000Y-137100D02*
Y-131900D01*
X-41800Y-137100D02*
Y-131900D01*
X-42600Y-137100D02*
Y-131900D01*
X-43400Y-137100D02*
Y-131900D01*
X-44200Y-137100D02*
Y-131900D01*
X-45000Y-137100D02*
Y-131900D01*
X-45800Y-137100D02*
Y-131900D01*
X-46600Y-137100D02*
Y-131900D01*
X-47400Y-137100D02*
Y-131900D01*
X-48200Y-137100D02*
Y-131900D01*
X-49000Y-137100D02*
Y-131900D01*
X-49800Y-137100D02*
Y-131900D01*
X-50600Y-137100D02*
Y-131900D01*
X-51400Y-137100D02*
Y-131900D01*
X-52200Y-137100D02*
Y-131900D01*
X-53000Y-137100D02*
Y-131900D01*
X-53800Y-137100D02*
Y-131900D01*
X-54600Y-137100D02*
Y-131900D01*
X-55400Y-137100D02*
Y-131900D01*
X-56200Y-137100D02*
Y-131900D01*
X-57000Y-137100D02*
Y-131900D01*
X-57800Y-137100D02*
Y-131900D01*
X-60566Y-23700D02*
X10200D01*
X-60566Y-22900D02*
X-25549D01*
X-60566Y-24500D02*
X10200D01*
X-60566Y-25300D02*
X10200D01*
X-60566Y-26100D02*
X10200D01*
X-60566Y-26900D02*
X10200D01*
X-60566Y-27700D02*
X10200D01*
X-60566Y-28500D02*
X10200D01*
X-60566Y-29300D02*
X10200D01*
X-60566Y-30100D02*
X10200D01*
X-60566Y-30900D02*
X10200D01*
X-60566Y-31700D02*
X10200D01*
X-60566Y-32500D02*
X10200D01*
X-60566Y-33300D02*
X10200D01*
X-60566Y-13300D02*
X-52746D01*
X-60566Y-13000D02*
X-53046D01*
X-60566Y-14900D02*
X-51146D01*
X-60566Y-14100D02*
X-51946D01*
X-60566Y-16500D02*
X-49546D01*
X-60566Y-15700D02*
X-50346D01*
X-60566Y-17300D02*
X-48746D01*
X-60566Y-18900D02*
X-47146D01*
X-60566Y-18100D02*
X-47946D01*
X-60566Y-19700D02*
X-46346D01*
X-60566Y-21300D02*
X-44625D01*
X-60566Y-20500D02*
X-45546D01*
X-60566Y-22100D02*
X-26446D01*
X-60566Y-34100D02*
X10200D01*
X-60566Y-34900D02*
X10200D01*
X-60566Y-35700D02*
X10200D01*
X-60566Y-36500D02*
X10200D01*
X-60566Y-37300D02*
X10200D01*
X-60566Y-38100D02*
X10200D01*
X-60566Y-38900D02*
X10200D01*
X-60566Y-39700D02*
X10200D01*
X-60566Y-40500D02*
X10200D01*
X-60566Y-41300D02*
X10200D01*
X-60566Y-42100D02*
X10200D01*
X-60566Y-42900D02*
X10200D01*
X-60566Y-43700D02*
X10200D01*
X-60200Y-60544D02*
Y-13000D01*
X-60566Y-60320D02*
Y-13000D01*
X-58600Y-63160D02*
Y-13000D01*
X-59400Y-61291D02*
Y-13000D01*
X-60566Y-44500D02*
X10200D01*
X-60566Y-45300D02*
X10200D01*
X-60566Y-46100D02*
X10200D01*
X-60566Y-46900D02*
X10200D01*
X-60566Y-47700D02*
X10200D01*
X-60566Y-48500D02*
X10200D01*
X-60566Y-49300D02*
X10200D01*
X-60566Y-50100D02*
X10200D01*
X-60566Y-50900D02*
X10200D01*
X-214076Y-13000D02*
X-64166D01*
X-214243Y-13300D02*
X-64166D01*
X-214799Y-14100D02*
X-64166D01*
X-215572Y-14900D02*
X-64166D01*
X-216718Y-15700D02*
X-64166D01*
X-219843Y-16500D02*
X-64166D01*
X-238831Y-17300D02*
X-64166D01*
X-238831Y-18100D02*
X-64166D01*
X-238831Y-18900D02*
X-64166D01*
X-238831Y-19700D02*
X-64166D01*
X-238831Y-20500D02*
X-64166D01*
X-238831Y-21300D02*
X-64166D01*
X-238831Y-22100D02*
X-64166D01*
X-238831Y-22900D02*
X-64166D01*
X-238831Y-23700D02*
X-64166D01*
X-238831Y-24500D02*
X-64166D01*
X-195965Y-27700D02*
X-64166D01*
X-194869Y-28500D02*
X-64166D01*
X-238831Y-25300D02*
X-64166D01*
X-238831Y-26100D02*
X-64166D01*
X-238831Y-26900D02*
X-64166D01*
X-193960Y-30100D02*
X-64166D01*
X-193827Y-30900D02*
X-64166D01*
X-193865Y-31700D02*
X-64166D01*
X-194285Y-29300D02*
X-64166D01*
X-194080Y-32500D02*
X-64166D01*
X-194508Y-33300D02*
X-64166D01*
X-195262Y-34100D02*
X-64166D01*
X-197226Y-34900D02*
X-64166D01*
X-198214Y-35700D02*
X-64166D01*
X-198213Y-36500D02*
X-64166D01*
X-198213Y-37300D02*
X-64166D01*
X-198212Y-38100D02*
X-64166D01*
X-198212Y-38900D02*
X-64166D01*
X-198211Y-39700D02*
X-64166D01*
X-198211Y-40500D02*
X-64166D01*
X-198210Y-41300D02*
X-64166D01*
X-198210Y-42100D02*
X-64166D01*
X-198210Y-42900D02*
X-64166D01*
X-198209Y-43700D02*
X-64166D01*
Y-60320D02*
Y-13000D01*
X-64200Y-60338D02*
Y-13000D01*
X-65000Y-60927D02*
Y-13000D01*
X-65800Y-62039D02*
Y-13000D01*
X-198209Y-44500D02*
X-64166D01*
X-198208Y-45300D02*
X-64166D01*
X-198208Y-46100D02*
X-64166D01*
X-198207Y-46900D02*
X-64166D01*
X-198207Y-47700D02*
X-64166D01*
X-198206Y-48500D02*
X-64166D01*
X-198206Y-49300D02*
X-64166D01*
X-198206Y-50100D02*
X-64166D01*
X-198205Y-50900D02*
X-64166D01*
X-60566Y-51700D02*
X10200D01*
X-60566Y-52500D02*
X10200D01*
X-60566Y-53300D02*
X10200D01*
X-60566Y-54100D02*
X10200D01*
X-60566Y-54900D02*
X10200D01*
X-60566Y-55700D02*
X10200D01*
X-60566Y-56500D02*
X10200D01*
X-60566Y-57300D02*
X10200D01*
X-60265Y-60500D02*
X10200D01*
X-59393Y-61300D02*
X10200D01*
X-58904Y-62100D02*
X10200D01*
X-60566Y-58100D02*
X10200D01*
X-60566Y-58900D02*
X10200D01*
X-60566Y-59700D02*
X10200D01*
X-198205Y-51700D02*
X-64166D01*
X-198204Y-52500D02*
X-64166D01*
X-198204Y-53300D02*
X-64166D01*
X-198203Y-54100D02*
X-64166D01*
X-198203Y-54900D02*
X-64166D01*
X-58935Y-65300D02*
X10200D01*
X-59448Y-66100D02*
X10200D01*
X-58600Y-102200D02*
Y-64173D01*
X-60371Y-66900D02*
X10200D01*
X-117920Y-100500D02*
X4954D01*
X-116726Y-101300D02*
X4154D01*
X-59400Y-102200D02*
Y-66041D01*
X-60200Y-102200D02*
Y-66788D01*
X-58600Y-110300D02*
Y-105800D01*
X-59400Y-110300D02*
Y-105800D01*
X-87700Y-102200D02*
X3254D01*
X-116109Y-102100D02*
X3354D01*
X-87700Y-105800D02*
X4000D01*
X-116233Y-106100D02*
X16454D01*
X-116944Y-106900D02*
X15654D01*
X-118534Y-107700D02*
X14854D01*
X-123984Y-108500D02*
X14054D01*
X-122631Y-109300D02*
X13254D01*
X-121969Y-110100D02*
X12454D01*
X-61000Y-102200D02*
Y-67212D01*
X-61800Y-102200D02*
Y-67424D01*
X-60200Y-110300D02*
Y-105800D01*
X-62600Y-102200D02*
Y-67459D01*
X-63400Y-102200D02*
Y-67323D01*
X-64200Y-102200D02*
Y-66994D01*
X-65000Y-102200D02*
Y-66405D01*
X-61000Y-110300D02*
Y-105800D01*
X-61800Y-110300D02*
Y-105800D01*
X-62600Y-110300D02*
Y-105800D01*
X-63400Y-110300D02*
Y-105800D01*
X-64200Y-110300D02*
Y-105800D01*
X-65000Y-110300D02*
Y-105800D01*
X-203553Y-67700D02*
X10200D01*
X-204054Y-68500D02*
X10200D01*
X-204951Y-69300D02*
X10200D01*
X-238831Y-70100D02*
X10200D01*
X-238831Y-70900D02*
X10200D01*
X-238831Y-71700D02*
X10200D01*
X-238831Y-72500D02*
X10200D01*
X-238831Y-73300D02*
X10200D01*
X-238831Y-74100D02*
X10200D01*
X-238831Y-74900D02*
X10200D01*
X-238831Y-75700D02*
X10200D01*
X-238831Y-76500D02*
X10200D01*
X-238831Y-77300D02*
X10200D01*
X-198203Y-55700D02*
X-64166D01*
X-198202Y-56500D02*
X-64166D01*
X-198202Y-57300D02*
X-64166D01*
X-198201Y-58100D02*
X-64166D01*
X-198201Y-58900D02*
X-64166D01*
X-198200Y-59700D02*
X-64166D01*
X-198229Y-60500D02*
X-64468D01*
X-198470Y-61300D02*
X-65340D01*
X-199040Y-62100D02*
X-65828D01*
X-203040Y-66100D02*
X-65284D01*
X-238831Y-78100D02*
X10200D01*
X-203285Y-66900D02*
X-64362D01*
X-238831Y-78900D02*
X10200D01*
X-238831Y-79700D02*
X10200D01*
X-238831Y-80500D02*
X10200D01*
X-238831Y-81300D02*
X10200D01*
X-238831Y-82100D02*
X10200D01*
X-238831Y-82900D02*
X10200D01*
X-238831Y-83700D02*
X10200D01*
X-238831Y-84500D02*
X10200D01*
X-238831Y-85300D02*
X10200D01*
X-238831Y-86100D02*
X10200D01*
X-238831Y-86900D02*
X10200D01*
X-238831Y-87700D02*
X10200D01*
X-238831Y-88500D02*
X10200D01*
X-238831Y-89300D02*
X10200D01*
X-238831Y-90100D02*
X10200D01*
X-238831Y-90900D02*
X10200D01*
X-238831Y-91700D02*
X10200D01*
X-238831Y-92500D02*
X10200D01*
X-238831Y-93300D02*
X10200D01*
X-238831Y-94100D02*
X10200D01*
X-238831Y-94900D02*
X10200D01*
X-238831Y-95700D02*
X9754D01*
X-238831Y-96500D02*
X8954D01*
X-238831Y-97300D02*
X8154D01*
X-238831Y-98100D02*
X7354D01*
X-238831Y-98900D02*
X6554D01*
X-238831Y-99700D02*
X5754D01*
X-66600Y-102200D02*
Y-13000D01*
X-67400Y-102200D02*
Y-13000D01*
X-68200Y-102200D02*
Y-13000D01*
X-69000Y-102200D02*
Y-13000D01*
X-69800Y-102200D02*
Y-13000D01*
X-70600Y-102200D02*
Y-13000D01*
X-71400Y-102200D02*
Y-13000D01*
X-72200Y-102200D02*
Y-13000D01*
X-73000Y-102200D02*
Y-13000D01*
X-73800Y-102200D02*
Y-13000D01*
X-74600Y-102200D02*
Y-13000D01*
X-75400Y-102200D02*
Y-13000D01*
X-76200Y-102200D02*
Y-13000D01*
X-77000Y-102200D02*
Y-13000D01*
X-77800Y-102200D02*
Y-13000D01*
X-78600Y-102200D02*
Y-13000D01*
X-79400Y-102200D02*
Y-13000D01*
X-80200Y-102200D02*
Y-13000D01*
X-81000Y-102200D02*
Y-13000D01*
X-81800Y-102200D02*
Y-13000D01*
X-82600Y-102200D02*
Y-13000D01*
X-83400Y-102200D02*
Y-13000D01*
X-84200Y-102200D02*
Y-13000D01*
X-85000Y-102200D02*
Y-13000D01*
X-85800Y-102200D02*
Y-13000D01*
X-86600Y-102200D02*
Y-13000D01*
X-87400Y-102200D02*
Y-13000D01*
X-88200Y-102200D02*
Y-13000D01*
X-89000Y-102200D02*
Y-13000D01*
X-89800Y-102200D02*
Y-13000D01*
X-90600Y-102200D02*
Y-13000D01*
X-91400Y-102200D02*
Y-13000D01*
X-92200Y-102200D02*
Y-13000D01*
X-93000Y-102200D02*
Y-13000D01*
X-93800Y-102200D02*
Y-13000D01*
X-94600Y-102200D02*
Y-13000D01*
X-95400Y-102200D02*
Y-13000D01*
X-96200Y-102200D02*
Y-13000D01*
X-97000Y-102200D02*
Y-13000D01*
X-97800Y-102200D02*
Y-13000D01*
X-98600Y-102200D02*
Y-13000D01*
X-99400Y-102200D02*
Y-13000D01*
X-100200Y-102200D02*
Y-13000D01*
X-101000Y-102200D02*
Y-13000D01*
X-101800Y-102200D02*
Y-13000D01*
X-102600Y-102200D02*
Y-13000D01*
X-103400Y-102200D02*
Y-13000D01*
X-104200Y-102200D02*
Y-13000D01*
X-105000Y-102200D02*
Y-13000D01*
X-105800Y-102200D02*
Y-13000D01*
X-106600Y-102200D02*
Y-13000D01*
X-107400Y-102200D02*
Y-13000D01*
X-108200Y-102200D02*
Y-13000D01*
X-196200Y-27596D02*
Y-13000D01*
X-197000Y-27371D02*
Y-13000D01*
X-194600Y-28815D02*
Y-13000D01*
X-195400Y-28037D02*
Y-13000D01*
X-197800Y-27325D02*
Y-13000D01*
X-198600Y-27449D02*
Y-13000D01*
X-199400Y-27763D02*
Y-13000D01*
X-200200Y-28330D02*
Y-13000D01*
X-201000Y-29383D02*
Y-13000D01*
X-201800Y-31340D02*
Y-13000D01*
X-202600Y-32140D02*
Y-13000D01*
X-203400Y-33049D02*
Y-13000D01*
X-204200Y-59340D02*
Y-13000D01*
X-205000Y-60140D02*
Y-13000D01*
X-205800Y-60940D02*
Y-13000D01*
X-206600Y-61740D02*
Y-13000D01*
X-207400Y-62321D02*
Y-13000D01*
X-208200Y-62494D02*
Y-13000D01*
X-209000Y-62869D02*
Y-13000D01*
X-209800Y-63531D02*
Y-13000D01*
X-238831Y-13300D02*
X-225443D01*
X-238831Y-13000D02*
X-225609D01*
X-238831Y-14900D02*
X-224113D01*
X-238831Y-14100D02*
X-224886D01*
X-238831Y-15700D02*
X-222967D01*
X-109000Y-102200D02*
Y-13000D01*
X-109800Y-102200D02*
Y-13000D01*
X-110600Y-102200D02*
Y-13000D01*
X-111400Y-102200D02*
Y-13000D01*
X-112200Y-102200D02*
Y-13000D01*
X-113000Y-102200D02*
Y-13000D01*
X-113800Y-102200D02*
Y-13000D01*
X-114600Y-102200D02*
Y-13000D01*
X-115400Y-102200D02*
Y-13000D01*
X-116200Y-101951D02*
Y-13000D01*
X-117800Y-100553D02*
Y-13000D01*
X-118600Y-100285D02*
Y-13000D01*
X-117000Y-101054D02*
Y-13000D01*
X-119400Y-100200D02*
Y-13000D01*
X-120200Y-100285D02*
Y-13000D01*
X-121000Y-100553D02*
Y-13000D01*
X-121800Y-101054D02*
Y-13000D01*
X-122600Y-101951D02*
Y-13000D01*
X-124200Y-108434D02*
Y-13000D01*
X-123400Y-108753D02*
Y-13000D01*
X-125000Y-108305D02*
Y-13000D01*
X-125800Y-108348D02*
Y-13000D01*
X-126600Y-108567D02*
Y-13000D01*
X-127400Y-109002D02*
Y-13000D01*
X-210600Y-64884D02*
Y-13000D01*
X-128200Y-109768D02*
Y-13000D01*
X-238831Y-27700D02*
X-199276D01*
X-238831Y-28500D02*
X-200372D01*
X-238831Y-29300D02*
X-200956D01*
X-238831Y-30100D02*
X-201281D01*
X-238831Y-30900D02*
X-201414D01*
X-198214Y-35673D02*
X-197457Y-34917D01*
X-198214Y-35673D02*
X-198200Y-60098D01*
X-202994Y-32534D02*
X-201417Y-30957D01*
X-238831Y-31700D02*
X-202160D01*
X-199840Y-62900D02*
X-66088D01*
X-238831Y-16500D02*
X-219843D01*
X-203814Y-34516D02*
X-203801Y-58941D01*
X-238831Y-32500D02*
X-202960D01*
X-238831Y-33300D02*
X-203537D01*
X-238831Y-34100D02*
X-203783D01*
X-238831Y-34900D02*
X-203814D01*
X-238831Y-35700D02*
X-203814D01*
X-207163Y-62304D02*
X-203801Y-58941D01*
X-238831Y-36500D02*
X-203813D01*
X-238831Y-37300D02*
X-203813D01*
X-238831Y-38100D02*
X-203812D01*
X-65800Y-102200D02*
Y-65294D01*
Y-110300D02*
Y-105800D01*
X-66600Y-110300D02*
Y-105800D01*
X-67400Y-110300D02*
Y-105800D01*
X-200640Y-63700D02*
X-66166D01*
X-201440Y-64500D02*
X-66074D01*
X-202240Y-65300D02*
X-65797D01*
X-68200Y-110300D02*
Y-105800D01*
X-69000Y-110300D02*
Y-105800D01*
X-69800Y-110300D02*
Y-105800D01*
X-70600Y-110300D02*
Y-105800D01*
X-71400Y-110300D02*
Y-105800D01*
X-72200Y-110300D02*
Y-105800D01*
X-73000Y-110300D02*
Y-105800D01*
X-116053Y-102200D02*
X-87900D01*
X-73800Y-110300D02*
Y-105800D01*
X-74600Y-110300D02*
Y-105800D01*
X-203204Y-66263D02*
X-199020Y-62080D01*
X-75400Y-110300D02*
Y-105800D01*
X-76200Y-110300D02*
Y-105800D01*
X-77000Y-110300D02*
Y-105800D01*
X-116053D02*
X-87900D01*
X-122600Y-109329D02*
Y-106049D01*
X-77800Y-110300D02*
Y-105800D01*
X-238831Y-38900D02*
X-203812D01*
X-238831Y-39700D02*
X-203811D01*
X-238831Y-40500D02*
X-203811D01*
X-238831Y-41300D02*
X-203810D01*
X-238831Y-42100D02*
X-203810D01*
X-238831Y-42900D02*
X-203809D01*
X-238831Y-43700D02*
X-203809D01*
X-238831Y-44500D02*
X-203809D01*
X-238831Y-45300D02*
X-203808D01*
X-238831Y-46100D02*
X-203808D01*
X-238831Y-46900D02*
X-203807D01*
X-238831Y-47700D02*
X-203807D01*
X-238831Y-48500D02*
X-203806D01*
X-238831Y-49300D02*
X-203806D01*
X-238831Y-50100D02*
X-203806D01*
X-238831Y-50900D02*
X-203805D01*
X-238831Y-51700D02*
X-203805D01*
X-238831Y-52500D02*
X-203804D01*
X-238831Y-53300D02*
X-203804D01*
X-238831Y-54100D02*
X-203803D01*
X-238831Y-54900D02*
X-203803D01*
X-238831Y-55700D02*
X-203802D01*
X-238831Y-56500D02*
X-203802D01*
X-238831Y-57300D02*
X-203802D01*
X-238831Y-58100D02*
X-203801D01*
X-238831Y-58900D02*
X-203801D01*
X-238831Y-100500D02*
X-120880D01*
X-238831Y-101300D02*
X-122074D01*
X-238831Y-102100D02*
X-122691D01*
X-238831Y-102900D02*
X-123037D01*
X-238831Y-103700D02*
X-123188D01*
X-238831Y-104500D02*
X-123167D01*
X-238831Y-105300D02*
X-122971D01*
X-238831Y-106900D02*
X-121856D01*
X-238831Y-106100D02*
X-122567D01*
X-238831Y-107700D02*
X-120266D01*
X-238831Y-108500D02*
X-126417D01*
X-238831Y-109300D02*
X-127769D01*
X-238831Y-110100D02*
X-128431D01*
X-238831Y-59700D02*
X-204560D01*
X-238831Y-60500D02*
X-205360D01*
X-238831Y-61300D02*
X-206160D01*
X-238831Y-62100D02*
X-206960D01*
X-238831Y-62900D02*
X-209049D01*
X-238831Y-63700D02*
X-209946D01*
X-238831Y-64500D02*
X-210447D01*
X-238831Y-65300D02*
X-210715D01*
X-238831Y-66100D02*
X-210800D01*
X-238831Y-66900D02*
X-210715D01*
X-238831Y-68500D02*
X-209946D01*
X-238831Y-67700D02*
X-210447D01*
X-238831Y-69300D02*
X-209049D01*
X-58600Y-128300D02*
Y-113900D01*
X-59400Y-128300D02*
Y-113900D01*
X-60200Y-128300D02*
Y-113900D01*
X-61000Y-128300D02*
Y-113900D01*
X-61800Y-128300D02*
Y-113900D01*
X-78600Y-110300D02*
Y-105800D01*
X-62600Y-128300D02*
Y-113900D01*
X-63400Y-128300D02*
Y-113900D01*
X-64200Y-128300D02*
Y-113900D01*
X-65000Y-128300D02*
Y-113900D01*
X-65800Y-128300D02*
Y-113900D01*
X-66600Y-128300D02*
Y-113900D01*
X-67400Y-128300D02*
Y-113900D01*
X-68200Y-128300D02*
Y-113900D01*
X-79400Y-110300D02*
Y-105800D01*
X-80200Y-110300D02*
Y-105800D01*
X-81000Y-110300D02*
Y-105800D01*
X-81800Y-110300D02*
Y-105800D01*
X-82600Y-110300D02*
Y-105800D01*
X-83400Y-110300D02*
Y-105800D01*
X-84200Y-110300D02*
Y-105800D01*
X-85000Y-110300D02*
Y-105800D01*
X-85800Y-110300D02*
Y-105800D01*
X-86600Y-110300D02*
Y-105800D01*
X-87400Y-110300D02*
Y-105800D01*
X-88200Y-110300D02*
Y-105800D01*
X-89000Y-110300D02*
Y-105800D01*
X-69000Y-128300D02*
Y-113900D01*
X-69800Y-128300D02*
Y-113900D01*
X-70600Y-128300D02*
Y-113900D01*
X-71400Y-128300D02*
Y-113900D01*
X-72200Y-128300D02*
Y-113900D01*
X-73000Y-128300D02*
Y-113900D01*
X-73800Y-128300D02*
Y-113900D01*
X-74600Y-128300D02*
Y-113900D01*
X-75400Y-128300D02*
Y-113900D01*
X-76200Y-128300D02*
Y-113900D01*
X-77000Y-128300D02*
Y-113900D01*
X-77800Y-128300D02*
Y-113900D01*
X-78600Y-128300D02*
Y-113900D01*
X-79400Y-128300D02*
Y-113900D01*
X-80200Y-128300D02*
Y-113900D01*
X-81000Y-128300D02*
Y-113900D01*
X-81800Y-128300D02*
Y-113900D01*
X-82600Y-128300D02*
Y-113900D01*
X-83400Y-128300D02*
Y-113900D01*
X-84200Y-128300D02*
Y-113900D01*
X-85000Y-128300D02*
Y-113900D01*
X-85800Y-128300D02*
Y-113900D01*
X-86600Y-128300D02*
Y-113900D01*
X-87400Y-128300D02*
Y-113900D01*
X-88200Y-128300D02*
Y-113900D01*
X-89000Y-128300D02*
Y-113900D01*
X-89800Y-110300D02*
Y-105800D01*
X-90600Y-110300D02*
Y-105800D01*
X-91400Y-110300D02*
Y-105800D01*
X-92200Y-110300D02*
Y-105800D01*
X-93000Y-110300D02*
Y-105800D01*
X-93800Y-110300D02*
Y-105800D01*
X-94600Y-110300D02*
Y-105800D01*
X-95400Y-110300D02*
Y-105800D01*
X-96200Y-110300D02*
Y-105800D01*
X-97000Y-110300D02*
Y-105800D01*
X-97800Y-110300D02*
Y-105800D01*
X-98600Y-110300D02*
Y-105800D01*
X-99400Y-110300D02*
Y-105800D01*
X-100200Y-110300D02*
Y-105800D01*
X-101000Y-110300D02*
Y-105800D01*
X-101800Y-110300D02*
Y-105800D01*
X-102600Y-110300D02*
Y-105800D01*
X-103400Y-110300D02*
Y-105800D01*
X-104200Y-110300D02*
Y-105800D01*
X-105000Y-110300D02*
Y-105800D01*
X-105800Y-110300D02*
Y-105800D01*
X-106600Y-110300D02*
Y-105800D01*
X-107400Y-110300D02*
Y-105800D01*
X-108200Y-110300D02*
Y-105800D01*
X-109000Y-110300D02*
Y-105800D01*
X-109800Y-110300D02*
Y-105800D01*
X-110600Y-110300D02*
Y-105800D01*
X-91054Y-114100D02*
X70200D01*
X-90553Y-114900D02*
X70200D01*
X-89800Y-128300D02*
Y-113900D01*
X-90600Y-114803D02*
Y-113900D01*
X-91229D02*
X13000D01*
X-121853Y-110300D02*
X12254D01*
X-90285Y-115700D02*
X70200D01*
X-90200Y-116500D02*
X70200D01*
X-90285Y-117300D02*
X70200D01*
X-90553Y-118100D02*
X70200D01*
X-90600Y-128300D02*
Y-118197D01*
X-97800Y-128300D02*
Y-118300D01*
X-98600Y-128300D02*
Y-118300D01*
X-111952D02*
X-97347D01*
X-99400Y-128300D02*
Y-118300D01*
X-100200Y-128300D02*
Y-118300D01*
X-101000Y-128300D02*
Y-118300D01*
X-101800Y-128300D02*
Y-118300D01*
X-102600Y-128300D02*
Y-118300D01*
X-103400Y-128300D02*
Y-118300D01*
X-58600Y-137100D02*
Y-131900D01*
X-59400Y-137100D02*
Y-131900D01*
X-60200Y-137100D02*
Y-131900D01*
X-61000Y-137100D02*
Y-131900D01*
X-91054Y-118900D02*
X70200D01*
X-91951Y-119700D02*
X70200D01*
X-61800Y-137100D02*
Y-131900D01*
X-62600Y-137100D02*
Y-131900D01*
X-63400Y-137100D02*
Y-131900D01*
X-64200Y-137100D02*
Y-131900D01*
X-65000Y-137100D02*
Y-131900D01*
X-65800Y-137100D02*
Y-131900D01*
X-66600Y-137100D02*
Y-131900D01*
X-67400Y-137100D02*
Y-131900D01*
X-91400Y-128300D02*
Y-119271D01*
X-92200Y-128300D02*
Y-119847D01*
X-68200Y-137100D02*
Y-131900D01*
X-69000Y-137100D02*
Y-131900D01*
X-93000Y-128300D02*
Y-120166D01*
X-93800Y-128300D02*
Y-120295D01*
X-94600Y-128300D02*
Y-120252D01*
X-69800Y-137100D02*
Y-131900D01*
X-70600Y-137100D02*
Y-131900D01*
X-71400Y-137100D02*
Y-131900D01*
X-72200Y-137100D02*
Y-131900D01*
X-73000Y-137100D02*
Y-131900D01*
X-73800Y-137100D02*
Y-131900D01*
X-74600Y-137100D02*
Y-131900D01*
X-75400Y-137100D02*
Y-131900D01*
X-76200Y-137100D02*
Y-131900D01*
X-77000Y-137100D02*
Y-131900D01*
X-77800Y-137100D02*
Y-131900D01*
X-78600Y-137100D02*
Y-131900D01*
X-79400Y-137100D02*
Y-131900D01*
X-80200Y-137100D02*
Y-131900D01*
X-81000Y-137100D02*
Y-131900D01*
X-81800Y-137100D02*
Y-131900D01*
X-82600Y-137100D02*
Y-131900D01*
X-83400Y-137100D02*
Y-131900D01*
X-84200Y-137100D02*
Y-131900D01*
X-85000Y-137100D02*
Y-131900D01*
X-85800Y-137100D02*
Y-131900D01*
X-86600Y-137100D02*
Y-131900D01*
X-87400Y-137100D02*
Y-131900D01*
X-88200Y-137100D02*
Y-131900D01*
X-89000Y-137100D02*
Y-131900D01*
X-89800Y-137100D02*
Y-131900D01*
X-90600Y-137100D02*
Y-131900D01*
X-91400Y-137100D02*
Y-131900D01*
X-92200Y-137100D02*
Y-131900D01*
X-93000Y-137100D02*
Y-131900D01*
X-93800Y-137100D02*
Y-131900D01*
X-94600Y-137100D02*
Y-131900D01*
X-238831Y-120500D02*
X70200D01*
X-238831Y-121300D02*
X70200D01*
X-238831Y-122100D02*
X70200D01*
X-238831Y-122900D02*
X70200D01*
X-238831Y-123700D02*
X70200D01*
X-238831Y-124500D02*
X70200D01*
X-238831Y-125300D02*
X70200D01*
X-107654Y-127700D02*
X70200D01*
X-107253Y-128300D02*
X70200D01*
X-107253Y-131900D02*
X70200D01*
X-238831Y-126100D02*
X70200D01*
X-108551Y-126900D02*
X70200D01*
X-107654Y-132500D02*
X73500D01*
X-104200Y-128300D02*
Y-118300D01*
X-105000Y-128300D02*
Y-118300D01*
X-105800Y-128300D02*
Y-118300D01*
X-106600Y-128300D02*
Y-118300D01*
X-108200Y-127154D02*
Y-118300D01*
X-109000Y-126653D02*
Y-118300D01*
X-107400Y-128051D02*
Y-118300D01*
X-95400Y-128300D02*
Y-120033D01*
X-96200Y-128300D02*
Y-119598D01*
X-97000Y-128300D02*
Y-118832D01*
X-113471Y-119700D02*
X-96049D01*
X-112408Y-118900D02*
X-96946D01*
X-109800Y-126385D02*
Y-118300D01*
X-95400Y-137100D02*
Y-131900D01*
X-96200Y-137100D02*
Y-131900D01*
X-97000Y-137100D02*
Y-131900D01*
X-97800Y-137100D02*
Y-131900D01*
X-98600Y-137100D02*
Y-131900D01*
X-99400Y-137100D02*
Y-131900D01*
X-100200Y-137100D02*
Y-131900D01*
X-108551Y-133300D02*
X73500D01*
X-238831Y-134100D02*
X73500D01*
X-238831Y-134900D02*
X73500D01*
X-238831Y-135700D02*
X73500D01*
X-238831Y-136500D02*
X73500D01*
X-238831Y-137100D02*
X73500D01*
X-101000D02*
Y-131900D01*
X-101800Y-137100D02*
Y-131900D01*
X-102600Y-137100D02*
Y-131900D01*
X-103400Y-137100D02*
Y-131900D01*
X-104200Y-137100D02*
Y-131900D01*
X-105000Y-137100D02*
Y-131900D01*
X-105800Y-137100D02*
Y-131900D01*
X-106600Y-137100D02*
Y-131900D01*
X-107400Y-137100D02*
Y-132149D01*
X-108200Y-137100D02*
Y-133046D01*
X-109000Y-137100D02*
Y-133547D01*
X-109800Y-137100D02*
Y-133815D01*
X-129000Y-112100D02*
Y-13000D01*
X-129800Y-137100D02*
Y-13000D01*
X-130600Y-137100D02*
Y-13000D01*
X-131400Y-137100D02*
Y-13000D01*
X-132200Y-137100D02*
Y-13000D01*
X-133000Y-137100D02*
Y-13000D01*
X-133800Y-137100D02*
Y-13000D01*
X-134600Y-137100D02*
Y-13000D01*
X-135400Y-137100D02*
Y-13000D01*
X-136200Y-137100D02*
Y-13000D01*
X-137000Y-137100D02*
Y-13000D01*
X-137800Y-137100D02*
Y-13000D01*
X-138600Y-137100D02*
Y-13000D01*
X-139400Y-137100D02*
Y-13000D01*
X-140200Y-137100D02*
Y-13000D01*
X-141000Y-137100D02*
Y-13000D01*
X-141800Y-137100D02*
Y-13000D01*
X-142600Y-137100D02*
Y-13000D01*
X-143400Y-137100D02*
Y-13000D01*
X-144200Y-137100D02*
Y-13000D01*
X-145000Y-137100D02*
Y-13000D01*
X-145800Y-137100D02*
Y-13000D01*
X-146600Y-137100D02*
Y-13000D01*
X-147400Y-137100D02*
Y-13000D01*
X-148200Y-137100D02*
Y-13000D01*
X-149000Y-137100D02*
Y-13000D01*
X-149800Y-137100D02*
Y-13000D01*
X-150600Y-137100D02*
Y-13000D01*
X-151400Y-137100D02*
Y-13000D01*
X-152200Y-137100D02*
Y-13000D01*
X-153000Y-137100D02*
Y-13000D01*
X-153800Y-137100D02*
Y-13000D01*
X-154600Y-137100D02*
Y-13000D01*
X-155400Y-137100D02*
Y-13000D01*
X-156200Y-137100D02*
Y-13000D01*
X-157000Y-137100D02*
Y-13000D01*
X-157800Y-137100D02*
Y-13000D01*
X-158600Y-137100D02*
Y-13000D01*
X-159400Y-137100D02*
Y-13000D01*
X-160200Y-137100D02*
Y-13000D01*
X-161000Y-137100D02*
Y-13000D01*
X-161800Y-137100D02*
Y-13000D01*
X-162600Y-137100D02*
Y-13000D01*
X-163400Y-137100D02*
Y-13000D01*
X-164200Y-137100D02*
Y-13000D01*
X-165000Y-137100D02*
Y-13000D01*
X-165800Y-137100D02*
Y-13000D01*
X-166600Y-137100D02*
Y-13000D01*
X-167400Y-137100D02*
Y-13000D01*
X-168200Y-137100D02*
Y-13000D01*
X-169000Y-137100D02*
Y-13000D01*
X-169800Y-137100D02*
Y-13000D01*
X-170600Y-137100D02*
Y-13000D01*
X-171400Y-137100D02*
Y-13000D01*
X-172200Y-137100D02*
Y-13000D01*
X-173000Y-137100D02*
Y-13000D01*
X-173800Y-137100D02*
Y-13000D01*
X-174600Y-137100D02*
Y-13000D01*
X-175400Y-137100D02*
Y-13000D01*
X-176200Y-137100D02*
Y-13000D01*
X-177000Y-137100D02*
Y-13000D01*
X-177800Y-137100D02*
Y-13000D01*
X-178600Y-137100D02*
Y-13000D01*
X-179400Y-137100D02*
Y-13000D01*
X-180200Y-137100D02*
Y-13000D01*
X-181000Y-137100D02*
Y-13000D01*
X-181800Y-137100D02*
Y-13000D01*
X-182600Y-137100D02*
Y-13000D01*
X-183400Y-137100D02*
Y-13000D01*
X-184200Y-137100D02*
Y-13000D01*
X-185000Y-137100D02*
Y-13000D01*
X-185800Y-137100D02*
Y-13000D01*
X-186600Y-137100D02*
Y-13000D01*
X-187400Y-137100D02*
Y-13000D01*
X-188200Y-137100D02*
Y-13000D01*
X-189000Y-137100D02*
Y-13000D01*
X-189800Y-137100D02*
Y-13000D01*
X-190600Y-137100D02*
Y-13000D01*
X-191400Y-137100D02*
Y-13000D01*
X-192200Y-137100D02*
Y-13000D01*
X-193000Y-137100D02*
Y-13000D01*
X-193800Y-137100D02*
Y-13000D01*
X-211400Y-137100D02*
Y-13000D01*
X-212200Y-137100D02*
Y-13000D01*
X-213000Y-137100D02*
Y-13000D01*
X-213800Y-137100D02*
Y-13000D01*
X-214600Y-137100D02*
Y-13843D01*
X-225800Y-137100D02*
Y-13000D01*
X-226600Y-137100D02*
Y-13000D01*
X-227400Y-137100D02*
Y-13000D01*
X-228200Y-137100D02*
Y-13000D01*
X-229000Y-137100D02*
Y-13000D01*
X-229800Y-137100D02*
Y-13000D01*
X-230600Y-137100D02*
Y-13000D01*
X-231400Y-137100D02*
Y-13000D01*
X-232200Y-137100D02*
Y-13000D01*
X-233000Y-137100D02*
Y-13000D01*
X-233800Y-137100D02*
Y-13000D01*
X-234600Y-137100D02*
Y-13000D01*
X-235400Y-137100D02*
Y-13000D01*
X-236200Y-137100D02*
Y-13000D01*
X-237000Y-137100D02*
Y-13000D01*
X-237800Y-137100D02*
Y-13000D01*
X-238600Y-137100D02*
Y-13000D01*
X-238831Y-137100D02*
Y-13000D01*
X-111400Y-110300D02*
Y-105800D01*
X-112200Y-110300D02*
Y-105800D01*
X-113000Y-110300D02*
Y-105800D01*
X-113800Y-110300D02*
Y-105800D01*
X-114600Y-110300D02*
Y-105800D01*
X-115400Y-110300D02*
Y-105800D01*
X-110600Y-126300D02*
Y-118300D01*
X-111400Y-126385D02*
Y-118300D01*
X-110600Y-137100D02*
Y-133900D01*
X-112200Y-126653D02*
Y-118657D01*
X-113000Y-127154D02*
Y-119416D01*
X-113800Y-128051D02*
Y-119848D01*
X-116200Y-110300D02*
Y-106049D01*
X-117000Y-110300D02*
Y-106946D01*
X-117800Y-110300D02*
Y-107447D01*
X-118600Y-110300D02*
Y-107715D01*
X-119400Y-110300D02*
Y-107800D01*
X-121000Y-110300D02*
Y-107447D01*
X-121800Y-110300D02*
Y-106946D01*
X-121853Y-113900D02*
X-118127D01*
X-120200Y-110300D02*
Y-107715D01*
X-121969Y-114100D02*
X-118280D01*
X-122631Y-114900D02*
X-118718D01*
X-123984Y-115700D02*
X-118940D01*
X-116200Y-137100D02*
Y-119974D01*
X-117000Y-137100D02*
Y-119651D01*
X-117800Y-137100D02*
Y-119072D01*
X-118600Y-137100D02*
Y-117986D01*
X-119400Y-137100D02*
Y-113900D01*
X-120200Y-137100D02*
Y-113900D01*
X-121000Y-137100D02*
Y-113900D01*
X-111400Y-137100D02*
Y-133815D01*
X-112200Y-137100D02*
Y-133547D01*
X-113000Y-137100D02*
Y-133046D01*
X-113800Y-137100D02*
Y-132149D01*
X-114600Y-137100D02*
Y-120065D01*
X-115400Y-137100D02*
Y-120105D01*
X-121800Y-137100D02*
Y-113900D01*
X-122600Y-137100D02*
Y-114871D01*
X-128200Y-137100D02*
Y-114432D01*
X-129000Y-137100D02*
Y-112100D01*
X-194600Y-137100D02*
Y-33426D01*
X-195400Y-137100D02*
Y-34204D01*
X-196200Y-137100D02*
Y-34645D01*
X-123400Y-137100D02*
Y-115447D01*
X-124200Y-137100D02*
Y-115766D01*
X-125000Y-137100D02*
Y-115895D01*
X-125800Y-137100D02*
Y-115852D01*
X-126600Y-137100D02*
Y-115633D01*
X-127400Y-137100D02*
Y-115198D01*
X-238831Y-118100D02*
X-118542D01*
X-238831Y-116500D02*
X-118985D01*
X-238831Y-119700D02*
X-116908D01*
X-238831Y-118900D02*
X-117971D01*
X-238831Y-126900D02*
X-112649D01*
X-238831Y-127700D02*
X-113546D01*
X-238831Y-128500D02*
X-114047D01*
X-238831Y-129300D02*
X-114315D01*
X-238831Y-130100D02*
X-114400D01*
X-238831Y-130900D02*
X-114315D01*
X-238831Y-132500D02*
X-113546D01*
X-238831Y-131700D02*
X-114047D01*
X-238831Y-133300D02*
X-112649D01*
X-197000Y-137100D02*
Y-34870D01*
X-197800Y-137100D02*
Y-35260D01*
X-198600Y-137100D02*
Y-61542D01*
X-199400Y-137100D02*
Y-62460D01*
X-238831Y-110900D02*
X-128806D01*
X-238831Y-111700D02*
X-128979D01*
X-200200Y-137100D02*
Y-63260D01*
X-238831Y-112500D02*
X-128979D01*
X-238831Y-113300D02*
X-128806D01*
X-238831Y-114100D02*
X-128431D01*
X-238831Y-115700D02*
X-126417D01*
X-238831Y-114900D02*
X-127769D01*
X-238831Y-117300D02*
X-118858D01*
X-201000Y-137100D02*
Y-64060D01*
X-201800Y-137100D02*
Y-64860D01*
X-202600Y-137100D02*
Y-65660D01*
X-203400Y-137100D02*
Y-67317D01*
X-204200Y-137100D02*
Y-68669D01*
X-209800Y-137100D02*
Y-68669D01*
X-210600Y-137100D02*
Y-67317D01*
X-205000Y-137100D02*
Y-69331D01*
X-205800Y-137100D02*
Y-69706D01*
X-206600Y-137100D02*
Y-69879D01*
X-207400Y-137100D02*
Y-69879D01*
X-208200Y-137100D02*
Y-69706D01*
X-209000Y-137100D02*
Y-69331D01*
X-215400Y-137100D02*
Y-14745D01*
X-216200Y-137100D02*
Y-15384D01*
X-217000Y-137100D02*
Y-15846D01*
X-222600Y-137100D02*
Y-15886D01*
X-223400Y-137100D02*
Y-15440D01*
X-224200Y-137100D02*
Y-14823D01*
X-225000Y-137100D02*
Y-13956D01*
X-217800Y-137100D02*
Y-16171D01*
X-218600Y-137100D02*
Y-16380D01*
X-219400Y-137100D02*
Y-16485D01*
X-220200Y-137100D02*
Y-16490D01*
X-221000Y-137100D02*
Y-16396D01*
X-221800Y-137100D02*
Y-16198D01*
X-180200Y38179D02*
Y51434D01*
X-181000Y38982D02*
Y51434D01*
X-180672Y38700D02*
X-150600D01*
X-181835Y39500D02*
X-150600D01*
X-181800Y39483D02*
Y51435D01*
X-182600Y39785D02*
Y51435D01*
X-183400Y39928D02*
Y51435D01*
X-184200Y39928D02*
Y51435D01*
X-179581Y37100D02*
X-150600D01*
X-180001Y37900D02*
X-150600D01*
X-179341Y36300D02*
X-150600D01*
X-179251Y35500D02*
X-150600D01*
X-179400Y36555D02*
Y51434D01*
X-179304Y34700D02*
X-150600D01*
X-185000Y39785D02*
Y51436D01*
X-185800Y39483D02*
Y51436D01*
X-186600Y38982D02*
Y51436D01*
X-191835Y39500D02*
X-185765D01*
X-187400Y38179D02*
Y51436D01*
X-189800Y37565D02*
Y51437D01*
X-190001Y37900D02*
X-187599D01*
X-190672Y38700D02*
X-186928D01*
X-188200Y36555D02*
Y51436D01*
X-189341Y36300D02*
X-188259D01*
X-189581Y37100D02*
X-188019D01*
X-189251Y35500D02*
X-188349D01*
X-189304Y34700D02*
X-188296D01*
X-179503Y33900D02*
X-150600D01*
X-179872Y33100D02*
X-150600D01*
X-180466Y32300D02*
X-150600D01*
X-180500Y31500D02*
X-150600D01*
X-180500Y28528D02*
Y32264D01*
Y30700D02*
X-150600D01*
X-180500Y29900D02*
X-150600D01*
X-180500Y29100D02*
X-150600D01*
X-179441Y26700D02*
X-150600D01*
X-179766Y27500D02*
X-150600D01*
X-179278Y25900D02*
X-150600D01*
X-179260Y25100D02*
X-150600D01*
X-179400Y26555D02*
Y34237D01*
X-180200Y28179D02*
Y32614D01*
X-190466Y32300D02*
X-187134D01*
X-191450Y31500D02*
X-187100D01*
X-180297Y28300D02*
X-150600D01*
X-193154Y29900D02*
X-187100D01*
X-189503Y33900D02*
X-188097D01*
X-189872Y33100D02*
X-187728D01*
X-187100Y28528D02*
Y32264D01*
X-191157Y29100D02*
X-187100D01*
X-187400Y28179D02*
Y32614D01*
X-188200Y26555D02*
Y34237D01*
X-189766Y27500D02*
X-187834D01*
X-190297Y28300D02*
X-187303D01*
X-189278Y25900D02*
X-188322D01*
X-189441Y26700D02*
X-188159D01*
X-189260Y25100D02*
X-188340D01*
X-191400Y39262D02*
Y51437D01*
X-192200Y39656D02*
Y51437D01*
X-193000Y39875D02*
Y51438D01*
X-193800Y39946D02*
Y51438D01*
X-194600Y39875D02*
Y51438D01*
X-195400Y39656D02*
Y51438D01*
X-199400Y39946D02*
Y51439D01*
X-199250Y39500D02*
X-195765D01*
X-190600Y38631D02*
Y51437D01*
X-196200Y39262D02*
Y51438D01*
X-189800Y27565D02*
Y33228D01*
X-197000Y38631D02*
Y51439D01*
X-197800Y37565D02*
Y51439D01*
X-199250Y30846D02*
Y39946D01*
Y38700D02*
X-196928D01*
X-200200Y39946D02*
Y51440D01*
X-201000Y39946D02*
Y51440D01*
X-199250Y37900D02*
X-197599D01*
X-199250Y37100D02*
X-198019D01*
X-201800Y39946D02*
Y51440D01*
X-202600Y39946D02*
Y51440D01*
X-203400Y39946D02*
Y51440D01*
X-204200Y39946D02*
Y51441D01*
X-199250Y36300D02*
X-198259D01*
X-199250Y35500D02*
X-198349D01*
X-199250Y34700D02*
X-198296D01*
X-199250Y33900D02*
X-198097D01*
X-203800Y35396D02*
Y39446D01*
Y35396D02*
X-199750D01*
X-203800Y31346D02*
Y35396D01*
X-192200Y29656D02*
Y31137D01*
X-193000Y29875D02*
Y30917D01*
X-193800Y29946D02*
Y30846D01*
X-194600Y29875D02*
Y30917D01*
X-199250Y33100D02*
X-197728D01*
X-199250Y32300D02*
X-197134D01*
X-199250Y31500D02*
X-196150D01*
X-199400Y29946D02*
Y30846D01*
X-190600Y28631D02*
Y32162D01*
X-191400Y29262D02*
Y31530D01*
X-195400Y29656D02*
Y31137D01*
X-199250Y29900D02*
X-194446D01*
X-197000Y28631D02*
Y32162D01*
X-197800Y27565D02*
Y33228D01*
X-196200Y29262D02*
Y31530D01*
X-200200Y29946D02*
Y30846D01*
X-201000Y29946D02*
Y30846D01*
X-199250Y29100D02*
X-196443D01*
X-201800Y29946D02*
Y30846D01*
X-202600Y29946D02*
Y30846D01*
X-203400Y29946D02*
Y30846D01*
X-204200Y29946D02*
Y30846D01*
X-199250Y28300D02*
X-197303D01*
X-199250Y27500D02*
X-197834D01*
X-199250Y26700D02*
X-198159D01*
X-199250Y25900D02*
X-198322D01*
X-203800Y25396D02*
Y29446D01*
Y25396D02*
X-199750D01*
X-199250Y25100D02*
X-198340D01*
X-150600Y16300D02*
Y51426D01*
X-151400Y16311D02*
Y51427D01*
X-152200Y16322D02*
Y51427D01*
X-153000Y16333D02*
Y51427D01*
X-153800Y16345D02*
Y51427D01*
X-154600Y16356D02*
Y51428D01*
X-155400Y16367D02*
Y51428D01*
X-156200Y16378D02*
Y51428D01*
X-157000Y16389D02*
Y51428D01*
X-157800Y16401D02*
Y51428D01*
X-158600Y16412D02*
Y51429D01*
X-159400Y16423D02*
Y51429D01*
X-160200Y16434D02*
Y51429D01*
X-161000Y16445D02*
Y51429D01*
X-161800Y16457D02*
Y51429D01*
X-166600Y20200D02*
Y51431D01*
X-167400Y20200D02*
Y51431D01*
X-168200Y20200D02*
Y51431D01*
X-169000Y20200D02*
Y51431D01*
X-169800Y20200D02*
Y51432D01*
X-170600Y20200D02*
Y51432D01*
X-171400Y20200D02*
Y51432D01*
X-172200Y20200D02*
Y51432D01*
X-162600Y17153D02*
Y51430D01*
X-163400Y17953D02*
Y51430D01*
X-164200Y18753D02*
Y51430D01*
X-165000Y19552D02*
Y51430D01*
X-165800Y20056D02*
Y51430D01*
X-173000Y20200D02*
Y51432D01*
X-173800Y20200D02*
Y51433D01*
X-174600Y20200D02*
Y51433D01*
X-175400Y20200D02*
Y51433D01*
X-164947Y19500D02*
X-150600D01*
X-178947Y20300D02*
X-150600D01*
X-176200Y20200D02*
Y51433D01*
X-177000Y20200D02*
Y51433D01*
X-177800Y20200D02*
Y51434D01*
X-178600Y20200D02*
Y51434D01*
X-163347Y17900D02*
X-150600D01*
X-164147Y18700D02*
X-150600D01*
X-161906Y16458D02*
X-150600Y16300D01*
X-162547Y17100D02*
X-150600D01*
X-164974Y19526D02*
X-161906Y16458D01*
X-179384Y24300D02*
X-150600D01*
X-179664Y23500D02*
X-150600D01*
X-180135Y22700D02*
X-150600D01*
X-180547Y21900D02*
X-150600D01*
X-180200Y21553D02*
Y22614D01*
X-179747Y21100D02*
X-150600D01*
X-179400Y20753D02*
Y24237D01*
X-180707Y22059D02*
X-178847Y20200D01*
X-166600D01*
X-181000Y13413D02*
Y15938D01*
X-184138Y7681D02*
X-179802Y15600D01*
X-190888Y21900D02*
X-186712D01*
X-189384Y24300D02*
X-188216D01*
X-189664Y23500D02*
X-187936D01*
X-186600Y9205D02*
Y21810D01*
X-190135Y22700D02*
X-187465D01*
X-188200Y9243D02*
Y24237D01*
X-189000Y9030D02*
Y51437D01*
X-185800Y8950D02*
Y20764D01*
X-187400Y9299D02*
Y22614D01*
X-189800Y8633D02*
Y23227D01*
X-190600Y7980D02*
Y22162D01*
X-191400Y6811D02*
Y21531D01*
X-199250Y21900D02*
X-196712D01*
X-192301Y21100D02*
X-185956D01*
X-199250D02*
X-195299D01*
X-199250Y24300D02*
X-198216D01*
X-203800Y21346D02*
Y25396D01*
X-199250Y23500D02*
X-197936D01*
X-199250Y22700D02*
X-197465D01*
X-196200Y-18600D02*
Y21531D01*
X-197000Y-18600D02*
Y22162D01*
X-192200Y-18600D02*
Y21137D01*
X-195400Y-18600D02*
Y21137D01*
X-198600Y-18600D02*
Y51439D01*
X-199250Y20846D02*
Y29946D01*
X-197800Y-18600D02*
Y23227D01*
X-183400Y9029D02*
Y18247D01*
X-185426Y20274D02*
X-181426Y16274D01*
X-181800Y11952D02*
Y16647D01*
X-182600Y10491D02*
Y17447D01*
X-184200Y7757D02*
Y19047D01*
X-185000Y8499D02*
Y19847D01*
X-184743Y8300D02*
X-183800D01*
X-186204Y9100D02*
X-183361D01*
X-187500Y5000D02*
Y8800D01*
Y1200D02*
Y5000D01*
X-188700Y-650D02*
X-187948Y723D01*
X-188800Y-18600D02*
X-188700Y-650D01*
X-189800Y-18600D02*
Y1367D01*
X-190600Y-18600D02*
Y2020D01*
X-189000Y-18600D02*
Y970D01*
X-193000Y-18600D02*
Y20917D01*
X-191300Y5000D02*
X-187500D01*
X-191400Y-18600D02*
Y3189D01*
X-193800Y-18600D02*
Y20846D01*
X-194600Y-18600D02*
Y20917D01*
X-199400Y-18600D02*
Y20846D01*
X-200200Y-18600D02*
Y20846D01*
X-201000Y-18600D02*
Y20846D01*
X-201800Y-18600D02*
Y20846D01*
X-202600Y-18600D02*
Y20846D01*
X-203400Y-18600D02*
Y20846D01*
X-204200Y-18600D02*
Y20846D01*
X-205000Y-18600D02*
Y20846D01*
Y39946D02*
Y51441D01*
X-238831Y51450D02*
X-150600Y51426D01*
X-208350Y39946D02*
X-199250D01*
X-238831Y50700D02*
X-150600D01*
X-205800Y39946D02*
Y51441D01*
X-206600Y39946D02*
Y51441D01*
X-207400Y39946D02*
Y51442D01*
X-208200Y39946D02*
Y51442D01*
X-207850Y35396D02*
X-203800D01*
X-208350Y30846D02*
X-199250D01*
X-205000Y29946D02*
Y30846D01*
X-208350Y29946D02*
X-199250D01*
X-205800D02*
Y30846D01*
X-206600Y29946D02*
Y30846D01*
X-207400Y29946D02*
Y30846D01*
X-238831Y49900D02*
X-150600D01*
X-238831Y49100D02*
X-150600D01*
X-238831Y48300D02*
X-150600D01*
X-238831Y47500D02*
X-150600D01*
X-238831Y46700D02*
X-150600D01*
X-238831Y45900D02*
X-150600D01*
X-238831Y45100D02*
X-150600D01*
X-238831Y44300D02*
X-150600D01*
X-238831Y43500D02*
X-150600D01*
X-238831Y42700D02*
X-150600D01*
X-238831Y41900D02*
X-150600D01*
X-238831Y41100D02*
X-150600D01*
X-238831Y40300D02*
X-150600D01*
X-238831Y39500D02*
X-208350D01*
X-238831Y30700D02*
X-187100D01*
X-238831Y20300D02*
X-185452D01*
X-238831Y19500D02*
X-184653D01*
X-216623Y5900D02*
X-191705D01*
X-219308Y6700D02*
X-191450D01*
X-207850Y25396D02*
X-203800D01*
X-208350Y20846D02*
X-199250D01*
X-214677Y4300D02*
X-191743D01*
X-215465Y5100D02*
X-191799D01*
X-213212Y1100D02*
X-189311D01*
X-213128Y300D02*
X-188180D01*
X-213140Y-500D02*
X-188618D01*
X-213248Y-1300D02*
X-188704D01*
X-213687Y2700D02*
X-191133D01*
X-214104Y3500D02*
X-191530D01*
X-213395Y1900D02*
X-190480D01*
X-238831Y15500D02*
X-179857D01*
X-238831Y14700D02*
X-180295D01*
X-238831Y13900D02*
X-180733D01*
X-238831Y13100D02*
X-181171D01*
X-238831Y18700D02*
X-183853D01*
X-238831Y17900D02*
X-183053D01*
X-238831Y17100D02*
X-182253D01*
X-238831Y16300D02*
X-181453D01*
X-238831Y12300D02*
X-181609D01*
X-238831Y11500D02*
X-182047D01*
X-238831Y10700D02*
X-182485D01*
X-238831Y9900D02*
X-182923D01*
X-238831Y9100D02*
X-188796D01*
X-238831Y8300D02*
X-190257D01*
X-238831Y7500D02*
X-190999D01*
X-208350Y30846D02*
Y39946D01*
X-218600Y6605D02*
Y51445D01*
X-208200Y29946D02*
Y30846D01*
X-208350Y20846D02*
Y29946D01*
X-219400Y6707D02*
Y51445D01*
X-220200Y6712D02*
Y51445D01*
X-221000Y6621D02*
Y51445D01*
X-221800Y6430D02*
Y51445D01*
X-213800Y2943D02*
Y51443D01*
X-214600Y4206D02*
Y51443D01*
X-215400Y5044D02*
Y51444D01*
X-216200Y5649D02*
Y51444D01*
X-217000Y6091D02*
Y51444D01*
X-217800Y6403D02*
Y51444D01*
X-222600Y6130D02*
Y51446D01*
X-238831Y38700D02*
X-208350D01*
X-238831Y37900D02*
X-208350D01*
X-238831Y37100D02*
X-208350D01*
X-238831Y36300D02*
X-208350D01*
X-238831Y35500D02*
X-208350D01*
X-238831Y34700D02*
X-208350D01*
X-238831Y33900D02*
X-208350D01*
X-238831Y33100D02*
X-208350D01*
X-223400Y5703D02*
Y51446D01*
X-238831Y32300D02*
X-208350D01*
X-238831Y31500D02*
X-208350D01*
X-238831Y29900D02*
X-208350D01*
X-224200Y5117D02*
Y51446D01*
X-225000Y4310D02*
Y51446D01*
X-225800Y3112D02*
Y51446D01*
X-238831Y29100D02*
X-208350D01*
X-238831Y28300D02*
X-208350D01*
X-238831Y27500D02*
X-208350D01*
X-238831Y26700D02*
X-208350D01*
X-238831Y25900D02*
X-208350D01*
X-238831Y25100D02*
X-208350D01*
X-238831Y24300D02*
X-208350D01*
X-238831Y23500D02*
X-208350D01*
X-238831Y22700D02*
X-208350D01*
X-238831Y21900D02*
X-208350D01*
X-238831Y21100D02*
X-208350D01*
X-238831Y6700D02*
X-220377D01*
X-238831Y5900D02*
X-223062D01*
X-238831Y5100D02*
X-224220D01*
X-238831Y4300D02*
X-225008D01*
X-238831Y3500D02*
X-225581D01*
X-238831Y2700D02*
X-225998D01*
X-238831Y1900D02*
X-226290D01*
X-238831Y1100D02*
X-226473D01*
X-238831Y300D02*
X-226557D01*
X-238831Y-500D02*
X-226545D01*
X-213458Y-2100D02*
X-188708D01*
X-213779Y-2900D02*
X-188713D01*
X-213763Y-7700D02*
X-188739D01*
X-214129Y-6900D02*
X-188735D01*
X-205800Y-18600D02*
Y20846D01*
X-206600Y-18600D02*
Y20846D01*
X-207400Y-18600D02*
Y20846D01*
X-213800Y-7605D02*
Y-2943D01*
X-209000Y-18600D02*
Y51442D01*
X-209800Y-18600D02*
Y51442D01*
X-208200Y-18600D02*
Y20846D01*
X-210600Y-18600D02*
Y51442D01*
X-211400Y-18600D02*
Y51443D01*
X-212200Y-18600D02*
Y51443D01*
X-213000Y-18600D02*
Y51443D01*
X-214231Y-3700D02*
X-188717D01*
X-214850Y-4500D02*
X-188722D01*
X-214643Y-6100D02*
X-188730D01*
X-215353Y-5300D02*
X-188726D01*
X-214600Y-6157D02*
Y-4206D01*
X-213518Y-8500D02*
X-188744D01*
X-213380Y-9300D02*
X-188748D01*
X-213343Y-10100D02*
X-188753D01*
X-213405Y-10900D02*
X-188757D01*
X-213569Y-11700D02*
X-188762D01*
X-213843Y-12500D02*
X-188766D01*
X-214243Y-13300D02*
X-188770D01*
X-213800Y-18600D02*
Y-12395D01*
X-214799Y-14100D02*
X-188775D01*
X-215572Y-14900D02*
X-188779D01*
X-216718Y-15700D02*
X-188784D01*
X-214600Y-18600D02*
Y-13843D01*
X-215400Y-18600D02*
Y-14745D01*
X-216200Y-18600D02*
Y-15384D01*
X-219843Y-16500D02*
X-188788D01*
X-238831Y-17300D02*
X-188793D01*
X-238831Y-18100D02*
X-188797D01*
X-238831Y-18600D02*
X-188800D01*
X-217000D02*
Y-15846D01*
X-217800Y-18600D02*
Y-16171D01*
X-226600Y-18600D02*
Y51447D01*
X-227400Y-18600D02*
Y51447D01*
X-225000Y-6044D02*
Y-4310D01*
X-225800Y-7400D02*
Y-3112D01*
X-228200Y-18600D02*
Y51447D01*
X-229000Y-18600D02*
Y51447D01*
X-229800Y-18600D02*
Y51447D01*
X-230600Y-18600D02*
Y51448D01*
X-231400Y-18600D02*
Y51448D01*
X-232200Y-18600D02*
Y51448D01*
X-233000Y-18600D02*
Y51448D01*
X-238831Y-3700D02*
X-225454D01*
X-238831Y-4500D02*
X-224835D01*
X-238831Y-5300D02*
X-224332D01*
X-238831Y-6100D02*
X-225043D01*
X-233800Y-18600D02*
Y51449D01*
X-238831Y-1300D02*
X-226437D01*
X-238831Y-2100D02*
X-226227D01*
X-238831Y-2900D02*
X-225906D01*
X-234600Y-18600D02*
Y51449D01*
X-235400Y-18600D02*
Y51449D01*
X-236200Y-18600D02*
Y51449D01*
X-237000Y-18600D02*
Y51449D01*
X-237800Y-18600D02*
Y51450D01*
X-238600Y-18600D02*
Y51450D01*
X-238831Y-18600D02*
Y51450D01*
X-218600Y-18600D02*
Y-16380D01*
X-219400Y-18600D02*
Y-16485D01*
X-221800Y-18600D02*
Y-16198D01*
X-222600Y-18600D02*
Y-15886D01*
X-220200Y-18600D02*
Y-16490D01*
X-221000Y-18600D02*
Y-16396D01*
X-224200Y-18600D02*
Y-14823D01*
X-225000Y-18600D02*
Y-13956D01*
X-223400Y-18600D02*
Y-15440D01*
X-238831Y-6900D02*
X-225556D01*
X-238831Y-7700D02*
X-225922D01*
X-238831Y-8500D02*
X-226167D01*
X-238831Y-11700D02*
X-226116D01*
X-238831Y-9300D02*
X-226305D01*
X-238831Y-10100D02*
X-226342D01*
X-238831Y-10900D02*
X-226280D01*
X-238831Y-14100D02*
X-224886D01*
X-238831Y-14900D02*
X-224113D01*
X-238831Y-15700D02*
X-222967D01*
X-238831Y-16500D02*
X-219843D01*
X-225800Y-18600D02*
Y-12600D01*
X-238831Y-12500D02*
X-225842D01*
X-238831Y-13300D02*
X-225443D01*
X225287Y-13000D02*
X226800D01*
X225167Y-13300D02*
X226800D01*
X224745Y-14100D02*
X226800D01*
X224135Y-14900D02*
X226800D01*
X223241Y-15700D02*
X226800D01*
X221684Y-16500D02*
X226800D01*
X179300Y-17300D02*
X226800D01*
X179300Y-13000D02*
X214398D01*
X179300Y-13300D02*
X214518D01*
X179300Y-14100D02*
X214940D01*
X179300Y-14900D02*
X215549D01*
X179300Y-15700D02*
X216444D01*
X179300Y-16500D02*
X218001D01*
X179300Y-18100D02*
X226800D01*
X179300Y-18900D02*
X226800D01*
X179300Y-19700D02*
X226800D01*
X179300Y-20500D02*
X226800D01*
X179300Y-21300D02*
X226800D01*
X179300Y-22100D02*
X226800D01*
X179300Y-22900D02*
X226800D01*
X179300Y-23700D02*
X226800D01*
X179300Y-24500D02*
X226800D01*
X179300Y-25300D02*
X226800D01*
X179300Y-26100D02*
X226800D01*
X179300Y-26900D02*
X226800D01*
X179300Y-27700D02*
X226800D01*
X179300Y-28500D02*
X226800D01*
X179300Y-29300D02*
X226800D01*
X179300Y-30100D02*
X226800D01*
X179300Y-30900D02*
X226800D01*
X179300Y-31700D02*
X226800D01*
X179300Y-32500D02*
X226800D01*
X179300Y-33300D02*
X226800D01*
X179300Y-34100D02*
X226800D01*
X179300Y-34900D02*
X226800D01*
X179300Y-35700D02*
X226800D01*
X179300Y-36500D02*
X226800D01*
X179300Y-37300D02*
X226800D01*
X179300Y-38100D02*
X226800D01*
X179300Y-38900D02*
X226800D01*
X179300Y-39700D02*
X226800D01*
X179300Y-40500D02*
X226800D01*
X179300Y-41300D02*
X226800D01*
X179300Y-42100D02*
X226800D01*
X179300Y-42900D02*
X226800D01*
X179300Y-43700D02*
X226800D01*
X179300Y-44500D02*
X226800D01*
X179300Y-45300D02*
X226800D01*
X179300Y-46100D02*
X226800D01*
X179300Y-46900D02*
X226800D01*
X179300Y-47700D02*
X226800D01*
X179300Y-48500D02*
X226800D01*
X179300Y-49300D02*
X226800D01*
X179300Y-50100D02*
X226800D01*
X179300Y-50900D02*
X226800D01*
X179300Y-51700D02*
X226800D01*
X179300Y-52500D02*
X226800D01*
X179300Y-53300D02*
X226800D01*
X179300Y-54100D02*
X226800D01*
X179300Y-54900D02*
X226800D01*
X179300Y-55700D02*
X226800D01*
X179300Y-56500D02*
X226800D01*
X179300Y-57300D02*
X226800D01*
X179300Y-58100D02*
X226800D01*
X179300Y-58900D02*
X226800D01*
X179300Y-59700D02*
X226800D01*
X179300Y-60500D02*
X226800D01*
X179300Y-61300D02*
X226800D01*
X179300Y-62100D02*
X226800D01*
X179300Y-62900D02*
X226800D01*
X179300Y-63700D02*
X226800D01*
X179300Y-64500D02*
X226800D01*
X179300Y-65300D02*
X226800D01*
X179300Y-66100D02*
X226800D01*
X179300Y-66900D02*
X226800D01*
X179300Y-67700D02*
X226800D01*
X179300Y-68500D02*
X226800D01*
X179300Y-69300D02*
X226800D01*
X179300Y-70100D02*
X226800D01*
X179300Y-70900D02*
X226800D01*
X179300Y-71700D02*
X226800D01*
X179300Y-72500D02*
X226800D01*
X179300Y-73300D02*
X226800D01*
X179300Y-74100D02*
X226800D01*
Y-137200D02*
Y-13000D01*
X226200Y-137200D02*
Y-13000D01*
X225400Y-137200D02*
Y-13000D01*
X224600Y-137200D02*
Y-14318D01*
X223000Y-137100D02*
Y-15865D01*
X222200Y-137100D02*
Y-16299D01*
X221400Y-137100D02*
Y-16587D01*
X220600Y-137100D02*
Y-16750D01*
X216600Y-137100D02*
Y-15809D01*
X215800Y-137100D02*
Y-15159D01*
X215000Y-137100D02*
Y-14192D01*
X214200Y-137100D02*
Y-13000D01*
X219800Y-137100D02*
Y-16800D01*
X219000Y-137100D02*
Y-16738D01*
X218200Y-137100D02*
Y-16563D01*
X217400Y-137100D02*
Y-16261D01*
X213400Y-137100D02*
Y-13000D01*
X212600Y-137100D02*
Y-13000D01*
X211800Y-137100D02*
Y-13000D01*
X211000Y-137100D02*
Y-13000D01*
X210200Y-137100D02*
Y-13000D01*
X209400Y-137100D02*
Y-13000D01*
X208600Y-137100D02*
Y-13000D01*
X207800Y-137100D02*
Y-13000D01*
X207000Y-137100D02*
Y-13000D01*
X206200Y-137100D02*
Y-13000D01*
X205400Y-137100D02*
Y-13000D01*
X204600Y-137100D02*
Y-13000D01*
X203800Y-137100D02*
Y-13000D01*
X203000Y-137100D02*
Y-13000D01*
X202200Y-137100D02*
Y-13000D01*
X179300Y-74900D02*
X226800D01*
X179300Y-75700D02*
X226800D01*
X179300Y-76500D02*
X226800D01*
X179300Y-77300D02*
X226800D01*
X179300Y-78100D02*
X226800D01*
X179300Y-78900D02*
X226800D01*
X179300Y-79700D02*
X226800D01*
X179300Y-80500D02*
X226800D01*
X179300Y-81300D02*
X226800D01*
X179300Y-82100D02*
X226800D01*
X179300Y-82900D02*
X226800D01*
X179300Y-83700D02*
X226800D01*
X179300Y-84500D02*
X226800D01*
X179300Y-85300D02*
X226800D01*
X179300Y-86100D02*
X226800D01*
X201400Y-137100D02*
Y-13000D01*
X200600Y-137100D02*
Y-13000D01*
X199800Y-137100D02*
Y-13000D01*
X199000Y-137100D02*
Y-13000D01*
X198200Y-137100D02*
Y-13000D01*
X197400Y-137100D02*
Y-13000D01*
X179300Y-86900D02*
X226800D01*
X179300Y-87700D02*
X226800D01*
X196600Y-137100D02*
Y-13000D01*
X195800Y-137100D02*
Y-13000D01*
X195000Y-137100D02*
Y-13000D01*
X194200Y-137100D02*
Y-13000D01*
X193400Y-137100D02*
Y-13000D01*
X192600Y-137100D02*
Y-13000D01*
X191800Y-137100D02*
Y-13000D01*
X179300Y-88500D02*
X226800D01*
X179300Y-89300D02*
X226800D01*
X179300Y-90100D02*
X226800D01*
X179300Y-90900D02*
X226800D01*
X179297Y-91700D02*
X226800D01*
X179059Y-92500D02*
X226800D01*
X178346Y-93300D02*
X226800D01*
X177545Y-94100D02*
X226800D01*
X177000Y-106100D02*
X226800D01*
X177000Y-106900D02*
X226800D01*
X177000Y-107700D02*
X226800D01*
X177000Y-108500D02*
X226800D01*
X177000Y-109300D02*
X226800D01*
X177000Y-110100D02*
X226800D01*
X177000Y-110900D02*
X226800D01*
X177000Y-111700D02*
X226800D01*
X177000Y-112500D02*
X226800D01*
X177000Y-113300D02*
X226800D01*
X177000Y-114100D02*
X226800D01*
X177000Y-114900D02*
X226800D01*
X177000Y-115700D02*
X226800D01*
X177000Y-116500D02*
X226800D01*
X177000Y-117300D02*
X226800D01*
X177000Y-118100D02*
X226800D01*
X177000Y-118900D02*
X226800D01*
X177000Y-119700D02*
X226800D01*
X177000Y-120500D02*
X226800D01*
X177000Y-121300D02*
X226800D01*
X224008Y-137200D02*
X226800D01*
X177000Y-122100D02*
X226800D01*
X176745Y-94900D02*
X226800D01*
X175945Y-95700D02*
X226800D01*
X175145Y-96500D02*
X226800D01*
X174346Y-97300D02*
X226800D01*
X173546Y-98100D02*
X226800D01*
X172746Y-98900D02*
X226800D01*
X171946Y-99700D02*
X226800D01*
X171145Y-100500D02*
X226800D01*
X170645Y-105300D02*
X226800D01*
X177000Y-122900D02*
X226800D01*
X170092Y-101300D02*
X226800D01*
X169725Y-104500D02*
X226800D01*
X177000Y-123700D02*
X226800D01*
X177000Y-124500D02*
X226800D01*
X177000Y-125300D02*
X226800D01*
X177000Y-126100D02*
X226800D01*
X177000Y-126900D02*
X226800D01*
X177000Y-127700D02*
X226800D01*
X177000Y-128500D02*
X226800D01*
X177000Y-129300D02*
X226800D01*
X177000Y-130100D02*
X226800D01*
X177000Y-130900D02*
X226800D01*
X177000Y-131700D02*
X226800D01*
X177000Y-132500D02*
X226800D01*
X177000Y-133300D02*
X226800D01*
X177000Y-134100D02*
X226800D01*
X177000Y-134900D02*
X226800D01*
X177000Y-135700D02*
X226800D01*
X177000Y-136500D02*
X226800D01*
X177000Y-137100D02*
X223400D01*
X179300Y-91600D02*
Y-13000D01*
X191000Y-137100D02*
Y-13000D01*
X190200Y-137100D02*
Y-13000D01*
X189400Y-137100D02*
Y-13000D01*
X188600Y-137100D02*
Y-13000D01*
X187800Y-137100D02*
Y-13000D01*
X187000Y-137100D02*
Y-13000D01*
X186200Y-137100D02*
Y-13000D01*
X185400Y-137100D02*
Y-13000D01*
X184600Y-137100D02*
Y-13000D01*
X183800Y-137100D02*
Y-13000D01*
X183000Y-137100D02*
Y-13000D01*
X182200Y-137100D02*
Y-13000D01*
X181400Y-137100D02*
Y-13000D01*
X180600Y-137100D02*
Y-13000D01*
X179800Y-137100D02*
Y-13000D01*
X170775Y-100871D02*
X178770Y-92875D01*
X170200Y-104855D02*
Y-101258D01*
X169400Y-104371D02*
Y-101400D01*
X168600Y-104300D02*
Y-101400D01*
X179000Y-137100D02*
Y-92595D01*
X178200Y-137100D02*
Y-93446D01*
X176600Y-106001D02*
Y-95046D01*
X177400Y-137100D02*
Y-94246D01*
X175800Y-106002D02*
Y-95846D01*
X177000Y-137100D02*
Y-106000D01*
X175000Y-106003D02*
Y-96646D01*
X171355Y-106009D02*
X177000Y-106000D01*
X174200Y-106005D02*
Y-97446D01*
X173400Y-106006D02*
Y-98246D01*
X172600Y-106007D02*
Y-99046D01*
X171800Y-106009D02*
Y-99846D01*
X171000Y-105655D02*
Y-100646D01*
X170175Y-104830D02*
X171355Y-106009D01*
X167800Y-104300D02*
Y-101400D01*
X167000Y-104300D02*
Y-101400D01*
X166200Y-104300D02*
Y-101400D01*
X165400Y-104300D02*
Y-101400D01*
X164600Y-104300D02*
Y-101400D01*
X163800Y-104300D02*
Y-101400D01*
X163000Y-104300D02*
Y-101400D01*
X162200Y-104300D02*
Y-101400D01*
X161400Y-104300D02*
Y-101400D01*
X160600Y-104300D02*
Y-101400D01*
X159800Y-104300D02*
Y-101400D01*
X159000Y-104300D02*
Y-101400D01*
X158200Y-104300D02*
Y-101400D01*
X157400Y-104300D02*
Y-101400D01*
X156600Y-104300D02*
Y-101400D01*
X155800Y-104300D02*
Y-101400D01*
X155000Y-104300D02*
Y-101400D01*
X154200Y-104300D02*
Y-101400D01*
X153400Y-104300D02*
Y-101400D01*
X152600Y-104300D02*
Y-101400D01*
X151800Y-104300D02*
Y-101400D01*
X151000Y-104300D02*
Y-101400D01*
X150200Y-104300D02*
Y-101400D01*
X149400Y-104300D02*
Y-101400D01*
X148600Y-104300D02*
Y-101400D01*
X147800Y-104300D02*
Y-101400D01*
X147000Y-104300D02*
Y-101400D01*
X146200Y-104300D02*
Y-101400D01*
X145400Y-104300D02*
Y-101400D01*
X120845D02*
X169500D01*
X120145Y-102100D02*
X226800D01*
X144600Y-104300D02*
Y-101400D01*
X119345Y-102900D02*
X226800D01*
X118545Y-103700D02*
X226800D01*
X143800Y-104300D02*
Y-101400D01*
X143000Y-104300D02*
Y-101400D01*
X142200Y-104300D02*
Y-101400D01*
X141400Y-104300D02*
Y-101400D01*
X140600Y-104300D02*
Y-101400D01*
Y-104300D02*
X168900D01*
X139800Y-104488D02*
Y-101400D01*
X139000Y-105155D02*
Y-101400D01*
X117745Y-104500D02*
X139775D01*
X138200Y-105955D02*
Y-101400D01*
X116946Y-105300D02*
X138854D01*
X138090Y-106064D02*
X139325Y-104830D01*
X116700Y-106099D02*
X138090Y-106064D01*
X137400Y-106065D02*
Y-101400D01*
X136600Y-106067D02*
Y-101400D01*
X135800Y-106068D02*
Y-101400D01*
X135000Y-106069D02*
Y-101400D01*
X134200Y-106070D02*
Y-101400D01*
X133400Y-106072D02*
Y-101400D01*
X132600Y-106073D02*
Y-101400D01*
X131800Y-106074D02*
Y-101400D01*
X131000Y-106076D02*
Y-101400D01*
X130200Y-106077D02*
Y-101400D01*
X129400Y-106078D02*
Y-101400D01*
X128600Y-106080D02*
Y-101400D01*
X127800Y-106081D02*
Y-101400D01*
X127000Y-106082D02*
Y-101400D01*
X126200Y-106084D02*
Y-101400D01*
X125400Y-106085D02*
Y-101400D01*
X124600Y-106086D02*
Y-101400D01*
X123800Y-106088D02*
Y-101400D01*
X123000Y-106089D02*
Y-101400D01*
X122200Y-106090D02*
Y-101400D01*
X121400Y-106091D02*
Y-101400D01*
X120600Y-106093D02*
Y-101646D01*
X116700Y-105546D02*
X120845Y-101400D01*
X119800Y-106094D02*
Y-102446D01*
X119000Y-106095D02*
Y-103246D01*
X118200Y-106097D02*
Y-104046D01*
X117400Y-106098D02*
Y-104846D01*
X81000Y36163D02*
Y38197D01*
X80600Y36317D02*
Y38197D01*
X79800Y36481D02*
Y38197D01*
X79000Y36473D02*
Y38196D01*
X78200Y36290D02*
Y38196D01*
X79440Y32698D02*
Y35998D01*
X76140Y32698D02*
X79440D01*
X77400Y35904D02*
Y38195D01*
X76600Y35223D02*
Y38195D01*
X75800Y33790D02*
Y38194D01*
X75000Y15700D02*
Y38194D01*
X74200Y15700D02*
Y38193D01*
X73400Y15700D02*
Y38193D01*
X72600Y15700D02*
Y38192D01*
X71800Y15700D02*
Y38192D01*
X71000Y15700D02*
Y38191D01*
X70200Y15700D02*
Y38191D01*
X81000Y28263D02*
Y29234D01*
X79440Y29398D02*
Y32698D01*
X81000Y15700D02*
Y21334D01*
X79440Y24798D02*
Y28098D01*
Y21498D02*
Y24798D01*
X80600Y15700D02*
Y21180D01*
X79800Y15700D02*
Y21015D01*
X79000Y15700D02*
Y21024D01*
X78200Y15700D02*
Y21206D01*
X77400Y28005D02*
Y29492D01*
X76140Y24798D02*
X79440D01*
X75800Y25890D02*
Y31607D01*
X76600Y27323D02*
Y30173D01*
X77400Y15700D02*
Y21592D01*
X75800Y15700D02*
Y23707D01*
X76600Y15700D02*
Y22273D01*
X69400Y15700D02*
Y38190D01*
X68600Y15700D02*
Y38190D01*
X67800Y15700D02*
Y38190D01*
X67000Y15700D02*
Y38189D01*
X66200Y15700D02*
Y38189D01*
X65400Y15700D02*
Y38188D01*
X64600Y15700D02*
Y38188D01*
X63800Y15700D02*
Y38187D01*
X63000Y15700D02*
Y38187D01*
X62200Y15700D02*
Y38186D01*
X61400Y15700D02*
Y38186D01*
X60600Y15700D02*
Y38185D01*
X59800Y15700D02*
Y38185D01*
X59000Y15700D02*
Y38184D01*
X58200Y15700D02*
Y38184D01*
X57400Y15700D02*
Y38183D01*
X56600Y15700D02*
Y38183D01*
X55800Y15700D02*
Y38182D01*
X55000Y15700D02*
Y38182D01*
X54200Y15700D02*
Y38181D01*
X53400Y15700D02*
Y38181D01*
X52600Y15700D02*
Y38181D01*
X51800Y15700D02*
Y38180D01*
X51000Y15700D02*
Y38180D01*
X50200Y15700D02*
Y38179D01*
X49400Y15700D02*
Y38179D01*
X48600Y15700D02*
Y38178D01*
X47800Y15700D02*
Y38178D01*
X47000Y15700D02*
Y38177D01*
X46200Y15700D02*
Y38177D01*
X45400Y15700D02*
Y38176D01*
X44600Y15700D02*
Y38176D01*
X43800Y15700D02*
Y38175D01*
X43000Y15700D02*
Y38175D01*
X42200Y15700D02*
Y38174D01*
X41400Y15700D02*
Y38174D01*
X40600Y15700D02*
Y38173D01*
X39800Y15700D02*
Y38173D01*
X39000Y15700D02*
Y38173D01*
X38200Y15700D02*
Y38172D01*
X37400Y15700D02*
Y38172D01*
X36600Y15700D02*
Y38171D01*
X35800Y15700D02*
Y38171D01*
X35000Y15700D02*
Y38170D01*
X34200Y15700D02*
Y38170D01*
X33400Y15700D02*
Y38169D01*
X32600Y15700D02*
Y38169D01*
X31800Y15700D02*
Y38168D01*
X31000Y15700D02*
Y38168D01*
X30200Y15700D02*
Y38167D01*
X29400Y15700D02*
Y38167D01*
X28600Y15700D02*
Y38166D01*
X27800Y15700D02*
Y38166D01*
X27000Y15700D02*
Y38165D01*
X26200Y15700D02*
Y38165D01*
X25400Y15700D02*
Y38164D01*
X24600Y15700D02*
Y38164D01*
X23200Y15700D02*
X81000D01*
X23800D02*
Y38164D01*
X23000Y15689D02*
Y38163D01*
X22200Y15397D02*
Y38163D01*
X21400Y14646D02*
Y38162D01*
X20600Y13846D02*
Y38162D01*
X19754Y13000D02*
X21925Y15170D01*
X19800Y13046D02*
Y38161D01*
X19000Y13000D02*
Y38161D01*
X18200Y13000D02*
Y38160D01*
X17400Y13000D02*
Y38160D01*
X16600Y13000D02*
Y38159D01*
X15800Y13000D02*
Y38159D01*
X15000Y13000D02*
Y38158D01*
X14200Y13000D02*
Y38158D01*
X13400Y13000D02*
Y38157D01*
X12600Y13000D02*
Y38157D01*
X11800Y13000D02*
Y38157D01*
X11000Y13000D02*
Y38156D01*
X10200Y13000D02*
Y38155D01*
X9400Y13000D02*
Y38155D01*
X8600Y13000D02*
Y38155D01*
X7800Y13000D02*
Y38154D01*
X7000Y13000D02*
Y38154D01*
X6200Y13000D02*
Y38153D01*
X5400Y13000D02*
Y38153D01*
X4600Y13000D02*
Y38152D01*
X3800Y13000D02*
Y38152D01*
X3000Y13000D02*
Y38151D01*
X2200Y13000D02*
Y38151D01*
X1400Y13000D02*
Y38150D01*
X600Y13000D02*
Y38150D01*
X-200Y13000D02*
Y38149D01*
X-1000Y13000D02*
Y38149D01*
X-1800Y13000D02*
Y38148D01*
X-2600Y13000D02*
Y38148D01*
X-3400Y13000D02*
Y38148D01*
X-4200Y13000D02*
Y38147D01*
X-5000Y13000D02*
Y38147D01*
X-5800Y13000D02*
Y38146D01*
X-6600Y13000D02*
Y38146D01*
X-7400Y13000D02*
Y38145D01*
X-8200Y13000D02*
Y38145D01*
X-83269Y38100D02*
X81000Y38197D01*
X-83476Y37900D02*
X81000D01*
X-84299Y37100D02*
X81000D01*
X-85123Y36300D02*
X78228D01*
X-85700Y35500D02*
X76872D01*
X-9000Y13000D02*
Y38144D01*
X-85700Y34700D02*
X76210D01*
X-9800Y13000D02*
Y38144D01*
X-10600Y13000D02*
Y38143D01*
X-85700Y33900D02*
X75835D01*
X-85700Y31500D02*
X75834D01*
X-85700Y30700D02*
X76208D01*
X-85700Y33100D02*
X75661D01*
X-85700Y32300D02*
X75661D01*
X-85700Y29100D02*
X78219D01*
X-85700Y28300D02*
X77964D01*
X-85700Y29900D02*
X76869D01*
X-85700Y27500D02*
X76767D01*
X-85700Y26700D02*
X76150D01*
X-85700Y25900D02*
X75803D01*
X-85700Y23500D02*
X75868D01*
X-85700Y25100D02*
X75652D01*
X-85700Y24300D02*
X75673D01*
X-85700Y21100D02*
X78567D01*
X-85700Y20300D02*
X81000D01*
X-85700Y22700D02*
X76272D01*
X-85700Y21900D02*
X76982D01*
X-85700Y19500D02*
X81000D01*
X-85700Y18700D02*
X81000D01*
X-85700Y17900D02*
X81000D01*
X-85700Y17100D02*
X81000D01*
X-85700Y16300D02*
X81000D01*
X-85700Y15500D02*
X22375D01*
X-85700Y14700D02*
X21454D01*
X-85700Y13900D02*
X20654D01*
X-11400Y13000D02*
Y38143D01*
X-12200Y13000D02*
Y38142D01*
X-13000Y13000D02*
Y38142D01*
X-13800Y13000D02*
Y38141D01*
X-14600Y13000D02*
Y38141D01*
X-15400Y13000D02*
Y38140D01*
X-16200Y13000D02*
Y38140D01*
X-17000Y13000D02*
Y38140D01*
X-17800Y13000D02*
Y38139D01*
X-18600Y13000D02*
Y38138D01*
X-19400Y13000D02*
Y38138D01*
X-20200Y13000D02*
Y38138D01*
X-21000Y13000D02*
Y38137D01*
X-21800Y13000D02*
Y38137D01*
X-22600Y13000D02*
Y38136D01*
X-23400Y13000D02*
Y38136D01*
X-24200Y13000D02*
Y38135D01*
X-25000Y13000D02*
Y38135D01*
X-25800Y13000D02*
Y38134D01*
X-26600Y13000D02*
Y38134D01*
X-27400Y13000D02*
Y38133D01*
X-28200Y13000D02*
Y38133D01*
X-29000Y13000D02*
Y38132D01*
X-29800Y13000D02*
Y38132D01*
X-85700Y35739D02*
X-83269Y38100D01*
X-30600Y13000D02*
Y38131D01*
X-31400Y13000D02*
Y38131D01*
X-32200Y13000D02*
Y38131D01*
X-33000Y13000D02*
Y38130D01*
X-33800Y13000D02*
Y38130D01*
X-34600Y13000D02*
Y38129D01*
X-35400Y13000D02*
Y38129D01*
X-36200Y13000D02*
Y38128D01*
X-37000Y13000D02*
Y38128D01*
X-37800Y13000D02*
Y38127D01*
X-38600Y13000D02*
Y38127D01*
X-39400Y13000D02*
Y38126D01*
X-40200Y13000D02*
Y38126D01*
X-41000Y13000D02*
Y38125D01*
X-41800Y13000D02*
Y38125D01*
X-42600Y13000D02*
Y38124D01*
X-43400Y13000D02*
Y38124D01*
X-44200Y13000D02*
Y38123D01*
X-45000Y13000D02*
Y38123D01*
X-45800Y13000D02*
Y38122D01*
X-46600Y13000D02*
Y38122D01*
X-47400Y13000D02*
Y38122D01*
X-48200Y13000D02*
Y38121D01*
X-49000Y13000D02*
Y38121D01*
X-49800Y13000D02*
Y38120D01*
X-50600Y13000D02*
Y38120D01*
X-51400Y13000D02*
Y38119D01*
X-52200Y13000D02*
Y38119D01*
X-53000Y13000D02*
Y38118D01*
X-53800Y13000D02*
Y38118D01*
X-54600Y13000D02*
Y38117D01*
X-55400Y13000D02*
Y38117D01*
X-56200Y13000D02*
Y38116D01*
X-57000Y13000D02*
Y38116D01*
X-85700Y13100D02*
X19854D01*
X-85700Y13000D02*
X19754D01*
X-57800D02*
Y38115D01*
X-58600Y13000D02*
Y38115D01*
X-59400Y13000D02*
Y38115D01*
X-60200Y13000D02*
Y38114D01*
X-61000Y13000D02*
Y38113D01*
X-61800Y13000D02*
Y38113D01*
X-62600Y13000D02*
Y38113D01*
X-63400Y13000D02*
Y38112D01*
X-64200Y13000D02*
Y38112D01*
X-65000Y13000D02*
Y38111D01*
X-65800Y13000D02*
Y38111D01*
X-66600Y13000D02*
Y38110D01*
X-67400Y13000D02*
Y38110D01*
X-68200Y13000D02*
Y38109D01*
X-69000Y13000D02*
Y38109D01*
X-69800Y13000D02*
Y38108D01*
X-70600Y13000D02*
Y38108D01*
X-71400Y13000D02*
Y38107D01*
X-72200Y13000D02*
Y38107D01*
X-73000Y13000D02*
Y38106D01*
X-73800Y13000D02*
Y38106D01*
X-74600Y13000D02*
Y38105D01*
X-75400Y13000D02*
Y38105D01*
X-76200Y13000D02*
Y38105D01*
X-77000Y13000D02*
Y38104D01*
X-77800Y13000D02*
Y38104D01*
X-78600Y13000D02*
Y38103D01*
X-79400Y13000D02*
Y38103D01*
X-80200Y13000D02*
Y38102D01*
X-81000Y13000D02*
Y38102D01*
X-81800Y13000D02*
Y38101D01*
X-82600Y13000D02*
Y38101D01*
X-83400Y13000D02*
Y37973D01*
X-84200Y13000D02*
Y37196D01*
X-85000Y13000D02*
Y36419D01*
X-85700Y13000D02*
Y35739D01*
X63800Y-82300D02*
Y-77700D01*
X64600Y-83100D02*
Y-78500D01*
X63000Y-81500D02*
Y-76900D01*
X66200Y-84700D02*
Y-80100D01*
X67000Y-85500D02*
Y-80900D01*
X65400Y-83900D02*
Y-79300D01*
X59600Y-78100D02*
X64200D01*
X60400Y-78900D02*
X65000D01*
X58800Y-77300D02*
X63400D01*
X62000Y-80500D02*
X66600D01*
X61200Y-79700D02*
X65800D01*
X66800Y-85300D02*
X71400D01*
X67600Y-86100D02*
X72200D01*
X67800Y-86300D02*
Y-81700D01*
X68400Y-86900D02*
X73000D01*
X69200Y-87700D02*
X73800D01*
X68600Y-87100D02*
Y-82500D01*
X63600Y-82100D02*
X68200D01*
X64400Y-82900D02*
X69000D01*
X62800Y-81300D02*
X67400D01*
X66000Y-84500D02*
X70600D01*
X65200Y-83700D02*
X69800D01*
X55000Y-73500D02*
Y-68900D01*
X55800Y-74300D02*
Y-69700D01*
X54200Y-72700D02*
Y-68100D01*
X57400Y-75900D02*
Y-71300D01*
X58200Y-76700D02*
Y-72100D01*
X56600Y-75100D02*
Y-70500D01*
X53500Y-67400D02*
X54000Y-13000D01*
X52400Y-70900D02*
X57000D01*
X52600Y-71100D02*
Y-13000D01*
X53200Y-71700D02*
X57800D01*
X53400Y-71900D02*
Y-13000D01*
X59800Y-78300D02*
Y-73700D01*
X58000Y-76500D02*
X62600D01*
X59000Y-77500D02*
Y-72900D01*
X61400Y-79900D02*
Y-75300D01*
X62200Y-80700D02*
Y-76100D01*
X60600Y-79100D02*
Y-74500D01*
X54800Y-73300D02*
X59400D01*
X55600Y-74100D02*
X60200D01*
X54000Y-72500D02*
X58600D01*
X57200Y-75700D02*
X61800D01*
X56400Y-74900D02*
X61000D01*
X74900Y-94100D02*
X79100D01*
X74900Y-94900D02*
X79100D01*
X74900Y-95700D02*
X79100D01*
X74900Y-96500D02*
X79100D01*
X74900Y-97300D02*
X79100D01*
Y-107217D02*
Y-93000D01*
X53500Y-67400D02*
X79100Y-93000D01*
X74800Y-93300D02*
X79100D01*
X74900Y-98100D02*
X79100D01*
X74900Y-98900D02*
X79100D01*
X74900Y-99700D02*
X79100D01*
X74900Y-100500D02*
X79100D01*
X74900Y-101300D02*
X79100D01*
X74900Y-102100D02*
X79100D01*
X74900Y-102900D02*
X79100D01*
X79440Y-111002D02*
Y-107702D01*
X74900Y-103700D02*
X79100D01*
X74900Y-104500D02*
X79100D01*
X74900Y-105300D02*
X79100D01*
X74900Y-106100D02*
X79100D01*
X74900Y-106900D02*
X79100D01*
X72600Y-91100D02*
Y-86500D01*
X73400Y-91900D02*
Y-87300D01*
X71800Y-90300D02*
Y-85700D01*
X75000Y-107500D02*
Y-88900D01*
X75800Y-107500D02*
Y-89700D01*
X74200Y-92700D02*
Y-88100D01*
X70200Y-88700D02*
Y-84100D01*
X70000Y-88500D02*
X74600D01*
X69400Y-87900D02*
Y-83300D01*
X70800Y-89300D02*
X75400D01*
X71000Y-89500D02*
Y-84900D01*
X78200Y-107410D02*
Y-92100D01*
X79000Y-107227D02*
Y-92900D01*
X77400Y-107500D02*
Y-91300D01*
X76600Y-107500D02*
Y-90500D01*
X74900Y-107500D02*
Y-93400D01*
X72400Y-90900D02*
X77000D01*
X73200Y-91700D02*
X77800D01*
X71600Y-90100D02*
X76200D01*
X74000Y-92500D02*
X78600D01*
X74900Y-107500D02*
X77964D01*
X44000Y-13000D02*
X54000D01*
X43998Y-13300D02*
X53997D01*
X43993Y-14100D02*
X53990D01*
X43988Y-14900D02*
X53983D01*
X43984Y-15700D02*
X53975D01*
X43979Y-16500D02*
X53968D01*
X43974Y-17300D02*
X53960D01*
X43969Y-18100D02*
X53953D01*
X43964Y-18900D02*
X53946D01*
X43959Y-19700D02*
X53938D01*
X43954Y-20500D02*
X53931D01*
X43949Y-21300D02*
X53924D01*
X43944Y-22100D02*
X53916D01*
X43940Y-22900D02*
X53909D01*
X43935Y-23700D02*
X53902D01*
X43930Y-24500D02*
X53894D01*
X43925Y-25300D02*
X53887D01*
X43920Y-26100D02*
X53880D01*
X43915Y-26900D02*
X53872D01*
X43910Y-27700D02*
X53865D01*
X43905Y-28500D02*
X53857D01*
X43901Y-29300D02*
X53850D01*
X43896Y-30100D02*
X53843D01*
X43891Y-30900D02*
X53835D01*
X43886Y-31700D02*
X53828D01*
X43881Y-32500D02*
X53821D01*
X43876Y-33300D02*
X53813D01*
X43871Y-34100D02*
X53806D01*
X43866Y-34900D02*
X53799D01*
X43861Y-35700D02*
X53791D01*
X43857Y-36500D02*
X53784D01*
X43852Y-37300D02*
X53777D01*
X43847Y-38100D02*
X53769D01*
X43842Y-38900D02*
X53762D01*
X43837Y-39700D02*
X53755D01*
X43832Y-40500D02*
X53747D01*
X43827Y-41300D02*
X53740D01*
X43823Y-42100D02*
X53733D01*
X43818Y-42900D02*
X53725D01*
X43813Y-43700D02*
X53718D01*
X43808Y-44500D02*
X53710D01*
X43803Y-45300D02*
X53703D01*
X43798Y-46100D02*
X53696D01*
X43793Y-46900D02*
X53688D01*
X43788Y-47700D02*
X53681D01*
X43784Y-48500D02*
X53674D01*
X43779Y-49300D02*
X53666D01*
X43774Y-50100D02*
X53659D01*
X43769Y-50900D02*
X53652D01*
X43764Y-51700D02*
X53644D01*
X43759Y-52500D02*
X53637D01*
X43754Y-53300D02*
X53630D01*
X43749Y-54100D02*
X53622D01*
X43745Y-54900D02*
X53615D01*
X43740Y-55700D02*
X53607D01*
X49200Y-67700D02*
X53800D01*
X43735Y-56500D02*
X53600D01*
X50800Y-69300D02*
X55400D01*
X51600Y-70100D02*
X56200D01*
X50000Y-68500D02*
X54600D01*
X43730Y-57300D02*
X53593D01*
X43725Y-58100D02*
X53585D01*
X43720Y-58900D02*
X53578D01*
X43700Y-62200D02*
X74900Y-93400D01*
X43715Y-59700D02*
X53571D01*
X49400Y-67900D02*
Y-13000D01*
X48600Y-67100D02*
Y-13000D01*
X47800Y-66300D02*
Y-13000D01*
X51800Y-70300D02*
Y-13000D01*
X51000Y-69500D02*
Y-13000D01*
X50200Y-68700D02*
Y-13000D01*
X45400Y-63900D02*
Y-13000D01*
X44600Y-63100D02*
Y-13000D01*
X43700Y-62200D02*
X44000Y-13000D01*
X47000Y-65500D02*
Y-13000D01*
X46200Y-64700D02*
Y-13000D01*
X45200Y-63700D02*
X53534D01*
X46000Y-64500D02*
X53527D01*
X46800Y-65300D02*
X53519D01*
X47600Y-66100D02*
X53512D01*
X48400Y-66900D02*
X53505D01*
X43710Y-60500D02*
X53563D01*
X43705Y-61300D02*
X53556D01*
X43701Y-62100D02*
X53549D01*
X44400Y-62900D02*
X53541D01*
X43800Y-62300D02*
Y-45800D01*
X-110600Y-130100D02*
X115400D01*
X117400Y-128100D01*
X169200D01*
X131600Y-115000D02*
X137400D01*
X138600Y-113800D01*
X169200Y-128100D02*
X173400Y-123900D01*
X138600Y-113800D02*
Y-108100D01*
X173400Y-123900D02*
Y-110600D01*
X126640Y-111002D02*
X126640D01*
Y-110100D01*
X126700D01*
X138600Y-108100D02*
X140600Y-106100D01*
X168900D01*
X173400Y-110600D01*
X-62366Y-63666D02*
Y-5066D01*
X-62500Y-5000D02*
X-62366Y-5066D01*
X97000Y-53000D02*
Y-29500D01*
X92500Y-25500D02*
X97000Y-29500D01*
X-43800Y-19700D02*
X-23500D01*
X-52500Y-11000D02*
X-43800Y-19700D01*
X-52500Y-11000D02*
Y-5000D01*
X-32500D02*
Y0D01*
X-37500Y5000D02*
X-32500Y0D01*
X-115190Y-116311D02*
X-114500Y-116500D01*
X-94000D01*
X110940Y-118902D02*
Y-118860D01*
X111040D02*
X114900Y-115000D01*
Y-104800D01*
X120100Y-99600D01*
X169500D01*
X177500Y-91600D01*
Y-5000D01*
X182500Y0D01*
Y5000D01*
X110940Y-111002D02*
Y-102060D01*
X118000Y-95000D01*
X161600Y-94900D01*
X167500Y-89100D01*
Y-5000D01*
X172500Y0D01*
Y5000D01*
X103040Y-118902D02*
X103098D01*
X107000Y-115000D01*
Y-98200D01*
X114900Y-90300D01*
X152200D01*
X157500Y-85000D01*
Y-5000D01*
X162500Y0D01*
Y5000D01*
X103040Y-111002D02*
Y-94460D01*
X112900Y-84600D01*
X142700D01*
X147300Y-80000D01*
Y-6800D01*
X147500Y-5000D01*
X152500Y0D01*
Y5000D01*
X87400Y-52100D02*
X95100Y-59900D01*
Y-110802D02*
X95140Y-111002D01*
X87400Y-200D02*
X92500Y5000D01*
X95100Y-110802D02*
Y-59900D01*
X77500Y-62200D02*
Y-5000D01*
Y-62200D02*
X91200Y-75900D01*
X77500Y-5000D02*
Y0D01*
X91200Y-114962D02*
X95140Y-118902D01*
X77500Y0D02*
X82500Y5000D01*
X91200Y-114962D02*
Y-75900D01*
X67500Y-5000D02*
Y0D01*
X72500Y5000D01*
X87340Y-111002D02*
X87400Y-107302D01*
Y-86400D01*
X67500Y-66500D02*
Y-5000D01*
Y-66500D02*
X87400Y-86400D01*
X57500Y-65100D02*
Y-5000D01*
Y-65100D02*
X83400Y-91000D01*
X57500Y-5000D02*
Y0D01*
X83400Y-114962D02*
X87340Y-118902D01*
X57500Y0D02*
X62500Y5000D01*
X83400Y-114962D02*
Y-91000D01*
X-87500Y5000D02*
X-82500Y100D01*
X-87500Y5000D02*
Y36500D01*
X-84000Y39900D01*
X-82500Y-5000D02*
Y100D01*
X-84000Y39900D02*
X85500Y40000D01*
X87340Y32698D02*
Y38160D01*
X85500Y40000D02*
X87340Y38160D01*
X-107500Y5000D02*
X-102500Y0D01*
X-107500Y5000D02*
Y39000D01*
X-103500Y43000D01*
X92500D01*
X95140Y32698D02*
Y40360D01*
X92500Y43000D02*
X95140Y40360D01*
X-132500Y-400D02*
X-127500Y4600D01*
X103040Y32698D02*
Y42960D01*
X-127500Y39000D02*
X-120500Y46000D01*
X100000D01*
X103040Y42960D01*
X-152500Y-400D02*
X-147500Y4600D01*
X110940Y32698D02*
Y42560D01*
X-147500Y39000D02*
X-137500Y49000D01*
X104500D01*
X110940Y42560D01*
X4000Y-104000D02*
X12000Y-96000D01*
Y-3000D02*
X16000Y1000D01*
X12000Y-96000D02*
Y-3000D01*
X16000Y1000D02*
X17400D01*
Y8100D01*
X23200Y13900D01*
X146000D01*
X147400Y15300D01*
Y21959D01*
X150240Y24798D01*
X-125200Y-112100D02*
X13000D01*
X22400Y-102700D01*
Y-2700D01*
X26000Y1000D01*
X27400D01*
Y7700D01*
X29600Y9900D01*
X154600D01*
X162100Y17400D01*
Y28800D01*
X165998Y32698D01*
X166040D01*
X115100Y40200D02*
X117500Y36800D01*
X118200D02*
Y51398D01*
X117500Y36800D02*
X182400D01*
X119000D02*
Y51398D01*
X119800Y36800D02*
Y51398D01*
X120600Y36800D02*
Y51398D01*
X121400Y36800D02*
Y51398D01*
X122200Y36800D02*
Y51398D01*
X123000Y36800D02*
Y51398D01*
X182400Y18382D02*
X187300Y9400D01*
X182400Y18382D02*
Y36800D01*
X187422Y-500D02*
X214523D01*
X187412Y300D02*
X214508D01*
X187402Y1100D02*
X214614D01*
X123800Y36800D02*
Y51398D01*
X124600Y36800D02*
Y51398D01*
X125400Y36800D02*
Y51398D01*
X126200Y36800D02*
Y51397D01*
X127000Y36800D02*
Y51397D01*
X127800Y36800D02*
Y51397D01*
X128600Y36800D02*
Y51397D01*
X129400Y36800D02*
Y51397D01*
X130200Y36800D02*
Y51397D01*
X131000Y36800D02*
Y51397D01*
X131800Y36800D02*
Y51397D01*
X132600Y36800D02*
Y51397D01*
X133400Y36800D02*
Y51397D01*
X134200Y36800D02*
Y51397D01*
X135000Y36800D02*
Y51397D01*
X183800Y15815D02*
Y51397D01*
X184600Y14349D02*
Y51397D01*
X185400Y12883D02*
Y51397D01*
X186200Y11416D02*
Y51397D01*
X187000Y9950D02*
Y51397D01*
X135800Y36800D02*
Y51397D01*
X136600Y36800D02*
Y51397D01*
X137400Y36800D02*
Y51397D01*
X138200Y36800D02*
Y51397D01*
X183000Y17282D02*
Y51397D01*
X184845Y13900D02*
X226800D01*
X184408Y14700D02*
X226800D01*
X183972Y15500D02*
X226800D01*
X183536Y16300D02*
X226800D01*
X183099Y17100D02*
X226800D01*
X182663Y17900D02*
X226800D01*
X182400Y18700D02*
X226800D01*
X182400Y19500D02*
X226800D01*
X182400Y20300D02*
X226800D01*
X187392Y1900D02*
X214848D01*
X187383Y2700D02*
X215231D01*
X187373Y3500D02*
X215805D01*
X187363Y4300D02*
X216671D01*
X187353Y5100D02*
X218248D01*
X187027Y9900D02*
X226800D01*
X186591Y10700D02*
X226800D01*
X186154Y11500D02*
X226800D01*
X185281Y13100D02*
X226800D01*
X185718Y12300D02*
X226800D01*
X182400Y21100D02*
X226800D01*
X182400Y21900D02*
X226800D01*
X182400Y22700D02*
X226800D01*
X182400Y23500D02*
X226800D01*
X182400Y24300D02*
X226800D01*
X182400Y25100D02*
X226800D01*
X182400Y25900D02*
X226800D01*
X182400Y26700D02*
X226800D01*
X182400Y27500D02*
X226800D01*
X182400Y28300D02*
X226800D01*
X182400Y29100D02*
X226800D01*
X182400Y29900D02*
X226800D01*
X182400Y30700D02*
X226800D01*
X182400Y31500D02*
X226800D01*
X182400Y32300D02*
X226800D01*
X182400Y33100D02*
X226800D01*
X182400Y33900D02*
X226800D01*
X182400Y34700D02*
X226800D01*
X182400Y35500D02*
X226800D01*
X182400Y36300D02*
X226800D01*
X139000Y36800D02*
Y51397D01*
X139800Y36800D02*
Y51397D01*
X140600Y36800D02*
Y51397D01*
X141400Y36800D02*
Y51397D01*
X115100Y40200D02*
Y51398D01*
X115800Y39208D02*
Y51398D01*
X116600Y38075D02*
Y51398D01*
X117400Y36942D02*
Y51398D01*
X142200Y36800D02*
Y51397D01*
X143000Y36800D02*
Y51397D01*
X143800Y36800D02*
Y51397D01*
X144600Y36800D02*
Y51397D01*
X145400Y36800D02*
Y51397D01*
X146200Y36800D02*
Y51397D01*
X147000Y36800D02*
Y51397D01*
X147800Y36800D02*
Y51397D01*
X148600Y36800D02*
Y51397D01*
X149400Y36800D02*
Y51397D01*
X150200Y36800D02*
Y51397D01*
X151000Y36800D02*
Y51397D01*
X151800Y36800D02*
Y51397D01*
X152600Y36800D02*
Y51397D01*
X153400Y36800D02*
Y51397D01*
X154200Y36800D02*
Y51397D01*
X155000Y36800D02*
Y51397D01*
X155800Y36800D02*
Y51397D01*
X156600Y36800D02*
Y51397D01*
X157400Y36800D02*
Y51397D01*
X158200Y36800D02*
Y51397D01*
X159000Y36800D02*
Y51397D01*
X159800Y36800D02*
Y51397D01*
X160600Y36800D02*
Y51397D01*
X161400Y36800D02*
Y51397D01*
X162200Y36800D02*
Y51397D01*
X163000Y36800D02*
Y51397D01*
X163800Y36800D02*
Y51397D01*
X164600Y36800D02*
Y51397D01*
X165400Y36800D02*
Y51397D01*
X166200Y36800D02*
Y51397D01*
X115100Y40300D02*
X226800D01*
X115100Y41100D02*
X226800D01*
X115100Y41900D02*
X226800D01*
X115100Y42700D02*
X226800D01*
X115100Y43500D02*
X226800D01*
X115100Y44300D02*
X226800D01*
X115100Y45100D02*
X226800D01*
X115100Y45900D02*
X226800D01*
X115100Y46700D02*
X226800D01*
X117288Y37100D02*
X226800D01*
X167000Y36800D02*
Y51397D01*
X116724Y37900D02*
X226800D01*
X115594Y39500D02*
X226800D01*
X116159Y38700D02*
X226800D01*
X115100Y47500D02*
X226800D01*
X115100Y48300D02*
X226800D01*
X115100Y49100D02*
X226800D01*
X115100Y49900D02*
X226800D01*
X115100Y50700D02*
X226800D01*
X167800Y36800D02*
Y51397D01*
X168600Y36800D02*
Y51397D01*
X169400Y36800D02*
Y51397D01*
X170200Y36800D02*
Y51397D01*
X171000Y36800D02*
Y51397D01*
X171800Y36800D02*
Y51397D01*
X172600Y36800D02*
Y51397D01*
X173400Y36800D02*
Y51397D01*
X115100Y51398D02*
X226800Y51396D01*
X174200Y36800D02*
Y51397D01*
X175000Y36800D02*
Y51397D01*
X175800Y36800D02*
Y51397D01*
X176600Y36800D02*
Y51397D01*
X177400Y36800D02*
Y51397D01*
X178200Y36800D02*
Y51397D01*
X179000Y36800D02*
Y51397D01*
X179800Y36800D02*
Y51397D01*
X180600Y36800D02*
Y51397D01*
X181400Y36800D02*
Y51397D01*
X182200Y36800D02*
Y51397D01*
X187531Y-9300D02*
X187600Y-14900D01*
X187800Y-14904D02*
Y-9300D01*
X187600Y-14900D02*
X210200Y-15300D01*
X191000Y-14960D02*
Y-9300D01*
X188600Y-14918D02*
Y-9300D01*
X189400Y-14932D02*
Y-9300D01*
X190200Y-14946D02*
Y-9300D01*
X187531D02*
X191800D01*
X187531D02*
X191800D01*
Y-14974D02*
Y-9300D01*
X192600Y-14988D02*
Y51397D01*
X193400Y-15003D02*
Y51397D01*
X194200Y-15017D02*
Y51397D01*
X195000Y-15031D02*
Y51397D01*
X191800Y-9300D02*
Y-700D01*
Y-9300D02*
Y-700D01*
X195800Y-15045D02*
Y51397D01*
X196600Y-15059D02*
Y51397D01*
X197400Y-15074D02*
Y51397D01*
X198200Y-15088D02*
Y51396D01*
X199000Y-15102D02*
Y51396D01*
X199800Y-15116D02*
Y51396D01*
X200600Y-15130D02*
Y51396D01*
X201400Y-15144D02*
Y51396D01*
X202200Y-15158D02*
Y51396D01*
X203000Y-15173D02*
Y51396D01*
X203800Y-15187D02*
Y51396D01*
X204600Y-15201D02*
Y51396D01*
X205400Y-15215D02*
Y51396D01*
X207800Y-15258D02*
Y51396D01*
X208600Y-15272D02*
Y51396D01*
X209400Y-15286D02*
Y51396D01*
X210200Y-15300D02*
Y51396D01*
X211000Y-15300D02*
Y51396D01*
X206200Y-15229D02*
Y51396D01*
X207000Y-15243D02*
Y51396D01*
X211800Y-15300D02*
Y51396D01*
X212600Y-15300D02*
Y51396D01*
X213400Y-15300D02*
Y51396D01*
X215000Y-15300D02*
Y-14192D01*
X214200Y-15300D02*
Y-12342D01*
X210200Y-15300D02*
X215950D01*
X187600Y-14900D02*
X215549D01*
X187560Y-11700D02*
X214085D01*
X187551Y-10900D02*
X214043D01*
X187590Y-14100D02*
X214940D01*
X187580Y-13300D02*
X214518D01*
X187570Y-12500D02*
X214240D01*
X224600Y-15300D02*
Y-14318D01*
X225400Y-15300D02*
Y-12660D01*
X223735Y-15300D02*
X226800D01*
X224135Y-14900D02*
X226800D01*
X224745Y-14100D02*
X226800D01*
X225167Y-13300D02*
X226800D01*
X225445Y-12500D02*
X226800D01*
X225600Y-11700D02*
X226800D01*
X187541Y-10100D02*
X214113D01*
X214200Y-9658D02*
Y51396D01*
X191800Y-9300D02*
X214297D01*
X226200Y-15300D02*
Y51396D01*
X226800Y-15300D02*
Y51396D01*
X225400Y-9341D02*
Y51396D01*
X225642Y-10900D02*
X226800D01*
X225572Y-10100D02*
X226800D01*
X191800Y-8500D02*
X214609D01*
X187500Y-8800D02*
Y-5000D01*
X191800Y-7700D02*
X215073D01*
X191800Y-6900D02*
X215740D01*
X187500Y-5000D02*
X191300D01*
X187500D02*
Y-1200D01*
X191800Y-6100D02*
X216739D01*
X187425Y-700D02*
X191800D01*
Y-5300D02*
X218770D01*
X215800Y-6841D02*
Y-3494D01*
X215000Y-7808D02*
Y-2259D01*
X217400Y-5739D02*
Y-4752D01*
X191800Y-4500D02*
X216961D01*
X216600Y-6191D02*
Y-4247D01*
X191800Y-2100D02*
X214929D01*
X191800Y-1300D02*
X214660D01*
X191800Y-3700D02*
X215987D01*
X191800Y-2900D02*
X215355D01*
X187300Y9400D02*
X187425Y-700D01*
X187800D02*
Y51397D01*
X188600Y-700D02*
Y51397D01*
X189400Y-700D02*
Y51397D01*
X190200Y-700D02*
Y51397D01*
X191000Y-700D02*
Y51397D01*
X191800Y-700D02*
Y51397D01*
X215000Y2259D02*
Y51396D01*
X215800Y3494D02*
Y51396D01*
X216600Y4247D02*
Y51396D01*
X217400Y4752D02*
Y51396D01*
X218200Y5085D02*
Y51396D01*
X219000Y5276D02*
Y51396D01*
X219800Y5343D02*
Y51396D01*
X220600Y5289D02*
Y51396D01*
X222200Y-5701D02*
Y-4795D01*
X223000Y-6135D02*
Y-4311D01*
X222946Y-6100D02*
X226800D01*
X220915Y-5300D02*
X226800D01*
X222724Y-4500D02*
X226800D01*
X223697Y-3700D02*
X226800D01*
X225388Y-9300D02*
X226800D01*
X224600Y-7683D02*
Y-2433D01*
X225076Y-8500D02*
X226800D01*
X223945Y-6900D02*
X226800D01*
X224612Y-7700D02*
X226800D01*
X223800Y-6760D02*
Y-3590D01*
X224330Y-2900D02*
X226800D01*
X224756Y-2100D02*
X226800D01*
X225025Y-1300D02*
X226800D01*
X225162Y-500D02*
X226800D01*
X221400Y5111D02*
Y51396D01*
X221437Y5100D02*
X226800D01*
X187343Y5900D02*
X226800D01*
X187333Y6700D02*
X226800D01*
X187323Y7500D02*
X226800D01*
X187313Y8300D02*
X226800D01*
X187304Y9100D02*
X226800D01*
X225177Y300D02*
X226800D01*
X224600Y2433D02*
Y51396D01*
X225071Y1100D02*
X226800D01*
X224453Y2700D02*
X226800D01*
X224836Y1900D02*
X226800D01*
X222200Y4795D02*
Y51396D01*
X223000Y4310D02*
Y51396D01*
X223880Y3500D02*
X226800D01*
X223014Y4300D02*
X226800D01*
X223800Y3590D02*
Y51396D01*
D18*
X115400Y-132404D02*
X116182Y-132267D01*
X116872Y-131872D01*
X115400Y-132404D02*
X116182Y-132267D01*
X116872Y-131872D01*
X73804Y-136596D02*
X73816Y-132404D01*
X75400Y-136596D02*
Y-132404D01*
X77400Y-136596D02*
Y-132404D01*
X79400Y-136596D02*
Y-132404D01*
X81400Y-136596D02*
Y-132404D01*
X83400Y-136596D02*
Y-132404D01*
X85400Y-136596D02*
Y-132404D01*
X87400Y-136596D02*
Y-132404D01*
X73804Y-136596D02*
X177500D01*
X89400D02*
Y-132404D01*
X91400Y-136596D02*
Y-132404D01*
X93400Y-136596D02*
Y-132404D01*
X95400Y-136596D02*
Y-132404D01*
X97400Y-136596D02*
Y-132404D01*
X99400Y-136596D02*
Y-132404D01*
X101400Y-136596D02*
Y-132404D01*
X103400Y-136596D02*
Y-132404D01*
X105400Y-136596D02*
Y-132404D01*
X107400Y-136596D02*
Y-132404D01*
X109400Y-136596D02*
Y-132404D01*
X111400Y-136596D02*
Y-132404D01*
X73816D02*
X115400D01*
X113400Y-136596D02*
Y-132404D01*
X115400Y-136596D02*
Y-132404D01*
X73805Y-136100D02*
X177500D01*
X73811Y-134100D02*
X177500D01*
X116544Y-132100D02*
X177500D01*
X116872Y-131872D02*
X169661Y-131839D01*
X117400Y-136596D02*
Y-131872D01*
X119400Y-136596D02*
Y-131871D01*
X121400Y-136596D02*
Y-131869D01*
X123400Y-136596D02*
Y-131868D01*
X125400Y-136596D02*
Y-131867D01*
X127400Y-136596D02*
Y-131866D01*
X129400Y-136596D02*
Y-131864D01*
X131400Y-136596D02*
Y-131863D01*
X133400Y-136596D02*
Y-131862D01*
X135400Y-136596D02*
Y-131860D01*
X137400Y-136596D02*
Y-131859D01*
X139400Y-136596D02*
Y-131858D01*
X141400Y-136596D02*
Y-131857D01*
X143400Y-136596D02*
Y-131855D01*
X145400Y-136596D02*
Y-131854D01*
X147400Y-136596D02*
Y-131853D01*
X149400Y-136596D02*
Y-131851D01*
X151400Y-136596D02*
Y-131850D01*
X153400Y-136596D02*
Y-131849D01*
X155400Y-136596D02*
Y-131848D01*
X157400Y-136596D02*
Y-131846D01*
X159400Y-136596D02*
Y-131845D01*
X161400Y-136596D02*
Y-131844D01*
X163400Y-136596D02*
Y-131843D01*
X165400Y-136596D02*
Y-131841D01*
X167400Y-136596D02*
Y-131840D01*
X169400Y-136596D02*
Y-131839D01*
X171400Y-136596D02*
Y-130433D01*
X171811Y-130100D02*
X177500D01*
X173400Y-136596D02*
Y-128815D01*
X174285Y-128100D02*
X177500D01*
X175400Y-136596D02*
Y-127198D01*
X169661Y-131839D02*
X177500Y-125500D01*
X177400Y-136596D02*
Y-125581D01*
X177500Y-136596D02*
Y-125500D01*
X176758Y-126100D02*
X177500D01*
D19*
X198304Y-22294D02*
X198700Y-21700D01*
X197900Y-22900D02*
X198304Y-22294D01*
X133400Y32698D02*
Y33900D01*
Y32698D02*
X134540D01*
X198000Y-72800D02*
X206000Y-80800D01*
X174400Y-105100D02*
X177400Y-108100D01*
X171400Y-102100D02*
X174400Y-105100D01*
X118972Y-110164D02*
X119100Y-110200D01*
X118740Y-110100D02*
X118972Y-110164D01*
X165400Y-112100D02*
X168900D01*
X165400D02*
Y-111002D01*
X174400Y-105100D02*
X181400Y-98100D01*
X-158600Y-122100D02*
X-144600Y-136100D01*
X129400D01*
X-187500Y-100D02*
Y5000D01*
X-161700Y-14100D02*
X-74600D01*
X129400Y-136100D02*
X133400Y-132100D01*
X123100Y-106200D02*
X129700Y-106100D01*
X133400Y-132100D02*
X169400D01*
X177400Y-124100D01*
X137100Y-102100D02*
X171400D01*
X177400Y-124100D02*
Y-108100D01*
X181400Y-98100D02*
Y-90100D01*
X198000Y-72800D01*
X197900Y-22900D02*
X198000Y-72800D01*
X-162600Y1900D02*
X-160600Y-100D01*
X-159300D01*
X-179800Y17900D02*
X-166600D01*
X-162600Y1900D02*
Y13900D01*
X-183800Y21900D02*
X-179800Y17900D01*
X-166600D02*
X-162600Y13900D01*
X-183800Y21900D02*
Y25396D01*
X-157300Y-8100D02*
X-155300Y-10100D01*
X-127600D01*
X-157300Y-8100D02*
Y-2100D01*
X-127600Y-10100D02*
X-122500Y-5000D01*
X-117400Y-10100D01*
X-79700D01*
X-77400Y-8100D01*
X-159300Y-100D02*
X-157300Y-2100D01*
X-77400Y-8100D02*
Y-2100D01*
X-72600Y3000D01*
Y9900D01*
X-68600Y13900D01*
X-48600D01*
X-44600Y17900D01*
X79440Y-118902D02*
X83400Y-122862D01*
Y-122900D02*
Y-122862D01*
Y-122900D02*
X84600Y-124100D01*
X165400Y-111002D02*
X166040D01*
X84600Y-124100D02*
X169400D01*
X170900Y-122600D01*
Y-114100D01*
X168900Y-112100D02*
X170900Y-114100D01*
X42500Y-14000D02*
Y5000D01*
X79400Y24798D02*
X79440D01*
X-203800Y21300D02*
Y25396D01*
Y21300D02*
X-187500Y5000D01*
X117400Y32698D02*
X118740D01*
Y-111002D02*
X118740D01*
Y-110100D01*
X134540Y32698D02*
X134540D01*
D20*
X-158600Y-56100D02*
Y-38900D01*
Y-84100D02*
Y-56100D01*
Y-122100D02*
Y-84100D01*
X79400Y24798D02*
X79400Y24798D01*
X79500Y17800D01*
X-188620Y-31120D02*
X-166380D01*
X-158600Y-38900D01*
X-207000Y-66100D02*
X-201000Y-60100D01*
X-201014Y-34514D02*
X-201000Y-60100D01*
X-201014Y-34514D02*
X-197620Y-31120D01*
X-189200Y-12800D02*
Y-1800D01*
X-187500Y-100D01*
X43200Y18300D02*
X79000D01*
X-44600Y17900D02*
X29600D01*
X79000Y18300D02*
X79500Y17800D01*
D21*
X139400D01*
X118740Y-111002D02*
Y-105640D01*
X134540Y-111002D02*
Y-105240D01*
X-22500Y-12800D02*
Y-5000D01*
X-183800Y25396D02*
Y35396D01*
X79440Y-118902D02*
Y-111002D01*
X42500Y-63000D02*
X74500Y-95000D01*
Y-106062D02*
X79440Y-111002D01*
X42500Y-63000D02*
Y-14000D01*
X74500Y-106062D02*
Y-95000D01*
X173940Y24798D02*
Y32698D01*
X118740Y24798D02*
Y32698D01*
X118800Y32759D01*
Y39800D01*
X131000Y43000D02*
X134540Y39460D01*
X118800Y39800D02*
X122000Y43000D01*
X131000D01*
X134540Y32698D02*
Y39460D01*
D22*
X142440Y32698D02*
Y37440D01*
X185000Y42000D02*
X194000Y33000D01*
X142440Y37440D02*
X147000Y42000D01*
X185000D01*
X187500Y-5000D02*
X194000Y1500D01*
Y33000D01*
D23*
X-193800Y25396D02*
D03*
X-183800D02*
D03*
X-193800Y35396D02*
D03*
X-183800D02*
D03*
D24*
X-203800Y25396D02*
D03*
Y35396D02*
D03*
D25*
X79440Y32698D02*
D03*
Y24798D02*
D03*
X87340Y32698D02*
D03*
Y24798D02*
D03*
X95140Y32698D02*
D03*
X103040D02*
D03*
X110940D02*
D03*
X118740D02*
D03*
X126640D02*
D03*
X134540D02*
D03*
X142440D02*
D03*
X150240D02*
D03*
X158140D02*
D03*
X166040D02*
D03*
X95140Y24798D02*
D03*
X103040D02*
D03*
X110940D02*
D03*
X118740D02*
D03*
X126640D02*
D03*
X134540D02*
D03*
X142440D02*
D03*
X150240D02*
D03*
X158140D02*
D03*
X166040D02*
D03*
X173940D02*
D03*
Y32698D02*
D03*
X79440Y-118902D02*
D03*
Y-111002D02*
D03*
X87340Y-118902D02*
D03*
Y-111002D02*
D03*
X95140Y-118902D02*
D03*
Y-111002D02*
D03*
X103040D02*
D03*
Y-118902D02*
D03*
X110940D02*
D03*
Y-111002D02*
D03*
X118740Y-118902D02*
D03*
Y-111002D02*
D03*
X126640Y-118902D02*
D03*
Y-111002D02*
D03*
X134540Y-118902D02*
D03*
Y-111002D02*
D03*
X142440Y-118902D02*
D03*
Y-111002D02*
D03*
X150240Y-118902D02*
D03*
Y-111002D02*
D03*
X158140Y-118902D02*
D03*
Y-111002D02*
D03*
X166040Y-118902D02*
D03*
Y-111002D02*
D03*
X-188620Y-31120D02*
D03*
X-197620D02*
D03*
X42400Y20700D02*
D03*
X-207000Y-66100D02*
D03*
X-158600Y-84100D02*
D03*
Y-56100D02*
D03*
X205900Y-80900D02*
D03*
X197900Y-22025D02*
D03*
X-110600Y-130100D02*
D03*
X-62366Y-63666D02*
D03*
X92500Y-25500D02*
D03*
X97000Y-53000D02*
D03*
X139400Y17900D02*
D03*
X-23500Y-19700D02*
D03*
X-115190Y-116311D02*
D03*
X-94000Y-116500D02*
D03*
X-119400Y-104000D02*
D03*
X-125200Y-112100D02*
D03*
D26*
X-177500Y5000D02*
D03*
X182500D02*
D03*
X172500D02*
D03*
X162500D02*
D03*
X152500D02*
D03*
X142500D02*
D03*
X132500D02*
D03*
X122500D02*
D03*
X112500D02*
D03*
X102500D02*
D03*
X92500D02*
D03*
X82500D02*
D03*
X72500D02*
D03*
X62500D02*
D03*
X52500D02*
D03*
X42500D02*
D03*
X32500D02*
D03*
X22500D02*
D03*
X12500D02*
D03*
X-17500D02*
D03*
X-27500D02*
D03*
X-37500D02*
D03*
X-47500D02*
D03*
X-57500D02*
D03*
X-67500D02*
D03*
X-77500D02*
D03*
X-87500D02*
D03*
X-97500D02*
D03*
X-107500D02*
D03*
X-117500D02*
D03*
X-127500D02*
D03*
X-137500D02*
D03*
X-147500D02*
D03*
X-157500D02*
D03*
X-167500D02*
D03*
X-187500D02*
D03*
X177500Y-5000D02*
D03*
X167500D02*
D03*
X157500D02*
D03*
X147500D02*
D03*
X137500D02*
D03*
X127500D02*
D03*
X117500D02*
D03*
X107500D02*
D03*
X97500D02*
D03*
X87500D02*
D03*
X77500D02*
D03*
X67500D02*
D03*
X57500D02*
D03*
X47500D02*
D03*
X37500D02*
D03*
X27500D02*
D03*
X17500D02*
D03*
X-12500D02*
D03*
X-22500D02*
D03*
X-32500D02*
D03*
X-42500D02*
D03*
X-52500D02*
D03*
X-62500D02*
D03*
X-72500D02*
D03*
X-82500D02*
D03*
X-92500D02*
D03*
X-102500D02*
D03*
X-112500D02*
D03*
X-122500D02*
D03*
X-132500D02*
D03*
X-142500D02*
D03*
X-152500D02*
D03*
X-162500D02*
D03*
X-172500D02*
D03*
X-182500D02*
D03*
D27*
X187500D02*
D03*
M02*
