M48
;Layer_Color=9474304
;FILE_FORMAT=2:4
INCH,TZ
;TYPE=PLATED
T1F00S00C0.0240
T2F00S00C0.0300
%
T01
X-20700Y-6610
X-19762Y-3112
X-18862
X-15860Y-5610
Y-8410
X-11940Y-10400
X-12520Y-11210
X-11519Y-11631
X-11060Y-13010
X-9400Y-11650
X-6237Y-6367
X-2350Y-1970
X9250Y-2550
X9700Y-5300
X19790Y-2203
X20590Y-8090
X13940Y1790
X4240Y2070
T02
X-18250Y-500
X-17250
X-16250
X-15250
X-14250
X-13250
X-12250
X-11250
X-10250
X-10750Y500
X-11750
X-12750
X-13750
X-14750
X-15750
X-16750
X-17750
X-18750
X-9750
X-8750
X-7750
X-6750
X-5750
X-4750
X-3750
X-2750
X-1750
X-1250Y-500
X-2250
X-3250
X-4250
X-5250
X-6250
X-7250
X-8250
X-9250
X1750
X2750
X3750
X4750
X5250Y500
X4250
X3250
X2250
X1250
X6250
X7250
X8250
X9250
X10250
X11250
X12250
X13250
X14250
X15250
X16250
X17250
X18250
X18750Y-500
X17750
X16750
X15750
X14750
X13750
X12750
X11750
X10750
X9750
X8750
X7750
X6750
X5750
X7944Y-11100
Y-11890
X8734
X9514
Y-11100
X8734
X10304
Y-11890
X11094
X11874
Y-11100
X11094
X12664
Y-11890
X13454
Y-11100
X14244
X15024
Y-11890
X14244
X15814
Y-11100
X16604
Y-11890
Y2480
Y3270
X15814
X15024
X14244
X13454
X12664
X11874
X11094
X10304
X9514
X8734
X7944
Y2480
X8734
X9514
X10304
X11094
X11874
X12664
X13454
X14244
X15024
X15814
X17394
Y3270
X-18380Y3540
Y2540
X-19380
X-20380
Y3540
X-19380
M30
