G04*
G04 #@! TF.GenerationSoftware,Altium Limited,Altium Designer,21.1.0 (24)*
G04*
G04 Layer_Color=65535*
%FSLAX25Y25*%
%MOIN*%
G70*
G04*
G04 #@! TF.SameCoordinates,0D440C85-AE3C-4C52-A60E-649D9F504D21*
G04*
G04*
G04 #@! TF.FilePolarity,Positive*
G04*
G01*
G75*
%ADD10C,0.00800*%
%ADD11C,0.01000*%
%ADD12C,0.01500*%
D10*
X-66000Y-86000D02*
Y-21000D01*
X-91000Y-86000D02*
Y-21000D01*
X-117000Y-86000D02*
Y-21000D01*
X-150000Y-75000D02*
X5000D01*
X-149500Y-64500D02*
X4500D01*
X-150000Y-54000D02*
X5000D01*
X-150000Y-44000D02*
X5000D01*
X-150000Y-33000D02*
X5000D01*
X-150000Y-22000D02*
Y-21000D01*
X5000D01*
Y-86000D02*
Y-21000D01*
X-150000Y-86000D02*
X5000D01*
X-150000D02*
Y-22000D01*
X-56168Y-72000D02*
X-59500D01*
X-56168Y-68668D01*
Y-67835D01*
X-57001Y-67002D01*
X-58667D01*
X-59500Y-67835D01*
X-54502Y-72000D02*
Y-67002D01*
Y-70334D02*
X-52002Y-68668D01*
X-54502Y-70334D02*
X-52002Y-72000D01*
X-44505D02*
Y-67002D01*
X-42006D01*
X-41173Y-67835D01*
Y-69501D01*
X-42006Y-70334D01*
X-44505D01*
X-42839D02*
X-41173Y-72000D01*
X-37007D02*
X-38673D01*
X-39507Y-71167D01*
Y-69501D01*
X-38673Y-68668D01*
X-37007D01*
X-36174Y-69501D01*
Y-70334D01*
X-39507D01*
X-33675Y-72000D02*
Y-67835D01*
Y-69501D01*
X-34508D01*
X-32842D01*
X-33675D01*
Y-67835D01*
X-32842Y-67002D01*
X-30343Y-72000D02*
Y-71167D01*
X-29510D01*
Y-72000D01*
X-30343D01*
X-18680Y-67002D02*
X-20346D01*
X-21179Y-67835D01*
Y-71167D01*
X-20346Y-72000D01*
X-18680D01*
X-17847Y-71167D01*
Y-67835D01*
X-18680Y-67002D01*
X-16181Y-72000D02*
Y-68668D01*
X-13681D01*
X-12848Y-69501D01*
Y-72000D01*
X-11182D02*
X-9516D01*
X-10349D01*
Y-67002D01*
X-11182D01*
X-7017Y-68668D02*
Y-71167D01*
X-6184Y-72000D01*
X-3685D01*
Y-72833D01*
X-4518Y-73666D01*
X-5351D01*
X-3685Y-72000D02*
Y-68668D01*
X-59000Y-29500D02*
Y-23502D01*
X-55001Y-29500D01*
Y-23502D01*
X-52002Y-29500D02*
X-50003D01*
X-49003Y-28500D01*
Y-26501D01*
X-50003Y-25501D01*
X-52002D01*
X-53002Y-26501D01*
Y-28500D01*
X-52002Y-29500D01*
X-46004Y-24502D02*
Y-25501D01*
X-47004D01*
X-45004D01*
X-46004D01*
Y-28500D01*
X-45004Y-29500D01*
X-39007D02*
X-41006D01*
X-42006Y-28500D01*
Y-26501D01*
X-41006Y-25501D01*
X-39007D01*
X-38007Y-26501D01*
Y-27501D01*
X-42006D01*
X-55668Y-47135D02*
X-56501Y-46302D01*
X-58167D01*
X-59000Y-47135D01*
Y-47968D01*
X-58167Y-48801D01*
X-56501D01*
X-55668Y-49634D01*
Y-50467D01*
X-56501Y-51300D01*
X-58167D01*
X-59000Y-50467D01*
X-54002Y-51300D02*
X-52336D01*
X-53169D01*
Y-47968D01*
X-54002D01*
X-49836Y-51300D02*
Y-47968D01*
X-47337D01*
X-46504Y-48801D01*
Y-51300D01*
X-43172Y-52966D02*
X-42339D01*
X-41506Y-52133D01*
Y-47968D01*
X-44005D01*
X-44838Y-48801D01*
Y-50467D01*
X-44005Y-51300D01*
X-41506D01*
X-39840D02*
X-38173D01*
X-39007D01*
Y-46302D01*
X-39840D01*
X-33175Y-51300D02*
X-34841D01*
X-35674Y-50467D01*
Y-48801D01*
X-34841Y-47968D01*
X-33175D01*
X-32342Y-48801D01*
Y-49634D01*
X-35674D01*
X-22345Y-47135D02*
X-23178Y-46302D01*
X-24844D01*
X-25677Y-47135D01*
Y-47968D01*
X-24844Y-48801D01*
X-23178D01*
X-22345Y-49634D01*
Y-50467D01*
X-23178Y-51300D01*
X-24844D01*
X-25677Y-50467D01*
X-20679Y-51300D02*
X-19013D01*
X-19846D01*
Y-47968D01*
X-20679D01*
X-13182Y-46302D02*
Y-51300D01*
X-15681D01*
X-16514Y-50467D01*
Y-48801D01*
X-15681Y-47968D01*
X-13182D01*
X-9016Y-51300D02*
X-10682D01*
X-11515Y-50467D01*
Y-48801D01*
X-10682Y-47968D01*
X-9016D01*
X-8183Y-48801D01*
Y-49634D01*
X-11515D01*
X-3185Y-46302D02*
Y-51300D01*
X-5684D01*
X-6517Y-50467D01*
Y-48801D01*
X-5684Y-47968D01*
X-3185D01*
X-59200Y-56602D02*
Y-61600D01*
X-56701D01*
X-55868Y-60767D01*
Y-57435D01*
X-56701Y-56602D01*
X-59200D01*
X-53369Y-61600D02*
X-51702D01*
X-50869Y-60767D01*
Y-59101D01*
X-51702Y-58268D01*
X-53369D01*
X-54202Y-59101D01*
Y-60767D01*
X-53369Y-61600D01*
X-49203Y-58268D02*
Y-60767D01*
X-48370Y-61600D01*
X-45871D01*
Y-58268D01*
X-44205Y-56602D02*
Y-61600D01*
X-41706D01*
X-40873Y-60767D01*
Y-59934D01*
Y-59101D01*
X-41706Y-58268D01*
X-44205D01*
X-39206Y-61600D02*
X-37540D01*
X-38373D01*
Y-56602D01*
X-39206D01*
X-32542Y-61600D02*
X-34208D01*
X-35041Y-60767D01*
Y-59101D01*
X-34208Y-58268D01*
X-32542D01*
X-31709Y-59101D01*
Y-59934D01*
X-35041D01*
X-21712Y-57435D02*
X-22545Y-56602D01*
X-24211D01*
X-25044Y-57435D01*
Y-58268D01*
X-24211Y-59101D01*
X-22545D01*
X-21712Y-59934D01*
Y-60767D01*
X-22545Y-61600D01*
X-24211D01*
X-25044Y-60767D01*
X-20046Y-61600D02*
X-18380D01*
X-19213D01*
Y-58268D01*
X-20046D01*
X-12548Y-56602D02*
Y-61600D01*
X-15048D01*
X-15881Y-60767D01*
Y-59101D01*
X-15048Y-58268D01*
X-12548D01*
X-8383Y-61600D02*
X-10049D01*
X-10882Y-60767D01*
Y-59101D01*
X-10049Y-58268D01*
X-8383D01*
X-7550Y-59101D01*
Y-59934D01*
X-10882D01*
X-2552Y-56602D02*
Y-61600D01*
X-5051D01*
X-5884Y-60767D01*
Y-59101D01*
X-5051Y-58268D01*
X-2552D01*
X-81055Y-117359D02*
X-81626Y-117930D01*
X-82197Y-118787D01*
X-82769Y-119930D01*
X-83054Y-121358D01*
Y-122500D01*
X-82769Y-123929D01*
X-82197Y-125071D01*
X-81626Y-125928D01*
X-81055Y-126500D01*
X-81626Y-117930D02*
X-82197Y-119073D01*
X-82483Y-119930D01*
X-82769Y-121358D01*
Y-122500D01*
X-82483Y-123929D01*
X-82197Y-124786D01*
X-81626Y-125928D01*
X-76542Y-121358D02*
X-76827Y-121643D01*
X-76542Y-121929D01*
X-76256Y-121643D01*
Y-121358D01*
X-76827Y-120786D01*
X-77399Y-120501D01*
X-78255D01*
X-79112Y-120786D01*
X-79684Y-121358D01*
X-79969Y-122215D01*
Y-122786D01*
X-79684Y-123643D01*
X-79112Y-124214D01*
X-78255Y-124500D01*
X-77684D01*
X-76827Y-124214D01*
X-76256Y-123643D01*
X-78255Y-120501D02*
X-78827Y-120786D01*
X-79398Y-121358D01*
X-79684Y-122215D01*
Y-122786D01*
X-79398Y-123643D01*
X-78827Y-124214D01*
X-78255Y-124500D01*
X-75342Y-117359D02*
X-74770Y-117930D01*
X-74199Y-118787D01*
X-73628Y-119930D01*
X-73342Y-121358D01*
Y-122500D01*
X-73628Y-123929D01*
X-74199Y-125071D01*
X-74770Y-125928D01*
X-75342Y-126500D01*
X-74770Y-117930D02*
X-74199Y-119073D01*
X-73914Y-119930D01*
X-73628Y-121358D01*
Y-122500D01*
X-73914Y-123929D01*
X-74199Y-124786D01*
X-74770Y-125928D01*
X-72257Y-119644D02*
X-71685Y-119358D01*
X-70828Y-118501D01*
Y-124500D01*
X-71114Y-118787D02*
Y-124500D01*
X-72257D02*
X-69686D01*
X-64944Y-120501D02*
X-65230Y-121358D01*
X-65801Y-121929D01*
X-66658Y-122215D01*
X-66944D01*
X-67800Y-121929D01*
X-68372Y-121358D01*
X-68657Y-120501D01*
Y-120215D01*
X-68372Y-119358D01*
X-67800Y-118787D01*
X-66944Y-118501D01*
X-66372D01*
X-65515Y-118787D01*
X-64944Y-119358D01*
X-64658Y-120215D01*
Y-121929D01*
X-64944Y-123072D01*
X-65230Y-123643D01*
X-65801Y-124214D01*
X-66658Y-124500D01*
X-67515D01*
X-68086Y-124214D01*
X-68372Y-123643D01*
Y-123357D01*
X-68086Y-123072D01*
X-67800Y-123357D01*
X-68086Y-123643D01*
X-66944Y-122215D02*
X-67515Y-121929D01*
X-68086Y-121358D01*
X-68372Y-120501D01*
Y-120215D01*
X-68086Y-119358D01*
X-67515Y-118787D01*
X-66944Y-118501D01*
X-66372D02*
X-65801Y-118787D01*
X-65230Y-119358D01*
X-64944Y-120215D01*
Y-121929D01*
X-65230Y-123072D01*
X-65515Y-123643D01*
X-66087Y-124214D01*
X-66658Y-124500D01*
X-60059Y-120501D02*
X-60345Y-121358D01*
X-60916Y-121929D01*
X-61773Y-122215D01*
X-62059D01*
X-62916Y-121929D01*
X-63487Y-121358D01*
X-63773Y-120501D01*
Y-120215D01*
X-63487Y-119358D01*
X-62916Y-118787D01*
X-62059Y-118501D01*
X-61488D01*
X-60631Y-118787D01*
X-60059Y-119358D01*
X-59774Y-120215D01*
Y-121929D01*
X-60059Y-123072D01*
X-60345Y-123643D01*
X-60916Y-124214D01*
X-61773Y-124500D01*
X-62630D01*
X-63201Y-124214D01*
X-63487Y-123643D01*
Y-123357D01*
X-63201Y-123072D01*
X-62916Y-123357D01*
X-63201Y-123643D01*
X-62059Y-122215D02*
X-62630Y-121929D01*
X-63201Y-121358D01*
X-63487Y-120501D01*
Y-120215D01*
X-63201Y-119358D01*
X-62630Y-118787D01*
X-62059Y-118501D01*
X-61488D02*
X-60916Y-118787D01*
X-60345Y-119358D01*
X-60059Y-120215D01*
Y-121929D01*
X-60345Y-123072D01*
X-60631Y-123643D01*
X-61202Y-124214D01*
X-61773Y-124500D01*
X-57460Y-118501D02*
X-58317Y-118787D01*
X-58602Y-119358D01*
Y-120215D01*
X-58317Y-120786D01*
X-57460Y-121072D01*
X-56317D01*
X-55460Y-120786D01*
X-55175Y-120215D01*
Y-119358D01*
X-55460Y-118787D01*
X-56317Y-118501D01*
X-57460D01*
X-58031Y-118787D01*
X-58317Y-119358D01*
Y-120215D01*
X-58031Y-120786D01*
X-57460Y-121072D01*
X-56317D02*
X-55746Y-120786D01*
X-55460Y-120215D01*
Y-119358D01*
X-55746Y-118787D01*
X-56317Y-118501D01*
X-57460Y-121072D02*
X-58317Y-121358D01*
X-58602Y-121643D01*
X-58888Y-122215D01*
Y-123357D01*
X-58602Y-123929D01*
X-58317Y-124214D01*
X-57460Y-124500D01*
X-56317D01*
X-55460Y-124214D01*
X-55175Y-123929D01*
X-54889Y-123357D01*
Y-122215D01*
X-55175Y-121643D01*
X-55460Y-121358D01*
X-56317Y-121072D01*
X-57460D02*
X-58031Y-121358D01*
X-58317Y-121643D01*
X-58602Y-122215D01*
Y-123357D01*
X-58317Y-123929D01*
X-58031Y-124214D01*
X-57460Y-124500D01*
X-56317D02*
X-55746Y-124214D01*
X-55460Y-123929D01*
X-55175Y-123357D01*
Y-122215D01*
X-55460Y-121643D01*
X-55746Y-121358D01*
X-56317Y-121072D01*
X-47748Y-118501D02*
Y-124500D01*
X-47462Y-118501D02*
Y-124500D01*
X-48605Y-118501D02*
X-46605D01*
X-48605Y-124500D02*
X-44320D01*
Y-122786D01*
X-44605Y-124500D01*
X-42606Y-120501D02*
Y-123643D01*
X-42320Y-124214D01*
X-41463Y-124500D01*
X-40892D01*
X-40035Y-124214D01*
X-39464Y-123643D01*
X-42320Y-120501D02*
Y-123643D01*
X-42035Y-124214D01*
X-41463Y-124500D01*
X-39464Y-120501D02*
Y-124500D01*
X-39178Y-120501D02*
Y-124500D01*
X-43463Y-120501D02*
X-42320D01*
X-40321D02*
X-39178D01*
X-39464Y-124500D02*
X-38321D01*
X-34122Y-121358D02*
X-34408Y-121643D01*
X-34122Y-121929D01*
X-33836Y-121643D01*
Y-121358D01*
X-34408Y-120786D01*
X-34979Y-120501D01*
X-35836D01*
X-36693Y-120786D01*
X-37264Y-121358D01*
X-37550Y-122215D01*
Y-122786D01*
X-37264Y-123643D01*
X-36693Y-124214D01*
X-35836Y-124500D01*
X-35265D01*
X-34408Y-124214D01*
X-33836Y-123643D01*
X-35836Y-120501D02*
X-36407Y-120786D01*
X-36979Y-121358D01*
X-37264Y-122215D01*
Y-122786D01*
X-36979Y-123643D01*
X-36407Y-124214D01*
X-35836Y-124500D01*
X-32065Y-118501D02*
Y-124500D01*
X-31780Y-118501D02*
Y-124500D01*
X-28923Y-120501D02*
X-31780Y-123357D01*
X-30351Y-122215D02*
X-28637Y-124500D01*
X-30637Y-122215D02*
X-28923Y-124500D01*
X-32922Y-118501D02*
X-31780D01*
X-29780Y-120501D02*
X-28066D01*
X-32922Y-124500D02*
X-30923D01*
X-29780D02*
X-28066D01*
X-18154Y-119358D02*
X-17868Y-118501D01*
Y-120215D01*
X-18154Y-119358D01*
X-18725Y-118787D01*
X-19582Y-118501D01*
X-20439D01*
X-21296Y-118787D01*
X-21868Y-119358D01*
Y-119930D01*
X-21582Y-120501D01*
X-21296Y-120786D01*
X-20725Y-121072D01*
X-19011Y-121643D01*
X-18440Y-121929D01*
X-17868Y-122500D01*
X-21868Y-119930D02*
X-21296Y-120501D01*
X-20725Y-120786D01*
X-19011Y-121358D01*
X-18440Y-121643D01*
X-18154Y-121929D01*
X-17868Y-122500D01*
Y-123643D01*
X-18440Y-124214D01*
X-19297Y-124500D01*
X-20154D01*
X-21011Y-124214D01*
X-21582Y-123643D01*
X-21868Y-122786D01*
Y-124500D01*
X-21582Y-123643D01*
X-15269Y-124500D02*
X-15555Y-124214D01*
X-15840Y-123357D01*
Y-118501D01*
X-16126D01*
Y-123357D01*
X-15840Y-124214D01*
X-15269Y-124500D01*
X-14698D01*
X-14126Y-124214D01*
X-13841Y-123643D01*
X-16983Y-120501D02*
X-14698D01*
X-12298Y-121072D02*
Y-121358D01*
X-12584D01*
Y-121072D01*
X-12298Y-120786D01*
X-11727Y-120501D01*
X-10584D01*
X-10013Y-120786D01*
X-9727Y-121072D01*
X-9442Y-121643D01*
Y-123643D01*
X-9156Y-124214D01*
X-8870Y-124500D01*
X-9727Y-121072D02*
Y-123643D01*
X-9442Y-124214D01*
X-8870Y-124500D01*
X-8585D01*
X-9727Y-121643D02*
X-10013Y-121929D01*
X-11727Y-122215D01*
X-12584Y-122500D01*
X-12869Y-123072D01*
Y-123643D01*
X-12584Y-124214D01*
X-11727Y-124500D01*
X-10870D01*
X-10299Y-124214D01*
X-9727Y-123643D01*
X-11727Y-122215D02*
X-12298Y-122500D01*
X-12584Y-123072D01*
Y-123643D01*
X-12298Y-124214D01*
X-11727Y-124500D01*
X-6871Y-120501D02*
Y-124500D01*
X-6585Y-120501D02*
Y-124500D01*
Y-122215D02*
X-6299Y-121358D01*
X-5728Y-120786D01*
X-5157Y-120501D01*
X-4300D01*
X-4014Y-120786D01*
Y-121072D01*
X-4300Y-121358D01*
X-4586Y-121072D01*
X-4300Y-120786D01*
X-7728Y-120501D02*
X-6585D01*
X-7728Y-124500D02*
X-5728D01*
X6298Y-119358D02*
X6583Y-120215D01*
Y-118501D01*
X6298Y-119358D01*
X5727Y-118787D01*
X4870Y-118501D01*
X4298D01*
X3441Y-118787D01*
X2870Y-119358D01*
X2584Y-119930D01*
X2299Y-120786D01*
Y-122215D01*
X2584Y-123072D01*
X2870Y-123643D01*
X3441Y-124214D01*
X4298Y-124500D01*
X4870D01*
X5727Y-124214D01*
X6298Y-123643D01*
X6583Y-123072D01*
X4298Y-118501D02*
X3727Y-118787D01*
X3156Y-119358D01*
X2870Y-119930D01*
X2584Y-120786D01*
Y-122215D01*
X2870Y-123072D01*
X3156Y-123643D01*
X3727Y-124214D01*
X4298Y-124500D01*
X9154Y-120501D02*
X8298Y-120786D01*
X7726Y-121358D01*
X7440Y-122215D01*
Y-122786D01*
X7726Y-123643D01*
X8298Y-124214D01*
X9154Y-124500D01*
X9726D01*
X10583Y-124214D01*
X11154Y-123643D01*
X11440Y-122786D01*
Y-122215D01*
X11154Y-121358D01*
X10583Y-120786D01*
X9726Y-120501D01*
X9154D01*
X8583Y-120786D01*
X8012Y-121358D01*
X7726Y-122215D01*
Y-122786D01*
X8012Y-123643D01*
X8583Y-124214D01*
X9154Y-124500D01*
X9726D02*
X10297Y-124214D01*
X10868Y-123643D01*
X11154Y-122786D01*
Y-122215D01*
X10868Y-121358D01*
X10297Y-120786D01*
X9726Y-120501D01*
X12611Y-124500D02*
X12325Y-124214D01*
X12611Y-123929D01*
X12897Y-124214D01*
Y-124786D01*
X12611Y-125357D01*
X12325Y-125643D01*
X20381Y-118501D02*
Y-124500D01*
X20666Y-118501D02*
Y-124500D01*
X19524Y-118501D02*
X21523D01*
X19524Y-124500D02*
X23808D01*
Y-122786D01*
X23523Y-124500D01*
X26665Y-118501D02*
Y-124500D01*
X26951Y-118501D02*
Y-124500D01*
X24951Y-118501D02*
X24665Y-120215D01*
Y-118501D01*
X28950D01*
Y-120215D01*
X28664Y-118501D01*
X25808Y-124500D02*
X27808D01*
X30664Y-118501D02*
Y-124500D01*
X30950Y-118501D02*
Y-124500D01*
X29807Y-118501D02*
X32664D01*
X33521Y-118787D01*
X34092Y-119358D01*
X34378Y-119930D01*
X34663Y-120786D01*
Y-122215D01*
X34378Y-123072D01*
X34092Y-123643D01*
X33521Y-124214D01*
X32664Y-124500D01*
X29807D01*
X32664Y-118501D02*
X33235Y-118787D01*
X33806Y-119358D01*
X34092Y-119930D01*
X34378Y-120786D01*
Y-122215D01*
X34092Y-123072D01*
X33806Y-123643D01*
X33235Y-124214D01*
X32664Y-124500D01*
X35749Y-123929D02*
X35463Y-124214D01*
X35749Y-124500D01*
X36034Y-124214D01*
X35749Y-123929D01*
X-144589Y-78902D02*
X-143590Y-77902D01*
X-141590D01*
X-140591Y-78902D01*
Y-79901D01*
X-141590Y-80901D01*
X-142590D01*
X-141590D01*
X-140591Y-81901D01*
Y-82900D01*
X-141590Y-83900D01*
X-143590D01*
X-144589Y-82900D01*
X-134593Y-83900D02*
X-138591D01*
X-134593Y-79901D01*
Y-78902D01*
X-135592Y-77902D01*
X-137592D01*
X-138591Y-78902D01*
X-132593Y-83900D02*
Y-77902D01*
X-130594Y-79901D01*
X-128595Y-77902D01*
Y-83900D01*
X-126595Y-77902D02*
Y-83900D01*
X-123596D01*
X-122597Y-82900D01*
Y-81901D01*
X-123596Y-80901D01*
X-126595D01*
X-123596D01*
X-122597Y-79901D01*
Y-78902D01*
X-123596Y-77902D01*
X-126595D01*
X-138544Y-46560D02*
X-137545Y-45560D01*
X-135545D01*
X-134546Y-46560D01*
Y-47560D01*
X-135545Y-48559D01*
X-134546Y-49559D01*
Y-50559D01*
X-135545Y-51559D01*
X-137545D01*
X-138544Y-50559D01*
Y-49559D01*
X-137545Y-48559D01*
X-138544Y-47560D01*
Y-46560D01*
X-137545Y-48559D02*
X-135545D01*
X-132546Y-51559D02*
Y-45560D01*
X-130547Y-47560D01*
X-128548Y-45560D01*
Y-51559D01*
X-126548Y-45560D02*
Y-51559D01*
X-123549D01*
X-122550Y-50559D01*
Y-49559D01*
X-123549Y-48559D01*
X-126548D01*
X-123549D01*
X-122550Y-47560D01*
Y-46560D01*
X-123549Y-45560D01*
X-126548D01*
X-135767Y-41200D02*
Y-35202D01*
X-138766Y-38201D01*
X-134767D01*
X-132768Y-41200D02*
Y-35202D01*
X-130769Y-37201D01*
X-128769Y-35202D01*
Y-41200D01*
X-126770Y-35202D02*
Y-41200D01*
X-123771D01*
X-122771Y-40200D01*
Y-39201D01*
X-123771Y-38201D01*
X-126770D01*
X-123771D01*
X-122771Y-37201D01*
Y-36202D01*
X-123771Y-35202D01*
X-126770D01*
X-140501Y-24802D02*
X-141501Y-23802D01*
X-143500D01*
X-144500Y-24802D01*
Y-25801D01*
X-143500Y-26801D01*
X-141501D01*
X-140501Y-27801D01*
Y-28800D01*
X-141501Y-29800D01*
X-143500D01*
X-144500Y-28800D01*
X-138502Y-23802D02*
X-136503D01*
X-137502D01*
Y-29800D01*
X-138502D01*
X-136503D01*
X-133504D02*
Y-23802D01*
X-131504Y-25801D01*
X-129505Y-23802D01*
Y-29800D01*
X-127506D02*
Y-23802D01*
X-125506Y-25801D01*
X-123507Y-23802D01*
Y-29800D01*
X-107801Y-24102D02*
X-109801D01*
X-108801D01*
Y-29100D01*
X-109801Y-30100D01*
X-110800D01*
X-111800Y-29100D01*
X-105802Y-30100D02*
Y-24102D01*
X-102803D01*
X-101803Y-25102D01*
Y-27101D01*
X-102803Y-28101D01*
X-105802D01*
X-99804Y-30100D02*
X-97804D01*
X-98804D01*
Y-24102D01*
X-99804Y-25102D01*
X-83401Y-24202D02*
X-85401D01*
X-84401D01*
Y-29200D01*
X-85401Y-30200D01*
X-86400D01*
X-87400Y-29200D01*
X-81402Y-30200D02*
Y-24202D01*
X-78403D01*
X-77403Y-25202D01*
Y-27201D01*
X-78403Y-28201D01*
X-81402D01*
X-71405Y-30200D02*
X-75404D01*
X-71405Y-26201D01*
Y-25202D01*
X-72405Y-24202D01*
X-74404D01*
X-75404Y-25202D01*
X-111400Y-41300D02*
X-109401D01*
X-110400D01*
Y-35302D01*
X-111400Y-36302D01*
X-106402Y-38301D02*
X-102403D01*
X-96405Y-41300D02*
X-100404D01*
X-96405Y-37301D01*
Y-36302D01*
X-97404Y-35302D01*
X-99404D01*
X-100404Y-36302D01*
X-86996Y-41300D02*
X-84997D01*
X-85996D01*
Y-35302D01*
X-86996Y-36302D01*
X-81998Y-38301D02*
X-77999D01*
X-72001Y-41300D02*
X-76000D01*
X-72001Y-37301D01*
Y-36302D01*
X-73001Y-35302D01*
X-75000D01*
X-76000Y-36302D01*
X-138600Y-57302D02*
X-137600Y-56302D01*
X-135601D01*
X-134601Y-57302D01*
Y-58301D01*
X-135601Y-59301D01*
X-134601Y-60301D01*
Y-61300D01*
X-135601Y-62300D01*
X-137600D01*
X-138600Y-61300D01*
Y-60301D01*
X-137600Y-59301D01*
X-138600Y-58301D01*
Y-57302D01*
X-137600Y-59301D02*
X-135601D01*
X-132602Y-62300D02*
Y-56302D01*
X-130603Y-58301D01*
X-128603Y-56302D01*
Y-62300D01*
X-126604Y-56302D02*
Y-62300D01*
X-123605D01*
X-122605Y-61300D01*
Y-60301D01*
X-123605Y-59301D01*
X-126604D01*
X-123605D01*
X-122605Y-58301D01*
Y-57302D01*
X-123605Y-56302D01*
X-126604D01*
X-144100Y-72600D02*
X-142101D01*
X-143100D01*
Y-66602D01*
X-144100Y-67602D01*
X-135103Y-66602D02*
X-137102Y-67602D01*
X-139102Y-69601D01*
Y-71600D01*
X-138102Y-72600D01*
X-136103D01*
X-135103Y-71600D01*
Y-70601D01*
X-136103Y-69601D01*
X-139102D01*
X-133104Y-72600D02*
Y-66602D01*
X-131104Y-68601D01*
X-129105Y-66602D01*
Y-72600D01*
X-127105Y-66602D02*
Y-72600D01*
X-124107D01*
X-123107Y-71600D01*
Y-70601D01*
X-124107Y-69601D01*
X-127105D01*
X-124107D01*
X-123107Y-68601D01*
Y-67602D01*
X-124107Y-66602D01*
X-127105D01*
X-111400Y-51800D02*
X-109401D01*
X-110400D01*
Y-45802D01*
X-111400Y-46802D01*
X-106402Y-48801D02*
X-102403D01*
X-96405Y-51800D02*
X-100404D01*
X-96405Y-47801D01*
Y-46802D01*
X-97404Y-45802D01*
X-99404D01*
X-100404Y-46802D01*
X-111000Y-72500D02*
X-109001D01*
X-110000D01*
Y-66502D01*
X-111000Y-67502D01*
X-106002Y-69501D02*
X-102003D01*
X-96005Y-72500D02*
X-100004D01*
X-96005Y-68501D01*
Y-67502D01*
X-97004Y-66502D01*
X-99004D01*
X-100004Y-67502D01*
X-87000Y-62000D02*
X-85001D01*
X-86000D01*
Y-56002D01*
X-87000Y-57002D01*
X-82002Y-59001D02*
X-78003D01*
X-72005Y-62000D02*
X-76004D01*
X-72005Y-58001D01*
Y-57002D01*
X-73005Y-56002D01*
X-75004D01*
X-76004Y-57002D01*
X-108212Y-62100D02*
X-112211D01*
X-108212Y-58101D01*
Y-57102D01*
X-109212Y-56102D01*
X-111211D01*
X-112211Y-57102D01*
X-106212Y-59101D02*
X-102214D01*
X-100215Y-57102D02*
X-99215Y-56102D01*
X-97215D01*
X-96216Y-57102D01*
Y-58101D01*
X-97215Y-59101D01*
X-98215D01*
X-97215D01*
X-96216Y-60101D01*
Y-61100D01*
X-97215Y-62100D01*
X-99215D01*
X-100215Y-61100D01*
X-107401Y-84000D02*
X-111400D01*
X-107401Y-80001D01*
Y-79002D01*
X-108401Y-78002D01*
X-110400D01*
X-111400Y-79002D01*
X-105402Y-81001D02*
X-101403D01*
X-99404Y-79002D02*
X-98404Y-78002D01*
X-96405D01*
X-95405Y-79002D01*
Y-80001D01*
X-96405Y-81001D01*
X-97404D01*
X-96405D01*
X-95405Y-82001D01*
Y-83000D01*
X-96405Y-84000D01*
X-98404D01*
X-99404Y-83000D01*
X-83001Y-84000D02*
X-87000D01*
X-83001Y-80001D01*
Y-79002D01*
X-84001Y-78002D01*
X-86000D01*
X-87000Y-79002D01*
X-81002Y-81001D02*
X-77003D01*
X-75004Y-79002D02*
X-74004Y-78002D01*
X-72005D01*
X-71005Y-79002D01*
Y-80001D01*
X-72005Y-81001D01*
X-73005D01*
X-72005D01*
X-71005Y-82001D01*
Y-83000D01*
X-72005Y-84000D01*
X-74004D01*
X-75004Y-83000D01*
X-83001Y-72500D02*
X-87000D01*
X-83001Y-68501D01*
Y-67502D01*
X-84001Y-66502D01*
X-86000D01*
X-87000Y-67502D01*
X-81002Y-69501D02*
X-77003D01*
X-75004Y-67502D02*
X-74004Y-66502D01*
X-72005D01*
X-71005Y-67502D01*
Y-68501D01*
X-72005Y-69501D01*
X-73005D01*
X-72005D01*
X-71005Y-70501D01*
Y-71500D01*
X-72005Y-72500D01*
X-74004D01*
X-75004Y-71500D01*
X-87000Y-51700D02*
X-85001D01*
X-86000D01*
Y-45702D01*
X-87000Y-46702D01*
X-82002Y-48701D02*
X-78003D01*
X-72005Y-51700D02*
X-76004D01*
X-72005Y-47701D01*
Y-46702D01*
X-73005Y-45702D01*
X-75004D01*
X-76004Y-46702D01*
X-82200Y-93001D02*
Y-98000D01*
Y-93001D02*
X-80296Y-98000D01*
X-78391Y-93001D02*
X-80296Y-98000D01*
X-78391Y-93001D02*
Y-98000D01*
X-74107Y-94667D02*
Y-98000D01*
Y-95381D02*
X-74583Y-94905D01*
X-75059Y-94667D01*
X-75773D01*
X-76249Y-94905D01*
X-76725Y-95381D01*
X-76963Y-96096D01*
Y-96572D01*
X-76725Y-97286D01*
X-76249Y-97762D01*
X-75773Y-98000D01*
X-75059D01*
X-74583Y-97762D01*
X-74107Y-97286D01*
X-69917Y-93001D02*
Y-98000D01*
Y-95381D02*
X-70393Y-94905D01*
X-70869Y-94667D01*
X-71583D01*
X-72059Y-94905D01*
X-72535Y-95381D01*
X-72773Y-96096D01*
Y-96572D01*
X-72535Y-97286D01*
X-72059Y-97762D01*
X-71583Y-98000D01*
X-70869D01*
X-70393Y-97762D01*
X-69917Y-97286D01*
X-68584Y-96096D02*
X-65727D01*
Y-95620D01*
X-65965Y-95144D01*
X-66203Y-94905D01*
X-66680Y-94667D01*
X-67394D01*
X-67870Y-94905D01*
X-68346Y-95381D01*
X-68584Y-96096D01*
Y-96572D01*
X-68346Y-97286D01*
X-67870Y-97762D01*
X-67394Y-98000D01*
X-66680D01*
X-66203Y-97762D01*
X-65727Y-97286D01*
X-60252Y-93001D02*
X-60014Y-93239D01*
X-59776Y-93001D01*
X-60014Y-92763D01*
X-60252Y-93001D01*
X-60014Y-94667D02*
Y-98000D01*
X-58895Y-94667D02*
Y-98000D01*
Y-95620D02*
X-58181Y-94905D01*
X-57705Y-94667D01*
X-56991D01*
X-56515Y-94905D01*
X-56277Y-95620D01*
Y-98000D01*
X-47469Y-94191D02*
X-47707Y-93715D01*
X-48184Y-93239D01*
X-48660Y-93001D01*
X-49612D01*
X-50088Y-93239D01*
X-50564Y-93715D01*
X-50802Y-94191D01*
X-51040Y-94905D01*
Y-96096D01*
X-50802Y-96810D01*
X-50564Y-97286D01*
X-50088Y-97762D01*
X-49612Y-98000D01*
X-48660D01*
X-48184Y-97762D01*
X-47707Y-97286D01*
X-47469Y-96810D01*
X-46065Y-93001D02*
Y-98000D01*
Y-95620D02*
X-45351Y-94905D01*
X-44875Y-94667D01*
X-44161D01*
X-43684Y-94905D01*
X-43446Y-95620D01*
Y-98000D01*
X-41661Y-93001D02*
X-41423Y-93239D01*
X-41185Y-93001D01*
X-41423Y-92763D01*
X-41661Y-93001D01*
X-41423Y-94667D02*
Y-98000D01*
X-40304Y-94667D02*
Y-98000D01*
Y-95620D02*
X-39590Y-94905D01*
X-39114Y-94667D01*
X-38400D01*
X-37924Y-94905D01*
X-37686Y-95620D01*
Y-98000D01*
X-33520Y-94667D02*
Y-98000D01*
Y-95381D02*
X-33996Y-94905D01*
X-34472Y-94667D01*
X-35186D01*
X-35662Y-94905D01*
X-36138Y-95381D01*
X-36377Y-96096D01*
Y-96572D01*
X-36138Y-97286D01*
X-35662Y-97762D01*
X-35186Y-98000D01*
X-34472D01*
X-33996Y-97762D01*
X-33520Y-97286D01*
D11*
X-198800Y20396D02*
Y30396D01*
X-208800Y20396D02*
Y30396D01*
X-178800D01*
Y20396D02*
Y30396D01*
X-208800Y20396D02*
X-178800D01*
X-198800Y30396D02*
Y40396D01*
X-208800Y30396D02*
Y40396D01*
X-178800D01*
Y30396D02*
Y40396D01*
X-208800Y30396D02*
X-178800D01*
X-227638Y-18500D02*
X-190900D01*
X-227638D02*
Y11000D01*
X227425Y-18400D02*
Y11000D01*
X195500D02*
X227425D01*
X192000D02*
X195500D01*
X-190800Y-18500D02*
X227425Y-18400D01*
X-227638Y11000D02*
X192000D01*
X-226301Y28594D02*
X-228301D01*
X-227301D01*
Y23596D01*
X-228301Y22596D01*
X-229300D01*
X-230300Y23596D01*
X-224302Y22596D02*
Y28594D01*
X-221303D01*
X-220303Y27594D01*
Y25595D01*
X-221303Y24595D01*
X-224302D01*
X-214305Y22596D02*
X-218304D01*
X-214305Y26595D01*
Y27594D01*
X-215305Y28594D01*
X-217304D01*
X-218304Y27594D01*
X-225901Y39194D02*
X-227901D01*
X-226901D01*
Y34196D01*
X-227901Y33196D01*
X-228900D01*
X-229900Y34196D01*
X-223902Y33196D02*
Y39194D01*
X-220903D01*
X-219903Y38195D01*
Y36195D01*
X-220903Y35195D01*
X-223902D01*
X-217904Y33196D02*
X-215904D01*
X-216904D01*
Y39194D01*
X-217904Y38195D01*
X-205300Y48652D02*
X-204729Y48938D01*
X-203872Y49795D01*
Y43796D01*
X-195902Y48367D02*
Y48652D01*
X-195616Y49224D01*
X-195331Y49509D01*
X-194759Y49795D01*
X-193617D01*
X-193045Y49509D01*
X-192760Y49224D01*
X-192474Y48652D01*
Y48081D01*
X-192760Y47510D01*
X-193331Y46653D01*
X-196188Y43796D01*
X-192189D01*
X-185561Y49795D02*
X-182419D01*
X-184133Y47510D01*
X-183276D01*
X-182705Y47224D01*
X-182419Y46938D01*
X-182133Y46081D01*
Y45510D01*
X-182419Y44653D01*
X-182991Y44082D01*
X-183847Y43796D01*
X-184704D01*
X-185561Y44082D01*
X-185847Y44367D01*
X-186133Y44939D01*
X-223501Y-22503D02*
X-224501Y-21504D01*
X-226500D01*
X-227500Y-22503D01*
Y-23503D01*
X-226500Y-24503D01*
X-224501D01*
X-223501Y-25502D01*
Y-26502D01*
X-224501Y-27502D01*
X-226500D01*
X-227500Y-26502D01*
X-221502Y-21504D02*
X-219503D01*
X-220502D01*
Y-27502D01*
X-221502D01*
X-219503D01*
X-216504D02*
Y-21504D01*
X-214504Y-23503D01*
X-212505Y-21504D01*
Y-27502D01*
X-210506D02*
Y-21504D01*
X-208506Y-23503D01*
X-206507Y-21504D01*
Y-27502D01*
X-204507D02*
X-202508D01*
X-203508D01*
Y-21504D01*
X-204507Y-22503D01*
D12*
X-225035Y-97630D02*
X-225987Y-96678D01*
X-227415Y-96202D01*
X-229320D01*
X-230748Y-96678D01*
X-231700Y-97630D01*
Y-98583D01*
X-231224Y-99535D01*
X-230748Y-100011D01*
X-229796Y-100487D01*
X-226939Y-101439D01*
X-225987Y-101915D01*
X-225511Y-102391D01*
X-225035Y-103343D01*
Y-104772D01*
X-225987Y-105724D01*
X-227415Y-106200D01*
X-229320D01*
X-230748Y-105724D01*
X-231700Y-104772D01*
X-222797Y-96202D02*
Y-106200D01*
X-220702Y-96202D02*
Y-106200D01*
Y-96202D02*
X-216894Y-106200D01*
X-213085Y-96202D02*
X-216894Y-106200D01*
X-213085Y-96202D02*
Y-106200D01*
X-210228Y-96202D02*
Y-106200D01*
Y-96202D02*
X-206420Y-106200D01*
X-202611Y-96202D02*
X-206420Y-106200D01*
X-202611Y-96202D02*
Y-106200D01*
X-192613Y-98583D02*
X-193089Y-97630D01*
X-194041Y-96678D01*
X-194994Y-96202D01*
X-196898D01*
X-197850Y-96678D01*
X-198802Y-97630D01*
X-199278Y-98583D01*
X-199755Y-100011D01*
Y-102391D01*
X-199278Y-103820D01*
X-198802Y-104772D01*
X-197850Y-105724D01*
X-196898Y-106200D01*
X-194994D01*
X-194041Y-105724D01*
X-193089Y-104772D01*
X-192613Y-103820D01*
X-187424Y-99535D02*
X-188376Y-100011D01*
X-189328Y-100963D01*
X-189804Y-102391D01*
Y-103343D01*
X-189328Y-104772D01*
X-188376Y-105724D01*
X-187424Y-106200D01*
X-185995D01*
X-185043Y-105724D01*
X-184091Y-104772D01*
X-183615Y-103343D01*
Y-102391D01*
X-184091Y-100963D01*
X-185043Y-100011D01*
X-185995Y-99535D01*
X-187424D01*
X-181425D02*
Y-106200D01*
Y-101439D02*
X-179997Y-100011D01*
X-179045Y-99535D01*
X-177616D01*
X-176664Y-100011D01*
X-176188Y-101439D01*
Y-106200D01*
X-173570Y-99535D02*
Y-106200D01*
Y-101439D02*
X-172141Y-100011D01*
X-171189Y-99535D01*
X-169761D01*
X-168809Y-100011D01*
X-168333Y-101439D01*
Y-106200D01*
X-154050Y-96202D02*
X-155002D01*
X-155954Y-96678D01*
X-156430Y-98106D01*
Y-106200D01*
X-157859Y-99535D02*
X-154526D01*
X-150241D02*
X-151193Y-100011D01*
X-152146Y-100963D01*
X-152622Y-102391D01*
Y-103343D01*
X-152146Y-104772D01*
X-151193Y-105724D01*
X-150241Y-106200D01*
X-148813D01*
X-147861Y-105724D01*
X-146909Y-104772D01*
X-146432Y-103343D01*
Y-102391D01*
X-146909Y-100963D01*
X-147861Y-100011D01*
X-148813Y-99535D01*
X-150241D01*
X-144243D02*
Y-106200D01*
Y-102391D02*
X-143766Y-100963D01*
X-142814Y-100011D01*
X-141862Y-99535D01*
X-140434D01*
X-225159Y-123823D02*
X-228968Y-113826D01*
X-232777Y-123823D01*
X-231348Y-120491D02*
X-226587D01*
X-222826Y-113826D02*
X-220446Y-123823D01*
X-218066Y-113826D02*
X-220446Y-123823D01*
X-218066Y-113826D02*
X-215685Y-123823D01*
X-213305Y-113826D02*
X-215685Y-123823D01*
X-205116Y-113826D02*
X-211305D01*
Y-123823D01*
X-205116D01*
X-211305Y-118586D02*
X-207496D01*
X-197737Y-115254D02*
X-198213Y-114302D01*
X-199641Y-113826D01*
X-200593D01*
X-202021Y-114302D01*
X-202974Y-115730D01*
X-203450Y-118110D01*
Y-120491D01*
X-202974Y-122395D01*
X-202021Y-123347D01*
X-200593Y-123823D01*
X-200117D01*
X-198689Y-123347D01*
X-197737Y-122395D01*
X-197260Y-120967D01*
Y-120491D01*
X-197737Y-119062D01*
X-198689Y-118110D01*
X-200117Y-117634D01*
X-200593D01*
X-202021Y-118110D01*
X-202974Y-119062D01*
X-203450Y-120491D01*
X-190310Y-113826D02*
X-195070Y-120491D01*
X-187929D01*
X-190310Y-113826D02*
Y-123823D01*
X-186168Y-125252D02*
X-179502Y-113826D01*
X-170980D02*
X-167172Y-123823D01*
X-163363Y-113826D02*
X-167172Y-123823D01*
X-156364Y-117158D02*
Y-123823D01*
Y-118586D02*
X-157317Y-117634D01*
X-158269Y-117158D01*
X-159697D01*
X-160649Y-117634D01*
X-161601Y-118586D01*
X-162077Y-120015D01*
Y-120967D01*
X-161601Y-122395D01*
X-160649Y-123347D01*
X-159697Y-123823D01*
X-158269D01*
X-157317Y-123347D01*
X-156364Y-122395D01*
X-153698Y-113826D02*
Y-123823D01*
X-151603Y-117158D02*
Y-121919D01*
X-151127Y-123347D01*
X-150175Y-123823D01*
X-148747D01*
X-147795Y-123347D01*
X-146367Y-121919D01*
Y-117158D02*
Y-123823D01*
X-143748Y-120015D02*
X-138035D01*
Y-119062D01*
X-138511Y-118110D01*
X-138987Y-117634D01*
X-139939Y-117158D01*
X-141368D01*
X-142320Y-117634D01*
X-143272Y-118586D01*
X-143748Y-120015D01*
Y-120967D01*
X-143272Y-122395D01*
X-142320Y-123347D01*
X-141368Y-123823D01*
X-139939D01*
X-138987Y-123347D01*
X-138035Y-122395D01*
M02*
